<svg width="252" height="78" viewBox="0 0 252 78" fill="none" xmlns="http://www.w3.org/2000/svg">
<path d="M28.7824 9.70331H11.1824C10.6064 11.3353 9.71038 13.8633 9.07038 15.3033C11.8224 13.7353 14.8624 12.8713 18.0304 12.8713C22.8624 12.8713 27.8864 14.9833 27.8864 20.5513C27.8864 23.6233 26.1904 26.0233 23.5984 27.5273C20.5264 29.3193 16.7824 29.7673 13.2944 29.7673C10.2224 29.7673 7.11838 29.4793 4.11038 28.9033V24.8713C6.99038 25.4153 9.87038 25.7673 12.8144 25.7673C15.5664 25.7673 18.5424 25.4793 20.9744 24.1353C22.3504 23.3993 23.4384 22.0873 23.4384 20.4873C23.4384 17.4153 19.8224 16.5833 17.3904 16.5833C13.6784 16.5833 10.1264 18.0873 7.37438 20.5833H2.99038C4.33438 16.9673 5.55038 13.3193 6.79838 9.70331H0.750375V5.83131H8.07838C8.52638 4.4873 8.97438 3.1433 9.39038 1.7993H13.9024C13.4864 3.17531 13.0064 4.4873 12.5264 5.83131H28.7824V9.70331ZM62.6704 5.5113H60.0144V0.615305H62.6704V5.5113ZM61.5824 27.2073C59.9504 25.7673 58.2224 24.4873 56.3664 23.3673C56.2384 25.2233 55.7904 26.8553 54.3824 28.1993C52.7824 29.6713 50.5104 30.0873 48.4304 30.0873C44.2704 30.0873 40.2064 28.2633 40.2064 23.5273C40.2064 19.0153 44.1424 16.9673 48.2384 16.9673C49.5504 16.9673 50.8944 17.1593 52.1744 17.4473V10.8553H40.8464V6.95131H52.1744V1.86331H56.0144V0.615305H58.6384V5.5113H56.3984V6.95131H61.2304V10.8553H56.3984V18.9193C58.2224 19.8153 59.9504 20.8393 61.5824 22.0873V27.2073ZM38.8944 1.86331C38.4144 7.8793 38.0944 13.8633 38.0944 19.9113C38.0944 23.2393 38.1904 26.5993 38.3824 29.9273H34.0624C33.9344 26.7273 33.9024 23.4953 33.9024 20.2953C33.9024 14.1513 34.1264 8.00731 34.6704 1.86331H38.8944ZM52.1744 21.2873C50.9264 20.8393 49.6144 20.5193 48.2704 20.5193C46.4464 20.5193 44.0464 21.2553 44.0464 23.4633C44.0464 25.6393 46.4464 26.2793 48.2064 26.2793C50.8944 26.2793 52.1744 24.8073 52.1744 22.1833V21.2873ZM78.2224 20.4233C77.1984 22.9513 75.7904 24.9353 73.5824 26.6953C71.5024 28.3273 69.1344 29.3833 66.6384 30.0553V25.8313C68.8144 24.9033 70.7344 23.8793 72.3024 22.0553C74.7024 19.2713 75.4064 15.4633 75.4064 11.8473V9.99131H79.6944V12.0713C79.6944 13.3513 79.5984 14.6313 79.4384 15.9113C81.5824 15.2713 83.5024 14.4073 85.0384 12.6793C86.4784 11.0793 87.1824 9.12731 87.6304 7.04731H65.6144V2.88731H92.6544V3.71931C92.6544 7.68731 91.3104 11.9433 88.6864 14.9513C86.6384 17.2873 83.8544 19.0153 80.8144 19.8153C79.9504 20.0393 79.0864 20.2313 78.2224 20.4233ZM100.666 29.9593V25.8633C103.002 25.5113 105.338 25.1273 107.546 24.1993C109.754 23.2713 111.802 21.9593 113.498 20.2633C116.026 17.7353 117.754 14.4073 118.522 10.9193C118.778 9.67131 119.034 8.39131 119.194 7.11131H106.106C105.082 9.41531 103.802 11.5593 102.042 13.3833C100.25 15.2393 98.2976 16.5513 95.9296 17.4793V12.9353C99.6416 10.4073 101.594 7.30331 102.746 2.9833H124.026V3.65531C124.026 4.7753 123.898 5.99131 123.77 7.20731C123.226 12.7113 121.05 18.8233 117.338 22.7273C114.202 26.0233 109.882 28.3273 105.562 29.2233C103.93 29.5753 102.33 29.8313 100.666 29.9593ZM141.754 20.4233C140.73 22.9513 139.322 24.9353 137.114 26.6953C135.034 28.3273 132.666 29.3833 130.17 30.0553V25.8313C132.346 24.9033 134.266 23.8793 135.834 22.0553C138.234 19.2713 138.938 15.4633 138.938 11.8473V9.99131H143.226V12.0713C143.226 13.3513 143.13 14.6313 142.97 15.9113C145.114 15.2713 147.034 14.4073 148.57 12.6793C150.01 11.0793 150.714 9.12731 151.162 7.04731H129.146V2.88731H156.186V3.71931C156.186 7.68731 154.842 11.9433 152.218 14.9513C150.17 17.2873 147.386 19.0153 144.346 19.8153C143.482 20.0393 142.618 20.2313 141.754 20.4233ZM186.298 7.01531H162.426V2.8553H186.298V7.01531ZM164.73 29.8953V25.7673C168.89 25.4153 173.082 24.7753 176.73 22.6313C178.394 21.6393 179.834 20.3273 180.954 18.7273C181.786 17.5753 182.33 16.2953 182.81 14.9833H160.506V10.9833H188.218V11.5913C188.218 13.3193 187.482 16.2953 186.554 18.4393C185.658 20.4873 184.378 22.3753 182.746 23.9113C179.29 27.1433 174.586 28.9033 169.914 29.4473C168.186 29.6713 166.458 29.7993 164.73 29.8953ZM219.194 1.92731C217.21 6.63131 214.618 9.83131 210.458 12.8073V30.6633H205.818V15.4953C201.434 17.4473 196.826 18.6633 192.09 19.3993V15.1753C197.242 14.0873 202.362 12.7113 206.842 9.86331C208.698 8.64731 210.426 7.20731 211.834 5.47931C212.73 4.39131 213.466 3.17531 214.138 1.92731H219.194ZM239.578 9.54331C235.002 8.55131 230.426 7.8793 225.754 7.52731V3.07931C230.394 3.4313 235.002 4.0393 239.578 4.9353V9.54331ZM251.738 7.5913C251.354 10.5353 250.938 13.5113 249.786 16.2633C248.666 18.8553 247.13 21.2873 245.05 23.2073C241.338 26.6953 236.09 28.4873 231.258 29.0953C229.562 29.3193 227.834 29.4473 226.138 29.5433V25.1913C230.586 24.7433 235.226 24.1673 239.13 21.7993C241.882 20.1033 244.026 17.5753 245.338 14.5993C246.298 12.3913 246.682 9.95931 247.034 7.5913H251.738ZM80.356 70.3113C82.116 72.7753 83.844 75.2393 85.444 77.7993H79.94C76.356 72.0713 72.324 66.6633 68.004 61.5113H73.54C74.98 63.3033 76.42 65.0953 77.828 66.9193C80.196 65.7993 82.372 64.4233 84.132 62.4393C85.924 60.3593 86.916 58.1513 87.652 55.5273H64.228V51.3993H92.996V51.6233C92.996 53.2233 92.388 56.0393 91.716 58.0233C91.044 60.0393 90.116 61.9273 88.836 63.6553C86.532 66.8233 83.844 68.6473 80.356 70.3113ZM122.532 55.0153H98.66V50.8553H122.532V55.0153ZM100.964 77.8953V73.7673C105.124 73.4153 109.316 72.7753 112.964 70.6313C114.628 69.6393 116.068 68.3273 117.188 66.7273C118.02 65.5753 118.564 64.2953 119.044 62.9833H96.74V58.9833H124.452V59.5913C124.452 61.3193 123.716 64.2953 122.788 66.4393C121.892 68.4873 120.612 70.3753 118.98 71.9113C115.524 75.1433 110.82 76.9033 106.148 77.4473C104.42 77.6713 102.692 77.7993 100.964 77.8953ZM156.068 50.9193C155.844 54.3753 155.556 57.8953 154.5 61.2233C153.508 64.3273 152.068 67.3033 149.924 69.7993C147.044 73.1913 143.108 75.6873 138.82 76.9033C137.348 77.3193 135.876 77.6713 134.372 77.9913V73.7353C136.452 73.1913 138.564 72.5833 140.516 71.5913C142.788 70.4393 144.868 68.8393 146.5 66.8233C148.26 64.6473 149.476 61.9913 150.244 59.3033C151.012 56.5833 151.236 53.7353 151.428 50.9193H156.068ZM138.084 64.1673H133.22C131.876 59.6873 130.244 55.3353 128.356 51.0793H133.188C135.076 55.3353 136.676 59.7193 138.084 64.1673ZM175.812 57.5433C171.236 56.5513 166.66 55.8793 161.988 55.5273V51.0793C166.628 51.4313 171.236 52.0393 175.812 52.9353V57.5433ZM187.972 55.5913C187.588 58.5353 187.172 61.5113 186.02 64.2633C184.9 66.8553 183.364 69.2873 181.284 71.2073C177.572 74.6953 172.324 76.4873 167.492 77.0953C165.796 77.3193 164.068 77.4473 162.372 77.5433V73.1913C166.82 72.7433 171.46 72.1673 175.364 69.7993C178.116 68.1033 180.26 65.5753 181.572 62.5993C182.532 60.3913 182.916 57.9593 183.268 55.5913H187.972Z" fill="#0176C3"/>
</svg>
