<svg width="480" height="88" viewBox="0 0 480 88" fill="none" xmlns="http://www.w3.org/2000/svg">
<path d="M37.56 11.36H15.56C14.84 13.4 13.72 16.56 12.92 18.36C16.36 16.4 20.16 15.32 24.12 15.32C30.16 15.32 36.44 17.96 36.44 24.92C36.44 28.76 34.32 31.76 31.08 33.64C27.24 35.88 22.56 36.44 18.2 36.44C14.36 36.44 10.48 36.08 6.72 35.36V30.32C10.32 31 13.92 31.44 17.6 31.44C21.04 31.44 24.76 31.08 27.8 29.4C29.52 28.48 30.88 26.84 30.88 24.84C30.88 21 26.36 19.96 23.32 19.96C18.68 19.96 14.24 21.84 10.8 24.96H5.32C7 20.44 8.52 15.88 10.08 11.36H2.52V6.52003H11.68C12.24 4.84003 12.8 3.16003 13.32 1.48003H18.96C18.44 3.20003 17.84 4.84003 17.24 6.52003H37.56V11.36ZM79.92 6.12003H76.6V2.71797e-05H79.92V6.12003ZM78.56 33.24C76.52 31.44 74.36 29.84 72.04 28.44C71.88 30.76 71.32 32.8 69.56 34.48C67.56 36.32 64.72 36.84 62.12 36.84C56.92 36.84 51.84 34.56 51.84 28.64C51.84 23 56.76 20.44 61.88 20.44C63.52 20.44 65.2 20.68 66.8 21.04V12.8H52.64V7.92003H66.8V1.56003H71.6V2.71797e-05H74.88V6.12003H72.08V7.92003H78.12V12.8H72.08V22.88C74.36 24 76.52 25.28 78.56 26.84V33.24ZM50.2 1.56003C49.6 9.08003 49.2 16.56 49.2 24.12C49.2 28.28 49.32 32.48 49.56 36.64H44.16C44 32.64 43.96 28.6 43.96 24.6C43.96 16.92 44.24 9.24003 44.92 1.56003H50.2ZM66.8 25.84C65.24 25.28 63.6 24.88 61.92 24.88C59.64 24.88 56.64 25.8 56.64 28.56C56.64 31.28 59.64 32.08 61.84 32.08C65.2 32.08 66.8 30.24 66.8 26.96V25.84ZM99.36 24.76C98.08 27.92 96.32 30.4 93.56 32.6C90.96 34.64 88 35.96 84.88 36.8V31.52C87.6 30.36 90 29.08 91.96 26.8C94.96 23.32 95.84 18.56 95.84 14.04V11.72H101.2V14.32C101.2 15.92 101.08 17.52 100.88 19.12C103.56 18.32 105.96 17.24 107.88 15.08C109.68 13.08 110.56 10.64 111.12 8.04003H83.6V2.84003H117.4V3.88003C117.4 8.84003 115.72 14.16 112.44 17.92C109.88 20.84 106.4 23 102.6 24C101.52 24.28 100.44 24.52 99.36 24.76ZM127.414 36.68V31.56C130.334 31.12 133.254 30.64 136.014 29.48C138.774 28.32 141.334 26.68 143.454 24.56C146.614 21.4 148.774 17.24 149.734 12.88C150.054 11.32 150.374 9.72003 150.574 8.12003H134.214C132.934 11 131.334 13.68 129.134 15.96C126.894 18.28 124.454 19.92 121.494 21.08V15.4C126.134 12.24 128.574 8.36003 130.014 2.96003H156.614V3.80003C156.614 5.20003 156.454 6.72003 156.294 8.24003C155.614 15.12 152.894 22.76 148.254 27.64C144.334 31.76 138.934 34.64 133.534 35.76C131.494 36.2 129.494 36.52 127.414 36.68ZM178.774 24.76C177.494 27.92 175.734 30.4 172.974 32.6C170.374 34.64 167.414 35.96 164.294 36.8V31.52C167.014 30.36 169.414 29.08 171.374 26.8C174.374 23.32 175.254 18.56 175.254 14.04V11.72H180.614V14.32C180.614 15.92 180.494 17.52 180.294 19.12C182.974 18.32 185.374 17.24 187.294 15.08C189.094 13.08 189.974 10.64 190.534 8.04003H163.014V2.84003H196.814V3.88003C196.814 8.84003 195.134 14.16 191.854 17.92C189.294 20.84 185.814 23 182.014 24C180.934 24.28 179.854 24.52 178.774 24.76ZM234.454 8.00003H204.614V2.80003H234.454V8.00003ZM207.494 36.6V31.44C212.694 31 217.934 30.2 222.494 27.52C224.574 26.28 226.374 24.64 227.774 22.64C228.814 21.2 229.494 19.6 230.094 17.96H202.214V12.96H236.854V13.72C236.854 15.88 235.934 19.6 234.774 22.28C233.654 24.84 232.054 27.2 230.014 29.12C225.694 33.16 219.814 35.36 213.974 36.04C211.814 36.32 209.654 36.48 207.494 36.6ZM275.574 1.64003C273.094 7.52003 269.854 11.52 264.654 15.24V37.56H258.854V18.6C253.374 21.04 247.614 22.56 241.694 23.48V18.2C248.134 16.84 254.534 15.12 260.134 11.56C262.454 10.04 264.614 8.24003 266.374 6.08003C267.494 4.72003 268.414 3.20003 269.254 1.64003H275.574ZM301.054 11.16C295.334 9.92003 289.614 9.08003 283.774 8.64003V3.08003C289.574 3.52003 295.334 4.28003 301.054 5.40003V11.16ZM316.254 8.72003C315.774 12.4 315.254 16.12 313.814 19.56C312.414 22.8 310.494 25.84 307.894 28.24C303.254 32.6 296.694 34.84 290.654 35.6C288.534 35.88 286.374 36.04 284.254 36.16V30.72C289.814 30.16 295.614 29.44 300.494 26.48C303.934 24.36 306.614 21.2 308.254 17.48C309.454 14.72 309.934 11.68 310.374 8.72003H316.254ZM341.734 27.12C343.934 30.2 346.094 33.28 348.094 36.48H341.214C336.734 29.32 331.694 22.56 326.294 16.12H333.214C335.014 18.36 336.814 20.6 338.574 22.88C341.534 21.48 344.254 19.76 346.454 17.28C348.694 14.68 349.934 11.92 350.854 8.64003H321.574V3.48003H357.534V3.76003C357.534 5.76003 356.774 9.28003 355.934 11.76C355.094 14.28 353.934 16.64 352.334 18.8C349.454 22.76 346.094 25.04 341.734 27.12ZM394.454 8.00003H364.614V2.80003H394.454V8.00003ZM367.494 36.6V31.44C372.694 31 377.934 30.2 382.494 27.52C384.574 26.28 386.374 24.64 387.774 22.64C388.814 21.2 389.494 19.6 390.094 17.96H362.214V12.96H396.854V13.72C396.854 15.88 395.934 19.6 394.774 22.28C393.654 24.84 392.054 27.2 390.014 29.12C385.694 33.16 379.814 35.36 373.974 36.04C371.814 36.32 369.654 36.48 367.494 36.6ZM436.374 2.88003C436.094 7.20003 435.734 11.6 434.414 15.76C433.174 19.64 431.374 23.36 428.694 26.48C425.094 30.72 420.174 33.84 414.814 35.36C412.974 35.88 411.134 36.32 409.254 36.72V31.4C411.854 30.72 414.494 29.96 416.934 28.72C419.774 27.28 422.374 25.28 424.414 22.76C426.614 20.04 428.134 16.72 429.094 13.36C430.054 9.96003 430.334 6.40003 430.574 2.88003H436.374ZM413.894 19.44H407.814C406.134 13.84 404.094 8.40003 401.734 3.08003H407.774C410.134 8.40003 412.134 13.88 413.894 19.44ZM461.054 11.16C455.334 9.92003 449.614 9.08003 443.774 8.64003V3.08003C449.574 3.52003 455.334 4.28003 461.054 5.40003V11.16ZM476.254 8.72003C475.774 12.4 475.254 16.12 473.814 19.56C472.414 22.8 470.494 25.84 467.894 28.24C463.254 32.6 456.694 34.84 450.654 35.6C448.534 35.88 446.374 36.04 444.254 36.16V30.72C449.814 30.16 455.614 29.44 460.494 26.48C463.934 24.36 466.614 21.2 468.254 17.48C469.454 14.72 469.934 11.68 470.374 8.72003H476.254Z" fill="#0000FF"/>
<path d="M8.544 72.032C8.232 72.344 7.92 72.68 7.608 72.968L5.4 70.832C7.464 69.2 8.88 67.28 9.768 64.808L12.768 65.168C12.576 65.72 12.408 66.2 12.192 66.752H23.28V69.392H10.704C10.296 69.968 9.888 70.52 9.456 71.024H22.224C22.224 72.752 22.2 74.456 22.176 76.16H23.28V78.632H22.104C22.08 79.568 22.032 80.528 21.96 81.464H22.944V83.984H21.696C21.48 85.904 21.024 87.464 18.72 87.464H15.312L14.856 85.184H17.784C18.648 85.184 18.792 84.728 18.888 83.984H9.864C9.72 84.632 9.576 85.232 9.36 85.88L6.456 85.16C7.176 83 7.632 80.888 7.944 78.632H6.744V76.16H8.232C8.376 74.792 8.448 73.424 8.544 72.032ZM2.88 64.928C4.344 65.48 5.856 66.296 7.032 67.328L5.28 69.8C4.008 68.72 2.784 68 1.296 67.256L2.88 64.928ZM1.872 71.312C3.36 71.912 4.752 72.68 5.976 73.712L4.32 76.208C2.976 75.104 1.896 74.408 0.336 73.664L1.872 71.312ZM11.064 76.16H13.872C13.944 75.272 13.992 74.384 14.016 73.52H11.28C11.232 74.384 11.184 75.272 11.064 76.16ZM19.368 76.16C19.368 75.272 19.368 74.384 19.368 73.52H16.68C16.656 74.384 16.608 75.272 16.56 76.16H19.368ZM6.672 78.944C5.784 81.776 4.032 85.136 2.208 87.464L0.24 84.776C1.944 82.664 3.408 79.76 4.368 77.216L6.672 78.944ZM10.776 78.632C10.656 79.568 10.488 80.528 10.344 81.464H13.176C13.368 80.528 13.512 79.568 13.632 78.632H10.776ZM19.128 81.464C19.176 80.528 19.248 79.568 19.296 78.632H16.368C16.272 79.568 16.152 80.528 15.984 81.464H19.128ZM46.272 76.256C44.472 76.4 42.696 76.688 40.92 77.096C41.16 78.824 41.208 80.552 41.208 82.304H38.184C38.184 80.84 38.184 79.4 38.016 77.936C36.528 78.512 33.384 79.712 33.384 81.656C33.384 83.888 37.68 83.912 39.216 83.912C41.304 83.912 43.392 83.696 45.48 83.384V86.456C43.44 86.696 41.376 86.864 39.336 86.864C35.976 86.864 30.096 86.504 30.096 81.92C30.096 78.392 34.344 76.376 37.128 75.248C36.792 74.936 36.384 74.768 35.928 74.768C33.624 74.768 31.68 76.232 30.072 77.696C28.608 79.112 27.144 80.528 25.68 81.944V78.056C28.032 75.896 30.096 73.472 31.704 70.736H26.304V67.904H33.192C33.576 67.112 33.912 66.296 34.2 65.48H37.56C37.248 66.296 36.912 67.112 36.552 67.904H45.528V70.736H35.112C34.656 71.528 34.152 72.296 33.624 73.04C34.488 72.56 35.64 72.32 36.576 72.32C38.16 72.32 39.288 72.896 40.08 74.288C42.12 73.76 44.184 73.4 46.272 73.232V76.256ZM58.536 83.408V74.816H48.696V72.032H58.536V69.656H50.544V66.896H58.536V64.88H61.488V66.896H69.552V69.656H61.488V72.032H71.304V74.816H61.488V77.528H69.552V80.312H61.488V84.056C61.8 84.08 62.112 84.08 62.424 84.08H71.664L70.944 86.936H62.112C60.456 86.936 58.056 86.504 56.496 85.592C55.368 84.92 54.48 84.008 53.808 82.904C52.944 84.752 51.864 86.096 50.424 87.488L48.24 85.112C49.68 83.72 50.664 82.376 51.312 80.888C51.984 79.424 52.32 77.84 52.488 75.896L55.488 76.256C55.344 77.528 55.152 78.656 54.864 79.904C55.584 81.608 56.808 82.76 58.536 83.408ZM77.208 86.192V83.072C79.056 83.456 80.928 83.672 82.824 83.672C85.584 83.672 90.912 83.024 90.912 79.304C90.912 76.568 87.912 76.016 85.752 76.016C81.336 76.016 77.256 78.128 73.728 80.576V77.168L85.368 69.2H76.08V66.272H91.344V68.552L83.688 73.76C84.768 73.448 85.92 73.352 87.048 73.352C90.912 73.352 94.224 75.008 94.224 79.328C94.224 81.8 93 83.816 90.864 85.04C88.584 86.384 85.656 86.696 83.04 86.696C81.072 86.696 79.128 86.504 77.208 86.192ZM114.816 69.728C110.04 69.32 105.264 69.296 100.488 69.296V66.272C105.264 66.272 110.04 66.272 114.816 66.56V69.728ZM101.232 86.624V83.528C104.304 83.432 108 83.192 110.832 81.968C112.68 81.152 114.528 79.76 114.528 77.552C114.528 74.6 111.048 74.264 108.816 74.264C105.12 74.264 101.448 74.984 97.896 75.92V72.704C101.544 71.864 105.312 71.24 109.08 71.24C113.328 71.24 117.96 72.368 117.96 77.528C117.96 80.336 116.472 82.592 114.096 83.984C112.272 85.04 110.184 85.64 108.144 86.024C105.864 86.432 103.536 86.528 101.232 86.624ZM129 76.088C129.72 74.984 130.272 74.264 131.472 73.616C132.192 73.208 132.984 72.968 133.8 72.968C135.288 72.968 136.44 73.712 137.592 74.6C138.768 75.488 139.656 76.136 140.568 76.136C141.768 76.136 142.824 74.768 143.4 73.856L145.2 75.512C144.168 77.288 142.488 78.656 140.352 78.656C138.864 78.656 137.976 78.08 136.632 77C135.864 76.376 134.76 75.56 133.728 75.56C133.128 75.56 132.336 76.016 131.88 76.4C131.4 76.808 131.112 77.192 130.824 77.744L129 76.088ZM157.819 79.568C157.051 81.464 155.995 82.952 154.339 84.272C152.779 85.496 151.003 86.288 149.131 86.792V83.624C150.763 82.928 152.203 82.16 153.379 80.792C155.179 78.704 155.707 75.848 155.707 73.136V71.744H158.923V73.304C158.923 74.264 158.851 75.224 158.731 76.184C160.339 75.704 161.779 75.056 162.931 73.76C164.011 72.56 164.539 71.096 164.875 69.536H148.363V66.416H168.643V67.04C168.643 70.016 167.635 73.208 165.667 75.464C164.131 77.216 162.043 78.512 159.763 79.112C159.115 79.28 158.467 79.424 157.819 79.568ZM174.652 86.72V83.648C176.404 83.384 178.156 83.096 179.812 82.4C181.468 81.704 183.004 80.72 184.276 79.448C186.172 77.552 187.468 75.056 188.044 72.44C188.236 71.504 188.428 70.544 188.548 69.584H178.732C177.964 71.312 177.004 72.92 175.684 74.288C174.34 75.68 172.876 76.664 171.1 77.36V73.952C173.884 72.056 175.348 69.728 176.212 66.488H192.172V66.992C192.172 67.832 192.076 68.744 191.98 69.656C191.572 73.784 189.94 78.368 187.156 81.296C184.804 83.768 181.564 85.496 178.324 86.168C177.1 86.432 175.9 86.624 174.652 86.72ZM205.468 79.568C204.7 81.464 203.644 82.952 201.988 84.272C200.428 85.496 198.652 86.288 196.78 86.792V83.624C198.412 82.928 199.852 82.16 201.028 80.792C202.828 78.704 203.356 75.848 203.356 73.136V71.744H206.572V73.304C206.572 74.264 206.5 75.224 206.38 76.184C207.988 75.704 209.428 75.056 210.58 73.76C211.66 72.56 212.188 71.096 212.524 69.536H196.012V66.416H216.292V67.04C216.292 70.016 215.284 73.208 213.316 75.464C211.78 77.216 209.692 78.512 207.412 79.112C206.764 79.28 206.116 79.424 205.468 79.568ZM238.876 69.512H220.972V66.392H238.876V69.512ZM222.7 86.672V83.576C225.82 83.312 228.964 82.832 231.7 81.224C232.948 80.48 234.028 79.496 234.868 78.296C235.492 77.432 235.9 76.472 236.26 75.488H219.532V72.488H240.316V72.944C240.316 74.24 239.764 76.472 239.068 78.08C238.396 79.616 237.436 81.032 236.212 82.184C233.62 84.608 230.092 85.928 226.588 86.336C225.292 86.504 223.996 86.6 222.7 86.672ZM263.548 65.696C262.06 69.224 260.116 71.624 256.996 73.856V87.248H253.516V75.872C250.228 77.336 246.772 78.248 243.22 78.8V75.632C247.084 74.816 250.924 73.784 254.284 71.648C255.676 70.736 256.972 69.656 258.028 68.36C258.7 67.544 259.252 66.632 259.756 65.696H263.548ZM278.836 71.408C275.404 70.664 271.972 70.16 268.468 69.896V66.56C271.948 66.824 275.404 67.28 278.836 67.952V71.408ZM287.956 69.944C287.668 72.152 287.356 74.384 286.492 76.448C285.652 78.392 284.5 80.216 282.94 81.656C280.156 84.272 276.22 85.616 272.596 86.072C271.324 86.24 270.028 86.336 268.756 86.408V83.144C272.092 82.808 275.572 82.376 278.5 80.6C280.564 79.328 282.172 77.432 283.156 75.2C283.876 73.544 284.164 71.72 284.428 69.944H287.956ZM302.236 86.528V83.48C304.324 83.192 306.124 82.592 307.612 80.96C308.86 79.592 309.388 77.72 309.388 75.872C309.388 74.336 308.98 72.824 307.996 71.624C306.94 70.352 305.62 69.8 304.036 69.416C303.484 73.496 302.668 78.8 300.676 82.448C299.812 84.032 298.516 85.448 296.572 85.448C295.036 85.448 293.692 84.512 292.804 83.336C291.58 81.704 291.1 79.64 291.1 77.624C291.1 71.048 295.924 66.344 302.524 66.344C308.404 66.344 312.676 69.92 312.676 75.968C312.676 78.656 311.908 81.392 310.012 83.336C308.476 84.92 306.34 86 304.132 86.312C303.508 86.408 302.956 86.504 302.236 86.528ZM300.892 69.32C298.972 69.656 297.58 70.304 296.284 71.792C294.892 73.376 294.172 75.512 294.172 77.6C294.172 78.896 294.436 80.288 295.252 81.344C295.54 81.728 295.948 82.184 296.476 82.184C297.508 82.184 298.3 80.12 298.612 79.328C299.788 76.28 300.46 72.632 300.892 69.32ZM316.276 65.576H335.044C334.876 68.744 334.756 71.912 334.756 75.08C334.756 77.648 334.828 79.784 335.068 82.328C335.092 82.592 335.164 82.856 335.332 82.856C335.548 82.856 335.62 82.64 335.74 82.136C335.836 81.704 335.98 81.008 336.076 80.528L337.588 82.688C337.468 83.408 337.204 84.632 336.796 85.592C336.364 86.6 335.716 87.44 334.756 87.44C334.036 87.44 333.484 86.816 333.172 86.24C332.74 85.424 332.14 82.28 332.044 80.192C331.924 77.312 331.924 75.176 331.924 72.704C331.924 71.048 331.924 69.632 331.924 68.264H319.108V75.896C319.108 79.496 318.652 84.392 316.732 87.488L314.26 85.184C315.868 82.616 316.276 78.92 316.276 75.92V65.576ZM329.452 85.592C326.212 86 322.612 86.192 319.348 86.288L319.036 83.456C320.74 83.456 322.468 83.456 324.196 83.408V80.48H320.188V73.28H324.196V71.936C322.804 71.96 321.412 71.984 320.044 71.984L319.612 69.728C323.164 69.728 326.884 69.704 330.388 69.08L331.42 71.48C329.86 71.672 328.3 71.816 326.716 71.888V73.28H330.796V80.48H326.716V83.36C327.34 83.336 327.964 83.312 328.564 83.264C328.372 82.808 328.18 82.352 327.964 81.872L330.316 81.152C331.204 82.76 331.972 84.488 332.404 86.288L329.836 87.104C329.716 86.6 329.596 86.096 329.452 85.592ZM324.196 75.512H322.492V78.224H324.196V75.512ZM328.396 75.512H326.716V78.224H328.396V75.512ZM344.428 65.768C343.996 70.232 343.66 74.72 343.66 79.208C343.66 81.704 343.732 84.176 343.852 86.672H340.588C340.516 84.368 340.468 82.064 340.468 79.76C340.468 75.08 340.708 70.424 341.14 65.768H344.428ZM359.428 70.688H346.42V67.544H359.428V70.688ZM359.956 85.376C357.988 85.736 355.972 85.976 353.956 85.976C350.284 85.976 345.364 85.088 345.364 80.432C345.364 78.32 346.42 76.376 347.716 74.792H351.532C350.164 76.208 348.58 78.008 348.58 80.072C348.58 82.64 352.108 82.784 353.956 82.784C355.972 82.784 357.988 82.496 359.956 82.088V85.376ZM374.236 86.528V83.48C376.324 83.192 378.124 82.592 379.612 80.96C380.86 79.592 381.388 77.72 381.388 75.872C381.388 74.336 380.98 72.824 379.996 71.624C378.94 70.352 377.62 69.8 376.036 69.416C375.484 73.496 374.668 78.8 372.676 82.448C371.812 84.032 370.516 85.448 368.572 85.448C367.036 85.448 365.692 84.512 364.804 83.336C363.58 81.704 363.1 79.64 363.1 77.624C363.1 71.048 367.924 66.344 374.524 66.344C380.404 66.344 384.676 69.92 384.676 75.968C384.676 78.656 383.908 81.392 382.012 83.336C380.476 84.92 378.34 86 376.132 86.312C375.508 86.408 374.956 86.504 374.236 86.528ZM372.892 69.32C370.972 69.656 369.58 70.304 368.284 71.792C366.892 73.376 366.172 75.512 366.172 77.6C366.172 78.896 366.436 80.288 367.252 81.344C367.54 81.728 367.948 82.184 368.476 82.184C369.508 82.184 370.3 80.12 370.612 79.328C371.788 76.28 372.46 72.632 372.892 69.32ZM393.196 85.4V82.52C396.748 82.448 403.996 82.136 403.996 77.168C403.996 74.216 401.164 73.424 398.716 73.424C395.236 73.424 391.828 74.312 388.516 75.32V72.296C391.828 71.288 395.26 70.472 398.764 70.472C403.06 70.472 407.236 72.056 407.236 77.048C407.236 79.856 405.82 82.16 403.396 83.504C400.276 85.232 396.676 85.4 393.196 85.4ZM431.444 69.92L428.828 70.04C424.82 70.232 419.396 73.424 419.396 77.888C419.396 80.024 420.668 81.512 422.588 82.304C424.7 83.168 427.076 83.288 429.332 83.312V86.576C426.548 86.576 423.836 86.432 421.244 85.376C418.124 84.08 416.084 81.608 416.084 78.152C416.084 76.184 416.828 74.288 418.052 72.728C418.892 71.648 419.9 70.808 421.028 70.04L410.972 70.376V67.232L431.444 66.824V69.92ZM434.156 76.088C434.876 74.984 435.428 74.264 436.628 73.616C437.348 73.208 438.14 72.968 438.956 72.968C440.444 72.968 441.596 73.712 442.748 74.6C443.924 75.488 444.812 76.136 445.724 76.136C446.924 76.136 447.98 74.768 448.556 73.856L450.356 75.512C449.324 77.288 447.644 78.656 445.508 78.656C444.02 78.656 443.132 78.08 441.788 77C441.02 76.376 439.916 75.56 438.884 75.56C438.284 75.56 437.492 76.016 437.036 76.4C436.556 76.808 436.268 77.192 435.98 77.744L434.156 76.088Z" fill="#0000FF"/>
</svg>
