<svg width="475" height="38" viewBox="0 0 475 38" fill="none" xmlns="http://www.w3.org/2000/svg">
<path d="M35.56 11.4137H13.56C12.84 13.4537 11.72 16.6137 10.92 18.4137C14.36 16.4537 18.16 15.3737 22.12 15.3737C28.16 15.3737 34.44 18.0137 34.44 24.9737C34.44 28.8137 32.32 31.8137 29.08 33.6937C25.24 35.9337 20.56 36.4937 16.2 36.4937C12.36 36.4937 8.48 36.1337 4.72 35.4137V30.3737C8.32 31.0537 11.92 31.4937 15.6 31.4937C19.04 31.4937 22.76 31.1337 25.8 29.4537C27.52 28.5337 28.88 26.8937 28.88 24.8937C28.88 21.0537 24.36 20.0137 21.32 20.0137C16.68 20.0137 12.24 21.8937 8.8 25.0137H3.32C5 20.4937 6.52 15.9337 8.08 11.4137H0.52V6.57374H9.68C10.24 4.89374 10.8 3.21374 11.32 1.53374H16.96C16.44 3.25374 15.84 4.89374 15.24 6.57374H35.56V11.4137ZM77.92 6.17374H74.6V0.0537381H77.92V6.17374ZM76.56 33.2937C74.52 31.4937 72.36 29.8937 70.04 28.4937C69.88 30.8137 69.32 32.8537 67.56 34.5337C65.56 36.3737 62.72 36.8937 60.12 36.8937C54.92 36.8937 49.84 34.6137 49.84 28.6937C49.84 23.0537 54.76 20.4937 59.88 20.4937C61.52 20.4937 63.2 20.7337 64.8 21.0937V12.8537H50.64V7.97374H64.8V1.61374H69.6V0.0537381H72.88V6.17374H70.08V7.97374H76.12V12.8537H70.08V22.9337C72.36 24.0537 74.52 25.3337 76.56 26.8937V33.2937ZM48.2 1.61374C47.6 9.13374 47.2 16.6137 47.2 24.1737C47.2 28.3337 47.32 32.5337 47.56 36.6937H42.16C42 32.6937 41.96 28.6537 41.96 24.6537C41.96 16.9737 42.24 9.29374 42.92 1.61374H48.2ZM64.8 25.8937C63.24 25.3337 61.6 24.9337 59.92 24.9337C57.64 24.9337 54.64 25.8537 54.64 28.6137C54.64 31.3337 57.64 32.1337 59.84 32.1337C63.2 32.1337 64.8 30.2937 64.8 27.0137V25.8937ZM97.36 24.8137C96.08 27.9737 94.32 30.4537 91.56 32.6537C88.96 34.6937 86 36.0137 82.88 36.8537V31.5737C85.6 30.4137 88 29.1337 89.96 26.8537C92.96 23.3737 93.84 18.6137 93.84 14.0937V11.7737H99.2V14.3737C99.2 15.9737 99.08 17.5737 98.88 19.1737C101.56 18.3737 103.96 17.2937 105.88 15.1337C107.68 13.1337 108.56 10.6937 109.12 8.09374H81.6V2.89374H115.4V3.93374C115.4 8.89374 113.72 14.2137 110.44 17.9737C107.88 20.8937 104.4 23.0537 100.6 24.0537C99.52 24.3337 98.44 24.5737 97.36 24.8137ZM125.414 36.7337V31.6137C128.334 31.1737 131.254 30.6937 134.014 29.5337C136.774 28.3737 139.334 26.7337 141.454 24.6137C144.614 21.4537 146.774 17.2937 147.734 12.9337C148.054 11.3737 148.374 9.77374 148.574 8.17374H132.214C130.934 11.0537 129.334 13.7337 127.134 16.0137C124.894 18.3337 122.454 19.9737 119.494 21.1337V15.4537C124.134 12.2937 126.574 8.41374 128.014 3.01374H154.614V3.85374C154.614 5.25374 154.454 6.77374 154.294 8.29374C153.614 15.1737 150.894 22.8137 146.254 27.6937C142.334 31.8137 136.934 34.6937 131.534 35.8137C129.494 36.2537 127.494 36.5737 125.414 36.7337ZM176.774 24.8137C175.494 27.9737 173.734 30.4537 170.974 32.6537C168.374 34.6937 165.414 36.0137 162.294 36.8537V31.5737C165.014 30.4137 167.414 29.1337 169.374 26.8537C172.374 23.3737 173.254 18.6137 173.254 14.0937V11.7737H178.614V14.3737C178.614 15.9737 178.494 17.5737 178.294 19.1737C180.974 18.3737 183.374 17.2937 185.294 15.1337C187.094 13.1337 187.974 10.6937 188.534 8.09374H161.014V2.89374H194.814V3.93374C194.814 8.89374 193.134 14.2137 189.854 17.9737C187.294 20.8937 183.814 23.0537 180.014 24.0537C178.934 24.3337 177.854 24.5737 176.774 24.8137ZM232.454 8.05374H202.614V2.85374H232.454V8.05374ZM205.494 36.6537V31.4937C210.694 31.0537 215.934 30.2537 220.494 27.5737C222.574 26.3337 224.374 24.6937 225.774 22.6937C226.814 21.2537 227.494 19.6537 228.094 18.0137H200.214V13.0137H234.854V13.7737C234.854 15.9337 233.934 19.6537 232.774 22.3337C231.654 24.8937 230.054 27.2537 228.014 29.1737C223.694 33.2137 217.814 35.4137 211.974 36.0937C209.814 36.3737 207.654 36.5337 205.494 36.6537ZM273.574 1.69374C271.094 7.57374 267.854 11.5737 262.654 15.2937V37.6137H256.854V18.6537C251.374 21.0937 245.614 22.6137 239.694 23.5337V18.2537C246.134 16.8937 252.534 15.1737 258.134 11.6137C260.454 10.0937 262.614 8.29374 264.374 6.13374C265.494 4.77374 266.414 3.25374 267.254 1.69374H273.574ZM299.054 11.2137C293.334 9.97374 287.614 9.13374 281.774 8.69374V3.13374C287.574 3.57374 293.334 4.33374 299.054 5.45374V11.2137ZM314.254 8.77374C313.774 12.4537 313.254 16.1737 311.814 19.6137C310.414 22.8537 308.494 25.8937 305.894 28.2937C301.254 32.6537 294.694 34.8937 288.654 35.6537C286.534 35.9337 284.374 36.0937 282.254 36.2137V30.7737C287.814 30.2137 293.614 29.4937 298.494 26.5337C301.934 24.4137 304.614 21.2537 306.254 17.5337C307.454 14.7737 307.934 11.7337 308.374 8.77374H314.254ZM339.734 27.1737C341.934 30.2537 344.094 33.3337 346.094 36.5337H339.214C334.734 29.3737 329.694 22.6137 324.294 16.1737H331.214C333.014 18.4137 334.814 20.6537 336.574 22.9337C339.534 21.5337 342.254 19.8137 344.454 17.3337C346.694 14.7337 347.934 11.9737 348.854 8.69374H319.574V3.53374H355.534V3.81374C355.534 5.81374 354.774 9.33374 353.934 11.8137C353.094 14.3337 351.934 16.6937 350.334 18.8537C347.454 22.8137 344.094 25.0937 339.734 27.1737ZM392.454 8.05374H362.614V2.85374H392.454V8.05374ZM365.494 36.6537V31.4937C370.694 31.0537 375.934 30.2537 380.494 27.5737C382.574 26.3337 384.374 24.6937 385.774 22.6937C386.814 21.2537 387.494 19.6537 388.094 18.0137H360.214V13.0137H394.854V13.7737C394.854 15.9337 393.934 19.6537 392.774 22.3337C391.654 24.8937 390.054 27.2537 388.014 29.1737C383.694 33.2137 377.814 35.4137 371.974 36.0937C369.814 36.3737 367.654 36.5337 365.494 36.6537ZM434.374 2.93374C434.094 7.25374 433.734 11.6537 432.414 15.8137C431.174 19.6937 429.374 23.4137 426.694 26.5337C423.094 30.7737 418.174 33.8937 412.814 35.4137C410.974 35.9337 409.134 36.3737 407.254 36.7737V31.4537C409.854 30.7737 412.494 30.0137 414.934 28.7737C417.774 27.3337 420.374 25.3337 422.414 22.8137C424.614 20.0937 426.134 16.7737 427.094 13.4137C428.054 10.0137 428.334 6.45374 428.574 2.93374H434.374ZM411.894 19.4937H405.814C404.134 13.8937 402.094 8.45374 399.734 3.13374H405.774C408.134 8.45374 410.134 13.9337 411.894 19.4937ZM459.054 11.2137C453.334 9.97374 447.614 9.13374 441.774 8.69374V3.13374C447.574 3.57374 453.334 4.33374 459.054 5.45374V11.2137ZM474.254 8.77374C473.774 12.4537 473.254 16.1737 471.814 19.6137C470.414 22.8537 468.494 25.8937 465.894 28.2937C461.254 32.6537 454.694 34.8937 448.654 35.6537C446.534 35.9337 444.374 36.0937 442.254 36.2137V30.7737C447.814 30.2137 453.614 29.4937 458.494 26.5337C461.934 24.4137 464.614 21.2537 466.254 17.5337C467.454 14.7737 467.934 11.7337 468.374 8.77374H474.254Z" fill="white"/>
</svg>
