<svg width="343" height="150" viewBox="0 0 343 150" fill="none" xmlns="http://www.w3.org/2000/svg">
<path d="M73.7824 9.08807H56.1824C55.6064 10.7201 54.7104 13.2481 54.0704 14.6881C56.8224 13.1201 59.8624 12.2561 63.0304 12.2561C67.8624 12.2561 72.8864 14.3681 72.8864 19.9361C72.8864 23.0081 71.1904 25.4081 68.5984 26.9121C65.5264 28.7041 61.7824 29.1521 58.2944 29.1521C55.2224 29.1521 52.1184 28.8641 49.1104 28.2881V24.2561C51.9904 24.8001 54.8704 25.1521 57.8144 25.1521C60.5664 25.1521 63.5424 24.8641 65.9744 23.5201C67.3504 22.7841 68.4384 21.4721 68.4384 19.8721C68.4384 16.8001 64.8224 15.9681 62.3904 15.9681C58.6784 15.9681 55.1264 17.4721 52.3744 19.9681H47.9904C49.3344 16.3521 50.5504 12.7041 51.7984 9.08807H45.7504V5.21607H53.0784C53.5264 3.87207 53.9744 2.52807 54.3904 1.18407H58.9024C58.4864 2.56007 58.0064 3.87207 57.5264 5.21607H73.7824V9.08807ZM107.67 4.89607H105.014V7.05719e-05H107.67V4.89607ZM106.582 26.5921C104.95 25.1521 103.222 23.8721 101.366 22.7521C101.238 24.6081 100.79 26.2401 99.3824 27.5841C97.7824 29.0561 95.5104 29.4721 93.4304 29.4721C89.2704 29.4721 85.2064 27.6481 85.2064 22.9121C85.2064 18.4001 89.1424 16.3521 93.2384 16.3521C94.5504 16.3521 95.8944 16.5441 97.1744 16.8321V10.2401H85.8464V6.33607H97.1744V1.24807H101.014V7.05719e-05H103.638V4.89607H101.398V6.33607H106.23V10.2401H101.398V18.3041C103.222 19.2001 104.95 20.2241 106.582 21.4721V26.5921ZM83.8944 1.24807C83.4144 7.26407 83.0944 13.2481 83.0944 19.2961C83.0944 22.6241 83.1904 25.9841 83.3824 29.3121H79.0624C78.9344 26.1121 78.9024 22.8801 78.9024 19.6801C78.9024 13.5361 79.1264 7.39207 79.6704 1.24807H83.8944ZM97.1744 20.6721C95.9264 20.2241 94.6144 19.9041 93.2704 19.9041C91.4464 19.9041 89.0464 20.6401 89.0464 22.8481C89.0464 25.0241 91.4464 25.6641 93.2064 25.6641C95.8944 25.6641 97.1744 24.1921 97.1744 21.5681V20.6721ZM123.222 19.8081C122.198 22.3361 120.79 24.3201 118.582 26.0801C116.502 27.7121 114.134 28.7681 111.638 29.4401V25.2161C113.814 24.2881 115.734 23.2641 117.302 21.4401C119.702 18.6561 120.406 14.8481 120.406 11.2321V9.37607H124.694V11.4561C124.694 12.7361 124.598 14.0161 124.438 15.2961C126.582 14.6561 128.502 13.7921 130.038 12.0641C131.478 10.4641 132.182 8.51207 132.63 6.43207H110.614V2.27207H137.654V3.10407C137.654 7.07207 136.31 11.3281 133.686 14.3361C131.638 16.6721 128.854 18.4001 125.814 19.2001C124.95 19.4241 124.086 19.6161 123.222 19.8081ZM145.666 29.3441V25.2481C148.002 24.8961 150.338 24.5121 152.546 23.5841C154.754 22.6561 156.802 21.3441 158.498 19.6481C161.026 17.1201 162.754 13.7921 163.522 10.3041C163.778 9.05607 164.034 7.77607 164.194 6.49607H151.106C150.082 8.80007 148.802 10.9441 147.042 12.7681C145.25 14.6241 143.298 15.9361 140.93 16.8641V12.3201C144.642 9.79207 146.594 6.68807 147.746 2.36807H169.026V3.04007C169.026 4.16007 168.898 5.37607 168.77 6.59207C168.226 12.0961 166.05 18.2081 162.338 22.1121C159.202 25.4081 154.882 27.7121 150.562 28.6081C148.93 28.9601 147.33 29.2161 145.666 29.3441ZM186.754 19.8081C185.73 22.3361 184.322 24.3201 182.114 26.0801C180.034 27.7121 177.666 28.7681 175.17 29.4401V25.2161C177.346 24.2881 179.266 23.2641 180.834 21.4401C183.234 18.6561 183.938 14.8481 183.938 11.2321V9.37607H188.226V11.4561C188.226 12.7361 188.13 14.0161 187.97 15.2961C190.114 14.6561 192.034 13.7921 193.57 12.0641C195.01 10.4641 195.714 8.51207 196.162 6.43207H174.146V2.27207H201.186V3.10407C201.186 7.07207 199.842 11.3281 197.218 14.3361C195.17 16.6721 192.386 18.4001 189.346 19.2001C188.482 19.4241 187.618 19.6161 186.754 19.8081ZM231.298 6.40007H207.426V2.24007H231.298V6.40007ZM209.73 29.2801V25.1521C213.89 24.8001 218.082 24.1601 221.73 22.0161C223.394 21.0241 224.834 19.7121 225.954 18.1121C226.786 16.9601 227.33 15.6801 227.81 14.3681H205.506V10.3681H233.218V10.9761C233.218 12.7041 232.482 15.6801 231.554 17.8241C230.658 19.8721 229.378 21.7601 227.746 23.2961C224.29 26.5281 219.586 28.2881 214.914 28.8321C213.186 29.0561 211.458 29.1841 209.73 29.2801ZM264.194 1.31207C262.21 6.01607 259.618 9.21607 255.458 12.1921V30.0481H250.818V14.8801C246.434 16.8321 241.826 18.0481 237.09 18.7841V14.5601C242.242 13.4721 247.362 12.0961 251.842 9.24807C253.698 8.03207 255.426 6.59207 256.834 4.86407C257.73 3.77607 258.466 2.56007 259.138 1.31207H264.194ZM284.578 8.92807C280.002 7.93607 275.426 7.26407 270.754 6.91207V2.46407C275.394 2.81607 280.002 3.42407 284.578 4.32007V8.92807ZM296.738 6.97607C296.354 9.92007 295.938 12.8961 294.786 15.6481C293.666 18.2401 292.13 20.6721 290.05 22.5921C286.338 26.0801 281.09 27.8721 276.258 28.4801C274.562 28.7041 272.834 28.8321 271.138 28.9281V24.5761C275.586 24.1281 280.226 23.5521 284.13 21.1841C286.882 19.4881 289.026 16.9601 290.338 13.9841C291.298 11.7761 291.682 9.34407 292.034 6.97607H296.738ZM125.356 69.6961C127.116 72.1601 128.844 74.6241 130.444 77.1841H124.94C121.356 71.4561 117.324 66.0481 113.004 60.8961H118.54C119.98 62.6881 121.42 64.4801 122.828 66.3041C125.196 65.1841 127.372 63.8081 129.132 61.8241C130.924 59.7441 131.916 57.5361 132.652 54.9121H109.228V50.7841H137.996V51.0081C137.996 52.6081 137.388 55.4241 136.716 57.4081C136.044 59.4241 135.116 61.3121 133.836 63.0401C131.532 66.2081 128.844 68.0321 125.356 69.6961ZM167.532 54.4001H143.66V50.2401H167.532V54.4001ZM145.964 77.2801V73.1521C150.124 72.8001 154.316 72.1601 157.964 70.0161C159.628 69.0241 161.068 67.7121 162.188 66.1121C163.02 64.9601 163.564 63.6801 164.044 62.3681H141.74V58.3681H169.452V58.9761C169.452 60.7041 168.716 63.6801 167.788 65.8241C166.892 67.8721 165.612 69.7601 163.98 71.2961C160.524 74.5281 155.82 76.2881 151.148 76.8321C149.42 77.0561 147.692 77.1841 145.964 77.2801ZM201.068 50.3041C200.844 53.7601 200.556 57.2801 199.5 60.6081C198.508 63.7121 197.068 66.6881 194.924 69.1841C192.044 72.5761 188.108 75.0721 183.82 76.2881C182.348 76.7041 180.876 77.0561 179.372 77.3761V73.1201C181.452 72.5761 183.564 71.9681 185.516 70.9761C187.788 69.8241 189.868 68.2241 191.5 66.2081C193.26 64.0321 194.476 61.3761 195.244 58.6881C196.012 55.9681 196.236 53.1201 196.428 50.3041H201.068ZM183.084 63.5521H178.22C176.876 59.0721 175.244 54.7201 173.356 50.4641H178.188C180.076 54.7201 181.676 59.1041 183.084 63.5521ZM220.812 56.9281C216.236 55.9361 211.66 55.2641 206.988 54.9121V50.4641C211.628 50.8161 216.236 51.4241 220.812 52.3201V56.9281ZM232.972 54.9761C232.588 57.9201 232.172 60.8961 231.02 63.6481C229.9 66.2401 228.364 68.6721 226.284 70.5921C222.572 74.0801 217.324 75.8721 212.492 76.4801C210.796 76.7041 209.068 76.8321 207.372 76.9281V72.5761C211.82 72.1281 216.46 71.5521 220.364 69.1841C223.116 67.4881 225.26 64.9601 226.572 61.9841C227.532 59.7761 227.916 57.3441 228.268 54.9761H232.972Z" fill="#0000FF"/>
<path d="M125.29 112.384C125.03 112.644 124.77 112.924 124.51 113.164L122.67 111.384C124.39 110.024 125.57 108.424 126.31 106.364L128.81 106.664C128.65 107.124 128.51 107.524 128.33 107.984H137.57V110.184H127.09C126.75 110.664 126.41 111.124 126.05 111.544H136.69C136.69 112.984 136.67 114.404 136.65 115.824H137.57V117.884H136.59C136.57 118.664 136.53 119.464 136.47 120.244H137.29V122.344H136.25C136.07 123.944 135.69 125.244 133.77 125.244H130.93L130.55 123.344H132.99C133.71 123.344 133.83 122.964 133.91 122.344H126.39C126.27 122.884 126.15 123.384 125.97 123.924L123.55 123.324C124.15 121.524 124.53 119.764 124.79 117.884H123.79V115.824H125.03C125.15 114.684 125.21 113.544 125.29 112.384ZM120.57 106.464C121.79 106.924 123.05 107.604 124.03 108.464L122.57 110.524C121.51 109.624 120.49 109.024 119.25 108.404L120.57 106.464ZM119.73 111.784C120.97 112.284 122.13 112.924 123.15 113.784L121.77 115.864C120.65 114.944 119.75 114.364 118.45 113.744L119.73 111.784ZM127.39 115.824H129.73C129.79 115.084 129.83 114.344 129.85 113.624H127.57C127.53 114.344 127.49 115.084 127.39 115.824ZM134.31 115.824C134.31 115.084 134.31 114.344 134.31 113.624H132.07C132.05 114.344 132.01 115.084 131.97 115.824H134.31ZM123.73 118.144C122.99 120.504 121.53 123.304 120.01 125.244L118.37 123.004C119.79 121.244 121.01 118.824 121.81 116.704L123.73 118.144ZM127.15 117.884C127.05 118.664 126.91 119.464 126.79 120.244H129.15C129.31 119.464 129.43 118.664 129.53 117.884H127.15ZM134.11 120.244C134.15 119.464 134.21 118.664 134.25 117.884H131.81C131.73 118.664 131.63 119.464 131.49 120.244H134.11ZM156.73 115.904C155.23 116.024 153.75 116.264 152.27 116.604C152.47 118.044 152.51 119.484 152.51 120.944H149.99C149.99 119.724 149.99 118.524 149.85 117.304C148.61 117.784 145.99 118.784 145.99 120.404C145.99 122.264 149.57 122.284 150.85 122.284C152.59 122.284 154.33 122.104 156.07 121.844V124.404C154.37 124.604 152.65 124.744 150.95 124.744C148.15 124.744 143.25 124.444 143.25 120.624C143.25 117.684 146.79 116.004 149.11 115.064C148.83 114.804 148.49 114.664 148.11 114.664C146.19 114.664 144.57 115.884 143.23 117.104C142.01 118.284 140.79 119.464 139.57 120.644V117.404C141.53 115.604 143.25 113.584 144.59 111.304H140.09V108.944H145.83C146.15 108.284 146.43 107.604 146.67 106.924H149.47C149.21 107.604 148.93 108.284 148.63 108.944H156.11V111.304H147.43C147.05 111.964 146.63 112.604 146.19 113.224C146.91 112.824 147.87 112.624 148.65 112.624C149.97 112.624 150.91 113.104 151.57 114.264C153.27 113.824 154.99 113.524 156.73 113.384V115.904ZM166.95 121.864V114.704H158.75V112.384H166.95V110.404H160.29V108.104H166.95V106.424H169.41V108.104H176.13V110.404H169.41V112.384H177.59V114.704H169.41V116.964H176.13V119.284H169.41V122.404C169.67 122.424 169.93 122.424 170.19 122.424H177.89L177.29 124.804H169.93C168.55 124.804 166.55 124.444 165.25 123.684C164.31 123.124 163.57 122.364 163.01 121.444C162.29 122.984 161.39 124.104 160.19 125.264L158.37 123.284C159.57 122.124 160.39 121.004 160.93 119.764C161.49 118.544 161.77 117.224 161.91 115.604L164.41 115.904C164.29 116.964 164.13 117.904 163.89 118.944C164.49 120.364 165.51 121.324 166.95 121.864ZM182.51 124.184V121.584C184.05 121.904 185.61 122.084 187.19 122.084C189.49 122.084 193.93 121.544 193.93 118.444C193.93 116.164 191.43 115.704 189.63 115.704C185.95 115.704 182.55 117.464 179.61 119.504V116.664L189.31 110.024H181.57V107.584H194.29V109.484L187.91 113.824C188.81 113.564 189.77 113.484 190.71 113.484C193.93 113.484 196.69 114.864 196.69 118.464C196.69 120.524 195.67 122.204 193.89 123.224C191.99 124.344 189.55 124.604 187.37 124.604C185.73 124.604 184.11 124.444 182.51 124.184ZM213.85 110.464C209.87 110.124 205.89 110.104 201.91 110.104V107.584C205.89 107.584 209.87 107.584 213.85 107.824V110.464ZM202.53 124.544V121.964C205.09 121.884 208.17 121.684 210.53 120.664C212.07 119.984 213.61 118.824 213.61 116.984C213.61 114.524 210.71 114.244 208.85 114.244C205.77 114.244 202.71 114.844 199.75 115.624V112.944C202.79 112.244 205.93 111.724 209.07 111.724C212.61 111.724 216.47 112.664 216.47 116.964C216.47 119.304 215.23 121.184 213.25 122.344C211.73 123.224 209.99 123.724 208.29 124.044C206.39 124.384 204.45 124.464 202.53 124.544ZM37.6037 139.764C38.2037 138.844 38.6637 138.244 39.6637 137.704C40.2637 137.364 40.9237 137.164 41.6037 137.164C42.8437 137.164 43.8037 137.784 44.7637 138.524C45.7437 139.264 46.4837 139.804 47.2437 139.804C48.2437 139.804 49.1237 138.664 49.6037 137.904L51.1037 139.284C50.2437 140.764 48.8437 141.904 47.0637 141.904C45.8237 141.904 45.0837 141.424 43.9637 140.524C43.3237 140.004 42.4037 139.324 41.5437 139.324C41.0437 139.324 40.3837 139.704 40.0037 140.024C39.6037 140.364 39.3637 140.684 39.1237 141.144L37.6037 139.764ZM61.6195 142.664C60.9795 144.244 60.0995 145.484 58.7195 146.584C57.4195 147.604 55.9395 148.264 54.3795 148.684V146.044C55.7395 145.464 56.9395 144.824 57.9195 143.684C59.4195 141.944 59.8595 139.564 59.8595 137.304V136.144H62.5395V137.444C62.5395 138.244 62.4795 139.044 62.3795 139.844C63.7195 139.444 64.9195 138.904 65.8795 137.824C66.7795 136.824 67.2195 135.604 67.4995 134.304H53.7395V131.704H70.6395V132.224C70.6395 134.704 69.7995 137.364 68.1595 139.244C66.8795 140.704 65.1395 141.784 63.2395 142.284C62.6995 142.424 62.1595 142.544 61.6195 142.664ZM75.6465 148.624V146.064C77.1065 145.844 78.5665 145.604 79.9465 145.024C81.3265 144.444 82.6065 143.624 83.6665 142.564C85.2465 140.984 86.3265 138.904 86.8065 136.724C86.9665 135.944 87.1265 135.144 87.2265 134.344H79.0465C78.4065 135.784 77.6065 137.124 76.5065 138.264C75.3865 139.424 74.1665 140.244 72.6865 140.824V137.984C75.0065 136.404 76.2265 134.464 76.9465 131.764H90.2465V132.184C90.2465 132.884 90.1665 133.644 90.0865 134.404C89.7465 137.844 88.3865 141.664 86.0665 144.104C84.1065 146.164 81.4065 147.604 78.7065 148.164C77.6865 148.384 76.6865 148.544 75.6465 148.624ZM101.326 142.664C100.686 144.244 99.8065 145.484 98.4265 146.584C97.1265 147.604 95.6465 148.264 94.0865 148.684V146.044C95.4465 145.464 96.6465 144.824 97.6265 143.684C99.1265 141.944 99.5665 139.564 99.5665 137.304V136.144H102.246V137.444C102.246 138.244 102.186 139.044 102.086 139.844C103.426 139.444 104.626 138.904 105.586 137.824C106.486 136.824 106.926 135.604 107.206 134.304H93.4465V131.704H110.346V132.224C110.346 134.704 109.506 137.364 107.866 139.244C106.586 140.704 104.846 141.784 102.946 142.284C102.406 142.424 101.866 142.544 101.326 142.664ZM129.166 134.284H114.246V131.684H129.166V134.284ZM115.686 148.584V146.004C118.286 145.784 120.906 145.384 123.186 144.044C124.226 143.424 125.126 142.604 125.826 141.604C126.346 140.884 126.686 140.084 126.986 139.264H113.046V136.764H130.366V137.144C130.366 138.224 129.906 140.084 129.326 141.424C128.766 142.704 127.966 143.884 126.946 144.844C124.786 146.864 121.846 147.964 118.926 148.304C117.846 148.444 116.766 148.524 115.686 148.584ZM149.726 131.104C148.486 134.044 146.866 136.044 144.266 137.904V149.064H141.366V139.584C138.626 140.804 135.746 141.564 132.786 142.024V139.384C136.006 138.704 139.206 137.844 142.006 136.064C143.166 135.304 144.246 134.404 145.126 133.324C145.686 132.644 146.146 131.884 146.566 131.104H149.726ZM162.466 135.864C159.606 135.244 156.746 134.824 153.826 134.604V131.824C156.726 132.044 159.606 132.424 162.466 132.984V135.864ZM170.066 134.644C169.826 136.484 169.566 138.344 168.846 140.064C168.146 141.684 167.186 143.204 165.886 144.404C163.566 146.584 160.286 147.704 157.266 148.084C156.206 148.224 155.126 148.304 154.066 148.364V145.644C156.846 145.364 159.746 145.004 162.186 143.524C163.906 142.464 165.246 140.884 166.066 139.024C166.666 137.644 166.906 136.124 167.126 134.644H170.066ZM181.966 148.464V145.924C183.706 145.684 185.206 145.184 186.446 143.824C187.486 142.684 187.926 141.124 187.926 139.584C187.926 138.304 187.586 137.044 186.766 136.044C185.886 134.984 184.786 134.524 183.466 134.204C183.006 137.604 182.326 142.024 180.666 145.064C179.946 146.384 178.866 147.564 177.246 147.564C175.966 147.564 174.846 146.784 174.106 145.804C173.086 144.444 172.686 142.724 172.686 141.044C172.686 135.564 176.706 131.644 182.206 131.644C187.106 131.644 190.666 134.624 190.666 139.664C190.666 141.904 190.026 144.184 188.446 145.804C187.166 147.124 185.386 148.024 183.546 148.284C183.026 148.364 182.566 148.444 181.966 148.464ZM180.846 134.124C179.246 134.404 178.086 134.944 177.006 136.184C175.846 137.504 175.246 139.284 175.246 141.024C175.246 142.104 175.466 143.264 176.146 144.144C176.386 144.464 176.726 144.844 177.166 144.844C178.026 144.844 178.686 143.124 178.946 142.464C179.926 139.924 180.486 136.884 180.846 134.124ZM193.666 131.004H209.306C209.166 133.644 209.066 136.284 209.066 138.924C209.066 141.064 209.126 142.844 209.326 144.964C209.346 145.184 209.406 145.404 209.546 145.404C209.726 145.404 209.786 145.224 209.886 144.804C209.966 144.444 210.086 143.864 210.166 143.464L211.426 145.264C211.326 145.864 211.106 146.884 210.766 147.684C210.406 148.524 209.866 149.224 209.066 149.224C208.466 149.224 208.006 148.704 207.746 148.224C207.386 147.544 206.886 144.924 206.806 143.184C206.706 140.784 206.706 139.004 206.706 136.944C206.706 135.564 206.706 134.384 206.706 133.244H196.026V139.604C196.026 142.604 195.646 146.684 194.046 149.264L191.986 147.344C193.326 145.204 193.666 142.124 193.666 139.624V131.004ZM204.646 147.684C201.946 148.024 198.946 148.184 196.226 148.264L195.966 145.904C197.386 145.904 198.826 145.904 200.266 145.864V143.424H196.926V137.424H200.266V136.304C199.106 136.324 197.946 136.344 196.806 136.344L196.446 134.464C199.406 134.464 202.506 134.444 205.426 133.924L206.286 135.924C204.986 136.084 203.686 136.204 202.366 136.264V137.424H205.766V143.424H202.366V145.824C202.886 145.804 203.406 145.784 203.906 145.744C203.746 145.364 203.586 144.984 203.406 144.584L205.366 143.984C206.106 145.324 206.746 146.764 207.106 148.264L204.966 148.944C204.866 148.524 204.766 148.104 204.646 147.684ZM200.266 139.284H198.846V141.544H200.266V139.284ZM203.766 139.284H202.366V141.544H203.766V139.284ZM217.126 131.164C216.766 134.884 216.486 138.624 216.486 142.364C216.486 144.444 216.546 146.504 216.646 148.584H213.926C213.866 146.664 213.826 144.744 213.826 142.824C213.826 138.924 214.026 135.044 214.386 131.164H217.126ZM229.626 135.264H218.786V132.644H229.626V135.264ZM230.066 147.504C228.426 147.804 226.746 148.004 225.066 148.004C222.006 148.004 217.906 147.264 217.906 143.384C217.906 141.624 218.786 140.004 219.866 138.684H223.046C221.906 139.864 220.586 141.364 220.586 143.084C220.586 145.224 223.526 145.344 225.066 145.344C226.746 145.344 228.426 145.104 230.066 144.764V147.504ZM241.966 148.464V145.924C243.706 145.684 245.206 145.184 246.446 143.824C247.486 142.684 247.926 141.124 247.926 139.584C247.926 138.304 247.586 137.044 246.766 136.044C245.886 134.984 244.786 134.524 243.466 134.204C243.006 137.604 242.326 142.024 240.666 145.064C239.946 146.384 238.866 147.564 237.246 147.564C235.966 147.564 234.846 146.784 234.106 145.804C233.086 144.444 232.686 142.724 232.686 141.044C232.686 135.564 236.706 131.644 242.206 131.644C247.106 131.644 250.666 134.624 250.666 139.664C250.666 141.904 250.026 144.184 248.446 145.804C247.166 147.124 245.386 148.024 243.546 148.284C243.026 148.364 242.566 148.444 241.966 148.464ZM240.846 134.124C239.246 134.404 238.086 134.944 237.006 136.184C235.846 137.504 235.246 139.284 235.246 141.024C235.246 142.104 235.466 143.264 236.146 144.144C236.386 144.464 236.726 144.844 237.166 144.844C238.026 144.844 238.686 143.124 238.946 142.464C239.926 139.924 240.486 136.884 240.846 134.124ZM257.766 147.524V145.124C260.726 145.064 266.766 144.804 266.766 140.664C266.766 138.204 264.406 137.544 262.366 137.544C259.466 137.544 256.626 138.284 253.866 139.124V136.604C256.626 135.764 259.486 135.084 262.406 135.084C265.986 135.084 269.466 136.404 269.466 140.564C269.466 142.904 268.286 144.824 266.266 145.944C263.666 147.384 260.666 147.524 257.766 147.524ZM289.641 134.624L287.461 134.724C284.121 134.884 279.601 137.544 279.601 141.264C279.601 143.044 280.661 144.284 282.261 144.944C284.021 145.664 286.001 145.764 287.881 145.784V148.504C285.561 148.504 283.301 148.384 281.141 147.504C278.541 146.424 276.841 144.364 276.841 141.484C276.841 139.844 277.461 138.264 278.481 136.964C279.181 136.064 280.021 135.364 280.961 134.724L272.581 135.004V132.384L289.641 132.044V134.624ZM291.901 139.764C292.501 138.844 292.961 138.244 293.961 137.704C294.561 137.364 295.221 137.164 295.901 137.164C297.141 137.164 298.101 137.784 299.061 138.524C300.041 139.264 300.781 139.804 301.541 139.804C302.541 139.804 303.421 138.664 303.901 137.904L305.401 139.284C304.541 140.764 303.141 141.904 301.361 141.904C300.121 141.904 299.381 141.424 298.261 140.524C297.621 140.004 296.701 139.324 295.841 139.324C295.341 139.324 294.681 139.704 294.301 140.024C293.901 140.364 293.661 140.684 293.421 141.144L291.901 139.764Z" fill="#0000FF"/>
</svg>
