<?xml version="1.0" encoding="UTF-8"?>
<svg id="_レイヤー_2" data-name="レイヤー 2" xmlns="http://www.w3.org/2000/svg" viewBox="0 0 306 306">
  <defs>
    <style>
      .cls-1 {
        fill: #fe2c55;
      }

      .cls-2 {
        fill: #fff;
      }

      .cls-3 {
        fill: #25f4ee;
      }
    </style>
  </defs>
  <g id="TikTok-Logos">
    <g>
      <rect width="306" height="306"/>
      <g>
        <g>
          <path class="cls-3" d="M141.15,96.79v-5.75c-1.92-.26-3.88-.43-5.87-.43-24.03,0-43.58,19.55-43.58,43.58,0,14.74,7.37,27.79,18.6,35.68-7.25-7.79-11.56-18.22-11.56-29.67,0-23.69,18.85-42.87,42.41-43.42Z"/>
          <path class="cls-3" d="M142.18,160.23c10.72,0,19.59-8.65,19.99-19.28l.09-94.75h17.18s-.03-.14-.03-.14c-.36-1.95-.56-3.96-.56-6.01h-23.68l-.04,94.89c-.4,10.63-9.14,19.15-19.86,19.15-3.33,0-6.47-.83-9.23-2.29,3.62,5.01,9.49,8.42,16.13,8.42Z"/>
          <path class="cls-3" d="M211.8,78.55v-5.56c-6.61,0-12.77-1.97-17.94-5.33,4.6,5.28,10.85,9.37,17.94,10.89Z"/>
          <path class="cls-1" d="M193.86,67.66c-5.04-5.79-8.1-13.34-8.1-21.6h-6.45c1.67,9.02,7.13,16.76,14.55,21.6Z"/>
          <path class="cls-1" d="M135.28,114.11c-10.97,0-20.03,9.11-20.03,20.08,0,7.64,4.47,14.28,10.8,17.62-2.36-3.27-3.77-7.27-3.77-11.61,0-10.97,8.93-19.9,19.9-19.9,2.05,0,4.01.34,5.87.92v-24.17c-1.92-.26-3.88-.43-5.87-.43-.35,0-.69.02-1.03.03h-.09s-.06,18.3-.06,18.3c-1.86-.58-3.67-.84-5.72-.84Z"/>
          <path class="cls-1" d="M211.8,78.27l-.11-.02v18.28c-12.28,0-23.69-4.04-32.98-10.71v48.37c0,24.03-19.4,43.46-43.43,43.46-9.29,0-17.9-2.81-24.98-7.78,7.96,8.55,19.3,13.91,31.88,13.91,24.03,0,43.58-19.55,43.58-43.58v-48.12c9.29,6.67,20.66,10.59,32.94,10.59v-23.68c-2.37,0-4.67-.26-6.9-.73Z"/>
          <path class="cls-2" d="M178.86,134.2v-48.12c9.29,6.67,20.66,10.59,32.94,10.59v-18.4c-7.09-1.52-13.34-5.33-17.94-10.61-7.42-4.84-12.77-12.58-14.44-21.6h-17.33l-.04,94.89c-.4,10.63-9.14,19.15-19.86,19.15-6.64,0-12.52-3.28-16.13-8.29-6.34-3.33-10.67-9.97-10.67-17.62,0-10.97,8.93-19.9,19.9-19.9,2.05,0,4.01.34,5.87.92v-18.56c-23.56.55-42.55,19.87-42.55,43.55,0,11.46,4.45,21.89,11.7,29.67,7.08,4.97,15.69,7.9,24.98,7.9,24.03,0,43.58-19.55,43.58-43.58Z"/>
        </g>
        <g>
          <path class="cls-2" d="M40.6,209.7h38.18l-3.51,10.92h-9.91s0,40.38,0,40.38h-12.34v-40.39l-12.42.02v-10.94Z"/>
          <path class="cls-2" d="M141.33,209.7h39.07l-3.51,10.92h-10.77s0,40.38,0,40.38h-12.36v-40.39l-12.42.02v-10.94Z"/>
          <polygon class="cls-2" points="81.11 226.02 93.35 226.02 93.34 261.01 81.18 261.01 81.11 226.02"/>
          <path class="cls-2" d="M98.2,209.56h12.23v23.9l12.12-11.89h14.6s-15.33,14.88-15.33,14.88l17.17,24.57h-13.47l-11.46-17.04-3.62,3.52v13.52h-12.23v-51.45Z"/>
          <path class="cls-2" d="M227.77,209.56h12.23v23.9l12.12-11.89h14.6s-15.33,14.88-15.33,14.88l17.17,24.57h-13.47l-11.46-17.04-3.62,3.52v13.52h-12.23v-51.45Z"/>
          <circle class="cls-2" cx="87.22" cy="215.86" r="6.16"/>
          <path class="cls-3" d="M178.92,240.07c0-11.01,8.5-20.04,19.3-20.87-.54-.04-1.37-.07-1.92-.07-11.57,0-20.94,9.38-20.94,20.94s9.38,20.94,20.94,20.94c.55,0,1.38-.03,1.92-.07-10.8-.84-19.3-9.86-19.3-20.87Z"/>
          <path class="cls-1" d="M202.89,219.12c-.56,0-1.39.03-1.94.07,10.79.84,19.29,9.86,19.29,20.87s-8.5,20.03-19.29,20.87c.55.04,1.38.07,1.94.07,11.57,0,20.94-9.38,20.94-20.94s-9.38-20.94-20.94-20.94Z"/>
          <path class="cls-2" d="M199.58,219.12c-11.57,0-20.94,9.38-20.94,20.94s9.38,20.94,20.94,20.94,20.94-9.38,20.94-20.94-9.38-20.94-20.94-20.94ZM199.58,250.25c-5.62,0-10.18-4.56-10.18-10.18s4.56-10.18,10.18-10.18,10.18,4.56,10.18,10.18-4.56,10.18-10.18,10.18Z"/>
        </g>
      </g>
    </g>
  </g>
</svg>