<svg width="18" height="19" viewBox="0 0 18 19" fill="none" xmlns="http://www.w3.org/2000/svg">
<g clip-path="url(#clip0_27_728)">
<path fill-rule="evenodd" clip-rule="evenodd" d="M12.045 8.70499C12.2557 8.91593 12.374 9.20187 12.374 9.49999C12.374 9.79812 12.2557 10.0841 12.045 10.295L7.80301 14.5385C7.59196 14.7494 7.30576 14.8679 7.00737 14.8678C6.70897 14.8678 6.42283 14.7492 6.21188 14.5381C6.00094 14.3271 5.88247 14.0409 5.88254 13.7425C5.88261 13.4441 6.00121 13.1579 6.21226 12.947L9.65926 9.49999L6.21226 6.05299C6.00723 5.84091 5.8937 5.55679 5.89612 5.26182C5.89855 4.96684 6.01673 4.68462 6.22521 4.47594C6.4337 4.26725 6.71581 4.14881 7.01078 4.1461C7.30575 4.1434 7.58998 4.25666 7.80226 4.46149L12.0458 8.70424L12.045 8.70499Z" fill="#0000FF"/>
</g>
<defs>
<clipPath id="clip0_27_728">
<rect width="18" height="18" fill="white" transform="translate(0 0.5)"/>
</clipPath>
</defs>
</svg>
