<svg width="19" height="19" viewBox="0 0 19 19" fill="none" xmlns="http://www.w3.org/2000/svg">
<path d="M8.59163 17.28C7.39163 17.28 6.27163 17.056 5.23163 16.608C4.19163 16.16 3.27963 15.544 2.49563 14.76C1.71163 13.96 1.09563 13.04 0.647625 12C0.215625 10.944 -0.000374973 9.81604 -0.000374973 8.61604C-0.000374973 7.41604 0.215625 6.29604 0.647625 5.25604C1.09563 4.21604 1.70363 3.30404 2.47163 2.52004C3.25563 1.72004 4.15963 1.10404 5.18362 0.672038C6.22363 0.224038 7.34363 3.8147e-05 8.54363 3.8147e-05C9.74363 3.8147e-05 10.8556 0.224038 11.8796 0.672038C12.9196 1.10404 13.8316 1.72004 14.6156 2.52004C15.3996 3.30404 16.0076 4.22404 16.4396 5.28004C16.8876 6.32004 17.1116 7.44004 17.1116 8.64004C17.1116 9.84004 16.8876 10.968 16.4396 12.024C16.0076 13.064 15.3996 13.976 14.6156 14.76C13.8476 15.544 12.9436 16.16 11.9036 16.608C10.8796 17.056 9.77563 17.28 8.59163 17.28ZM16.2716 18.192L8.71163 10.632L10.4876 8.85604L18.0476 16.416L16.2716 18.192ZM8.54363 14.64C9.67963 14.64 10.6716 14.384 11.5196 13.872C12.3836 13.36 13.0556 12.656 13.5356 11.76C14.0316 10.848 14.2796 9.80004 14.2796 8.61604C14.2796 7.73604 14.1356 6.93604 13.8476 6.21604C13.5756 5.48004 13.1836 4.84804 12.6716 4.32004C12.1596 3.77604 11.5516 3.36004 10.8476 3.07204C10.1596 2.78404 9.39163 2.64004 8.54363 2.64004C7.42363 2.64004 6.43163 2.89604 5.56763 3.40804C4.71963 3.90404 4.04763 4.60004 3.55163 5.49604C3.07163 6.39204 2.83163 7.43204 2.83163 8.61604C2.83163 9.49604 2.96763 10.312 3.23963 11.064C3.52763 11.8 3.91963 12.432 4.41563 12.96C4.92763 13.488 5.53563 13.904 6.23963 14.208C6.94363 14.496 7.71163 14.64 8.54363 14.64Z" fill="#0000FF"/>
</svg>
