<svg width="32" height="32" viewBox="0 0 32 32" fill="none" xmlns="http://www.w3.org/2000/svg">
<path fill-rule="evenodd" clip-rule="evenodd" d="M15.9998 1.66675C23.9158 1.66675 30.3332 8.08408 30.3332 16.0001C30.3332 23.9161 23.9158 30.3334 15.9998 30.3334C8.08384 30.3334 1.6665 23.9161 1.6665 16.0001C1.6665 8.08408 8.08384 1.66675 15.9998 1.66675ZM12.0398 13.9601C11.8503 13.7834 11.5995 13.6873 11.3405 13.6918C11.0814 13.6964 10.8342 13.8014 10.651 13.9846C10.4678 14.1678 10.3628 14.415 10.3583 14.6741C10.3537 14.9331 10.4499 15.1838 10.6265 15.3734L15.2932 20.0401C15.4807 20.2273 15.7348 20.3325 15.9998 20.3325C16.2648 20.3325 16.519 20.2273 16.7065 20.0401L21.3732 15.3734C21.4714 15.2819 21.5502 15.1715 21.6049 15.0488C21.6595 14.9261 21.6889 14.7937 21.6913 14.6594C21.6937 14.5252 21.669 14.3918 21.6187 14.2673C21.5684 14.1428 21.4935 14.0297 21.3986 13.9347C21.3036 13.8397 21.1905 13.7649 21.066 13.7146C20.9414 13.6643 20.8081 13.6396 20.6738 13.642C20.5395 13.6443 20.4071 13.6737 20.2845 13.7284C20.1618 13.783 20.0514 13.8618 19.9598 13.9601L15.9998 17.9201L12.0398 13.9601Z" fill="white"/>
</svg>
