<svg width="29" height="29" viewBox="0 0 29 29" fill="none" xmlns="http://www.w3.org/2000/svg">
<path fill-rule="evenodd" clip-rule="evenodd" d="M14.3333 0C22.2493 0 28.6667 6.41733 28.6667 14.3333C28.6667 22.2493 22.2493 28.6667 14.3333 28.6667C6.41733 28.6667 0 22.2493 0 14.3333C0 6.41733 6.41733 0 14.3333 0ZM10.3733 12.2933C10.1838 12.1167 9.93304 12.0205 9.67397 12.0251C9.4149 12.0297 9.16772 12.1346 8.9845 12.3178C8.80129 12.5011 8.69634 12.7482 8.69177 13.0073C8.68719 13.2664 8.78336 13.5171 8.96 13.7067L13.6267 18.3733C13.8142 18.5606 14.0683 18.6658 14.3333 18.6658C14.5983 18.6658 14.8525 18.5606 15.04 18.3733L19.7067 13.7067C19.8049 13.6151 19.8837 13.5047 19.9384 13.382C19.993 13.2594 20.0224 13.127 20.0248 12.9927C20.0272 12.8584 20.0025 12.7251 19.9522 12.6005C19.9019 12.476 19.827 12.3629 19.732 12.2679C19.6371 12.173 19.524 12.0981 19.3995 12.0478C19.2749 11.9975 19.1416 11.9728 19.0073 11.9752C18.873 11.9776 18.7406 12.007 18.6179 12.0616C18.4953 12.1163 18.3849 12.1951 18.2933 12.2933L14.3333 16.2533L10.3733 12.2933Z" fill="#0000FF"/>
</svg>
