<svg width="7" height="12" viewBox="0 0 7 12" fill="none" xmlns="http://www.w3.org/2000/svg">
<path fill-rule="evenodd" clip-rule="evenodd" d="M6.67102 4.86558C6.88169 5.07652 7.00003 5.36245 7.00003 5.66058C7.00003 5.9587 6.88169 6.24464 6.67102 6.45558L2.42902 10.6991C2.21797 10.91 1.93177 11.0285 1.63338 11.0284C1.33498 11.0284 1.04884 10.9097 0.837891 10.6987C0.626944 10.4877 0.508475 10.2015 0.508545 9.90306C0.508615 9.60467 0.627219 9.31853 0.838265 9.10758L4.28526 5.66058L0.838265 2.21358C0.633235 2.0015 0.519706 1.71737 0.522129 1.4224C0.524552 1.12743 0.642734 0.845204 0.851221 0.636521C1.05971 0.427837 1.34182 0.309389 1.63679 0.306688C1.93176 0.303986 2.21599 0.417248 2.42827 0.622078L6.67177 4.86483L6.67102 4.86558Z" fill="white"/>
</svg>
