<svg width="24" height="24" viewBox="0 0 24 24" fill="none" xmlns="http://www.w3.org/2000/svg">
<path d="M12 22C13.3135 22.0016 14.6143 21.7437 15.8278 21.2411C17.0412 20.7384 18.1434 20.0009 19.071 19.071C20.0009 18.1434 20.7384 17.0412 21.241 15.8278C21.7437 14.6143 22.0016 13.3135 22 12C22.0016 10.6866 21.7437 9.38572 21.241 8.17225C20.7384 6.95878 20.0009 5.85659 19.071 4.92901C18.1434 3.99909 17.0412 3.26162 15.8278 2.75897C14.6143 2.25631 13.3135 1.99839 12 2.00001C10.6865 1.99839 9.38571 2.25631 8.17225 2.75897C6.95878 3.26162 5.85659 3.99909 4.929 4.92901C3.99908 5.85659 3.26161 6.95878 2.75896 8.17225C2.25631 9.38572 1.99838 10.6866 2 12C1.99838 13.3135 2.25631 14.6143 2.75896 15.8278C3.26161 17.0412 3.99908 18.1434 4.929 19.071C5.85659 20.0009 6.95878 20.7384 8.17225 21.2411C9.38571 21.7437 10.6865 22.0016 12 22Z" stroke="#CC0000" stroke-width="2" stroke-linejoin="round"/>
<path d="M12 16.25C12.2652 16.25 12.5195 16.3554 12.707 16.543C12.8946 16.7305 13 16.9848 13 17.25C13 17.5152 12.8946 17.7695 12.707 17.957C12.5195 18.1446 12.2652 18.25 12 18.25C11.7348 18.25 11.4805 18.1446 11.293 17.957C11.1054 17.7695 11 17.5152 11 17.25C11 16.9848 11.1054 16.7305 11.293 16.543C11.4805 16.3554 11.7348 16.25 12 16.25Z" fill="#CC0000" stroke="#CC0000" stroke-width="0.5"/>
<path d="M12 6V14V6Z" fill="#CC0000"/>
<path d="M12 6V14" stroke="#CC0000" stroke-width="2" stroke-linecap="round" stroke-linejoin="round"/>
</svg>
