<svg width="31" height="32" viewBox="0 0 31 32" fill="none" xmlns="http://www.w3.org/2000/svg">
<path d="M14.2083 8.41748C14.5509 8.41748 14.8794 8.55357 15.1217 8.7958C15.3639 9.03804 15.5 9.36658 15.5 9.70915C15.5 10.0517 15.3639 10.3803 15.1217 10.6225C14.8794 10.8647 14.5509 11.0008 14.2083 11.0008H6.45833V25.2091H20.6667V17.4591C20.6667 17.1166 20.8028 16.788 21.045 16.5458C21.2872 16.3036 21.6158 16.1675 21.9583 16.1675C22.3009 16.1675 22.6294 16.3036 22.8717 16.5458C23.1139 16.788 23.25 17.1166 23.25 17.4591V25.2091C23.25 25.8943 22.9778 26.5514 22.4934 27.0358C22.0089 27.5203 21.3518 27.7925 20.6667 27.7925H6.45833C5.77319 27.7925 5.11611 27.5203 4.63164 27.0358C4.14717 26.5514 3.875 25.8943 3.875 25.2091V11.0008C3.875 10.3157 4.14717 9.65859 4.63164 9.17412C5.11611 8.68965 5.77319 8.41748 6.45833 8.41748H14.2083ZM25.8333 4.54248C26.1759 4.54248 26.5044 4.67857 26.7467 4.9208C26.9889 5.16304 27.125 5.49158 27.125 5.83415V12.2925C27.125 12.6351 26.9889 12.9636 26.7467 13.2058C26.5044 13.4481 26.1759 13.5841 25.8333 13.5841C25.4908 13.5841 25.1622 13.4481 24.92 13.2058C24.6778 12.9636 24.5417 12.6351 24.5417 12.2925V8.95223L13.8299 19.664C13.5863 19.8993 13.26 20.0295 12.9213 20.0266C12.5826 20.0236 12.2587 19.8878 12.0192 19.6483C11.7797 19.4088 11.6439 19.0848 11.6409 18.7462C11.638 18.4075 11.7682 18.0812 12.0035 17.8376L22.7153 7.12581H19.375C19.0324 7.12581 18.7039 6.98973 18.4617 6.74749C18.2194 6.50526 18.0833 6.17672 18.0833 5.83415C18.0833 5.49158 18.2194 5.16304 18.4617 4.9208C18.7039 4.67857 19.0324 4.54248 19.375 4.54248H25.8333Z" fill="white"/>
</svg>
