<svg width="11" height="14" viewBox="0 0 11 14" fill="none" xmlns="http://www.w3.org/2000/svg">
<path d="M5.80156 7.975L5.80625 7.95312C5.89687 7.57969 6.01094 7.11406 5.92188 6.69219C5.8625 6.35938 5.61719 6.22969 5.40781 6.22031C5.16094 6.20937 4.94063 6.35 4.88594 6.55469C4.78281 6.92969 4.875 7.44219 5.04375 8.09531C4.83125 8.60156 4.49219 9.3375 4.24375 9.775C3.78125 10.0141 3.16094 10.3828 3.06875 10.8484C3.05 10.9344 3.07187 11.0437 3.12344 11.1422C3.18125 11.2516 3.27344 11.3359 3.38125 11.3766C3.42812 11.3937 3.48438 11.4078 3.55 11.4078C3.825 11.4078 4.27031 11.1859 4.86406 10.1672C4.95469 10.1375 5.04844 10.1062 5.13906 10.075C5.56406 9.93125 6.00469 9.78125 6.40312 9.71406C6.84375 9.95 7.34531 10.1016 7.68594 10.1016C8.02344 10.1016 8.15625 9.90156 8.20625 9.78125C8.29375 9.57031 8.25156 9.30469 8.10938 9.1625C7.90312 8.95938 7.40156 8.90625 6.62031 9.00313C6.23594 8.76875 5.98438 8.45 5.80156 7.975ZM4.0875 10.3484C3.87031 10.6641 3.70625 10.8219 3.61719 10.8906C3.72187 10.6984 3.92656 10.4953 4.0875 10.3484ZM5.45625 6.66875C5.5375 6.80781 5.52656 7.22813 5.46406 7.44063C5.3875 7.12969 5.37656 6.68906 5.42188 6.6375C5.43437 6.63906 5.44531 6.64844 5.45625 6.66875ZM5.43125 8.55156C5.59844 8.84062 5.80938 9.08906 6.04219 9.27344C5.70469 9.35 5.39687 9.47656 5.12187 9.58906C5.05625 9.61563 4.99219 9.64219 4.92969 9.66719C5.1375 9.29063 5.31094 8.86406 5.43125 8.55156ZM7.8625 9.575C7.86406 9.57812 7.86562 9.58281 7.85625 9.58906H7.85312L7.85 9.59375C7.8375 9.60156 7.70937 9.67656 7.15781 9.45938C7.79219 9.42969 7.86094 9.57344 7.8625 9.575ZM10.8531 3.50938L7.49063 0.146875C7.39688 0.053125 7.27031 0 7.1375 0H0.5C0.223437 0 0 0.223437 0 0.5V13.5C0 13.7766 0.223437 14 0.5 14H10.5C10.7766 14 11 13.7766 11 13.5V3.86406C11 3.73125 10.9469 3.60313 10.8531 3.50938ZM9.84688 4.09375H6.90625V1.15313L9.84688 4.09375ZM9.875 12.875H1.125V1.125H5.84375V4.5C5.84375 4.67405 5.91289 4.84097 6.03596 4.96404C6.15903 5.08711 6.32595 5.15625 6.5 5.15625H9.875V12.875Z" fill="#0000FF"/>
</svg>
