<svg width="15" height="15" viewBox="0 0 15 15" fill="none" xmlns="http://www.w3.org/2000/svg">
<path fill-rule="evenodd" clip-rule="evenodd" d="M9.66699 7.07412C9.77985 7.18713 9.84324 7.34031 9.84324 7.50002C9.84324 7.65973 9.77985 7.81291 9.66699 7.92591L7.39449 10.1992C7.28142 10.3122 7.1281 10.3757 6.96825 10.3756C6.8084 10.3756 6.6551 10.3121 6.5421 10.199C6.42909 10.086 6.36562 9.93263 6.36566 9.77278C6.3657 9.61292 6.42924 9.45963 6.5423 9.34662L8.3889 7.50002L6.5423 5.65341C6.43246 5.53979 6.37164 5.38759 6.37294 5.22956C6.37424 5.07154 6.43755 4.92035 6.54924 4.80856C6.66093 4.69676 6.81206 4.63331 6.97008 4.63186C7.1281 4.63041 7.28037 4.69109 7.39408 4.80082L9.66739 7.07372L9.66699 7.07412Z" fill="white"/>
<circle cx="7.5" cy="7.5" r="7" stroke="white"/>
</svg>
