<svg width="28" height="28" viewBox="0 0 28 28" fill="none" xmlns="http://www.w3.org/2000/svg">
<path fill-rule="evenodd" clip-rule="evenodd" d="M18.045 13.205C18.2557 13.4159 18.374 13.7019 18.374 14C18.374 14.2981 18.2557 14.5841 18.045 14.795L13.803 19.0385C13.592 19.2494 13.3058 19.3679 13.0074 19.3678C12.709 19.3678 12.4228 19.2492 12.2119 19.0381C12.0009 18.8271 11.8825 18.5409 11.8825 18.2425C11.8826 17.9441 12.0012 17.6579 12.2123 17.447L15.6593 14L12.2123 10.553C12.0072 10.3409 11.8937 10.0568 11.8961 9.76182C11.8985 9.46684 12.0167 9.18462 12.2252 8.97594C12.4337 8.76725 12.7158 8.64881 13.0108 8.6461C13.3058 8.6434 13.59 8.75666 13.8023 8.96149L18.0458 13.2042L18.045 13.205Z" fill="white"/>
<circle cx="14" cy="14" r="13.5" stroke="white"/>
</svg>
