<svg width="12" height="12" viewBox="0 0 12 12" fill="none" xmlns="http://www.w3.org/2000/svg">
<path d="M6 11.25C6.68944 11.25 7.37213 11.1142 8.00909 10.8504C8.64605 10.5865 9.2248 10.1998 9.71231 9.71231C10.1998 9.2248 10.5865 8.64605 10.8504 8.00909C11.1142 7.37213 11.25 6.68944 11.25 6C11.25 5.31056 11.1142 4.62787 10.8504 3.99091C10.5865 3.35395 10.1998 2.7752 9.71231 2.28769C9.2248 1.80018 8.64605 1.41347 8.00909 1.14963C7.37213 0.885795 6.68944 0.75 6 0.75M6 11.25C5.31056 11.25 4.62787 11.1142 3.99091 10.8504C3.35395 10.5865 2.7752 10.1998 2.28769 9.71231C1.80018 9.2248 1.41347 8.64605 1.14963 8.00909C0.885795 7.37213 0.75 6.68944 0.75 6C0.75 5.31056 0.885795 4.62787 1.14963 3.99091C1.41347 3.35395 1.80018 2.7752 2.28769 2.28769C2.7752 1.80018 3.35395 1.41347 3.99091 1.14963C4.62787 0.885795 5.31056 0.75 6 0.75M6 11.25C7.61058 11.25 8.29892 8.23825 8.29892 6C8.29892 3.76175 7.61058 0.75 6 0.75M6 11.25C4.38942 11.25 3.70108 8.23825 3.70108 6C3.70108 3.76175 4.38942 0.75 6 0.75M1.04167 4.25H10.9583M1.04167 7.75H10.9583" stroke="white" stroke-width="1.5" stroke-linecap="round" stroke-linejoin="round"/>
</svg>
