<svg width="58" height="26" viewBox="0 0 58 26" fill="none" xmlns="http://www.w3.org/2000/svg">
<rect width="58" height="26" rx="3" fill="#FBE1C6"/>
<g clip-path="url(#clip0_937_4247)">
<path d="M13.2197 5.60205L13.9476 6.45683L15.0142 6.8782L15.7421 7.73298L16.7962 8.15435L17.524 9.00912L18.5907 9.44253L19.3185 10.2973L20.3727 10.7187" stroke="#D97E0D" stroke-width="1.5" stroke-linecap="round" stroke-linejoin="round"/>
<path d="M13.2195 5.60205L12.3034 6.78189L11.3873 8.31085C11.2995 8.45532 11.2116 8.59979 11.0987 8.73222L8.21239 12.4403C8.0869 12.6088 7.94886 12.7533 7.79828 12.8978L6.53082 14.1017L5.61475 15.2815" stroke="#D97E0D" stroke-width="1.5" stroke-linecap="round" stroke-linejoin="round"/>
<path d="M11.5381 7.54028L18.6032 12.5847" stroke="#D97E0D" stroke-width="1.5" stroke-linecap="round" stroke-linejoin="round"/>
<path d="M12.7804 20.3981L12.0525 19.5433L10.9859 19.122L10.258 18.2672L9.20391 17.8458L8.47607 16.9911L7.42195 16.5576L6.68156 15.7029L5.62744 15.2815" stroke="#D97E0D" stroke-width="1.5" stroke-linecap="round" stroke-linejoin="round"/>
<path d="M12.7803 20.398L13.6964 19.2181L14.6124 17.6892C14.7003 17.5447 14.7881 17.4002 14.9011 17.2678L17.7873 13.5597C17.9128 13.3912 18.0509 13.2467 18.2015 13.1023L19.4689 11.8983L20.385 10.7185" stroke="#D97E0D" stroke-width="1.5" stroke-linecap="round" stroke-linejoin="round"/>
<path d="M14.1985 18.52L7.146 13.4756" stroke="#D97E0D" stroke-width="1.5" stroke-linecap="round" stroke-linejoin="round"/>
<path d="M12.9938 14.9926C14.1443 14.9926 15.0769 14.0978 15.0769 12.9941C15.0769 11.8904 14.1443 10.9956 12.9938 10.9956C11.8433 10.9956 10.9106 11.8904 10.9106 12.9941C10.9106 14.0978 11.8433 14.9926 12.9938 14.9926Z" stroke="#D97E0D" stroke-width="1.5" stroke-linecap="round" stroke-linejoin="round"/>
</g>
<path d="M32.154 10.594H36.774V12.12H32.154V10.594ZM32.294 17.02H36.97V18.504H32.294V17.02ZM34.366 8.004C34.1233 8.41467 33.82 8.858 33.456 9.334C33.092 9.81 32.6953 10.2767 32.266 10.734C31.8367 11.1913 31.3887 11.602 30.922 11.966C30.8193 11.742 30.6747 11.49 30.488 11.21C30.3107 10.9207 30.138 10.6827 29.97 10.496C30.446 10.16 30.9127 9.74933 31.37 9.264C31.8273 8.76933 32.2427 8.26533 32.616 7.752C32.9893 7.22933 33.288 6.74867 33.512 6.31H35.108C35.4253 6.79533 35.7847 7.29467 36.186 7.808C36.5967 8.32133 37.026 8.79733 37.474 9.236C37.9313 9.67467 38.384 10.034 38.832 10.314C38.664 10.5287 38.4867 10.776 38.3 11.056C38.1133 11.336 37.95 11.6113 37.81 11.882C37.3993 11.5553 36.9747 11.168 36.536 10.72C36.1067 10.2627 35.7007 9.796 35.318 9.32C34.9447 8.844 34.6273 8.40533 34.366 8.004ZM31.426 13.366H37.67V19.19H36.06V14.836H32.966V19.246H31.426V13.366ZM27.52 6.114L28.976 6.66C28.7893 7.01467 28.5933 7.38333 28.388 7.766C28.1827 8.14867 27.982 8.51267 27.786 8.858C27.59 9.20333 27.4033 9.502 27.226 9.754L26.106 9.278C26.274 8.98867 26.4467 8.662 26.624 8.298C26.8013 7.934 26.9693 7.56067 27.128 7.178C27.2867 6.79533 27.4173 6.44067 27.52 6.114ZM29.13 7.78L30.502 8.396C30.166 8.928 29.7973 9.488 29.396 10.076C28.9947 10.6547 28.5933 11.2147 28.192 11.756C27.7907 12.288 27.4127 12.7547 27.058 13.156L26.078 12.61C26.3393 12.2927 26.61 11.938 26.89 11.546C27.17 11.1447 27.4453 10.7293 27.716 10.3C27.996 9.86133 28.2573 9.42733 28.5 8.998C28.7427 8.55933 28.9527 8.15333 29.13 7.78ZM25.364 9.432L26.176 8.284C26.4187 8.49867 26.666 8.73667 26.918 8.998C27.1793 9.25 27.4173 9.50667 27.632 9.768C27.856 10.02 28.024 10.2487 28.136 10.454L27.282 11.756C27.17 11.532 27.0067 11.2847 26.792 11.014C26.5867 10.7433 26.358 10.468 26.106 10.188C25.854 9.908 25.6067 9.656 25.364 9.432ZM28.724 11.112L29.83 10.65C30.0073 10.9673 30.18 11.308 30.348 11.672C30.5253 12.0267 30.6747 12.3767 30.796 12.722C30.9267 13.058 31.0153 13.3613 31.062 13.632L29.872 14.164C29.8253 13.8933 29.7413 13.5853 29.62 13.24C29.508 12.8853 29.3727 12.5213 29.214 12.148C29.0553 11.7747 28.892 11.4293 28.724 11.112ZM25.35 12.274C25.994 12.2553 26.764 12.2273 27.66 12.19C28.556 12.1527 29.466 12.1153 30.39 12.078L30.376 13.408C29.508 13.4733 28.6447 13.534 27.786 13.59C26.9367 13.646 26.1713 13.6973 25.49 13.744L25.35 12.274ZM29.018 14.598L30.194 14.22C30.3713 14.6213 30.5393 15.06 30.698 15.536C30.866 16.0027 30.992 16.4133 31.076 16.768L29.83 17.216C29.7647 16.8613 29.6527 16.4413 29.494 15.956C29.3353 15.4613 29.1767 15.0087 29.018 14.598ZM25.966 14.332L27.352 14.584C27.2773 15.256 27.1653 15.9187 27.016 16.572C26.8667 17.2253 26.694 17.776 26.498 18.224C26.4047 18.1587 26.2787 18.084 26.12 18C25.9613 17.9253 25.798 17.8507 25.63 17.776C25.4713 17.7013 25.3313 17.6453 25.21 17.608C25.4153 17.188 25.5787 16.6887 25.7 16.11C25.8213 15.522 25.91 14.9293 25.966 14.332ZM27.534 13.016H29.004V19.26H27.534V13.016ZM45.944 7.542C45.5427 8.00867 45.0433 8.48 44.446 8.956C43.8487 9.432 43.1953 9.88467 42.486 10.314C41.7767 10.734 41.0487 11.1073 40.302 11.434C40.2367 11.3033 40.148 11.154 40.036 10.986C39.924 10.8087 39.8073 10.6407 39.686 10.482C39.5647 10.314 39.4433 10.1693 39.322 10.048C40.0967 9.74933 40.848 9.38067 41.576 8.942C42.304 8.50333 42.9667 8.03667 43.564 7.542C44.1613 7.038 44.6467 6.54333 45.02 6.058H46.714C47.106 6.506 47.5353 6.926 48.002 7.318C48.478 7.70067 48.9727 8.05533 49.486 8.382C49.9993 8.70867 50.5267 9.00267 51.068 9.264C51.6187 9.516 52.1693 9.73067 52.72 9.908C52.524 10.1133 52.3327 10.3513 52.146 10.622C51.9593 10.8927 51.796 11.1493 51.656 11.392C50.984 11.1027 50.2887 10.7527 49.57 10.342C48.8513 9.922 48.1747 9.46933 47.54 8.984C46.9053 8.49867 46.3733 8.018 45.944 7.542ZM42.864 11.994H49.024V13.198H42.864V11.994ZM45.104 8.886H46.84V10.776H45.104V8.886ZM40.358 17.58C40.89 17.5333 41.4873 17.4867 42.15 17.44C42.822 17.384 43.5267 17.328 44.264 17.272C45.0013 17.2067 45.734 17.1413 46.462 17.076L46.49 18.56C45.7993 18.6253 45.0993 18.6907 44.39 18.756C43.69 18.8307 43.0133 18.896 42.36 18.952C41.716 19.0173 41.1233 19.0733 40.582 19.12L40.358 17.58ZM46.434 14.766C46.938 15.6153 47.6987 16.292 48.716 16.796C49.7427 17.2907 50.984 17.622 52.44 17.79C52.328 17.9113 52.2067 18.056 52.076 18.224C51.9453 18.4013 51.824 18.5787 51.712 18.756C51.6 18.9427 51.5067 19.1107 51.432 19.26C50.396 19.092 49.472 18.8307 48.66 18.476C47.848 18.1213 47.1433 17.6733 46.546 17.132C45.9487 16.5813 45.44 15.9187 45.02 15.144L46.434 14.766ZM50.564 14.472L51.782 15.48C51.4273 15.7227 51.0493 15.9653 50.648 16.208C50.2467 16.4413 49.8453 16.6607 49.444 16.866C49.0427 17.062 48.6647 17.2393 48.31 17.398L47.316 16.488C47.6613 16.32 48.03 16.124 48.422 15.9C48.814 15.6667 49.2013 15.4287 49.584 15.186C49.9667 14.934 50.2933 14.696 50.564 14.472ZM42.864 9.95H50.158V15.27H42.864V13.968H48.45V11.266H42.864V9.95ZM41.814 9.95H43.48V17.776L41.814 17.944V9.95Z" fill="#D27400"/>
<defs>
<clipPath id="clip0_937_4247">
<rect width="16" height="16" fill="white" transform="translate(5 5)"/>
</clipPath>
</defs>
</svg>
