<svg width="54" height="27" viewBox="0 0 54 27" fill="none" xmlns="http://www.w3.org/2000/svg">
<rect width="54" height="26.46" rx="3" fill="#DAEBFF"/>
<path d="M11 5L10.25 5.84C10.25 5.84 8.97 7.29 7.68 9.17C6.39 11.05 5 13.3 5 15.46C5 17.0513 5.63214 18.5774 6.75736 19.7026C7.88258 20.8279 9.4087 21.46 11 21.46C12.5913 21.46 14.1174 20.8279 15.2426 19.7026C16.3679 18.5774 17 17.0513 17 15.46C17 13.3 15.61 11.05 14.32 9.17C13.03 7.29 11.75 5.84 11.75 5.84L11 5ZM11 8.13C11.44 8.65 11.84 9.08 12.68 10.3C13.89 12.06 15 14.3 15 15.46C15 17.68 13.22 19.46 11 19.46C8.78 19.46 7 17.68 7 15.46C7 14.3 8.11 12.06 9.32 10.3C10.16 9.08 10.56 8.65 11 8.13Z" fill="#0176C3"/>
<path d="M28.154 10.824H32.774V12.35H28.154V10.824ZM28.294 17.25H32.97V18.734H28.294V17.25ZM30.366 8.234C30.1233 8.64466 29.82 9.088 29.456 9.564C29.092 10.04 28.6953 10.5067 28.266 10.964C27.8367 11.4213 27.3887 11.832 26.922 12.196C26.8193 11.972 26.6747 11.72 26.488 11.44C26.3107 11.1507 26.138 10.9127 25.97 10.726C26.446 10.39 26.9127 9.97933 27.37 9.494C27.8273 8.99933 28.2427 8.49533 28.616 7.98199C28.9893 7.45933 29.288 6.97866 29.512 6.54H31.108C31.4253 7.02533 31.7847 7.52466 32.186 8.038C32.5967 8.55133 33.026 9.02733 33.474 9.466C33.9313 9.90466 34.384 10.264 34.832 10.544C34.664 10.7587 34.4867 11.006 34.3 11.286C34.1133 11.566 33.95 11.8413 33.81 12.112C33.3993 11.7853 32.9747 11.398 32.536 10.95C32.1067 10.4927 31.7007 10.026 31.318 9.55C30.9447 9.074 30.6273 8.63533 30.366 8.234ZM27.426 13.596H33.67V19.42H32.06V15.066H28.966V19.476H27.426V13.596ZM23.52 6.344L24.976 6.88999C24.7893 7.24466 24.5933 7.61333 24.388 7.996C24.1827 8.37866 23.982 8.74266 23.786 9.08799C23.59 9.43333 23.4033 9.73199 23.226 9.984L22.106 9.508C22.274 9.21866 22.4467 8.892 22.624 8.528C22.8013 8.164 22.9693 7.79066 23.128 7.40799C23.2867 7.02533 23.4173 6.67066 23.52 6.344ZM25.13 8.01L26.502 8.626C26.166 9.158 25.7973 9.718 25.396 10.306C24.9947 10.8847 24.5933 11.4447 24.192 11.986C23.7907 12.518 23.4127 12.9847 23.058 13.386L22.078 12.84C22.3393 12.5227 22.61 12.168 22.89 11.776C23.17 11.3747 23.4453 10.9593 23.716 10.53C23.996 10.0913 24.2573 9.65733 24.5 9.228C24.7427 8.78933 24.9527 8.38333 25.13 8.01ZM21.364 9.662L22.176 8.514C22.4187 8.72866 22.666 8.96666 22.918 9.228C23.1793 9.48 23.4173 9.73666 23.632 9.998C23.856 10.25 24.024 10.4787 24.136 10.684L23.282 11.986C23.17 11.762 23.0067 11.5147 22.792 11.244C22.5867 10.9733 22.358 10.698 22.106 10.418C21.854 10.138 21.6067 9.886 21.364 9.662ZM24.724 11.342L25.83 10.88C26.0073 11.1973 26.18 11.538 26.348 11.902C26.5253 12.2567 26.6747 12.6067 26.796 12.952C26.9267 13.288 27.0153 13.5913 27.062 13.862L25.872 14.394C25.8253 14.1233 25.7413 13.8153 25.62 13.47C25.508 13.1153 25.3727 12.7513 25.214 12.378C25.0553 12.0047 24.892 11.6593 24.724 11.342ZM21.35 12.504C21.994 12.4853 22.764 12.4573 23.66 12.42C24.556 12.3827 25.466 12.3453 26.39 12.308L26.376 13.638C25.508 13.7033 24.6447 13.764 23.786 13.82C22.9367 13.876 22.1713 13.9273 21.49 13.974L21.35 12.504ZM25.018 14.828L26.194 14.45C26.3713 14.8513 26.5393 15.29 26.698 15.766C26.866 16.2327 26.992 16.6433 27.076 16.998L25.83 17.446C25.7647 17.0913 25.6527 16.6713 25.494 16.186C25.3353 15.6913 25.1767 15.2387 25.018 14.828ZM21.966 14.562L23.352 14.814C23.2773 15.486 23.1653 16.1487 23.016 16.802C22.8667 17.4553 22.694 18.006 22.498 18.454C22.4047 18.3887 22.2787 18.314 22.12 18.23C21.9613 18.1553 21.798 18.0807 21.63 18.006C21.4713 17.9313 21.3313 17.8753 21.21 17.838C21.4153 17.418 21.5787 16.9187 21.7 16.34C21.8213 15.752 21.91 15.1593 21.966 14.562ZM23.534 13.246H25.004V19.49H23.534V13.246ZM35.728 9.774H39.62V11.468H35.728V9.774ZM41.16 6.344H42.952V17.306C42.952 17.81 42.8913 18.202 42.77 18.482C42.6487 18.762 42.4387 18.9767 42.14 19.126C41.8413 19.2753 41.4587 19.3733 40.992 19.42C40.5347 19.476 39.984 19.504 39.34 19.504C39.3213 19.3267 39.2747 19.1213 39.2 18.888C39.1347 18.664 39.0553 18.44 38.962 18.216C38.8687 17.9827 38.7753 17.7867 38.682 17.628C39.1393 17.6467 39.5687 17.656 39.97 17.656C40.3713 17.656 40.642 17.656 40.782 17.656C40.922 17.656 41.02 17.628 41.076 17.572C41.132 17.516 41.16 17.4273 41.16 17.306V6.344ZM39.046 9.774H39.396L39.704 9.704L40.852 10.124C40.6467 11.4027 40.3387 12.5647 39.928 13.61C39.5267 14.6553 39.0507 15.5747 38.5 16.368C37.9587 17.152 37.352 17.7913 36.68 18.286C36.5867 18.146 36.456 17.992 36.288 17.824C36.12 17.6467 35.9427 17.4787 35.756 17.32C35.5787 17.1613 35.42 17.04 35.28 16.956C35.924 16.5173 36.498 15.9667 37.002 15.304C37.506 14.632 37.9307 13.862 38.276 12.994C38.6307 12.1167 38.8873 11.1647 39.046 10.138V9.774ZM42.84 8.388C43.064 9.32133 43.3487 10.2173 43.694 11.076C44.0487 11.9347 44.464 12.7373 44.94 13.484C45.416 14.2307 45.9667 14.898 46.592 15.486C47.2267 16.0647 47.936 16.5407 48.72 16.914C48.58 17.026 48.426 17.1707 48.258 17.348C48.09 17.5253 47.9313 17.7167 47.782 17.922C47.642 18.118 47.5207 18.3 47.418 18.468C46.3353 17.852 45.416 17.0587 44.66 16.088C43.904 15.108 43.274 13.988 42.77 12.728C42.266 11.468 41.846 10.1147 41.51 8.668L42.84 8.388ZM46.774 8.528L48.356 9.634C47.9547 10.0447 47.53 10.4693 47.082 10.908C46.634 11.3467 46.186 11.762 45.738 12.154C45.2993 12.546 44.884 12.8867 44.492 13.176L43.274 12.238C43.6567 11.9207 44.058 11.552 44.478 11.132C44.9073 10.712 45.3227 10.278 45.724 9.83C46.1253 9.37266 46.4753 8.93866 46.774 8.528Z" fill="#0176C3"/>
</svg>
