<svg width="68" height="26" viewBox="0 0 68 26" fill="none" xmlns="http://www.w3.org/2000/svg">
<rect width="68" height="26" rx="3" fill="#FFE8E8"/>
<g clip-path="url(#clip0_937_4241)">
<path d="M15.0463 11.8365L12.9602 14.4687V6.69817C12.9602 6.16281 12.4831 5.86231 12.0271 5.87392C11.5712 5.88553 11.1659 6.18737 11.1659 6.69817L11.1229 12.0013H10.7602V5.89625C10.7602 4.76972 9.09183 4.63532 9.09183 5.89625V12.0325H8.72738C8.72738 12.0325 8.74028 8.12832 8.72738 6.81872C8.71449 5.51404 7.02894 5.66898 7.02894 6.81872V12.7269H6.66879V8.90702C6.66879 7.62511 5 7.64833 5 8.90702V16.1462C5 18.7596 7.29969 21.0006 7.29969 21.0006L12.7354 20.9698L17 11.6713C17 11.6713 15.9183 10.931 15.0458 11.8374L15.0463 11.8365ZM11.511 6.8223C11.511 6.50572 11.7581 6.24898 12.0628 6.24898C12.3675 6.24898 12.6146 6.50572 12.6146 6.8223V7.52732H11.511V6.8223ZM11.511 8.84272V7.90105H12.3306L11.511 8.84272ZM12.6146 11.1409H11.511V9.7076H12.6146V11.1409ZM12.6146 8.28057V9.33432H11.7186L12.6146 8.28057Z" fill="#CD0000"/>
<path d="M11.932 15.5147H10.3053V13.8247H8.69064V15.5147H7.06396V17.1922H8.69064V18.8823H10.3053V17.1922H11.932V15.5147Z" fill="white"/>
</g>
<path d="M21.616 8.438H28.448V9.978H21.616V8.438ZM24.29 6.086H25.928V17.552C25.928 17.9533 25.8813 18.2613 25.788 18.476C25.6947 18.7 25.5267 18.8773 25.284 19.008C25.0413 19.1293 24.7427 19.204 24.388 19.232C24.0333 19.2693 23.5947 19.288 23.072 19.288C23.044 19.0827 22.9833 18.8353 22.89 18.546C22.7967 18.266 22.6987 18.0233 22.596 17.818C22.8853 17.8273 23.17 17.8367 23.45 17.846C23.73 17.846 23.9167 17.846 24.01 17.846C24.1127 17.8367 24.1827 17.8133 24.22 17.776C24.2667 17.7293 24.29 17.6593 24.29 17.566V6.086ZM21.322 15.718C21.6673 15.5127 22.078 15.256 22.554 14.948C23.0393 14.6307 23.5293 14.2993 24.024 13.954L24.556 15.256C24.1453 15.5733 23.7207 15.8953 23.282 16.222C22.8527 16.5487 22.4373 16.8473 22.036 17.118L21.322 15.718ZM21.77 11.196L23.03 10.636C23.254 11.0093 23.4687 11.4153 23.674 11.854C23.8887 12.2927 24.0333 12.6753 24.108 13.002L22.778 13.632C22.7313 13.4173 22.652 13.17 22.54 12.89C22.4373 12.6007 22.316 12.3113 22.176 12.022C22.0453 11.7233 21.91 11.448 21.77 11.196ZM27.006 10.468L28.518 11.056C28.2753 11.4853 28.0327 11.924 27.79 12.372C27.5473 12.82 27.3187 13.198 27.104 13.506L25.956 12.988C26.0773 12.764 26.2033 12.5073 26.334 12.218C26.474 11.9193 26.6047 11.6207 26.726 11.322C26.8473 11.014 26.9407 10.7293 27.006 10.468ZM26.278 6.828L27.44 6.142C27.7013 6.37533 27.958 6.646 28.21 6.954C28.4713 7.25267 28.6673 7.52333 28.798 7.766L27.566 8.522C27.454 8.27933 27.272 7.99933 27.02 7.682C26.7773 7.36467 26.53 7.08 26.278 6.828ZM24.934 14.654L25.956 13.632C26.2547 13.8467 26.5673 14.0893 26.894 14.36C27.23 14.6307 27.5427 14.9013 27.832 15.172C28.1307 15.4427 28.3733 15.69 28.56 15.914L27.468 17.076C27.3 16.852 27.0713 16.5953 26.782 16.306C26.502 16.0167 26.1987 15.7273 25.872 15.438C25.5453 15.1487 25.2327 14.8873 24.934 14.654ZM29.47 8.69H34.566V10.244H29.47V8.69ZM29.68 6.086L31.374 6.324C31.2527 7.28533 31.0893 8.22333 30.884 9.138C30.6787 10.0433 30.4267 10.888 30.128 11.672C29.8387 12.456 29.4887 13.1373 29.078 13.716C29.0033 13.6133 28.8867 13.4827 28.728 13.324C28.5693 13.1653 28.406 13.0067 28.238 12.848C28.0793 12.6893 27.9347 12.5633 27.804 12.47C28.168 11.9753 28.4667 11.392 28.7 10.72C28.9427 10.048 29.1433 9.32 29.302 8.536C29.4607 7.74267 29.5867 6.926 29.68 6.086ZM30.422 10.034C30.6367 11.1447 30.9353 12.1993 31.318 13.198C31.7007 14.1873 32.1813 15.0787 32.76 15.872C33.3387 16.656 34.0247 17.2813 34.818 17.748C34.6873 17.86 34.538 18.0047 34.37 18.182C34.2113 18.3593 34.0573 18.5413 33.908 18.728C33.768 18.924 33.6513 19.1013 33.558 19.26C32.718 18.672 32.004 17.93 31.416 17.034C30.8373 16.1287 30.3567 15.1067 29.974 13.968C29.6007 12.82 29.288 11.5973 29.036 10.3L30.422 10.034ZM32.536 8.76L34.034 9.572C33.8473 11.1027 33.53 12.512 33.082 13.8C32.6433 15.0787 32.032 16.1893 31.248 17.132C30.4733 18.0747 29.484 18.8073 28.28 19.33C28.196 19.1713 28.0793 18.9987 27.93 18.812C27.79 18.6253 27.6407 18.4433 27.482 18.266C27.3233 18.0887 27.1647 17.9347 27.006 17.804C28.21 17.3747 29.1853 16.74 29.932 15.9C30.688 15.0507 31.2667 14.0287 31.668 12.834C32.0787 11.63 32.368 10.272 32.536 8.76ZM40.432 14.822H46.914V16.012H40.432V14.822ZM46.522 14.822H46.816L47.082 14.752L48.034 15.242C47.7073 15.858 47.278 16.3947 46.746 16.852C46.2233 17.3093 45.6307 17.6967 44.968 18.014C44.3053 18.3313 43.5913 18.5927 42.826 18.798C42.0607 19.0033 41.2627 19.1667 40.432 19.288C40.3667 19.1013 40.2687 18.882 40.138 18.63C40.0167 18.378 39.8907 18.1773 39.76 18.028C40.5067 17.9533 41.23 17.8413 41.93 17.692C42.63 17.5333 43.2787 17.3327 43.876 17.09C44.4827 16.8473 45.01 16.5533 45.458 16.208C45.9153 15.8627 46.27 15.466 46.522 15.018V14.822ZM42.756 15.858C43.12 16.222 43.6007 16.5487 44.198 16.838C44.7953 17.118 45.4767 17.3513 46.242 17.538C47.0073 17.7153 47.81 17.846 48.65 17.93C48.482 18.0793 48.3047 18.2847 48.118 18.546C47.9407 18.8167 47.8007 19.05 47.698 19.246C46.8113 19.1247 45.9713 18.938 45.178 18.686C44.394 18.434 43.68 18.1167 43.036 17.734C42.4013 17.342 41.8553 16.8893 41.398 16.376L42.756 15.858ZM40.25 6.814H48.384V8.004H40.25V6.814ZM41.818 10.818H47.712V11.658H41.818V10.818ZM41.818 12.078H47.712V12.904H41.818V12.078ZM42 6.086H43.498V8.676H42V6.086ZM44.002 9.852H45.458V14.136H44.002V9.852ZM45.122 6.086H46.62V8.676H45.122V6.086ZM41.538 8.354L42.854 8.69C42.6113 9.28733 42.2987 9.87067 41.916 10.44C41.5333 11.0093 41.1367 11.4853 40.726 11.868C40.6607 11.7933 40.5627 11.7 40.432 11.588C40.3013 11.476 40.166 11.3687 40.026 11.266C39.886 11.154 39.7647 11.0653 39.662 11C40.054 10.6733 40.4133 10.2767 40.74 9.81C41.076 9.334 41.342 8.84867 41.538 8.354ZM44.408 8.41L45.934 8.648C45.794 8.928 45.654 9.18933 45.514 9.432C45.374 9.66533 45.248 9.87067 45.136 10.048L43.848 9.81C43.9507 9.59533 44.0533 9.362 44.156 9.11C44.268 8.84867 44.352 8.61533 44.408 8.41ZM48.006 9.376V10.412H42.588V13.352H48.342V14.388H41.132V9.376H48.006ZM35.994 10.398H39.718V11.672H35.994V10.398ZM36.092 6.548H39.69V7.808H36.092V6.548ZM35.994 12.316H39.718V13.576H35.994V12.316ZM35.42 8.424H40.082V9.754H35.42V8.424ZM36.764 14.248H39.704V18.49H36.764V17.174H38.36V15.564H36.764V14.248ZM35.952 14.248H37.268V19.064H35.952V14.248ZM49.742 6.8H55.958V8.312H49.742V6.8ZM57.106 10.846H62.608V12.47H57.106V10.846ZM59.696 11.98H61.348V19.26H59.696V11.98ZM56.448 7.36L58.464 7.822C58.4453 7.962 58.3193 8.05067 58.086 8.088V11.266C58.086 11.8353 58.058 12.4653 58.002 13.156C57.946 13.8373 57.8293 14.542 57.652 15.27C57.484 15.9887 57.2273 16.6887 56.882 17.37C56.546 18.0513 56.098 18.672 55.538 19.232C55.4727 19.1107 55.3653 18.9753 55.216 18.826C55.0667 18.6767 54.908 18.532 54.74 18.392C54.5813 18.2613 54.4367 18.1633 54.306 18.098C54.7913 17.6033 55.174 17.0667 55.454 16.488C55.7433 15.9093 55.958 15.3167 56.098 14.71C56.2473 14.1033 56.3407 13.506 56.378 12.918C56.4247 12.3207 56.448 11.7607 56.448 11.238V7.36ZM50.19 9.376H51.786V12.96C51.786 13.4267 51.772 13.94 51.744 14.5C51.716 15.0507 51.6553 15.6107 51.562 16.18C51.4687 16.7493 51.338 17.3 51.17 17.832C51.002 18.364 50.7827 18.8447 50.512 19.274C50.428 19.1713 50.302 19.0547 50.134 18.924C49.966 18.7933 49.7933 18.6673 49.616 18.546C49.448 18.4247 49.308 18.3313 49.196 18.266C49.504 17.762 49.728 17.202 49.868 16.586C50.008 15.9607 50.0967 15.3353 50.134 14.71C50.1713 14.0753 50.19 13.4873 50.19 12.946V9.376ZM61.054 6.24L62.524 7.5C62.0293 7.74267 61.488 7.97133 60.9 8.186C60.312 8.39133 59.7147 8.578 59.108 8.746C58.5013 8.914 57.9087 9.068 57.33 9.208C57.2927 9.012 57.2133 8.78333 57.092 8.522C56.98 8.25133 56.8727 8.032 56.77 7.864C57.2927 7.724 57.8153 7.57 58.338 7.402C58.87 7.234 59.3693 7.052 59.836 6.856C60.312 6.65067 60.718 6.44533 61.054 6.24ZM51.114 9.376H55.678V14.15H51.114V12.652H54.054V10.874H51.114V9.376Z" fill="#FF0000"/>
<path d="M21.616 8.438H28.448V9.978H21.616V8.438ZM24.29 6.086H25.928V17.552C25.928 17.9533 25.8813 18.2613 25.788 18.476C25.6947 18.7 25.5267 18.8773 25.284 19.008C25.0413 19.1293 24.7427 19.204 24.388 19.232C24.0333 19.2693 23.5947 19.288 23.072 19.288C23.044 19.0827 22.9833 18.8353 22.89 18.546C22.7967 18.266 22.6987 18.0233 22.596 17.818C22.8853 17.8273 23.17 17.8367 23.45 17.846C23.73 17.846 23.9167 17.846 24.01 17.846C24.1127 17.8367 24.1827 17.8133 24.22 17.776C24.2667 17.7293 24.29 17.6593 24.29 17.566V6.086ZM21.322 15.718C21.6673 15.5127 22.078 15.256 22.554 14.948C23.0393 14.6307 23.5293 14.2993 24.024 13.954L24.556 15.256C24.1453 15.5733 23.7207 15.8953 23.282 16.222C22.8527 16.5487 22.4373 16.8473 22.036 17.118L21.322 15.718ZM21.77 11.196L23.03 10.636C23.254 11.0093 23.4687 11.4153 23.674 11.854C23.8887 12.2927 24.0333 12.6753 24.108 13.002L22.778 13.632C22.7313 13.4173 22.652 13.17 22.54 12.89C22.4373 12.6007 22.316 12.3113 22.176 12.022C22.0453 11.7233 21.91 11.448 21.77 11.196ZM27.006 10.468L28.518 11.056C28.2753 11.4853 28.0327 11.924 27.79 12.372C27.5473 12.82 27.3187 13.198 27.104 13.506L25.956 12.988C26.0773 12.764 26.2033 12.5073 26.334 12.218C26.474 11.9193 26.6047 11.6207 26.726 11.322C26.8473 11.014 26.9407 10.7293 27.006 10.468ZM26.278 6.828L27.44 6.142C27.7013 6.37533 27.958 6.646 28.21 6.954C28.4713 7.25267 28.6673 7.52333 28.798 7.766L27.566 8.522C27.454 8.27933 27.272 7.99933 27.02 7.682C26.7773 7.36467 26.53 7.08 26.278 6.828ZM24.934 14.654L25.956 13.632C26.2547 13.8467 26.5673 14.0893 26.894 14.36C27.23 14.6307 27.5427 14.9013 27.832 15.172C28.1307 15.4427 28.3733 15.69 28.56 15.914L27.468 17.076C27.3 16.852 27.0713 16.5953 26.782 16.306C26.502 16.0167 26.1987 15.7273 25.872 15.438C25.5453 15.1487 25.2327 14.8873 24.934 14.654ZM29.47 8.69H34.566V10.244H29.47V8.69ZM29.68 6.086L31.374 6.324C31.2527 7.28533 31.0893 8.22333 30.884 9.138C30.6787 10.0433 30.4267 10.888 30.128 11.672C29.8387 12.456 29.4887 13.1373 29.078 13.716C29.0033 13.6133 28.8867 13.4827 28.728 13.324C28.5693 13.1653 28.406 13.0067 28.238 12.848C28.0793 12.6893 27.9347 12.5633 27.804 12.47C28.168 11.9753 28.4667 11.392 28.7 10.72C28.9427 10.048 29.1433 9.32 29.302 8.536C29.4607 7.74267 29.5867 6.926 29.68 6.086ZM30.422 10.034C30.6367 11.1447 30.9353 12.1993 31.318 13.198C31.7007 14.1873 32.1813 15.0787 32.76 15.872C33.3387 16.656 34.0247 17.2813 34.818 17.748C34.6873 17.86 34.538 18.0047 34.37 18.182C34.2113 18.3593 34.0573 18.5413 33.908 18.728C33.768 18.924 33.6513 19.1013 33.558 19.26C32.718 18.672 32.004 17.93 31.416 17.034C30.8373 16.1287 30.3567 15.1067 29.974 13.968C29.6007 12.82 29.288 11.5973 29.036 10.3L30.422 10.034ZM32.536 8.76L34.034 9.572C33.8473 11.1027 33.53 12.512 33.082 13.8C32.6433 15.0787 32.032 16.1893 31.248 17.132C30.4733 18.0747 29.484 18.8073 28.28 19.33C28.196 19.1713 28.0793 18.9987 27.93 18.812C27.79 18.6253 27.6407 18.4433 27.482 18.266C27.3233 18.0887 27.1647 17.9347 27.006 17.804C28.21 17.3747 29.1853 16.74 29.932 15.9C30.688 15.0507 31.2667 14.0287 31.668 12.834C32.0787 11.63 32.368 10.272 32.536 8.76ZM40.432 14.822H46.914V16.012H40.432V14.822ZM46.522 14.822H46.816L47.082 14.752L48.034 15.242C47.7073 15.858 47.278 16.3947 46.746 16.852C46.2233 17.3093 45.6307 17.6967 44.968 18.014C44.3053 18.3313 43.5913 18.5927 42.826 18.798C42.0607 19.0033 41.2627 19.1667 40.432 19.288C40.3667 19.1013 40.2687 18.882 40.138 18.63C40.0167 18.378 39.8907 18.1773 39.76 18.028C40.5067 17.9533 41.23 17.8413 41.93 17.692C42.63 17.5333 43.2787 17.3327 43.876 17.09C44.4827 16.8473 45.01 16.5533 45.458 16.208C45.9153 15.8627 46.27 15.466 46.522 15.018V14.822ZM42.756 15.858C43.12 16.222 43.6007 16.5487 44.198 16.838C44.7953 17.118 45.4767 17.3513 46.242 17.538C47.0073 17.7153 47.81 17.846 48.65 17.93C48.482 18.0793 48.3047 18.2847 48.118 18.546C47.9407 18.8167 47.8007 19.05 47.698 19.246C46.8113 19.1247 45.9713 18.938 45.178 18.686C44.394 18.434 43.68 18.1167 43.036 17.734C42.4013 17.342 41.8553 16.8893 41.398 16.376L42.756 15.858ZM40.25 6.814H48.384V8.004H40.25V6.814ZM41.818 10.818H47.712V11.658H41.818V10.818ZM41.818 12.078H47.712V12.904H41.818V12.078ZM42 6.086H43.498V8.676H42V6.086ZM44.002 9.852H45.458V14.136H44.002V9.852ZM45.122 6.086H46.62V8.676H45.122V6.086ZM41.538 8.354L42.854 8.69C42.6113 9.28733 42.2987 9.87067 41.916 10.44C41.5333 11.0093 41.1367 11.4853 40.726 11.868C40.6607 11.7933 40.5627 11.7 40.432 11.588C40.3013 11.476 40.166 11.3687 40.026 11.266C39.886 11.154 39.7647 11.0653 39.662 11C40.054 10.6733 40.4133 10.2767 40.74 9.81C41.076 9.334 41.342 8.84867 41.538 8.354ZM44.408 8.41L45.934 8.648C45.794 8.928 45.654 9.18933 45.514 9.432C45.374 9.66533 45.248 9.87067 45.136 10.048L43.848 9.81C43.9507 9.59533 44.0533 9.362 44.156 9.11C44.268 8.84867 44.352 8.61533 44.408 8.41ZM48.006 9.376V10.412H42.588V13.352H48.342V14.388H41.132V9.376H48.006ZM35.994 10.398H39.718V11.672H35.994V10.398ZM36.092 6.548H39.69V7.808H36.092V6.548ZM35.994 12.316H39.718V13.576H35.994V12.316ZM35.42 8.424H40.082V9.754H35.42V8.424ZM36.764 14.248H39.704V18.49H36.764V17.174H38.36V15.564H36.764V14.248ZM35.952 14.248H37.268V19.064H35.952V14.248ZM49.742 6.8H55.958V8.312H49.742V6.8ZM57.106 10.846H62.608V12.47H57.106V10.846ZM59.696 11.98H61.348V19.26H59.696V11.98ZM56.448 7.36L58.464 7.822C58.4453 7.962 58.3193 8.05067 58.086 8.088V11.266C58.086 11.8353 58.058 12.4653 58.002 13.156C57.946 13.8373 57.8293 14.542 57.652 15.27C57.484 15.9887 57.2273 16.6887 56.882 17.37C56.546 18.0513 56.098 18.672 55.538 19.232C55.4727 19.1107 55.3653 18.9753 55.216 18.826C55.0667 18.6767 54.908 18.532 54.74 18.392C54.5813 18.2613 54.4367 18.1633 54.306 18.098C54.7913 17.6033 55.174 17.0667 55.454 16.488C55.7433 15.9093 55.958 15.3167 56.098 14.71C56.2473 14.1033 56.3407 13.506 56.378 12.918C56.4247 12.3207 56.448 11.7607 56.448 11.238V7.36ZM50.19 9.376H51.786V12.96C51.786 13.4267 51.772 13.94 51.744 14.5C51.716 15.0507 51.6553 15.6107 51.562 16.18C51.4687 16.7493 51.338 17.3 51.17 17.832C51.002 18.364 50.7827 18.8447 50.512 19.274C50.428 19.1713 50.302 19.0547 50.134 18.924C49.966 18.7933 49.7933 18.6673 49.616 18.546C49.448 18.4247 49.308 18.3313 49.196 18.266C49.504 17.762 49.728 17.202 49.868 16.586C50.008 15.9607 50.0967 15.3353 50.134 14.71C50.1713 14.0753 50.19 13.4873 50.19 12.946V9.376ZM61.054 6.24L62.524 7.5C62.0293 7.74267 61.488 7.97133 60.9 8.186C60.312 8.39133 59.7147 8.578 59.108 8.746C58.5013 8.914 57.9087 9.068 57.33 9.208C57.2927 9.012 57.2133 8.78333 57.092 8.522C56.98 8.25133 56.8727 8.032 56.77 7.864C57.2927 7.724 57.8153 7.57 58.338 7.402C58.87 7.234 59.3693 7.052 59.836 6.856C60.312 6.65067 60.718 6.44533 61.054 6.24ZM51.114 9.376H55.678V14.15H51.114V12.652H54.054V10.874H51.114V9.376Z" fill="black" fill-opacity="0.2"/>
<defs>
<clipPath id="clip0_937_4241">
<rect width="12" height="16" fill="white" transform="translate(5 5)"/>
</clipPath>
</defs>
</svg>
