<svg width="56" height="26" viewBox="0 0 56 26" fill="none" xmlns="http://www.w3.org/2000/svg">
<rect width="56" height="26" rx="3" fill="#FFE8E8"/>
<g clip-path="url(#clip0_990_10699)">
<path d="M15.0463 11.8366L12.9602 14.4687V6.6982C12.9602 6.16284 12.4831 5.86234 12.0271 5.87395C11.5712 5.88556 11.1659 6.1874 11.1659 6.6982L11.1229 12.0013H10.7602V5.89628C10.7602 4.76975 9.09183 4.63535 9.09183 5.89628V12.0326H8.72738C8.72738 12.0326 8.74028 8.12835 8.72738 6.81875C8.71449 5.51407 7.02894 5.66901 7.02894 6.81875V12.7269H6.66879V8.90705C6.66879 7.62514 5 7.64836 5 8.90705V16.1462C5 18.7596 7.29969 21.0006 7.29969 21.0006L12.7354 20.9698L17 11.6714C17 11.6714 15.9183 10.931 15.0458 11.8375L15.0463 11.8366ZM11.511 6.82233C11.511 6.50575 11.7581 6.24902 12.0628 6.24902C12.3675 6.24902 12.6146 6.50575 12.6146 6.82233V7.52735H11.511V6.82233ZM11.511 8.84275V7.90108H12.3306L11.511 8.84275ZM12.6146 11.1409H11.511V9.70763H12.6146V11.1409ZM12.6146 8.28061V9.33435H11.7186L12.6146 8.28061Z" fill="#CD0000"/>
<path d="M11.9315 15.5147H10.3048V13.8247H8.69015V15.5147H7.06348V17.1922H8.69015V18.8822H10.3048V17.1922H11.9315V15.5147Z" fill="white"/>
</g>
<path d="M23.616 8.438H30.448V9.978H23.616V8.438ZM26.29 6.086H27.928V17.552C27.928 17.9533 27.8813 18.2613 27.788 18.476C27.6947 18.7 27.5267 18.8773 27.284 19.008C27.0413 19.1293 26.7427 19.204 26.388 19.232C26.0333 19.2693 25.5947 19.288 25.072 19.288C25.044 19.0827 24.9833 18.8353 24.89 18.546C24.7967 18.266 24.6987 18.0233 24.596 17.818C24.8853 17.8273 25.17 17.8367 25.45 17.846C25.73 17.846 25.9167 17.846 26.01 17.846C26.1127 17.8367 26.1827 17.8133 26.22 17.776C26.2667 17.7293 26.29 17.6593 26.29 17.566V6.086ZM23.322 15.718C23.6673 15.5127 24.078 15.256 24.554 14.948C25.0393 14.6307 25.5293 14.2993 26.024 13.954L26.556 15.256C26.1453 15.5733 25.7207 15.8953 25.282 16.222C24.8527 16.5487 24.4373 16.8473 24.036 17.118L23.322 15.718ZM23.77 11.196L25.03 10.636C25.254 11.0093 25.4687 11.4153 25.674 11.854C25.8887 12.2927 26.0333 12.6753 26.108 13.002L24.778 13.632C24.7313 13.4173 24.652 13.17 24.54 12.89C24.4373 12.6007 24.316 12.3113 24.176 12.022C24.0453 11.7233 23.91 11.448 23.77 11.196ZM29.006 10.468L30.518 11.056C30.2753 11.4853 30.0327 11.924 29.79 12.372C29.5473 12.82 29.3187 13.198 29.104 13.506L27.956 12.988C28.0773 12.764 28.2033 12.5073 28.334 12.218C28.474 11.9193 28.6047 11.6207 28.726 11.322C28.8473 11.014 28.9407 10.7293 29.006 10.468ZM28.278 6.828L29.44 6.142C29.7013 6.37533 29.958 6.646 30.21 6.954C30.4713 7.25267 30.6673 7.52333 30.798 7.766L29.566 8.522C29.454 8.27933 29.272 7.99933 29.02 7.682C28.7773 7.36467 28.53 7.08 28.278 6.828ZM26.934 14.654L27.956 13.632C28.2547 13.8467 28.5673 14.0893 28.894 14.36C29.23 14.6307 29.5427 14.9013 29.832 15.172C30.1307 15.4427 30.3733 15.69 30.56 15.914L29.468 17.076C29.3 16.852 29.0713 16.5953 28.782 16.306C28.502 16.0167 28.1987 15.7273 27.872 15.438C27.5453 15.1487 27.2327 14.8873 26.934 14.654ZM31.47 8.69H36.566V10.244H31.47V8.69ZM31.68 6.086L33.374 6.324C33.2527 7.28533 33.0893 8.22333 32.884 9.138C32.6787 10.0433 32.4267 10.888 32.128 11.672C31.8387 12.456 31.4887 13.1373 31.078 13.716C31.0033 13.6133 30.8867 13.4827 30.728 13.324C30.5693 13.1653 30.406 13.0067 30.238 12.848C30.0793 12.6893 29.9347 12.5633 29.804 12.47C30.168 11.9753 30.4667 11.392 30.7 10.72C30.9427 10.048 31.1433 9.32 31.302 8.536C31.4607 7.74267 31.5867 6.926 31.68 6.086ZM32.422 10.034C32.6367 11.1447 32.9353 12.1993 33.318 13.198C33.7007 14.1873 34.1813 15.0787 34.76 15.872C35.3387 16.656 36.0247 17.2813 36.818 17.748C36.6873 17.86 36.538 18.0047 36.37 18.182C36.2113 18.3593 36.0573 18.5413 35.908 18.728C35.768 18.924 35.6513 19.1013 35.558 19.26C34.718 18.672 34.004 17.93 33.416 17.034C32.8373 16.1287 32.3567 15.1067 31.974 13.968C31.6007 12.82 31.288 11.5973 31.036 10.3L32.422 10.034ZM34.536 8.76L36.034 9.572C35.8473 11.1027 35.53 12.512 35.082 13.8C34.6433 15.0787 34.032 16.1893 33.248 17.132C32.4733 18.0747 31.484 18.8073 30.28 19.33C30.196 19.1713 30.0793 18.9987 29.93 18.812C29.79 18.6253 29.6407 18.4433 29.482 18.266C29.3233 18.0887 29.1647 17.9347 29.006 17.804C30.21 17.3747 31.1853 16.74 31.932 15.9C32.688 15.0507 33.2667 14.0287 33.668 12.834C34.0787 11.63 34.368 10.272 34.536 8.76ZM42.432 14.822H48.914V16.012H42.432V14.822ZM48.522 14.822H48.816L49.082 14.752L50.034 15.242C49.7073 15.858 49.278 16.3947 48.746 16.852C48.2233 17.3093 47.6307 17.6967 46.968 18.014C46.3053 18.3313 45.5913 18.5927 44.826 18.798C44.0607 19.0033 43.2627 19.1667 42.432 19.288C42.3667 19.1013 42.2687 18.882 42.138 18.63C42.0167 18.378 41.8907 18.1773 41.76 18.028C42.5067 17.9533 43.23 17.8413 43.93 17.692C44.63 17.5333 45.2787 17.3327 45.876 17.09C46.4827 16.8473 47.01 16.5533 47.458 16.208C47.9153 15.8627 48.27 15.466 48.522 15.018V14.822ZM44.756 15.858C45.12 16.222 45.6007 16.5487 46.198 16.838C46.7953 17.118 47.4767 17.3513 48.242 17.538C49.0073 17.7153 49.81 17.846 50.65 17.93C50.482 18.0793 50.3047 18.2847 50.118 18.546C49.9407 18.8167 49.8007 19.05 49.698 19.246C48.8113 19.1247 47.9713 18.938 47.178 18.686C46.394 18.434 45.68 18.1167 45.036 17.734C44.4013 17.342 43.8553 16.8893 43.398 16.376L44.756 15.858ZM42.25 6.814H50.384V8.004H42.25V6.814ZM43.818 10.818H49.712V11.658H43.818V10.818ZM43.818 12.078H49.712V12.904H43.818V12.078ZM44 6.086H45.498V8.676H44V6.086ZM46.002 9.852H47.458V14.136H46.002V9.852ZM47.122 6.086H48.62V8.676H47.122V6.086ZM43.538 8.354L44.854 8.69C44.6113 9.28733 44.2987 9.87067 43.916 10.44C43.5333 11.0093 43.1367 11.4853 42.726 11.868C42.6607 11.7933 42.5627 11.7 42.432 11.588C42.3013 11.476 42.166 11.3687 42.026 11.266C41.886 11.154 41.7647 11.0653 41.662 11C42.054 10.6733 42.4133 10.2767 42.74 9.81C43.076 9.334 43.342 8.84867 43.538 8.354ZM46.408 8.41L47.934 8.648C47.794 8.928 47.654 9.18933 47.514 9.432C47.374 9.66533 47.248 9.87067 47.136 10.048L45.848 9.81C45.9507 9.59533 46.0533 9.362 46.156 9.11C46.268 8.84867 46.352 8.61533 46.408 8.41ZM50.006 9.376V10.412H44.588V13.352H50.342V14.388H43.132V9.376H50.006ZM37.994 10.398H41.718V11.672H37.994V10.398ZM38.092 6.548H41.69V7.808H38.092V6.548ZM37.994 12.316H41.718V13.576H37.994V12.316ZM37.42 8.424H42.082V9.754H37.42V8.424ZM38.764 14.248H41.704V18.49H38.764V17.174H40.36V15.564H38.764V14.248ZM37.952 14.248H39.268V19.064H37.952V14.248Z" fill="#FF0000"/>
<path d="M23.616 8.438H30.448V9.978H23.616V8.438ZM26.29 6.086H27.928V17.552C27.928 17.9533 27.8813 18.2613 27.788 18.476C27.6947 18.7 27.5267 18.8773 27.284 19.008C27.0413 19.1293 26.7427 19.204 26.388 19.232C26.0333 19.2693 25.5947 19.288 25.072 19.288C25.044 19.0827 24.9833 18.8353 24.89 18.546C24.7967 18.266 24.6987 18.0233 24.596 17.818C24.8853 17.8273 25.17 17.8367 25.45 17.846C25.73 17.846 25.9167 17.846 26.01 17.846C26.1127 17.8367 26.1827 17.8133 26.22 17.776C26.2667 17.7293 26.29 17.6593 26.29 17.566V6.086ZM23.322 15.718C23.6673 15.5127 24.078 15.256 24.554 14.948C25.0393 14.6307 25.5293 14.2993 26.024 13.954L26.556 15.256C26.1453 15.5733 25.7207 15.8953 25.282 16.222C24.8527 16.5487 24.4373 16.8473 24.036 17.118L23.322 15.718ZM23.77 11.196L25.03 10.636C25.254 11.0093 25.4687 11.4153 25.674 11.854C25.8887 12.2927 26.0333 12.6753 26.108 13.002L24.778 13.632C24.7313 13.4173 24.652 13.17 24.54 12.89C24.4373 12.6007 24.316 12.3113 24.176 12.022C24.0453 11.7233 23.91 11.448 23.77 11.196ZM29.006 10.468L30.518 11.056C30.2753 11.4853 30.0327 11.924 29.79 12.372C29.5473 12.82 29.3187 13.198 29.104 13.506L27.956 12.988C28.0773 12.764 28.2033 12.5073 28.334 12.218C28.474 11.9193 28.6047 11.6207 28.726 11.322C28.8473 11.014 28.9407 10.7293 29.006 10.468ZM28.278 6.828L29.44 6.142C29.7013 6.37533 29.958 6.646 30.21 6.954C30.4713 7.25267 30.6673 7.52333 30.798 7.766L29.566 8.522C29.454 8.27933 29.272 7.99933 29.02 7.682C28.7773 7.36467 28.53 7.08 28.278 6.828ZM26.934 14.654L27.956 13.632C28.2547 13.8467 28.5673 14.0893 28.894 14.36C29.23 14.6307 29.5427 14.9013 29.832 15.172C30.1307 15.4427 30.3733 15.69 30.56 15.914L29.468 17.076C29.3 16.852 29.0713 16.5953 28.782 16.306C28.502 16.0167 28.1987 15.7273 27.872 15.438C27.5453 15.1487 27.2327 14.8873 26.934 14.654ZM31.47 8.69H36.566V10.244H31.47V8.69ZM31.68 6.086L33.374 6.324C33.2527 7.28533 33.0893 8.22333 32.884 9.138C32.6787 10.0433 32.4267 10.888 32.128 11.672C31.8387 12.456 31.4887 13.1373 31.078 13.716C31.0033 13.6133 30.8867 13.4827 30.728 13.324C30.5693 13.1653 30.406 13.0067 30.238 12.848C30.0793 12.6893 29.9347 12.5633 29.804 12.47C30.168 11.9753 30.4667 11.392 30.7 10.72C30.9427 10.048 31.1433 9.32 31.302 8.536C31.4607 7.74267 31.5867 6.926 31.68 6.086ZM32.422 10.034C32.6367 11.1447 32.9353 12.1993 33.318 13.198C33.7007 14.1873 34.1813 15.0787 34.76 15.872C35.3387 16.656 36.0247 17.2813 36.818 17.748C36.6873 17.86 36.538 18.0047 36.37 18.182C36.2113 18.3593 36.0573 18.5413 35.908 18.728C35.768 18.924 35.6513 19.1013 35.558 19.26C34.718 18.672 34.004 17.93 33.416 17.034C32.8373 16.1287 32.3567 15.1067 31.974 13.968C31.6007 12.82 31.288 11.5973 31.036 10.3L32.422 10.034ZM34.536 8.76L36.034 9.572C35.8473 11.1027 35.53 12.512 35.082 13.8C34.6433 15.0787 34.032 16.1893 33.248 17.132C32.4733 18.0747 31.484 18.8073 30.28 19.33C30.196 19.1713 30.0793 18.9987 29.93 18.812C29.79 18.6253 29.6407 18.4433 29.482 18.266C29.3233 18.0887 29.1647 17.9347 29.006 17.804C30.21 17.3747 31.1853 16.74 31.932 15.9C32.688 15.0507 33.2667 14.0287 33.668 12.834C34.0787 11.63 34.368 10.272 34.536 8.76ZM42.432 14.822H48.914V16.012H42.432V14.822ZM48.522 14.822H48.816L49.082 14.752L50.034 15.242C49.7073 15.858 49.278 16.3947 48.746 16.852C48.2233 17.3093 47.6307 17.6967 46.968 18.014C46.3053 18.3313 45.5913 18.5927 44.826 18.798C44.0607 19.0033 43.2627 19.1667 42.432 19.288C42.3667 19.1013 42.2687 18.882 42.138 18.63C42.0167 18.378 41.8907 18.1773 41.76 18.028C42.5067 17.9533 43.23 17.8413 43.93 17.692C44.63 17.5333 45.2787 17.3327 45.876 17.09C46.4827 16.8473 47.01 16.5533 47.458 16.208C47.9153 15.8627 48.27 15.466 48.522 15.018V14.822ZM44.756 15.858C45.12 16.222 45.6007 16.5487 46.198 16.838C46.7953 17.118 47.4767 17.3513 48.242 17.538C49.0073 17.7153 49.81 17.846 50.65 17.93C50.482 18.0793 50.3047 18.2847 50.118 18.546C49.9407 18.8167 49.8007 19.05 49.698 19.246C48.8113 19.1247 47.9713 18.938 47.178 18.686C46.394 18.434 45.68 18.1167 45.036 17.734C44.4013 17.342 43.8553 16.8893 43.398 16.376L44.756 15.858ZM42.25 6.814H50.384V8.004H42.25V6.814ZM43.818 10.818H49.712V11.658H43.818V10.818ZM43.818 12.078H49.712V12.904H43.818V12.078ZM44 6.086H45.498V8.676H44V6.086ZM46.002 9.852H47.458V14.136H46.002V9.852ZM47.122 6.086H48.62V8.676H47.122V6.086ZM43.538 8.354L44.854 8.69C44.6113 9.28733 44.2987 9.87067 43.916 10.44C43.5333 11.0093 43.1367 11.4853 42.726 11.868C42.6607 11.7933 42.5627 11.7 42.432 11.588C42.3013 11.476 42.166 11.3687 42.026 11.266C41.886 11.154 41.7647 11.0653 41.662 11C42.054 10.6733 42.4133 10.2767 42.74 9.81C43.076 9.334 43.342 8.84867 43.538 8.354ZM46.408 8.41L47.934 8.648C47.794 8.928 47.654 9.18933 47.514 9.432C47.374 9.66533 47.248 9.87067 47.136 10.048L45.848 9.81C45.9507 9.59533 46.0533 9.362 46.156 9.11C46.268 8.84867 46.352 8.61533 46.408 8.41ZM50.006 9.376V10.412H44.588V13.352H50.342V14.388H43.132V9.376H50.006ZM37.994 10.398H41.718V11.672H37.994V10.398ZM38.092 6.548H41.69V7.808H38.092V6.548ZM37.994 12.316H41.718V13.576H37.994V12.316ZM37.42 8.424H42.082V9.754H37.42V8.424ZM38.764 14.248H41.704V18.49H38.764V17.174H40.36V15.564H38.764V14.248ZM37.952 14.248H39.268V19.064H37.952V14.248Z" fill="black" fill-opacity="0.2"/>
<defs>
<clipPath id="clip0_990_10699">
<rect width="12" height="16" fill="white" transform="translate(5 5)"/>
</clipPath>
</defs>
</svg>
