<svg width="56" height="24" viewBox="0 0 56 24" fill="none" xmlns="http://www.w3.org/2000/svg">
<rect width="56" height="24" rx="3" fill="#FBE1C6"/>
<g clip-path="url(#clip0_990_10705)">
<path d="M12.1924 5.52672L12.8292 6.27465L13.7626 6.64335L14.3994 7.39128L15.3218 7.75998L15.9587 8.50791L16.892 8.88714L17.5289 9.63507L18.4512 10.0038" stroke="#D97E0D" stroke-width="1.5" stroke-linecap="round" stroke-linejoin="round"/>
<path d="M12.1922 5.52672L11.3906 6.55907L10.5891 7.89692C10.5122 8.02333 10.4353 8.14974 10.3365 8.26562L7.81103 11.5102C7.70122 11.6576 7.58044 11.7841 7.44867 11.9105L6.33965 12.9639L5.53809 13.9962" stroke="#D97E0D" stroke-width="1.5" stroke-linecap="round" stroke-linejoin="round"/>
<path d="M10.7207 7.22272L16.9027 11.6366" stroke="#D97E0D" stroke-width="1.5" stroke-linecap="round" stroke-linejoin="round"/>
<path d="M11.8077 18.4733L11.1708 17.7254L10.2375 17.3567L9.60059 16.6087L8.67824 16.24L8.04138 15.4921L7.11902 15.1129L6.47118 14.3649L5.54883 13.9962" stroke="#D97E0D" stroke-width="1.5" stroke-linecap="round" stroke-linejoin="round"/>
<path d="M11.8076 18.4733L12.6092 17.4409L13.4108 16.1031C13.4876 15.9767 13.5645 15.8503 13.6633 15.7344L16.1888 12.4898C16.2986 12.3424 16.4194 12.216 16.5511 12.0895L17.6602 11.0361L18.4617 10.0038" stroke="#D97E0D" stroke-width="1.5" stroke-linecap="round" stroke-linejoin="round"/>
<path d="M13.0489 16.83L6.87793 12.4161" stroke="#D97E0D" stroke-width="1.5" stroke-linecap="round" stroke-linejoin="round"/>
<path d="M11.9946 13.7434C13.0013 13.7434 13.8174 12.9605 13.8174 11.9947C13.8174 11.029 13.0013 10.246 11.9946 10.246C10.9879 10.246 10.1719 11.029 10.1719 11.9947C10.1719 12.9605 10.9879 13.7434 11.9946 13.7434Z" stroke="#D97E0D" stroke-width="1.5" stroke-linecap="round" stroke-linejoin="round"/>
</g>
<path d="M30.154 9.594H34.774V11.12H30.154V9.594ZM30.294 16.02H34.97V17.504H30.294V16.02ZM32.366 7.004C32.1233 7.41467 31.82 7.858 31.456 8.334C31.092 8.81 30.6953 9.27667 30.266 9.734C29.8367 10.1913 29.3887 10.602 28.922 10.966C28.8193 10.742 28.6747 10.49 28.488 10.21C28.3107 9.92067 28.138 9.68267 27.97 9.496C28.446 9.16 28.9127 8.74933 29.37 8.264C29.8273 7.76933 30.2427 7.26533 30.616 6.752C30.9893 6.22933 31.288 5.74867 31.512 5.31H33.108C33.4253 5.79533 33.7847 6.29467 34.186 6.808C34.5967 7.32133 35.026 7.79733 35.474 8.236C35.9313 8.67467 36.384 9.034 36.832 9.314C36.664 9.52867 36.4867 9.776 36.3 10.056C36.1133 10.336 35.95 10.6113 35.81 10.882C35.3993 10.5553 34.9747 10.168 34.536 9.72C34.1067 9.26267 33.7007 8.796 33.318 8.32C32.9447 7.844 32.6273 7.40533 32.366 7.004ZM29.426 12.366H35.67V18.19H34.06V13.836H30.966V18.246H29.426V12.366ZM25.52 5.114L26.976 5.66C26.7893 6.01467 26.5933 6.38333 26.388 6.766C26.1827 7.14867 25.982 7.51267 25.786 7.858C25.59 8.20333 25.4033 8.502 25.226 8.754L24.106 8.278C24.274 7.98867 24.4467 7.662 24.624 7.298C24.8013 6.934 24.9693 6.56067 25.128 6.178C25.2867 5.79533 25.4173 5.44067 25.52 5.114ZM27.13 6.78L28.502 7.396C28.166 7.928 27.7973 8.488 27.396 9.076C26.9947 9.65467 26.5933 10.2147 26.192 10.756C25.7907 11.288 25.4127 11.7547 25.058 12.156L24.078 11.61C24.3393 11.2927 24.61 10.938 24.89 10.546C25.17 10.1447 25.4453 9.72933 25.716 9.3C25.996 8.86133 26.2573 8.42733 26.5 7.998C26.7427 7.55933 26.9527 7.15333 27.13 6.78ZM23.364 8.432L24.176 7.284C24.4187 7.49867 24.666 7.73667 24.918 7.998C25.1793 8.25 25.4173 8.50667 25.632 8.768C25.856 9.02 26.024 9.24867 26.136 9.454L25.282 10.756C25.17 10.532 25.0067 10.2847 24.792 10.014C24.5867 9.74333 24.358 9.468 24.106 9.188C23.854 8.908 23.6067 8.656 23.364 8.432ZM26.724 10.112L27.83 9.65C28.0073 9.96733 28.18 10.308 28.348 10.672C28.5253 11.0267 28.6747 11.3767 28.796 11.722C28.9267 12.058 29.0153 12.3613 29.062 12.632L27.872 13.164C27.8253 12.8933 27.7413 12.5853 27.62 12.24C27.508 11.8853 27.3727 11.5213 27.214 11.148C27.0553 10.7747 26.892 10.4293 26.724 10.112ZM23.35 11.274C23.994 11.2553 24.764 11.2273 25.66 11.19C26.556 11.1527 27.466 11.1153 28.39 11.078L28.376 12.408C27.508 12.4733 26.6447 12.534 25.786 12.59C24.9367 12.646 24.1713 12.6973 23.49 12.744L23.35 11.274ZM27.018 13.598L28.194 13.22C28.3713 13.6213 28.5393 14.06 28.698 14.536C28.866 15.0027 28.992 15.4133 29.076 15.768L27.83 16.216C27.7647 15.8613 27.6527 15.4413 27.494 14.956C27.3353 14.4613 27.1767 14.0087 27.018 13.598ZM23.966 13.332L25.352 13.584C25.2773 14.256 25.1653 14.9187 25.016 15.572C24.8667 16.2253 24.694 16.776 24.498 17.224C24.4047 17.1587 24.2787 17.084 24.12 17C23.9613 16.9253 23.798 16.8507 23.63 16.776C23.4713 16.7013 23.3313 16.6453 23.21 16.608C23.4153 16.188 23.5787 15.6887 23.7 15.11C23.8213 14.522 23.91 13.9293 23.966 13.332ZM25.534 12.016H27.004V18.26H25.534V12.016ZM43.944 6.542C43.5427 7.00867 43.0433 7.48 42.446 7.956C41.8487 8.432 41.1953 8.88467 40.486 9.314C39.7767 9.734 39.0487 10.1073 38.302 10.434C38.2367 10.3033 38.148 10.154 38.036 9.986C37.924 9.80867 37.8073 9.64067 37.686 9.482C37.5647 9.314 37.4433 9.16933 37.322 9.048C38.0967 8.74933 38.848 8.38067 39.576 7.942C40.304 7.50333 40.9667 7.03667 41.564 6.542C42.1613 6.038 42.6467 5.54333 43.02 5.058H44.714C45.106 5.506 45.5353 5.926 46.002 6.318C46.478 6.70067 46.9727 7.05533 47.486 7.382C47.9993 7.70867 48.5267 8.00267 49.068 8.264C49.6187 8.516 50.1693 8.73067 50.72 8.908C50.524 9.11333 50.3327 9.35133 50.146 9.622C49.9593 9.89267 49.796 10.1493 49.656 10.392C48.984 10.1027 48.2887 9.75267 47.57 9.342C46.8513 8.922 46.1747 8.46933 45.54 7.984C44.9053 7.49867 44.3733 7.018 43.944 6.542ZM40.864 10.994H47.024V12.198H40.864V10.994ZM43.104 7.886H44.84V9.776H43.104V7.886ZM38.358 16.58C38.89 16.5333 39.4873 16.4867 40.15 16.44C40.822 16.384 41.5267 16.328 42.264 16.272C43.0013 16.2067 43.734 16.1413 44.462 16.076L44.49 17.56C43.7993 17.6253 43.0993 17.6907 42.39 17.756C41.69 17.8307 41.0133 17.896 40.36 17.952C39.716 18.0173 39.1233 18.0733 38.582 18.12L38.358 16.58ZM44.434 13.766C44.938 14.6153 45.6987 15.292 46.716 15.796C47.7427 16.2907 48.984 16.622 50.44 16.79C50.328 16.9113 50.2067 17.056 50.076 17.224C49.9453 17.4013 49.824 17.5787 49.712 17.756C49.6 17.9427 49.5067 18.1107 49.432 18.26C48.396 18.092 47.472 17.8307 46.66 17.476C45.848 17.1213 45.1433 16.6733 44.546 16.132C43.9487 15.5813 43.44 14.9187 43.02 14.144L44.434 13.766ZM48.564 13.472L49.782 14.48C49.4273 14.7227 49.0493 14.9653 48.648 15.208C48.2467 15.4413 47.8453 15.6607 47.444 15.866C47.0427 16.062 46.6647 16.2393 46.31 16.398L45.316 15.488C45.6613 15.32 46.03 15.124 46.422 14.9C46.814 14.6667 47.2013 14.4287 47.584 14.186C47.9667 13.934 48.2933 13.696 48.564 13.472ZM40.864 8.95H48.158V14.27H40.864V12.968H46.45V10.266H40.864V8.95ZM39.814 8.95H41.48V16.776L39.814 16.944V8.95Z" fill="#D27400"/>
<defs>
<clipPath id="clip0_990_10705">
<rect width="14" height="14" fill="white" transform="translate(5 5)"/>
</clipPath>
</defs>
</svg>
