<?xml version="1.0" encoding="UTF-8"?>
<svg id="_レイヤー_2" data-name="レイヤー 2" xmlns="http://www.w3.org/2000/svg" width="137.96mm" height="80.47mm" viewBox="0 0 391.07 228.1">
  <defs>
    <style>
      .cls-1 {
        fill: #5dc2d0;
      }

      .cls-2 {
        fill: #fff;
      }

      .cls-3 {
        fill: #e60019;
      }

      .cls-4 {
        fill: #0076c3;
      }

      .cls-5 {
        fill: #231815;
      }
    </style>
  </defs>
  <g id="_レイヤー_1-2" data-name="レイヤー 1">
    <g>
      <g>
        <path class="cls-4" d="M35.06,211.31l-3.52,15.6h-9.57l-3.53-15.36c-.73-3.21-1.62-7.08-2.29-10.83.06,3.33.06,7.86.06,11.07v15.12H2.83v-48.39h18.91l3.52,17.02c.56,2.74,1.23,6.01,1.68,8.75.5-2.8,1.12-5.89,1.79-8.87l3.69-16.91h18.35v48.39h-13.6v-15.36c0-3.15.06-7.56.11-10.83-.73,3.75-1.51,7.44-2.24,10.6Z"/>
        <path class="cls-4" d="M73.54,178.51h13.99l15.48,48.39h-16.79l-1.43-6.37h-9.7l-1.55,6.37h-15.89l15.89-48.39ZM82.47,210.18l-2.38-11.61-2.44,11.61h4.82Z"/>
        <path class="cls-4" d="M111.05,178.51h22.68c10.3,0,17.86,5.6,17.86,16.96,0,6.67-2.38,11.19-6.01,13.57l6.96,17.86h-17.38l-5.48-14.7h-1.73v14.7h-16.91v-48.39ZM131.64,200.48c2.14,0,3.63-1.49,3.63-4.05,0-2.98-1.67-4.23-3.75-4.23h-3.57v8.27h3.69Z"/>
        <path class="cls-4" d="M174.09,178.51h13.99l15.48,48.39h-16.79l-1.43-6.37h-9.7l-1.55,6.37h-15.89l15.89-48.39ZM183.02,210.18l-2.38-11.61-2.44,11.61h4.82Z"/>
        <path class="cls-4" d="M216.11,192.56h-11.07v-14.05h39.05v14.05h-11.07v34.35h-16.91v-34.35Z"/>
        <path class="cls-4" d="M253.02,178.51h16.91v17.08h6.55v-17.08h16.9v48.39h-16.9v-17.02h-6.55v17.02h-16.91v-48.39Z"/>
        <path class="cls-4" d="M300.82,211.31v-17.14c0-7.98,5.36-16.85,20.48-16.85,13.93,0,20.48,7.5,20.48,16.85v17.14c0,7.98-5.18,16.79-20.42,16.79-13.81,0-20.54-7.44-20.54-16.79ZM325.47,210.12v-14.4c0-2.32-.83-4.7-4.11-4.7s-4.23,2.08-4.23,4.7v14.4c0,2.32,1.01,4.17,4.11,4.17,3.33,0,4.23-1.67,4.23-4.17Z"/>
        <path class="cls-4" d="M350.71,178.51h15l5.83,12.32c1.49,3.15,2.86,6.13,4.17,9.23-.12-2.86-.12-6.43-.12-9.4v-12.14h15.48v48.39h-14.4l-7.56-15c-1.31-2.56-2.68-5.42-3.99-8.33.06,2.98.12,6.43.12,9.29v14.05h-14.52v-48.39Z"/>
      </g>
      <g>
        <path class="cls-4" d="M15.89,112.74h13.99l15.48,48.39h-16.79l-1.43-6.37h-9.7l-1.55,6.37H0l15.89-48.39ZM24.82,144.4l-2.38-11.61-2.44,11.61h4.82Z"/>
        <path class="cls-4" d="M53.84,144.4v-16.01c0-7.98,5.36-16.85,20.48-16.85,13.93,0,20.48,7.5,20.48,16.85v16.01c0,6.9-3.45,12.44-10.66,15.54l5.95,9.7h-17.02l-5.18-8.93c-8.15-1.49-14.05-7.44-14.05-16.31ZM78.48,144.34v-14.4c0-2.32-.83-4.7-4.11-4.7s-4.23,2.08-4.23,4.7v14.4c0,2.32,1.01,4.17,4.11,4.17,3.33,0,4.23-1.67,4.23-4.17Z"/>
        <path class="cls-4" d="M106.35,145.42v-32.68h16.91v30.83c0,2.14,1.37,3.21,3.21,3.21,2.02,0,3.33-.83,3.33-3.21v-30.83h16.91v32.68c0,11.49-8.99,16.9-20.3,16.9s-20.06-5.83-20.06-16.9Z"/>
        <path class="cls-4" d="M170.45,112.74h13.99l15.48,48.39h-16.79l-1.43-6.37h-9.7l-1.55,6.37h-15.89l15.89-48.39ZM179.38,144.4l-2.38-11.61-2.44,11.61h4.82Z"/>
        <path class="cls-4" d="M212.66,112.74h16.9v34.35h16.37v14.05h-33.28v-48.39Z"/>
        <path class="cls-4" d="M261.53,112.74h16.91v48.39h-16.91v-48.39Z"/>
        <path class="cls-4" d="M296.74,112.74h15l5.83,12.32c1.49,3.15,2.86,6.13,4.17,9.23-.12-2.86-.12-6.43-.12-9.4v-12.14h15.48v48.39h-14.4l-7.56-15c-1.31-2.56-2.68-5.42-3.99-8.33.06,2.98.12,6.43.12,9.29v14.05h-14.52v-48.39Z"/>
        <path class="cls-4" d="M352.24,112.74h34.29v14.05h-18.04v3.69h17.08v12.86h-17.08v3.75h17.86v14.05h-34.11v-48.39Z"/>
      </g>
      <g>
        <path class="cls-5" d="M0,98.1c12.49-13.82,15.37-17.69,15.37-20.47,0-1.77-1.22-3.03-2.99-3.03-2.55,0-4.73,1.59-7.02,5.1l-3.4-7.02c2.73-3.47,6.24-5.17,10.6-5.17,6.28,0,10.49,3.99,10.49,9.94,0,4.03-1.66,7.13-7.24,13.6h8.35v7.06H0Z"/>
        <path class="cls-5" d="M37.02,98.69c-3.73,0-7.09-1.96-8.94-5.21-1.44-2.51-2.18-6.02-2.18-10.38,0-4.84.92-8.68,2.7-11.23,1.96-2.81,5.02-4.36,8.53-4.36,3.88,0,7.17,1.88,9.05,5.21,1.44,2.51,2.18,5.98,2.18,10.42,0,10.01-4.06,15.55-11.34,15.55ZM37.13,74.61c-2.36,0-3.55,2.81-3.55,8.39,0,5.87,1.15,8.64,3.58,8.64s3.51-2.88,3.51-8.53-1.18-8.5-3.55-8.5Z"/>
        <path class="cls-5" d="M48.77,98.1c12.49-13.82,15.37-17.69,15.37-20.47,0-1.77-1.22-3.03-2.99-3.03-2.55,0-4.73,1.59-7.02,5.1l-3.4-7.02c2.73-3.47,6.24-5.17,10.6-5.17,6.28,0,10.49,3.99,10.49,9.94,0,4.03-1.66,7.13-7.24,13.6h8.35v7.06h-24.16Z"/>
        <path class="cls-5" d="M86.35,98.69c-7.13,0-11.79-5.43-11.79-13.78,0-5.58,2-10.57,5.54-13.82,2.7-2.48,5.73-3.58,9.68-3.58.74,0,1.59.04,2.84.15v7.09c-.85-.15-1.48-.18-2.25-.18-3.14,0-5.13,1-6.95,3.51,1.48-.52,2.4-.66,3.73-.66,5.84,0,10.16,4.43,10.16,10.42s-4.69,10.86-10.97,10.86ZM86.17,84.18c-2.25,0-3.92,1.44-3.92,3.4,0,2.25,1.74,4.06,3.92,4.06s3.47-1.51,3.47-3.95c0-2.22-1.29-3.51-3.47-3.51Z"/>
      </g>
      <path class="cls-5" d="M123.31,71.97h-6.68c-2.46,0-4.45,1.99-4.45,4.45h0v13.36h0c0,2.46,1.99,4.45,4.45,4.45h6.68v4.45h-6.68c-4.92,0-8.91-3.99-8.91-8.91v-13.36c0-4.92,3.99-8.91,8.91-8.91h6.68v4.45ZM150.03,80.88v17.82h-4.45v-13.36h-8.91v13.36h-4.45v-31.18h4.45v13.36h8.91v-13.36h4.45v13.36ZM164.51,98.69h-4.45v-31.18h4.45v31.18ZM192.35,89.78c0,4.92-3.99,8.91-8.91,8.91h-8.91v-31.18h8.91c4.92,0,8.91,3.99,8.91,8.91,0,2.66-1.17,5.05-3.02,6.68,1.85,1.63,3.02,4.02,3.02,6.68ZM219.08,98.69h-4.45v-8.91h-8.91v8.91h-4.45v-22.27c0-4.92,3.99-8.91,8.91-8.91s8.91,3.99,8.91,8.91h0v22.27ZM183.44,71.97h0s-4.45,0-4.45,0v8.91h4.45c2.46,0,4.45-1.99,4.45-4.45s-1.99-4.45-4.45-4.45ZM183.44,85.33h-4.46v8.91h4.45c2.46,0,4.45-1.99,4.45-4.45s-1.99-4.45-4.45-4.45ZM210.17,71.97c-2.46,0-4.45,1.99-4.45,4.45v8.91h8.91v-8.91h0c0-2.46-1.99-4.45-4.45-4.45Z"/>
      <g>
        <g>
          <path class="cls-5" d="M384.13,71.99c-3.38-2.43-7.04-3.07-9.38-1.75-2.11-3.92-6.05-6.46-10.28-6.57-3.24-.12-6.04,1.3-7.63,3.74-4.49-2.45-8.66-.98-10.89,1.72-2.14,2.58-2.98,6.92.24,10.32,3.1,3.26,8.02,3.99,11,2.8.58-.23,1.05-.53,1.42-.87.19.28.38.55.59.8,0,.14.03.28.1.41.61,1.16.64,2.09.12,2.85-2.3,3.31-14.16,3.54-21.44,2.64-.49-.06-1.09-.16-1.78-.27-5.97-.97-18.41-2.98-24.87,7.6-.19.31-.17.69.04.98.21.29.59.42.92.34.07-.02,6.92-1.66,12.65-1.5,6.02.19,13.36,2.66,20.45,5.06,3.23,1.09,8.01,2.21,13.28,2.75.07.02.15.03.23.02,1.96.2,3.99.31,6.03.31,1.14,0,2.28-.04,3.41-.11,10.29-.69,17.44-4.53,20.69-11.12,4.19-8.48.56-16.24-4.9-20.16Z"/>
          <path class="cls-4" d="M360.87,86.45c.36-.52.68-1.24.68-2.18,2.56,1.6,5.66,1.82,8.2,1.1.34-.1.66-.21.97-.33.68,1.44.81,2.73.33,3.83-.65,1.48-2.38,2.68-4.88,3.37-4.93,1.37-9.86,1.24-17.02-.46-1.15-.27-2.73-.74-4.55-1.27-.28-.08-.58-.17-.86-.25,6.42.19,14.76-.38,17.14-3.81Z"/>
          <path class="cls-1" d="M358.95,101.29c-5.03-.5-9.68-1.56-13-2.68-7.22-2.44-14.68-4.95-20.96-5.15-.32-.01-.63-.01-.95-.01-3.69,0-7.57.62-9.93,1.08,3.61-4.42,8.73-5.64,13.39-5.74.05,0,.09.02.14.02,4.47-.14,11.39,1.91,16.46,3.4,1.85.54,3.45,1.02,4.65,1.3,4.06.96,7.45,1.44,10.54,1.44,2.59,0,4.97-.33,7.36-1,3.02-.84,5.16-2.39,6.03-4.37.71-1.62.56-3.43-.39-5.39,1.22-.87,1.97-2.03,2.07-3.28,1.12-.29,2.18.07,2.92.46,1.83.97,3.39,3.01,3.71,4.86.37,2.14.33,5.29-1.95,8.14-3.25,4.06-10,6.39-20.07,6.92Z"/>
          <path class="cls-2" d="M387.44,91.36c-3.02,6.11-9.44,8.93-16.58,9.86,4.32-1.29,7.51-3.21,9.54-5.75,2.69-3.36,2.74-7.04,2.31-9.54-.41-2.38-2.31-4.9-4.63-6.12-.97-.51-1.96-.77-2.91-.77-.73,0-1.43.15-2.09.45-.35.16-.56.53-.51.91.2,1.56-1.52,2.76-3.3,3.27-3.33.95-7.85-.07-9.88-4.53-.17-.38-.59-.59-.99-.5-.41.09-.7.45-.7.86s-.44.81-1.17,1.1c-1.99.79-6.25.59-9.06-2.38-2.49-2.62-1.83-5.97-.17-7.97,1.73-2.08,5.22-3.57,9.37-.88.21.14.47.18.71.11.24-.07.45-.23.56-.46,1.16-2.32,3.6-3.68,6.47-3.59,3.9.1,7.51,2.65,9.19,6.5.12.27.36.46.65.51.28.05.58-.04.79-.24,1.54-1.54,4.93-1.03,8.05,1.21,4.5,3.23,8.34,9.86,4.35,17.94Z"/>
        </g>
        <g>
          <path class="cls-1" d="M304.05,50.79c-.31-.89-1.58-4.55-2.08-5.99-5.08,4.11-13.47,7.24-19.86,9.09-.11.14-.22.28-.33.41-.43,2.08-.7,4.16-.78,5.96,9.39-2.58,21.06-8.32,23.05-9.48Z"/>
          <path class="cls-3" d="M280.49,94.44c.3-.15,2.99-1.4,4.1.22,1.55,2.26,3.17,3.53,4.68,3.66,1.12.1,1.76-.47,1.78-.48.03-.03.07-.08.09-.1.08-.07,1.86-1.78-.07-6.55-.85-2.29-3.78-8.02-7.05-7.1-.05.01-.1.02-.14.03-.08,0-2.09.24-3.11,2.2-.08.15-.2.27-.36.35-.06.03-1.47.7-3.12.05-.39-.15-.76-.37-1.1-.64-2.44,2.94-5.58,5.6-8.51,7.75,1.67,1.23,3.76,2.23,6.08,2.08.03,0,3.43,0,6.73-1.46Z"/>
          <path class="cls-3" d="M253.32,87.92c.19.16.3.4.29.65-.01.25-.14.48-.35.62-.03.02-3.55,2.42-4.47,5.12l-.64.73c-.71.34-1.62,0-2.89-.47-1.82-.68-4.08-1.52-5.62-.33-.31.24-.48.56-.51,1.01-.13,1.73,1.73,4.77,4.96,8.14,1.69,1.76,4.71,3.41,6.97,3.01,1.23-.22,2.11-.99,2.72-2.36l.47-1.38c.46-1.58.94-3.21,3.89-4.7,4.9-2.48,19.21-11.54,20.68-20.35,0-.04.01-.08.02-.12-3.12.37-6.65.57-10.25.33-.62,0-13.9,0-21.36-4.76.08,1.69.34,3.53.83,5.61,1.42,5.98,5.22,9.21,5.26,9.24Z"/>
          <path class="cls-3" d="M299.44,35.67c5.46-.44,9.27-2.36,9.79-3.97.07-.22.29-.9-.88-1.9-1.08-.92-2.26-1.49-3.62-2.16-.65-.32-1.34-.66-2.08-1.06-1.1,2.57-3.52,5.51-7.23,8.79,1.24.28,2.58.41,4.03.29Z"/>
          <path d="M302.64,26.59c.74.4,1.44.74,2.08,1.06,1.36.66,2.53,1.23,3.62,2.16,1.17.99.95,1.68.88,1.9-.52,1.61-4.32,3.54-9.79,3.97-1.45.12-2.79-.02-4.03-.29-.83.74-1.72,1.49-2.68,2.26-.13.24-.44.8-.88,1.59.02-.01.04-.03.05-.04,1.11-.9,2.05-1.68,2.74-2.34,1.5.38,3.14.57,4.92.43,4.72-.38,10.23-2.13,11.18-5.07.28-.88.28-2.21-1.36-3.61-1.24-1.06-2.49-1.67-3.95-2.38-.7-.34-1.46-.71-2.27-1.17-.11.5-.28,1.01-.51,1.54Z"/>
          <path class="cls-3" d="M245.89,37.5c.2-.46.4-.82.61-1.11-.47-.1-.9-.24-1.31-.39l-.09.11c-1.23,1.44-2.51,2.93-2.33,4.03.09.52.51,1,1.31,1.48.37.22.56.23.6.21.32-.15.55-1.47.68-2.19.13-.75.27-1.53.54-2.14Z"/>
          <path class="cls-3" d="M301.67,22.89c-.39-2.09-2.51-2.83-2.74-2.91-3.27-.66-6.08-.2-8.35,1.39-4.44,3.09-5.48,9.48-5.49,9.55-.03.19-.13.37-.27.49-4.14,3.49-13.28,15.36-14.05,16.36-.03.04-.05.07-.06.07-.27.35-.77.42-1.12.15-.21-.16-.31-.4-.31-.64,0-.17.05-.34.16-.48.4-.52,9.6-12.54,14.12-16.49.25-1.35,1.58-7.18,6.09-10.32.89-.62,1.85-1.08,2.87-1.41-1.22-1.07-2.34-1.98-3.26-2.52-4.63-2.7-9.64-2.96-13.02-2.7-2.68.21-4.49.66-8.78,2.21-4.84,1.75-10.62,3.1-16.76-.15l-.93-.48c-1.31-.67-2.55-1.3-3.86-2.43-.92.75-3.21,2.48-5.32,3.07.21.5.39.92.52,1.23.94,2.16.88,3.55.81,5.15-.04.93-.08,1.97.07,3.36l.02.16c.34,3.12.59,5.48,1.34,7.45.17.07.33.19.43.36l-.08-.14.68.52.26.19c1.45,1.11,6.59,2.36,9.54-1.39.27-.35.78-.4,1.12-.13.35.27.41.77.13,1.12-1.83,2.32-4.39,3.12-6.74,3.12-.14.11-.3.18-.49.19h.11s-.4.12-.86,1.11c1.68,1.17,3.96,2.32,7.06,3.61,2.26.94,4.42,2.02,4.94,3.5.19.55.15,1.12-.14,1.63-1.52,2.79-3.01,5.22-6.15,10.03-1.69,2.59-3.09,4.84-4.12,7.1,2.34,1.89,8.88,5.5,24.18,4.92,1.93-.07,4.16-.42,6.35-.87-.02-.9-.05-1.76-.09-2.59-.06-1.17-.11-2.37-.11-3.68,0-.21,0-.42,0-.64.03-2.16.37-4.84.95-7.47l.05.03s.03-.07.05-.1c5.99-7.4,10.9-16.59,10.95-16.68.05-.1.12-.18.21-.25,8.18-6.52,10.13-10.54,10.13-12.89,0-.26-.02-.49-.06-.71ZM265.95,25.69c-.65,1.38-1.75,2.44-3.05,2.91-1.01.37-2.07.34-2.97-.09-.9-.42-1.61-1.21-1.97-2.22-.47-1.29-.37-2.82.27-4.2.64-1.38,1.75-2.44,3.04-2.91,1.01-.37,2.07-.34,2.98.08.9.42,1.6,1.21,1.97,2.22.2.54.29,1.11.29,1.71,0,.83-.19,1.69-.57,2.49Z"/>
          <path class="cls-1" d="M292.38,66.22l-2.43.65-1.32.37c-3.33.94-10.26,2.91-15.35,3.1-16.92.64-23.59-3.68-25.78-5.72-.84,2.27-1.15,4.78-1.24,5.7,6.24,5.91,22.15,5.92,22.37,5.92,10.17.68,20.24-2.32,20.36-2.36,11.77-3.11,33.76-2.64,36.28-2.5.17-2.43.91-5.76,1.29-7.34-8.04-.76-28.46.62-34.19,2.18Z"/>
          <path d="M328.23,62.88c-.13-.19-.33-.32-.56-.34-8.78-1.03-29.62.48-35.71,2.14l-2.41.65-1.35.38c-1.66.47-4.25,1.2-7.03,1.83-.02-.8-.05-1.57-.09-2.33-.05-1.09-.1-2.13-.11-3.26,10.91-2.86,24.01-9.85,24.46-10.13.32-.2.46-.59.34-.94l-2.66-7.68c-.09-.25-.29-.44-.55-.51-.26-.07-.53,0-.73.17-4.66,4.06-11.9,6.92-17.98,8.76,3.58-4.84,6.55-9.85,7.99-12.4.44-.78.75-1.35.88-1.59.96-.77,1.85-1.52,2.68-2.26,3.72-3.29,6.14-6.23,7.23-8.79.23-.53.4-1.05.51-1.54.11-.5.17-.98.17-1.45,0-.35-.03-.69-.1-1.02-.6-3.11-3.75-4.1-3.89-4.14-.02,0-.05-.01-.07-.02-1.73-.35-3.34-.41-4.85-.2-1.61-1.44-3.12-2.73-4.37-3.46-4.98-2.91-10.34-3.19-13.95-2.91-2.85.22-4.74.69-9.19,2.29-4.52,1.63-9.89,2.9-15.48-.06l-.95-.49c-1.65-.84-3.11-1.59-4.76-3.41-.4-.61-.86-1.38-1.34-2.18-2.57-4.3-5.49-9.18-8.13-7.72-2.07,1.15-1.38,4.58-.04,8.28,1.11,3.48,2.63,7.14,3.43,8.97.59,1.35.71,2.31.71,3.33,0,.36-.01.72-.03,1.12-.02.46-.04.94-.04,1.48,0,.62.03,1.31.12,2.11l.02.16c.48,4.48.82,7.6,2.7,10.27-1.18,1.44-2.18,2.92-1.93,4.43.16,1,.86,1.87,2.07,2.59.78.46,1.48.56,2.08.29,1.08-.49,1.34-1.95,1.59-3.36.02-.13.05-.25.07-.38,1.73,1.14,3.97,2.27,6.9,3.49,2.45,1.02,3.82,1.88,4.05,2.56.02.04.03.09.03.14,0,.06-.02.12-.06.2-1.31,2.4-2.61,4.6-6.08,9.93-1.58,2.43-2.93,4.61-3.99,6.8-.16-.18-.39-.3-.64-.28-.28.02-.54.19-.66.44-1.59,3.26-1.89,7.6-1.9,7.79-.02.23.07.45.23.61.23.23.48.46.73.68,0,.06,0,.11,0,.17,0,2.08.29,4.37.91,7,1.17,4.94,3.79,8.1,5.07,9.41-1.18.92-3.32,2.85-4.2,5.11-.33-.04-1.03-.3-1.56-.49-1.96-.73-4.91-1.82-7.16-.1-.67.52-1.06,1.26-1.12,2.15-.22,2.87,2.82,6.68,5.4,9.36,1.96,2.04,5.43,4.01,8.4,3.48,1.74-.31,3.09-1.45,3.9-3.29l.54-1.57c.42-1.42.75-2.54,3.08-3.72.08-.04,3.42-1.78,7.45-4.6,1.95,1.54,4.53,2.88,7.5,2.69.09,0,3.71.01,7.36-1.61.81-.39,1.91-.61,2.11-.33,2.45,3.57,4.72,4.34,6.19,4.36,1.38.02,2.37-.61,2.74-1,.27-.25,2.64-2.62.35-8.31-.14-.37-3.58-9.46-8.88-8.07-.32.04-2.73.4-4.13,2.75-.28.09-.91.25-1.68-.07-.24-.1-.46-.24-.68-.41,1.63-2.2,2.82-4.53,3.22-6.92.03-.21.06-.4.09-.6,5.07-.72,8.7-1.8,8.95-1.87,13.72-3.63,36.43-2.39,36.52-2.38.22.02.45-.05.62-.2.17-.15.26-.36.27-.59.02-2.91,1.5-8.66,1.51-8.72.06-.22.02-.46-.12-.65ZM301.97,44.8c.5,1.44,1.77,5.1,2.08,5.99-1.99,1.16-13.65,6.89-23.05,9.48.08-1.8.35-3.88.78-5.96.11-.14.22-.28.33-.41,6.39-1.86,14.78-4.98,19.86-9.09ZM245.89,37.5c-.26.61-.4,1.38-.54,2.14-.13.71-.37,2.04-.68,2.19-.04.02-.22.01-.6-.21-.79-.47-1.22-.96-1.31-1.48-.18-1.1,1.1-2.59,2.33-4.03l.09-.11c.4.16.84.29,1.31.39-.21.29-.41.65-.61,1.11ZM253.17,56.73c3.13-4.81,4.63-7.25,6.15-10.03.28-.52.33-1.08.14-1.63-.52-1.48-2.69-2.56-4.94-3.5-3.11-1.29-5.38-2.45-7.06-3.61.47-.99.86-1.12.86-1.12h-.11c.18,0,.35-.08.49-.19,2.35,0,4.91-.8,6.74-3.12.27-.35.21-.85-.13-1.12-.35-.27-.85-.22-1.12.13-2.95,3.74-8.09,2.49-9.54,1.39l-.26-.19-.68-.52.08.14c-.1-.16-.26-.28-.43-.36-.75-1.97-1.01-4.33-1.34-7.45l-.02-.16c-.15-1.38-.11-2.43-.07-3.36.07-1.61.13-3-.81-5.15-.13-.31-.32-.73-.52-1.23,2.11-.59,4.39-2.32,5.32-3.07,1.31,1.13,2.54,1.76,3.86,2.43l.93.48c6.14,3.25,11.92,1.9,16.76.15,4.29-1.55,6.09-2,8.78-2.21,3.38-.26,8.39,0,13.02,2.7.92.53,2.04,1.45,3.26,2.52-1.02.33-1.98.79-2.87,1.41-4.51,3.14-5.84,8.97-6.09,10.32-4.52,3.95-13.72,15.97-14.12,16.49-.11.15-.16.32-.16.48,0,.24.11.48.31.64.35.27.85.2,1.12-.15,0,0,.03-.03.06-.07.77-1,9.9-12.87,14.05-16.36.15-.12.25-.3.27-.49,0-.06,1.04-6.45,5.49-9.55,2.27-1.58,5.08-2.05,8.35-1.39.24.08,2.35.82,2.74,2.91.04.22.06.45.06.71,0,2.35-1.95,6.37-10.13,12.89-.09.07-.16.15-.21.25-.05.09-4.96,9.28-10.95,16.68-.02.03-.04.07-.05.1l-.05-.03c-.58,2.63-.92,5.32-.95,7.47,0,.22,0,.43,0,.64,0,1.31.06,2.51.11,3.68.04.83.07,1.69.09,2.59-2.19.45-4.42.79-6.35.87-15.3.58-21.84-3.03-24.18-4.92,1.03-2.26,2.44-4.51,4.12-7.1ZM277.29,86.71c1.65.65,3.06-.02,3.12-.05.15-.08.28-.2.36-.35,1.02-1.96,3.02-2.19,3.11-2.2.05,0,.1-.01.14-.03,3.27-.92,6.19,4.81,7.05,7.1,1.92,4.77.15,6.48.07,6.55-.02.02-.06.06-.09.1-.02.02-.65.58-1.78.48-1.5-.13-3.12-1.39-4.68-3.66-1.11-1.62-3.8-.37-4.1-.22-3.3,1.46-6.7,1.46-6.73,1.46-2.32.15-4.41-.86-6.08-2.08,2.94-2.15,6.07-4.81,8.51-7.75.35.27.71.49,1.1.64ZM278.81,77.63c-1.47,8.8-15.78,17.87-20.68,20.35-2.95,1.49-3.43,3.12-3.89,4.7l-.47,1.38c-.6,1.37-1.49,2.14-2.72,2.36-2.26.4-5.28-1.25-6.97-3.01-3.24-3.37-5.09-6.41-4.96-8.14.03-.45.19-.77.51-1.01,1.54-1.19,3.81-.35,5.62.33,1.26.47,2.18.81,2.89.47l.64-.73c.92-2.7,4.44-5.1,4.47-5.12.21-.14.34-.37.35-.62.01-.25-.1-.49-.29-.65-.04-.03-3.84-3.26-5.26-9.24-.49-2.08-.75-3.91-.83-5.61,7.46,4.76,20.74,4.76,21.36,4.76,3.59.24,7.13.04,10.25-.33,0,.04-.01.08-.02.12ZM325.28,71.39c-2.52-.14-24.51-.61-36.28,2.5-.13.04-10.19,3.03-20.36,2.36-.22,0-16.13-.01-22.37-5.92.09-.92.39-3.43,1.24-5.7,2.19,2.04,8.86,6.36,25.78,5.72,5.08-.19,12.01-2.16,15.35-3.1l1.32-.37,2.43-.65c5.73-1.56,26.15-2.94,34.19-2.18-.38,1.59-1.12,4.91-1.29,7.34Z"/>
          <g>
            <path class="cls-2" d="M263.58,20.71c-.66-.31-1.32-.19-1.75-.03-.45.16-.87.44-1.24.79.51-.1,1.05-.05,1.55.18,1.27.59,1.81,2.1,1.23,3.36-.59,1.27-2.1,1.82-3.37,1.22-.15-.07-.3-.16-.43-.26.18.39.49.82,1.04,1.08.66.31,1.32.19,1.75.03.9-.32,1.68-1.08,2.14-2.08.47-1,.55-2.08.22-2.98-.16-.43-.48-1.01-1.15-1.32Z"/>
            <path d="M266.22,21.49c-.37-1.01-1.07-1.8-1.97-2.22-.91-.42-1.96-.45-2.98-.08-1.29.47-2.4,1.53-3.04,2.91-.64,1.38-.74,2.91-.27,4.2.37,1.01,1.07,1.8,1.97,2.22.9.42,1.96.45,2.97.09,1.29-.47,2.4-1.53,3.05-2.91.37-.8.57-1.66.57-2.49,0-.59-.1-1.17-.29-1.71ZM264.5,25.02c-.47,1-1.25,1.76-2.14,2.08-.43.16-1.09.28-1.75-.03-.55-.25-.86-.69-1.04-1.08.13.1.27.18.43.26,1.26.59,2.77.04,3.37-1.22.59-1.27.04-2.77-1.23-3.36-.5-.24-1.05-.28-1.55-.18.37-.36.79-.63,1.24-.79.43-.16,1.09-.28,1.75.03.66.31.99.89,1.15,1.32.33.9.25,1.98-.22,2.98Z"/>
          </g>
        </g>
      </g>
    </g>
  </g>
</svg>