<svg width="61" height="61" viewBox="0 0 61 61" fill="none" xmlns="http://www.w3.org/2000/svg">
<g clip-path="url(#clip0_850_945)">
<path d="M24.9174 0C25.3338 1.10215 25.734 2.07692 26.2454 2.96654C26.7454 3.85615 27.3274 4.65738 27.9963 5.37485C28.6665 6.09092 29.4197 6.72438 30.277 7.26531C31.1337 7.81661 32.0917 8.24331 33.2007 8.65754C32.0843 9.06992 30.8158 9.03231 29.6429 8.67461C28.4684 8.31092 27.3878 7.61585 26.548 6.70938C24.8621 4.91077 24.1161 2.23108 24.9174 0.000230769V0Z" fill="#6DC2F6"/>
<path d="M24.9174 17.3141C24.1161 15.0833 24.8621 12.4036 26.548 10.605C27.3878 9.69852 28.4684 9.00345 29.6429 8.63975C30.8158 8.28206 32.0843 8.24422 33.2007 8.65683C32.0917 9.07106 31.1339 9.49775 30.277 10.0491C29.4197 10.5898 28.6663 11.2234 27.9963 11.9395C27.3274 12.657 26.7454 13.458 26.2454 14.3478C25.734 15.2374 25.3338 16.2122 24.9174 17.3144V17.3141Z" fill="#6DC2F6"/>
<path d="M16.6338 8.65731C17.7428 8.24538 18.7017 7.82008 19.5587 7.26761C20.4162 6.72669 21.17 6.09277 21.8385 5.37485C22.5052 4.65554 23.087 3.85523 23.5868 2.96561C24.0971 2.076 24.4986 1.10215 24.9174 0C25.7233 2.23085 24.975 4.91331 23.2868 6.70915C22.4451 7.61377 21.3651 8.30838 20.1907 8.67184C19.0178 9.02838 17.7504 9.06738 16.6338 8.65731Z" fill="#6DC2F6"/>
<path d="M16.6338 8.65713C17.7504 8.24705 19.0176 8.28605 20.1907 8.64259C21.3651 9.00605 22.4451 9.70067 23.2868 10.6053C24.9752 12.4014 25.7235 15.0836 24.9174 17.3144C24.4986 16.2123 24.0971 15.2384 23.5868 14.3488C23.087 13.4592 22.5052 12.6589 21.8385 11.9396C21.1703 11.2217 20.4162 10.5877 19.5587 10.0468C18.702 9.49436 17.7428 9.06905 16.6338 8.65713Z" fill="#6DC2F6"/>
<path d="M10.0111 12.9863C10.4264 13.7246 10.7601 14.3356 11.1398 14.8858C11.5087 15.4359 11.8949 15.9222 12.315 16.3726C12.7368 16.8215 13.1883 17.2366 13.7111 17.6285C14.2338 18.0303 14.8254 18.3803 15.5681 18.7943C14.8177 19.2072 13.9157 19.2457 13.0768 19.0376C12.2365 18.8227 11.4578 18.3464 10.8665 17.7069C9.68086 16.4419 9.21033 14.4893 10.0109 12.9863H10.0111Z" fill="#6DC2F6"/>
<path d="M10.0109 24.6014C9.21033 23.0984 9.68086 21.1459 10.8665 19.8808C11.4578 19.2414 12.2365 18.765 13.0768 18.5502C13.9157 18.342 14.8177 18.3806 15.5681 18.7934C14.8254 19.2074 14.2338 19.5575 13.7111 19.9593C13.1883 20.3511 12.7365 20.7663 12.315 21.2151C11.8951 21.6656 11.5089 22.1518 11.1398 22.702C10.7599 23.2519 10.4264 23.8632 10.0111 24.6014H10.0109Z" fill="#6DC2F6"/>
<path d="M4.4541 18.7946C5.19683 18.3829 5.78953 18.0339 6.31231 17.631C6.83534 17.2389 7.28752 16.8236 7.70743 16.3726C8.12547 15.9203 8.51123 15.4348 8.88004 14.8849C9.25884 14.3347 9.59374 13.7248 10.0113 12.9863C10.8165 14.4896 10.3437 16.4446 9.15572 17.7069C8.56256 18.3446 7.7843 18.8206 6.94449 19.0353C6.10561 19.2423 5.20473 19.2049 4.45433 18.7943L4.4541 18.7946Z" fill="#6DC2F6"/>
<path d="M4.45336 18.7937C5.20375 18.3831 6.10464 18.3458 6.94352 18.5528C7.78356 18.7674 8.56158 19.2434 9.15475 19.8811C10.3427 21.1434 10.8158 23.0984 10.0103 24.6017C9.59276 23.8634 9.25763 23.2533 8.87907 22.7031C8.51026 22.1532 8.1245 21.6677 7.70645 21.2154C7.28678 20.7644 6.83459 20.3493 6.31134 19.957C5.78855 19.5541 5.19585 19.2051 4.45312 18.7934L4.45336 18.7937Z" fill="#6DC2F6"/>
<path d="M55.0124 37.7974H38.8315C38.2855 37.7974 37.8438 37.358 37.8438 36.8159V8.22313C37.8438 6.30174 39.4172 4.73828 41.3514 4.73828H52.4937C54.4269 4.73828 56.0004 6.30174 56.0004 8.22313V36.8159C56.0004 37.358 55.5587 37.7974 55.0127 37.7974H55.0124ZM39.8192 35.8342H54.0244V8.22313C54.0244 7.38382 53.3377 6.70143 52.4935 6.70143H41.3512C40.506 6.70143 39.8192 7.38382 39.8192 8.22313V35.8342Z" fill="#6DC2F6"/>
<path d="M55.0124 11.1182H38.8315C38.2855 11.1182 37.8438 10.6788 37.8438 10.1367C37.8438 9.59466 38.2855 9.15527 38.8315 9.15527H55.0124C55.5584 9.15527 56.0002 9.59466 56.0002 10.1367C56.0002 10.6788 55.5584 11.1182 55.0124 11.1182Z" fill="#6DC2F6"/>
<path d="M41.4987 37.7973H6.08465C4.9348 37.7973 4 36.903 4 35.8039C4 34.7047 4.47564 33.6026 5.34007 32.8189C6.15804 32.0516 7.26842 31.623 8.45497 31.623H38.8313C39.3773 31.623 39.8191 32.0624 39.8191 32.6045C39.8191 33.1466 39.3773 33.586 38.8313 33.586H8.45497C7.77495 33.586 7.14486 33.8241 6.68385 34.2575C6.22284 34.6754 5.97573 35.221 5.97573 35.8037C5.9748 35.8023 6.01243 35.8339 6.08465 35.8339H41.4987C42.0447 35.8339 42.4864 36.2733 42.4864 36.8154C42.4864 37.3574 42.0447 37.7968 41.4987 37.7968V37.7973Z" fill="#6DC2F6"/>
<path d="M33.3491 48.1624H14.2637C9.71603 48.1624 6.01562 44.4858 6.01562 39.9661V36.8154C6.01562 36.2734 6.45736 35.834 7.00337 35.834C7.54939 35.834 7.99112 36.2734 7.99112 36.8154V39.9661C7.99112 43.403 10.805 46.1992 14.2637 46.1992H33.3493C36.8086 46.1992 39.6228 43.4032 39.6228 39.9661V36.8154C39.6228 36.2734 40.0645 35.834 40.6105 35.834C41.1565 35.834 41.5983 36.2734 41.5983 36.8154V39.9661C41.5983 44.4858 37.8976 48.1624 33.3491 48.1624Z" fill="#6DC2F6"/>
<path d="M48.849 60.0001H14.9458C14.3997 60.0001 13.958 59.5608 13.958 59.0187V47.1809C13.958 46.6388 14.3997 46.1994 14.9458 46.1994C15.4918 46.1994 15.9335 46.6388 15.9335 47.1809V58.037H47.861V41.1735C47.861 38.2294 50.2718 35.834 53.2343 35.834C53.7803 35.834 54.2221 36.2734 54.2221 36.8154C54.2221 37.3575 53.7803 37.7969 53.2343 37.7969C51.3608 37.7969 49.8368 39.3114 49.8368 41.1735V59.0184C49.8368 59.5605 49.395 59.9999 48.849 59.9999V60.0001Z" fill="#6DC2F6"/>
</g>
<defs>
<clipPath id="clip0_850_945">
<rect width="52" height="60" fill="white" transform="translate(4)"/>
</clipPath>
</defs>
</svg>
