<svg width="61" height="61" viewBox="0 0 61 61" fill="none" xmlns="http://www.w3.org/2000/svg">
<g clip-path="url(#clip0_850_966)">
<path d="M30.8727 10.4089C28.0162 10.4089 25.6904 8.07321 25.6904 5.20446C25.6904 2.33571 28.0162 0 30.8727 0C33.7293 0 36.055 2.33571 36.055 5.20446C36.055 8.07321 33.7293 10.4089 30.8727 10.4089ZM30.8727 2.14286C29.1924 2.14286 27.8242 3.51696 27.8242 5.20446C27.8242 6.89196 29.1924 8.26607 30.8727 8.26607C32.553 8.26607 33.9213 6.89196 33.9213 5.20446C33.9213 3.51696 32.553 2.14286 30.8727 2.14286Z" fill="#6DC2F6"/>
<path d="M25.2204 32.9038C24.8204 32.9038 24.4176 32.8395 24.0282 32.7082C23.076 32.3895 22.3026 31.7172 21.8545 30.8145L21.3797 29.8582C20.5342 28.1573 21.0837 26.0814 22.6573 25.0288L28.0423 21.4234C28.365 21.2064 28.5837 20.8797 28.6611 20.4966L30.9548 8.96537C31.0695 8.38412 31.6323 8.00912 32.2111 8.1243C32.7899 8.23948 33.1633 8.80466 33.0486 9.38591L30.7548 20.9172C30.5681 21.86 30.024 22.6716 29.2292 23.2073L23.8442 26.8127C23.1641 27.268 22.9267 28.1681 23.2921 28.902L23.7668 29.8582C23.9615 30.2493 24.2949 30.5386 24.7057 30.6779C25.1191 30.8172 25.5592 30.785 25.9459 30.5895L31.2989 27.9002C33.1153 26.9895 34.4702 25.4198 35.1103 23.4859L36.7186 18.6404C36.8626 18.2038 37.2707 17.9064 37.7295 17.9064C38.1882 17.9064 38.5963 18.2011 38.7403 18.6404C39.0257 19.5029 41.5382 27.1529 41.5382 30.0002C41.5382 30.5922 41.0607 31.0716 40.4713 31.0716C39.8819 31.0716 39.4044 30.5922 39.4044 30.0002C39.4044 28.5618 38.5083 25.1814 37.6974 22.46L37.132 24.1636C36.3105 26.6413 34.5769 28.6475 32.2484 29.8181L26.8954 32.5073C26.3647 32.7725 25.7939 32.9091 25.2178 32.9091L25.2204 32.9038Z" fill="#6DC2F6"/>
<path d="M48.7052 31.0718C48.1157 31.0718 47.6383 30.5923 47.6383 30.0004C47.6383 19.6156 34.4545 8.90395 34.3211 8.79681C33.8624 8.42716 33.7877 7.75216 34.1558 7.29145C34.5238 6.82806 35.196 6.75574 35.6547 7.12538C36.2308 7.58877 49.772 18.5977 49.772 30.0031C49.772 30.595 49.2946 31.0745 48.7052 31.0745V31.0718Z" fill="#6DC2F6"/>
<path d="M10.2975 31.071C7.441 31.071 5.11523 28.7353 5.11523 25.8666C5.11523 22.9978 7.441 20.6621 10.2975 20.6621C13.1541 20.6621 15.4798 22.9978 15.4798 25.8666C15.4798 28.7353 13.1541 31.071 10.2975 31.071ZM10.2975 22.805C8.61722 22.805 7.24897 24.1791 7.24897 25.8666C7.24897 27.5541 8.61722 28.9282 10.2975 28.9282C11.9779 28.9282 13.3461 27.5541 13.3461 25.8666C13.3461 24.1791 11.9779 22.805 10.2975 22.805Z" fill="#6DC2F6"/>
<path d="M56.933 58.6234C56.3435 58.6234 55.8661 58.1439 55.8661 57.5519V31.0716H29.4985C28.9091 31.0716 28.4316 30.5921 28.4316 30.0001C28.4316 29.4082 28.9091 28.9287 29.4985 28.9287H56.933C57.5224 28.9287 57.9998 29.4082 57.9998 30.0001V57.5519C57.9998 58.1439 57.5224 58.6234 56.933 58.6234Z" fill="#6DC2F6"/>
<path d="M2.06687 58.6234C1.47742 58.6234 1 58.1439 1 57.5519V38.2662C1 37.6742 1.47742 37.1948 2.06687 37.1948H11.874C12.2474 37.1948 12.5942 37.01 12.7995 36.6966L16.9923 30.3805C17.5951 29.4725 18.606 28.9287 19.6942 28.9287H22.6441C23.2335 28.9287 23.7109 29.4082 23.7109 30.0001C23.7109 30.5921 23.2335 31.0716 22.6441 31.0716H19.6942C19.3208 31.0716 18.974 31.2564 18.7687 31.5698L14.5759 37.8859C13.9731 38.7939 12.9622 39.3376 11.874 39.3376H3.13373V57.5519C3.13373 58.1439 2.65631 58.6234 2.06687 58.6234Z" fill="#6DC2F6"/>
<path d="M14.0669 43.8165C13.7948 43.8165 13.5201 43.712 13.3121 43.5031C12.896 43.0852 12.896 42.4076 13.3121 41.987L16.9794 38.304C17.6915 37.5888 18.6411 37.1924 19.6492 37.1924H34.9881C35.5776 37.1924 36.055 37.6718 36.055 38.2638C36.055 38.8558 35.5776 39.3352 34.9881 39.3352H19.6492C19.2118 39.3352 18.7984 39.5067 18.489 39.8174L14.8217 43.5004C14.6136 43.7093 14.3416 43.8138 14.0669 43.8138V43.8165Z" fill="#6DC2F6"/>
<path d="M56.9331 47.601H2.06687C1.47742 47.601 1 47.1216 1 46.5296C1 45.9376 1.47742 45.4582 2.06687 45.4582H33.9208V30.0001C33.9208 29.4082 34.3983 28.9287 34.9877 28.9287C35.5771 28.9287 36.0546 29.4082 36.0546 30.0001V45.4582H56.9358C57.5252 45.4582 58.0027 45.9376 58.0027 46.5296C58.0027 47.1216 57.5252 47.601 56.9358 47.601H56.9331Z" fill="#6DC2F6"/>
<path d="M48.7046 59.9997H43.2182C42.6288 59.9997 42.1514 59.5203 42.1514 58.9283V50.6622C42.1514 50.0703 42.6288 49.5908 43.2182 49.5908C43.8077 49.5908 44.2851 50.0703 44.2851 50.6622V57.8569H47.6377V50.6622C47.6377 50.0703 48.1152 49.5908 48.7046 49.5908C49.294 49.5908 49.7715 50.0703 49.7715 50.6622V58.9283C49.7715 59.5203 49.294 59.9997 48.7046 59.9997Z" fill="#6DC2F6"/>
</g>
<defs>
<clipPath id="clip0_850_966">
<rect width="57" height="60" fill="white" transform="translate(1)"/>
</clipPath>
</defs>
</svg>
