<svg width="61" height="61" viewBox="0 0 61 61" fill="none" xmlns="http://www.w3.org/2000/svg">
<g clip-path="url(#clip0_850_921)">
<path d="M45.9891 60C45.4315 60 44.9785 59.5343 44.9785 58.9612V11.4627C44.9785 8.95522 44.0375 6.62687 42.295 4.83582C40.5525 3.04478 38.2873 2.07761 35.8478 2.07761C32.2234 2.07761 28.9127 4.29851 27.4838 7.73731C27.2747 8.27463 26.6823 8.48955 26.1595 8.27463C25.6368 8.0597 25.4277 7.45075 25.6368 6.91343C27.4141 2.72239 31.4219 0 35.8478 0C38.8101 0 41.598 1.18209 43.7239 3.36716C45.8149 5.51642 46.9998 8.41791 46.9998 11.4627V58.9612C46.9998 59.5343 46.5467 60 45.9891 60Z" fill="#6DC2F6"/>
<path d="M36.9985 17.7671H14.834C14.5203 17.7671 14.2415 17.6238 14.0673 17.4089C13.8582 17.1581 13.7885 16.8715 13.8582 16.5492C14.9385 10.6029 20.0266 6.26855 25.9163 6.26855C26.1602 6.26855 26.4042 6.26855 26.6133 6.26855C32.2589 6.59094 36.9288 10.8178 37.9743 16.5133C38.044 16.7999 37.9743 17.1223 37.7652 17.373C37.591 17.6238 37.2773 17.7312 36.9985 17.7312V17.7671ZM16.1234 15.6895H35.6742C34.4196 11.5342 30.7952 8.59691 26.4739 8.34617C26.2648 8.34617 26.0905 8.34617 25.8814 8.34617C21.3509 8.34617 17.4129 11.3909 16.0886 15.6895H16.1234Z" fill="#6DC2F6"/>
<path d="M17.5517 31.2719C16.9941 31.2719 16.541 30.8062 16.541 30.2331V26.0779C16.541 25.5047 16.9941 25.0391 17.5517 25.0391C18.1093 25.0391 18.5623 25.5047 18.5623 26.0779V30.2331C18.5623 30.8062 18.1093 31.2719 17.5517 31.2719Z" fill="#6DC2F6"/>
<path d="M17.5517 44.9194C16.9941 44.9194 16.541 44.4537 16.541 43.8806V37.0388C16.541 36.4657 16.9941 36 17.5517 36C18.1093 36 18.5623 36.4657 18.5623 37.0388V43.8806C18.5623 44.4537 18.1093 44.9194 17.5517 44.9194Z" fill="#6DC2F6"/>
<path d="M17.5517 55.8813C16.9941 55.8813 16.541 55.4156 16.541 54.8425V50.6872C16.541 50.1141 16.9941 49.6484 17.5517 49.6484C18.1093 49.6484 18.5623 50.1141 18.5623 50.6872V54.8425C18.5623 55.4156 18.1093 55.8813 17.5517 55.8813Z" fill="#6DC2F6"/>
<path d="M25.7411 31.2719C25.1835 31.2719 24.7305 30.8062 24.7305 30.2331V26.0779C24.7305 25.5047 25.1835 25.0391 25.7411 25.0391C26.2987 25.0391 26.7518 25.5047 26.7518 26.0779V30.2331C26.7518 30.8062 26.2987 31.2719 25.7411 31.2719Z" fill="#6DC2F6"/>
<path d="M25.7411 46.6036C25.1835 46.6036 24.7305 46.138 24.7305 45.5648V35.3201C24.7305 34.7469 25.1835 34.2812 25.7411 34.2812C26.2987 34.2812 26.7518 34.7469 26.7518 35.3201V45.5648C26.7518 46.138 26.2987 46.6036 25.7411 46.6036Z" fill="#6DC2F6"/>
<path d="M25.7411 55.8813C25.1835 55.8813 24.7305 55.4156 24.7305 54.8425V50.6872C24.7305 50.1141 25.1835 49.6484 25.7411 49.6484C26.2987 49.6484 26.7518 50.1141 26.7518 50.6872V54.8425C26.7518 55.4156 26.2987 55.8813 25.7411 55.8813Z" fill="#6DC2F6"/>
<path d="M33.8964 31.2719C33.3388 31.2719 32.8857 30.8062 32.8857 30.2331V26.0779C32.8857 25.5047 33.3388 25.0391 33.8964 25.0391C34.454 25.0391 34.907 25.5047 34.907 26.0779V30.2331C34.907 30.8062 34.454 31.2719 33.8964 31.2719Z" fill="#6DC2F6"/>
<path d="M33.8964 44.9194C33.3388 44.9194 32.8857 44.4537 32.8857 43.8806V37.0388C32.8857 36.4657 33.3388 36 33.8964 36C34.454 36 34.907 36.4657 34.907 37.0388V43.8806C34.907 44.4537 34.454 44.9194 33.8964 44.9194Z" fill="#6DC2F6"/>
<path d="M33.8964 55.8813C33.3388 55.8813 32.8857 55.4156 32.8857 54.8425V50.6872C32.8857 50.1141 33.3388 49.6484 33.8964 49.6484C34.454 49.6484 34.907 50.1141 34.907 50.6872V54.8425C34.907 55.4156 34.454 55.8813 33.8964 55.8813Z" fill="#6DC2F6"/>
<path d="M37.7299 22.0656H14.1016C12.394 22.0656 11 20.6327 11 18.8775C11 18.0178 11.3136 17.2298 11.9061 16.6208C12.4637 16.0118 13.2652 15.6895 14.1016 15.6895H37.7299C39.4376 15.6895 40.8316 17.1223 40.8316 18.8775C40.8316 19.7372 40.5179 20.5253 39.9255 21.1342C39.333 21.7432 38.5663 22.0656 37.7299 22.0656ZM14.1016 17.7671C13.8228 17.7671 13.544 17.8745 13.3349 18.0895C13.1955 18.2327 13.0213 18.5193 13.0213 18.8775C13.0213 19.4865 13.5092 19.988 14.1016 19.988H37.7299C38.1133 19.988 38.3572 19.8089 38.4966 19.6656C38.7057 19.4506 38.8103 19.1641 38.8103 18.8775C38.8103 18.2686 38.3224 17.7671 37.7299 17.7671H14.1016Z" fill="#6DC2F6"/>
</g>
<defs>
<clipPath id="clip0_850_921">
<rect width="36" height="60" fill="white" transform="translate(11)"/>
</clipPath>
</defs>
</svg>
