<svg width="61" height="61" viewBox="0 0 61 61" fill="none" xmlns="http://www.w3.org/2000/svg">
<path d="M48.2809 10.6598L48.6932 10.3516C48.7953 10.2753 48.8814 10.1796 48.9465 10.07C49.0117 9.9604 49.0546 9.83905 49.0728 9.71287C49.091 9.58669 49.0842 9.45816 49.0527 9.33461C49.0213 9.21107 48.9658 9.09494 48.8894 8.99285L45.2858 4.17272C44.8228 3.55483 44.1336 3.14584 43.3695 3.03548C42.6053 2.92512 41.8285 3.1224 41.2096 3.58404C37.7444 6.15883 2.33582 32.6465 2.33582 32.6465C1.71793 33.1095 1.30894 33.7987 1.19857 34.5629C1.08821 35.3271 1.28549 36.1038 1.74714 36.7227L5.35071 41.5428C5.90709 42.2168 6.58696 41.9093 7.13691 41.4195C12.2068 37.9837 17.0454 45.3908 11.9293 48.7212C11.8272 48.7975 11.7411 48.8932 11.676 49.0028C11.6108 49.1124 11.5679 49.2337 11.5497 49.3599C11.5315 49.4861 11.5383 49.6146 11.5698 49.7381C11.6013 49.8617 11.6568 49.9778 11.7331 50.0799L15.3367 54.9C15.7997 55.5179 16.4889 55.9269 17.253 56.0373C18.0172 56.1476 18.794 55.9503 19.4129 55.4887C19.4129 55.4887 54.9762 28.917 58.2867 26.4262C58.9046 25.9632 59.3136 25.274 59.424 24.5098C59.5344 23.7457 59.3371 22.9689 58.8754 22.35L55.2718 17.5299C55.1955 17.4277 55.0998 17.3417 54.9902 17.2765C54.8807 17.2114 54.7593 17.1685 54.6331 17.1503C54.5069 17.132 54.3784 17.1388 54.2549 17.1703C54.1313 17.2018 54.0152 17.2573 53.9131 17.3336C49.2349 21.2848 43.5737 14.5051 48.2809 10.6598ZM54.2843 19.4514L57.3204 23.5125C57.4743 23.7188 57.5401 23.9777 57.5033 24.2325C57.4665 24.4872 57.3302 24.7169 57.1242 24.8713C53.6708 27.4669 18.2504 53.9337 18.2504 53.9337C18.0441 54.0876 17.7851 54.1534 17.5304 54.1166C17.2757 54.0798 17.046 53.9435 16.8916 53.7375L13.8566 49.6779C15.0144 48.6928 15.7699 47.3166 15.9795 45.811C16.8627 40.5774 10.695 36.6685 6.33758 39.6207L3.30209 35.5602C3.14818 35.3539 3.08241 35.095 3.1192 34.8403C3.15599 34.5855 3.29233 34.3558 3.49832 34.2015C11.8045 27.9917 33.7509 11.5843 42.3721 5.13899C42.5784 4.98509 42.8374 4.91931 43.0921 4.9561C43.3468 4.99289 43.5766 5.12924 43.7309 5.33522L46.7665 9.39562C40.9942 14.622 47.6848 23.4848 54.2843 19.4514Z" fill="#6DC2F6"/>
<path d="M35.3918 17.2783C35.2644 17.2795 35.1384 17.3059 35.0211 17.3558C34.9038 17.4057 34.7975 17.4782 34.7083 17.5693C34.619 17.6603 34.5486 17.768 34.501 17.8862C34.4533 18.0044 34.4295 18.1309 34.4308 18.2584L34.5768 33.1125C34.5798 33.3696 34.6847 33.615 34.8684 33.7948C35.0521 33.9747 35.2997 34.0742 35.5568 34.0717C35.8139 34.0692 36.0595 33.9648 36.2397 33.7814C36.4198 33.598 36.5199 33.3506 36.5179 33.0935L36.3719 18.2394C36.3693 17.982 36.2646 17.7361 36.0808 17.5559C35.897 17.3757 35.6492 17.2759 35.3918 17.2783Z" fill="#6DC2F6"/>
<path d="M31.7122 28.0686C32.2941 27.4618 32.6133 26.65 32.6004 25.8093C32.5875 24.9687 32.2436 24.167 31.6433 23.5784C31.043 22.9897 30.2348 22.6616 29.394 22.6651C28.5533 22.6687 27.7479 23.0037 27.1526 23.5974C26.5706 24.2042 26.2515 25.016 26.2644 25.8567C26.2772 26.6973 26.6212 27.499 27.2215 28.0876C27.8217 28.6763 28.63 29.0045 29.4707 29.0009C30.3115 28.9973 31.1169 28.6623 31.7122 28.0686ZM28.5561 26.7269C28.3247 26.4933 28.1945 26.178 28.1936 25.8491C28.1927 25.5202 28.3213 25.2043 28.5515 24.9694C28.7817 24.7346 29.0951 24.5998 29.4239 24.5941C29.7527 24.5884 30.0706 24.7123 30.3087 24.9391C30.5402 25.1727 30.6704 25.488 30.6713 25.8169C30.6721 26.1457 30.5435 26.4617 30.3133 26.6965C30.0831 26.9314 29.7697 27.0662 29.4409 27.0719C29.1121 27.0776 28.7943 26.9536 28.5561 26.7269Z" fill="#6DC2F6"/>
<path d="M41.5654 22.5213C40.7249 22.539 39.9252 22.8875 39.34 23.4911C38.7548 24.0947 38.4312 24.9048 38.4396 25.7455C38.4479 26.5862 38.7874 27.3897 39.3845 27.9816C39.9816 28.5735 40.788 28.906 41.6288 28.907C42.4693 28.8894 43.269 28.5409 43.8542 27.9373C44.4394 27.3337 44.763 26.5236 44.7546 25.6829C44.7463 24.8422 44.4067 24.0387 43.8097 23.4468C43.2126 22.8549 42.4062 22.5224 41.5654 22.5213ZM42.8484 25.7019C42.8466 26.0305 42.7155 26.3453 42.4836 26.5782C42.2517 26.811 41.9375 26.9433 41.6088 26.9465C41.2801 26.9497 40.9634 26.8235 40.7271 26.5951C40.4907 26.3667 40.3536 26.0546 40.3454 25.726C40.3473 25.3973 40.4783 25.0826 40.7102 24.8497C40.9422 24.6169 41.2564 24.4845 41.585 24.4814C41.9137 24.4782 42.2304 24.6044 42.4668 24.8328C42.7032 25.0612 42.8402 25.3733 42.8484 25.7019Z" fill="#6DC2F6"/>
<path d="M14.6759 28.077C14.5738 28.1533 14.4877 28.2489 14.4226 28.3585C14.3574 28.4681 14.3145 28.5895 14.2963 28.7157C14.2781 28.8418 14.2849 28.9704 14.3164 29.0939C14.3478 29.2175 14.4033 29.3336 14.4797 29.4357L16.6281 32.3095C16.7823 32.5157 17.0121 32.6522 17.2669 32.689C17.5217 32.7258 17.7807 32.6598 17.9869 32.5057C18.1931 32.3515 18.3296 32.1218 18.3664 31.867C18.4032 31.6121 18.3373 31.3532 18.1831 31.147L16.0346 28.2732C15.9583 28.1711 15.8626 28.085 15.7531 28.0198C15.6435 27.9547 15.5221 27.9118 15.3959 27.8936C15.2698 27.8753 15.1412 27.8822 15.0177 27.9136C14.8941 27.9451 14.778 28.0006 14.6759 28.077Z" fill="#6DC2F6"/>
<path d="M19.3263 34.2967C19.2242 34.373 19.1381 34.4687 19.073 34.5783C19.0078 34.6879 18.9649 34.8092 18.9467 34.9354C18.9285 35.0616 18.9353 35.1901 18.9667 35.3136C18.9982 35.4372 19.0537 35.5533 19.1301 35.6554L21.2785 38.5292C21.4327 38.7354 21.6625 38.8719 21.9173 38.9087C22.1721 38.9455 22.4311 38.8796 22.6373 38.7254C22.8435 38.5712 22.98 38.3415 23.0168 38.0867C23.0536 37.8319 22.9877 37.5729 22.8335 37.3667L20.685 34.4929C20.6087 34.3908 20.513 34.3047 20.4034 34.2396C20.2939 34.1744 20.1725 34.1315 20.0463 34.1133C19.9201 34.0951 19.7916 34.1019 19.6681 34.1333C19.5445 34.1648 19.4284 34.2203 19.3263 34.2967Z" fill="#6DC2F6"/>
<path d="M23.9757 40.5174C23.8736 40.5937 23.7875 40.6894 23.7224 40.799C23.6572 40.9086 23.6143 41.0299 23.5961 41.1561C23.5779 41.2823 23.5847 41.4108 23.6162 41.5343C23.6476 41.6579 23.7031 41.774 23.7795 41.8761L25.928 44.7499C26.0821 44.9561 26.3119 45.0926 26.5667 45.1294C26.8215 45.1662 27.0805 45.1003 27.2867 44.9461C27.4929 44.792 27.6294 44.5622 27.6662 44.3074C27.703 44.0526 27.6371 43.7936 27.4829 43.5874L25.3344 40.7136C25.2581 40.6115 25.1624 40.5254 25.0529 40.4603C24.9433 40.3951 24.8219 40.3522 24.6957 40.334C24.5696 40.3158 24.441 40.3226 24.3175 40.3541C24.1939 40.3855 24.0778 40.441 23.9757 40.5174Z" fill="#6DC2F6"/>
</svg>
