<svg width="82" height="58" viewBox="0 0 82 58" fill="none" xmlns="http://www.w3.org/2000/svg">
<mask id="mask0_764_10808" style="mask-type:alpha" maskUnits="userSpaceOnUse" x="0" y="0" width="82" height="58">
<rect width="82" height="58" fill="#D9D9D9"/>
</mask>
<g mask="url(#mask0_764_10808)">
<path d="M25.725 34.4831C22.6537 33.5123 20.0569 35.166 17.7586 38.0872C15.857 40.5035 13.5602 42.6075 11.4158 44.8282C10.4647 45.813 9.36537 46.5889 7.96174 46.7609C5.88561 47.0156 4.37417 46.3231 3.52715 44.7669C2.52173 42.9191 2.6398 40.4969 4.01997 39.0078C7.98154 34.7363 12.0201 30.5379 16.0088 26.293C17.9801 24.1949 20.5673 24.014 23.1788 23.8324C28.789 23.4426 34.3976 23.0403 40.0063 22.6239C41.2853 22.5287 42.5254 22.7022 43.7061 23.1525C45.6891 23.9084 47.6435 24.739 49.6088 25.5392C52.4198 26.6843 54.5846 28.5247 56.2875 31.1056C58.6577 34.6979 61.308 38.1027 63.786 41.6256C64.2957 42.3499 64.5245 42.1874 65.0159 41.6478C67.884 38.4984 70.7668 35.3609 73.6856 32.2595C75.3693 30.47 77.422 29.9687 79.2026 30.7889C81.022 31.6268 82.1462 33.5315 81.9842 35.5506C81.894 36.6757 81.432 37.6701 80.6781 38.4814C76.4158 43.0667 72.1631 47.6615 67.8422 52.19C65.6297 54.508 62.7601 54.4822 60.5028 52.2239C58.0754 49.7951 55.6495 47.3611 53.3167 44.8414C52.4154 43.8677 51.9944 44.0596 51.3256 45.0386C48.0123 49.8881 44.6382 54.6956 41.2985 59.5274C40.4155 60.8046 40.4617 61.3789 41.6124 62.4686C44.8619 65.5471 48.1267 68.6078 51.4078 71.6524C53.7325 73.8095 56.1159 75.9032 58.4318 78.0699C61.3777 80.8273 61.5449 84.4764 58.8264 87.4523C55.2197 91.4005 51.5478 95.2888 47.917 99.2155C45.1127 102.248 42.3134 105.284 39.5421 108.347C38.1935 109.838 36.619 110.864 34.5678 110.744C31.1702 110.545 29.185 106.835 30.7653 103.658C31.8852 101.407 33.745 99.708 35.3239 97.8077C38.8249 93.5945 42.3765 89.4227 45.9465 85.2686C46.5713 84.5414 46.0998 84.3185 45.6069 84.0047C41.8712 81.6305 38.1392 79.2504 34.3976 76.8858C30.3994 74.3588 26.3506 71.9107 22.4007 69.3106C17.0135 65.7648 16.2442 59.8729 20.4221 54.9584C20.5065 54.8587 20.5827 54.7472 20.6839 54.6683C24.3742 51.7669 26.3198 47.7213 28.0351 43.4912C29.1307 40.7892 30.3833 38.1507 31.616 35.5078C31.9827 34.7208 31.9372 34.4359 30.9897 34.4698C29.4746 34.5244 27.9566 34.4846 25.7235 34.4846L25.725 34.4831Z" fill="#F5E149"/>
<path d="M55.0225 0C61.8053 0 67.4756 5.59813 67.4257 12.325C67.3744 19.2166 62.1844 24.5578 55.3444 24.6442C48.6056 24.7291 42.9552 18.9523 42.895 12.2704C42.8342 5.58262 48.3519 0 55.0225 0Z" fill="#F5E149"/>
<path d="M17.4453 8.71033C18.6751 9.34966 19.7884 9.86421 21.0497 10.0503C23.4911 10.4105 25.5958 9.78375 27.3786 8.10054C28.4845 7.05666 29.4972 5.91386 30.6097 4.87736C33.8431 1.86531 39.0536 1.21122 42.6895 4.41079C43.3451 4.98736 43.6304 5.50191 43.1545 6.2911C43.0877 6.40184 43.0261 6.52586 43.0041 6.65136C42.6851 8.45342 41.8139 9.64643 39.9262 10.178C38.4317 10.5988 37.4629 11.9475 36.5066 13.114C33.3921 16.913 25.6904 18.2374 20.8473 14.4221C19.036 12.9959 17.5876 11.3437 17.446 8.71033H17.4453Z" fill="#F5E149"/>
</g>
</svg>
