<svg width="89" height="84" viewBox="0 0 89 84" fill="none" xmlns="http://www.w3.org/2000/svg">
<path d="M18.7338 3.75975C19.2931 4.35352 19.2655 5.2902 18.6717 5.85175L18.3265 6.17625C17.7304 6.7355 16.7937 6.70788 16.2345 6.11411L13.1276 2.81847C12.5683 2.2247 12.5959 1.28802 13.1897 0.72647L13.5349 0.401968C14.131 -0.157279 15.0677 -0.129665 15.6269 0.464104L18.7338 3.75975Z" fill="#F5E149"/>
<path d="M67.8466 16.2706C67.872 16.167 67.75 16.0911 67.6671 16.1601C67.3726 16.4041 67.1263 16.3212 66.8133 16.4317C66.2679 16.6227 65.5751 16.8229 64.7328 17.0278C64.528 17.0761 64.3968 17.1175 64.337 17.1521C64.0217 17.327 63.6857 17.2073 63.3888 17.396C63.2783 17.4673 63.154 17.495 63.0136 17.4835C62.7306 17.4581 62.3439 17.6469 62.0563 17.7044C61.856 17.7458 61.6995 17.9046 61.6627 18.1048C61.566 18.6181 61.0735 20.8712 60.1829 24.8664C59.932 25.9918 59.2784 26.6385 58.2267 26.8088C56.6893 27.0597 55.3959 27.1448 54.3442 27.0689C53.1451 26.9814 52.2683 26.9216 51.7113 26.8894C51.6377 26.8848 51.5663 26.871 51.495 26.848C50.9265 26.6592 50.1947 26.6961 49.5756 26.5764C45.0878 25.718 40.6921 24.3624 36.3907 22.5098C35.5001 22.1277 34.835 21.5409 34.5105 20.7239C34.3724 20.3717 34.4828 19.6008 34.6163 19.1152C35.0743 17.4489 35.5162 15.6216 35.9374 13.6309C36.0041 13.3179 36.0869 13.0417 36.1859 12.8046C36.2365 12.685 36.1951 12.5469 36.0869 12.4755C34.2665 11.2443 32.262 9.85422 30.0733 8.30766C28.3956 7.12013 29.3599 5.52754 30.9571 5.1363C37.5645 3.51839 42.0292 2.44132 44.3514 1.90509C46.6827 1.36656 48.6965 0.867143 50.3903 0.406858C50.8552 0.280279 51.2764 0.206638 51.6538 0.188226C52.5767 0.142198 53.4098 0.696843 54.1393 1.26069C57.6536 3.97177 63.0873 8.09363 70.4357 13.6286C70.7925 13.8978 71.0318 14.4226 71.1561 15.2027C71.1745 15.3132 71.1699 15.4283 71.14 15.5387L68.6499 25.3451C68.6153 25.4809 68.6291 25.6236 68.6867 25.7502C69.216 26.9032 69.6118 27.7294 69.4461 29.2276C69.3288 30.2863 69.0871 31.3749 68.7166 32.4957C68.0584 34.4887 65.391 33.9525 64.0424 33.1746C63.3796 32.7926 63.1149 32.1712 63.2461 31.3081C63.4739 29.8329 63.757 28.5878 64.0953 27.5775C64.3577 26.7973 64.7259 26.1667 65.1977 25.6834C65.4486 25.428 65.6396 25.1955 65.7708 24.9838C65.7823 24.9631 65.7915 24.9424 65.7961 24.9217L67.8466 16.2706Z" fill="#F5E149"/>
<path d="M78.8915 2.57209C79.4807 3.17046 79.4738 4.13246 78.8754 4.71933L75.49 8.0587C74.8939 8.64786 73.9319 8.64096 73.3427 8.04259L73.0965 7.79403C72.5073 7.19566 72.5142 6.23367 73.1126 5.6468L76.498 2.30743C77.0941 1.71826 78.0561 1.72517 78.6452 2.32354L78.8915 2.57209Z" fill="#F5E149"/>
<path d="M14.8221 16.4265C14.8175 17.2642 14.1339 17.9409 13.2962 17.9386L8.49544 17.9132C7.65772 17.9086 6.9811 17.2251 6.9834 16.3874V16.056C6.98801 15.2183 7.67153 14.5416 8.51156 14.544L13.3123 14.5693C14.1501 14.5739 14.8267 15.2574 14.8244 16.0951V16.4265H14.8221Z" fill="#F5E149"/>
<path d="M83.865 20.6406C83.865 21.5082 83.1608 22.2125 82.2932 22.2125H77.6305C76.7628 22.2125 76.0586 21.5082 76.0586 20.6406V20.3736C76.0586 19.506 76.7628 18.8018 77.6305 18.8018H82.2932C83.1608 18.8018 83.865 19.506 83.865 20.3736V20.6406Z" fill="#F5E149"/>
<path d="M15.3975 29.867C14.7623 30.5022 13.7313 30.5045 13.0938 29.8716L12.9787 29.7588C12.3412 29.1237 12.3412 28.0926 12.9741 27.4551L15.6023 24.8177C16.2375 24.1825 17.2686 24.1802 17.9061 24.8131L18.0211 24.9258C18.6586 25.561 18.6586 26.5921 18.0257 27.2296L15.3975 29.867Z" fill="#F5E149"/>
<path d="M2.79921 30.9098C3.03626 30.7763 3.35386 30.6659 3.75661 30.5784C4.34807 30.4472 4.68638 30.3782 4.77614 30.369C5.17429 30.3276 5.47348 30.3322 5.6737 30.3805C6.12938 30.491 6.50451 30.4726 6.84973 30.6176C7.73808 30.9881 8.34566 31.3931 8.67246 31.8327C9.87611 33.4552 13.8231 39.1144 20.5179 48.8103C20.6376 48.9829 20.87 49.2499 21.2152 49.6112C21.4408 49.8483 22.2072 50.4973 23.5144 51.5605C26.5177 54.0047 29.3531 56.3015 32.0181 58.4533C32.0987 58.5201 32.1908 58.573 32.2874 58.6144C32.9295 58.8791 33.9398 59.2151 35.3184 59.6178C38.377 60.5131 41.2929 61.795 44.0707 63.4681C44.2548 63.5786 44.4873 63.574 44.6691 63.4589C48.0315 61.3209 51.6447 59.9331 55.4674 58.8377C55.854 58.7272 56.2292 58.474 56.4823 58.3336C56.7746 58.1702 57.5157 57.6064 58.7055 56.6421C62.2474 53.7676 64.9216 51.549 66.7237 49.991C68.2357 48.6861 69.4992 46.4629 70.4934 45.2431C71.2851 44.2719 71.9893 43.1926 72.6314 42.341C75.5174 38.5045 77.6854 35.5518 79.133 33.4782C79.8717 32.4196 80.4724 31.7383 80.9373 31.4369C81.7083 30.9351 82.5759 30.6659 83.5356 30.6314C85.2617 30.5692 86.6655 31.186 87.7472 32.4863C89.4088 34.4816 89.2961 36.8061 88.12 38.9993C85.3675 44.1292 81.8625 50.1935 77.6071 57.1944C77.1123 58.0091 76.7395 58.596 76.4886 58.9527C75.5842 60.2392 74.0261 62.0712 73.1447 63.2058C68.4751 69.224 65.6098 72.9155 64.5465 74.2779C64.4061 74.4574 64.3302 74.6761 64.3279 74.9016C64.3164 76.1329 64.321 78.3998 64.3394 81.7023C64.3394 81.8335 64.1737 82.1534 63.84 82.662C63.8009 82.7219 63.7479 82.7725 63.6835 82.8047L62.9148 83.2006C62.8481 83.2351 62.7744 83.2558 62.7008 83.2627C62.4798 83.2834 62.0403 83.2926 61.3798 83.2926C48.9083 83.2857 37.3828 83.288 26.8008 83.2995C24.9413 83.3018 24.5546 82.1626 24.5776 80.4895C24.5891 79.6103 24.5868 77.829 24.5707 75.1433C24.5684 74.805 24.4556 74.492 24.2301 74.202C18.7987 67.2218 15.0842 62.4601 13.0889 59.9124C11.8116 58.283 10.7852 56.817 10.0096 55.5167C6.46309 49.579 3.45972 44.2466 0.967279 39.0178C0.50239 38.0397 0.219316 37.2756 0.120355 36.7209C-0.346835 34.1226 0.546115 32.1871 2.79921 30.9098Z" fill="#F5E149"/>
<path d="M40.0574 55.9382C34.2072 53.9613 31.167 47.9569 32.2165 42.0008C32.831 38.5141 34.7711 35.4808 37.8205 33.6213C42.1218 30.9977 47.3346 31.3452 51.4909 34.192C54.7244 36.4083 56.5426 40.3898 56.6714 44.2447C56.7106 45.3793 56.5288 46.6727 56.126 48.1272C55.1824 51.5402 52.2964 54.5367 49.0883 55.7633C46.4048 56.7898 42.8744 56.891 40.0574 55.9382Z" fill="#F5E149"/>
</svg>
