<svg width="60" height="61" viewBox="0 0 60 61" fill="none" xmlns="http://www.w3.org/2000/svg">
<g clip-path="url(#clip0_882_7909)">
<path d="M38.5014 7.96982C36.9073 6.02012 34.0392 5.74159 32.095 7.35155C30.1507 8.9615 29.87 11.8447 31.464 13.7944C33.0581 15.7441 36.4303 16.6348 38.3715 15.0279C40.3158 13.4179 40.0954 9.91951 38.4983 7.96982H38.5014Z" stroke="#6DC2F6" stroke-width="2" stroke-linecap="round" stroke-linejoin="round"/>
<path d="M46.4463 27.5368L51.7205 21.4643C52.4602 20.6103 52.3696 19.3095 51.5183 18.5688C50.6699 17.8342 49.3959 17.9322 48.6683 18.7892C46.9625 20.8062 44.182 24.0537 44.182 24.0537L31.164 17.7363C29.585 16.968 27.7736 16.8456 26.1071 17.3874L18.475 19.8727C17.9316 20.0502 17.4304 20.3471 17.0138 20.745L11.0875 26.389C10.3327 27.1083 10.2542 28.2959 10.9063 29.11C11.5947 29.967 12.8355 30.0986 13.6808 29.4039L19.7491 24.421L27.7615 21.8989L24.1025 30.1415L18.4509 38.1147C21.4065 40.1654 31.5112 42.8956 37.4707 38.4208L32.438 31.2311L35.3363 24.9107L42.748 28.3357C44.022 28.9233 45.5255 28.5989 46.4493 27.5337L46.4463 27.5368Z" stroke="#6DC2F6" stroke-width="2" stroke-linecap="round" stroke-linejoin="round"/>
<path d="M37.6036 41.2461L38.944 43.0978C39.6113 44.0191 39.9494 45.1424 39.9011 46.2841L39.3969 58.3128C39.3426 59.6228 38.2587 60.6482 36.9636 60.6084C36.722 60.5992 36.4896 60.5594 36.2722 60.4829C35.3242 60.1554 34.654 59.2372 34.6721 58.1659L34.8925 46.2994L32.3535 43.0366" stroke="#6DC2F6" stroke-width="2" stroke-linecap="round" stroke-linejoin="round"/>
<path d="M19.5924 41.4443L18.7349 42.99L7.9842 50.5378C7.35021 50.9816 7.00604 51.6948 7 52.4202C7 52.867 7.12076 53.3231 7.38342 53.721C8.07477 54.7739 9.46956 55.0677 10.5141 54.3852L21.3011 47.22C22.2642 46.5803 23.0612 45.7171 23.6318 44.704L24.6522 42.8798" stroke="#6DC2F6" stroke-width="2" stroke-linecap="round" stroke-linejoin="round"/>
<path d="M34.1106 6.3136C34.1106 6.3136 33.6759 4.18638 33.3468 3.42732C32.0336 0.394121 29.2923 0.317602 27.2061 1.24501C26.4031 1.60312 25.5487 2.16629 24.6732 2.18772C23.1335 2.22445 21.5606 0.700195 21.5606 0.700195C21.5606 0.700195 21.5424 2.56113 22.7682 4.3333C24.015 6.13608 27.0582 7.03288 29.0779 6.22484" stroke="#6DC2F6" stroke-width="2" stroke-linecap="round" stroke-linejoin="round"/>
</g>
<defs>
<clipPath id="clip0_882_7909">
<rect width="60" height="61" fill="white"/>
</clipPath>
</defs>
</svg>
