<svg width="61" height="61" viewBox="0 0 61 61" fill="none" xmlns="http://www.w3.org/2000/svg">
<path d="M39.2034 48.8271H26.4329C25.8622 48.8271 25.3984 48.3555 25.3984 47.7751V15.925C25.3984 15.3446 25.8622 14.873 26.4329 14.873H38.7397C39.3104 14.873 39.7742 15.3446 39.7742 15.925C39.7742 16.5055 39.3104 16.977 38.7397 16.977H27.4674V46.7231H39.2034C39.7742 46.7231 40.2379 47.1947 40.2379 47.7751C40.2379 48.3555 39.7742 48.8271 39.2034 48.8271Z" fill="#6DC2F6"/>
<path d="M26.4326 32.5034H19.2269C18.6561 32.5034 18.1924 32.0318 18.1924 31.4514C18.1924 30.871 18.6561 30.3994 19.2269 30.3994H26.4326C27.0033 30.3994 27.4671 30.871 27.4671 31.4514C27.4671 32.0318 27.0033 32.5034 26.4326 32.5034Z" fill="#6DC2F6"/>
<path d="M15.0894 60.0002H10.345C9.77428 60.0002 9.31055 59.5286 9.31055 58.9482C9.31055 58.3678 9.77428 57.8962 10.345 57.8962H14.0906L14.911 37.2554C14.911 37.2554 14.9824 36.9289 15.0537 36.7475L18.3712 31.0522C18.3712 31.0522 18.3712 30.9797 18.4069 30.9797C18.5495 30.7983 18.6209 30.5806 18.6209 30.363V23.0716C18.6209 22.7814 18.5139 22.5274 18.2998 22.3098L12.6994 16.687C12.307 16.288 12.2713 15.5988 12.6994 15.1997C13.0918 14.8007 13.7695 14.7644 14.1619 15.1997L19.7624 20.8225C20.3688 21.4029 20.6899 22.2372 20.6899 23.0716V30.363C20.6899 31.0159 20.5115 31.6326 20.1191 32.1768L16.98 37.5818L16.1239 58.9482C16.1239 59.5286 15.6601 59.964 15.0894 59.964V60.0002Z" fill="#6DC2F6"/>
<path d="M10.3448 60.001H5.60048C5.02973 60.001 4.60166 59.5657 4.56599 58.9853L3.70987 37.6189L0.570749 32.2138C0.214031 31.6697 0 31.053 0 30.4V23.1086C0 22.2743 0.321046 21.4399 0.927467 20.8595L6.52794 15.2368C6.92033 14.8377 7.5981 14.8377 7.99049 15.2368C8.38288 15.6358 8.38288 16.325 7.99049 16.7241L2.39001 22.3468C2.17598 22.5645 2.06897 22.8184 2.06897 23.1086V30.4C2.06897 30.6177 2.14031 30.8353 2.283 31.0167L2.31867 31.0893L5.60048 36.7845C5.60048 36.7845 5.74316 37.111 5.74316 37.2924L6.56362 57.9333H10.3092C10.8799 57.9333 11.3436 58.4049 11.3436 58.9853C11.3436 59.5657 10.8799 60.0373 10.3092 60.0373L10.3448 60.001Z" fill="#6DC2F6"/>
<path d="M10.3449 18.1021C7.41977 18.1021 5.06543 15.1275 5.06543 11.4636C5.06543 7.7998 7.41977 4.8252 10.3449 4.8252C13.2699 4.8252 15.6243 7.7998 15.6243 11.4636C15.6243 15.1275 13.2699 18.1021 10.3449 18.1021ZM10.3449 6.96546C8.56127 6.96546 7.1344 8.9969 7.1344 11.4999C7.1344 14.0029 8.59694 16.0344 10.3449 16.0344C12.0928 16.0344 13.5553 14.0029 13.5553 11.4999C13.5553 8.9969 12.0928 6.96546 10.3449 6.96546Z" fill="#6DC2F6"/>
<path d="M10.345 60.0008C9.77428 60.0008 9.31055 59.5292 9.31055 58.9488V43.4954C9.31055 42.9149 9.77428 42.4434 10.345 42.4434C10.9158 42.4434 11.3795 42.9149 11.3795 43.4954V58.9488C11.3795 59.5292 10.9158 60.0008 10.345 60.0008Z" fill="#6DC2F6"/>
<path d="M52.1883 27.0978H39.3465C38.4547 27.0978 37.7056 26.336 37.7056 25.4291V10.0482L36.7068 10.81C36.35 11.0639 35.922 11.1728 35.4939 11.1002C35.0658 11.0277 34.6735 10.81 34.4238 10.4473L31.8911 6.96479C31.6414 6.60203 31.5343 6.16673 31.6057 5.73142C31.677 5.29611 31.8911 4.89708 32.2478 4.64315L36.6711 1.34206C37.8126 0.471441 39.2038 0.0361328 40.6307 0.0361328H42.9136C43.199 0.0361328 43.4844 0.14496 43.6984 0.39889C43.8768 0.616544 43.9838 0.90675 43.9481 1.19696C43.9481 2.79309 44.8043 4.17156 45.8387 4.17156C46.8732 4.17156 47.7293 2.75681 47.7293 1.16068C47.7293 0.870474 47.8007 0.580268 47.979 0.362614C48.1574 0.14496 48.4428 0.0361328 48.7638 0.0361328H51.0468C52.4737 0.0361328 53.8649 0.507717 55.0064 1.34206L59.4297 4.64315C60.1431 5.18728 60.3215 6.23928 59.7864 6.96479L57.2537 10.4473C56.7186 11.1728 55.6842 11.3541 54.9707 10.81L53.9719 10.0482V25.4291C53.9719 26.336 53.2228 27.0978 52.331 27.0978H52.1883ZM39.7745 24.9938H51.7959V7.98051C51.7959 7.58148 52.01 7.21872 52.3667 7.03734C52.7234 6.85596 53.1158 6.89224 53.4368 7.14617L55.7555 8.8874L57.7888 6.09417L53.7222 3.04702C52.9374 2.4666 51.9743 2.14012 50.9755 2.14012H49.6556C49.2989 4.53432 47.7293 6.27555 45.8031 6.27555C43.8768 6.27555 42.2716 4.53432 41.9505 2.14012H40.6307C39.6675 2.14012 38.6687 2.4666 37.8839 3.04702L33.8173 6.09417L35.8506 8.8874L38.1693 7.14617C38.4903 6.92851 38.8827 6.89224 39.2395 7.03734C39.5962 7.21872 39.8102 7.58148 39.8102 7.98051V24.9938H39.7745Z" fill="#6DC2F6"/>
<path d="M45.7677 6.23942C43.556 6.23942 41.8438 3.99033 41.8438 1.12455C41.8438 1.08827 41.8438 0.979444 41.8438 0.943168C41.9151 0.399033 42.3432 0 42.8782 0H48.6927C49.2278 0 49.6559 0.399033 49.7272 0.906892C49.7272 0.943168 49.7272 1.052 49.7272 1.08827C49.7272 3.95405 48.015 6.20314 45.8033 6.20314L45.7677 6.23942ZM43.9841 2.10399C44.2338 3.26481 44.9472 4.13543 45.7677 4.13543C46.5881 4.13543 47.2659 3.26481 47.5156 2.10399H43.9841Z" fill="#6DC2F6"/>
<path d="M45.7677 6.23942C43.556 6.23942 41.8438 3.99033 41.8438 1.12455C41.8438 1.08827 41.8438 0.979444 41.8438 0.943168C41.9151 0.399033 42.3432 0 42.8782 0H48.6927C49.2278 0 49.6559 0.399033 49.7272 0.906892C49.7272 0.943168 49.7272 1.052 49.7272 1.08827C49.7272 3.95405 48.015 6.20314 45.8033 6.20314L45.7677 6.23942ZM43.9841 2.10399C44.2338 3.26481 44.9472 4.13543 45.7677 4.13543C46.5881 4.13543 47.2659 3.26481 47.5156 2.10399H43.9841Z" fill="#6DC2F6"/>
<path d="M51.7598 59.9994H45.7669C45.1962 59.9994 44.7324 59.5278 44.7324 58.9474C44.7324 58.367 45.1962 57.8954 45.7669 57.8954H51.296V42.1155C51.296 41.5351 51.7598 41.0635 52.3305 41.0635H56.4685V36.7104H45.7669C45.1962 36.7104 44.7324 36.2389 44.7324 35.6584C44.7324 35.078 45.1962 34.6064 45.7669 34.6064H57.4673C58.038 34.6064 58.5017 35.078 58.5017 35.6584V42.0792C58.5017 42.6597 58.038 43.1312 57.4673 43.1312H53.3293V58.367C53.3293 58.8023 53.151 59.2014 52.8656 59.5278C52.5802 59.8181 52.1522 59.9994 51.7241 59.9994H51.7598Z" fill="#6DC2F6"/>
<path d="M45.7666 59.9993H39.7737C39.3457 59.9993 38.9533 59.8179 38.6322 59.5277C38.3469 59.2375 38.1685 58.8022 38.1685 58.3669V43.1674H34.0306C33.4598 43.1674 32.9961 42.6958 32.9961 42.1154V35.6946C32.9961 35.1142 33.4598 34.6426 34.0306 34.6426H45.7666C46.3374 34.6426 46.8011 35.1142 46.8011 35.6946C46.8011 36.275 46.3374 36.7466 45.7666 36.7466H35.0651V41.0997H39.203C39.7737 41.0997 40.2375 41.5712 40.2375 42.1516V57.9316H45.7666C46.3374 57.9316 46.8011 58.4032 46.8011 58.9836C46.8011 59.564 46.3374 60.0356 45.7666 60.0356V59.9993Z" fill="#6DC2F6"/>
<path d="M45.7666 40.8096C42.9842 40.8096 40.7012 38.4879 40.7012 35.6584C40.7012 35.078 41.1649 34.6064 41.7357 34.6064C42.3064 34.6064 42.7701 35.078 42.7701 35.6584C42.7701 37.3271 44.1257 38.7056 45.7666 38.7056C47.4075 38.7056 48.763 37.3271 48.763 35.6584C48.763 35.078 49.2267 34.6064 49.7975 34.6064C50.3682 34.6064 50.832 35.078 50.832 35.6584C50.832 38.4879 48.549 40.8096 45.7666 40.8096Z" fill="#6DC2F6"/>
</svg>
