<?xml version="1.0" encoding="UTF-8"?>
<svg id="_レイヤー_2" data-name="レイヤー 2" xmlns="http://www.w3.org/2000/svg" width="388.3" height="80.84" viewBox="0 0 388.3 80.84">
  <defs>
    <style>
      .cls-1 {
        stroke-width: .39px;
      }

      .cls-1, .cls-2 {
        fill: blue;
        stroke: blue;
        stroke-miterlimit: 10;
      }

      .cls-2 {
        stroke-width: .23px;
      }
    </style>
  </defs>
  <g id="_コピー_中国語" data-name="コピー_中国語">
    <g>
      <g>
        <path class="cls-1" d="M1.78,33.93c-.56.27-1.11,0-1.42-.66-.31-.65-.18-1.25.38-1.52l9.49-4.52c.08-1.03.07-2.09-.06-3.1-.08-.57.22-.98.65-1.19.16-.07.36-.13.53-.18.6-.1,1.05.04,1.26.47.06.12.12.33.13.51.06.77.08,1.53.05,2.27l13.1-6.24c.56-.27,1.09-.03,1.42.66.31.65.18,1.25-.38,1.52l-8.65,4.12c3.49,1.89,8.73,1.99,12.38,1.32.63-.11,1.08.17,1.3.64.07.15.12.32.13.51.1.6-.13,1.09-.66,1.34-.16.07-.36.13-.57.16-4.75.7-10.79.03-15.1-2.77l-3.27,1.56c-.75,4.67-3.04,9.24-6.68,13.3-.16.15-.33.27-.48.34-.47.22-.97.2-1.39-.1-.18-.14-.3-.31-.39-.5-.21-.43-.17-.99.26-1.38,2.83-2.88,5-6.58,5.95-10.35l-7.96,3.79ZM8.69,49.87c-.56.27-1.13.04-1.45-.64-.33-.69-.15-1.27.41-1.53l6.1-2.9c-.35-.9-.78-1.88-1.31-3-.27-.56.04-1.13.72-1.45.72-.34,1.34-.22,1.61.34.52,1.09.95,2.07,1.32,3l8.93-4.25-1.41-2.95c-.27-.56.04-1.13.72-1.45.72-.34,1.31-.21,1.58.35l1.41,2.95,6.59-3.14c.56-.27,1.13-.04,1.45.64.33.68.15,1.27-.41,1.53l-6.59,3.14,3.28,6.88c.27.56,0,1.14-.71,1.48-.68.33-1.33.18-1.6-.39l-3.28-6.87-9.21,4.39c1.17,4.29.37,7.19-2.03,10.55-.21.29-.44.52-.72.65-.4.19-.82.2-1.26-.08-.23-.16-.41-.38-.51-.59-.19-.4-.17-.84.1-1.23,2.03-2.8,2.84-4.86,2.03-8.15l-5.75,2.74ZM20.34,38.83c.27.56.01,1.06-.67,1.39-.65.31-1.21.19-1.47-.37l-1.65-3.45-4.64,2.21c-.53.25-1.05-.03-1.33-.63-.3-.62-.18-1.18.35-1.43l4.63-2.21-1.32-2.77c-.25-.53-.01-1.06.64-1.38.69-.33,1.25-.18,1.5.35l1.32,2.77,5.04-2.4c.53-.25,1.03,0,1.33.63.28.59.18,1.17-.35,1.43l-5.04,2.4,1.65,3.45Z"/>
        <path class="cls-1" d="M68.71,22.51c1.77-.28,2.7.26,2.99,2.07.62,3.85.79,7.9.53,10.21-.24,1.78-1.14,2.7-2.87,2.98-.71.12-1.82.19-2.6.14-.46-.03-.79-.36-.87-.87-.02-.14-.04-.27-.03-.41.08-.61.37-.93.82-1,.07-.01.17-.03.24,0,.54.09,1.34.1,1.89.01.85-.14,1.25-.45,1.38-1.62.18-1.91-.03-5.41-.56-8.67-.12-.72-.45-.87-1.13-.76l-6.77,1.09c-1.84.3-2.84-.28-3.12-2.04l-2.02-12.52c-.3-1.87.47-2.69,2.31-2.99l9.19-1.48c.61-.1,1.01.22,1.12.87.1.61-.16,1.14-.78,1.24l-3.78.61.49,3.06,3.03-.49c.51-.08.89.31.98.85.09.58-.15,1.04-.66,1.12l-3.03.49.49,3.03,2.96-.48c.54-.09.89.31.98.85.09.58-.11,1.03-.66,1.12l-2.96.48.55,3.44,1.91-.31ZM61.36,28.03v.07c.17,2.49.09,6.1-.43,8.52-.1.44-.38.69-.72.74-.14.02-.28,0-.46-.03-.43-.07-.68-.34-.75-.75-.02-.1,0-.28,0-.42.42-2.16.61-5.51.44-7.89-.05-.55.36-.83.8-.9.03,0,.07-.01.1-.02.52-.05.93.13,1.02.67ZM62.88,12.77l-.49-3.06-2.65.43c-.61.1-.89.32-.79.96l.36,2.25,3.57-.58ZM60.11,18.35l3.57-.58-.49-3.03-3.57.58.49,3.03ZM60.85,22.91c.11.68.44.8,1.06.7l2.65-.43-.55-3.44-3.57.58.42,2.59ZM62.66,27.19c.37-.06.76.16.94.62.54,1.83.99,4,1.3,5.9.04.27.09.55.13.78.05.52-.2.91-.78,1-.54.09-.92-.09-1.01-.61v-.07c-.08-.41-.15-.85-.22-1.29-.28-1.73-.68-3.59-1.12-5.23-.01-.07-.02-.1-.02-.14-.09-.54.22-.8.65-.94.07-.01.1-.02.14-.02ZM65.06,26.73c.31-.05.67.07.84.42.63,1.54,1.37,3.72,1.62,5.08l.02.1c.08.51-.15.79-.58.93-.03,0-.07.01-.1.02-.44.07-.81-.08-.94-.65-.28-1.32-.95-3.48-1.48-4.86-.05-.1-.06-.17-.07-.23-.07-.41.17-.66.5-.78.07-.01.14-.02.2-.03ZM67.36,26.08c.24-.04.5.06.66.42.55,1.03,1.23,2.45,1.58,3.55.01.07.02.14.03.2.06.38-.07.64-.4.76-.1.05-.2.07-.27.08-.34.05-.64-.07-.77-.47-.31-.82-.91-2.37-1.47-3.46-.09-.13-.11-.23-.12-.29-.05-.34.12-.54.41-.7.13-.06.23-.07.34-.09ZM71.65,9.61c-.09-.58.32-1.03,1.04-1.15.78-.13,1.25.18,1.34.76l.98,6.06,3.2-1.81-1.29-8c-.1-.61.36-1,1.04-1.11.75-.12,1.31.1,1.41.72l1.14,7.08,2.97-1.7c1.76-1.02,3.48-.53,3.83,1.9.46,3.1.87,7.12.83,9.68-.03,1.75-.89,2.73-2.38,2.97-.51.08-1.05.17-1.69.13-.53-.02-.81-.5-.9-1.01-.02-.1-.04-.24-.02-.35-.02-.56.29-.99.74-1.06.07-.01.1-.02.17-.03.35.01.59-.03.93-.08.44-.07.74-.36.73-1.3-.02-2.27-.35-5.21-.74-7.84-.08-.51-.27-.8-.68-.73-.17.03-.37.09-.62.24l-2.78,1.6,2.03,12.59c.1.61-.36,1.03-1.11,1.16-.68.11-1.25-.15-1.34-.76l-1.88-11.64-3.19,1.84,2.21,13.71c.19,1.19.6,1.54,1.74,1.5.8-.02,2.06-.19,3.42-.41,1.53-.25,2.75-.48,3.48-.7,1.13-.32,1.68-.86,1.83-1.66.18-.83.17-1.77.02-2.93-.12-.96.3-1.38,1.02-1.49.03,0,.07-.01.1-.02.65-.07,1.21.15,1.36,1.07l.02.1c.21,1.75.18,3.46-.17,4.57-.45,1.29-1.31,2.03-2.91,2.53-.93.29-2.28.58-4.39.92-1.8.29-3.21.45-4.29.48-2.3.05-3.15-.68-3.5-2.86l-2.18-13.51-.86.49c-.22.14-.42.21-.62.24-.48.08-.86-.11-1.14-.58-.1-.16-.16-.32-.18-.49-.08-.48.17-.9.78-1.24l1.63-.93-1.12-6.94Z"/>
        <path class="cls-1" d="M138.61,21.91c2-.05,2.84.62,2.89,2.48l.12,4.65,2.96-.07c.62-.01.98.42.99,1.11.02.69-.32,1.18-.94,1.2l-29.98.75c-.62.02-.98-.42-.99-1.15-.02-.69.32-1.15.94-1.16l2.86-.07-.12-4.65c-.05-1.86.76-2.57,2.73-2.62l18.54-.46ZM114.16,5.1c-.62.02-.98-.42-.99-1.11-.02-.72.32-1.15.94-1.16l8.17-.2-.03-1.17c-.02-.65.42-.98,1.22-1,.83-.02,1.25.28,1.26.93l.03,1.17,8.06-.2-.03-1.17c-.02-.65.42-.98,1.22-1,.83-.02,1.25.28,1.26.93l.03,1.17,8.37-.21c.59-.01.94.39.96,1.11.02.69-.32,1.15-.9,1.16l-8.37.21.02.76c.02.69-.39,1.04-1.18,1.06-.76.02-1.28-.31-1.3-1l-.02-.76-8.06.2.03,1c.02.69-.39,1.04-1.18,1.06-.76.02-1.28-.31-1.3-1l-.02-1-8.17.2ZM124.36,18.78l5-.13c.52-.01.8.43.82.94.01.52-.25.97-.77.98l-11.37.28c-1.79.05-2.63-.59-2.68-2.24l-.22-8.72c-.04-1.62.77-2.3,2.56-2.34l11.27-.28c.59-.01.91.39.92.91.01.59-.29,1.01-.87,1.02l-4.89.12.05,1.96,2.41-.06c1.48-.04,2.15.43,2.18,1.74l.04,1.76c.03,1.31-.61,1.84-2.09,1.88l-2.41.06.05,2.1ZM117.76,18.22c.01.59.33.72.91.7l3.41-.09-.05-2.1-4.31.11.03,1.38ZM117.68,15.15l8.13-.2c.52-.01.72-.15.71-.64l-.02-.79c-.01-.48-.22-.55-.74-.53l-8.13.2.05,1.96ZM121.9,11.36l-.05-1.96-3.41.09c-.59.02-.89.16-.88.75l.03,1.24,4.31-.11ZM120.81,24.49c-.62.01-.93.2-.91.85l.11,4.24,4.69-.12-.13-5.07-3.76.09ZM131.56,24.22l-4.58.12.13,5.07,4.58-.12-.13-5.07ZM133.78,12.03c-.59,1.22-1.29,2.27-1.96,3.12-.23.28-.58.43-.92.44-.31,0-.62-.09-.87-.25-.32-.2-.46-.47-.47-.78,0-.28.09-.55.29-.8,1.27-1.45,2.39-3.58,3.06-5.87.13-.52.5-.8.98-.82.17,0,.31.03.48.06.59.16.91.53.92.98,0,.1-.03.24-.06.38-.13.45-.29.9-.45,1.32l8.61-.22c.62-.01,1.01.35,1.03,1.08s-.35,1.11-.97,1.13l-9.68.24ZM132.9,18.26c-.59.01-.98-.39-.99-1.11-.02-.69.35-1.15.94-1.16l9.61-.24c.59-.02.98.42.99,1.11.02.72-.32,1.15-.94,1.16l-9.61.24ZM138.96,24.86c-.02-.65-.33-.82-.95-.8l-4.03.1.13,5.07,4.96-.12-.11-4.24Z"/>
        <path class="cls-1" d="M176.09,21.31c0,.14-.05.27-.09.41-1.09,3.03-2.86,6.79-4.37,9.28-.33.54-.82.76-1.31.74-.24-.01-.48-.09-.72-.24-.41-.22-.63-.58-.61-1.06.01-.27.13-.58.35-.95,1.51-2.36,3.09-5.81,4.14-8.74.16-.51.62-.77,1.13-.75.17,0,.34.05.55.09.65.23.94.69.92,1.21ZM175.64,13.53c.36.36.49.71.48,1.05-.01.34-.16.65-.41.88-.29.26-.67.42-1.09.41-.34-.01-.65-.13-.92-.38-1.06-1.08-2.56-2.45-4-3.44-.27-.18-.43-.53-.41-.88.01-.27.13-.55.34-.78.32-.33.71-.52,1.16-.51.24,0,.48.09.71.23,1.35.88,3.05,2.29,4.14,3.41ZM177.7,5.02c.3.32.42.71.41,1.02-.01.34-.16.65-.42.91-.29.26-.64.39-1.02.37-.34-.01-.68-.17-.95-.45-1.09-1.15-2.73-2.56-4.03-3.54-.27-.22-.43-.53-.41-.88.01-.27.13-.58.38-.85.29-.33.74-.49,1.16-.47.24.01.48.09.72.24,1.34.92,3.04,2.43,4.17,3.65ZM195.88,10.16c1.93.08,2.86.91,2.75,2.9-.07,1.72-.2,3.41-.37,5.06l2.07.08c.62.02.95.49.92,1.17-.03.72-.39,1.05-1.01,1.03l-2.24-.09c-.26,2.16-.59,4.32-1.02,6.48l2.07.08c.62.02.98.45.95,1.18-.03.72-.42.98-1.04.96l-2.48-.1c-.16.68-.36,1.3-.52,1.81-.66,1.94-1.79,2.48-3.61,2.41-1.1-.04-2.51-.2-3.26-.44-.55-.16-.87-.59-.85-1.14,0-.14.04-.24.08-.38.2-.58.55-.91,1.1-.89.14,0,.27.04.41.09.54.19,1.57.37,2.26.4.96.04,1.42-.19,1.7-1.07.08-.27.16-.58.24-.89l-13.81-.55c-1.55-.06-2.56-.69-2.51-2.07.01-.31.06-.65.18-1.03.55-1.67,1.11-3.61,1.57-5.6l-2.07-.08c-.62-.02-.95-.38-.92-1.11.03-.69.39-1.12,1.01-1.1l2.48.1c.38-1.74.69-3.46.93-5.03.29-2.03,1.14-2.75,3.07-2.67l11.92.47ZM182.99,6.58c-1.18,1.89-2.56,3.73-3.86,5.02-.29.26-.64.42-1.02.41-.31-.01-.65-.13-.91-.42-.23-.22-.36-.53-.35-.84s.2-.68.52-1.01c2.04-1.92,4.18-5.25,5.4-8.13.23-.51.62-.77,1.1-.75.21,0,.41.05.65.13.48.19.74.58.72,1.03,0,.17-.05.34-.13.55-.23.54-.49,1.08-.79,1.66l16.05.64c.62.02.95.52.92,1.24-.03.69-.39,1.19-1.01,1.17l-17.29-.69ZM181.98,19.68c-.42,1.98-.91,3.9-1.39,5.43-.04.17-.08.34-.09.45-.02.41.25.6.84.62l4.65.19c.53-2.15,1-4.31,1.36-6.47l-5.37-.21ZM184.36,11.98c-.62-.02-.94.14-1.03.86-.23,1.44-.5,3.05-.84,4.66l5.24.21c.09-.48.14-.96.2-1.44.23-1.37.42-2.74.58-4.12l-4.13-.17ZM194.54,26.7c.46-2.12.79-4.32,1.05-6.48l-5.79-.23c-.36,2.16-.79,4.35-1.29,6.47l6.03.24ZM190.83,12.23c-.18,1.86-.42,3.71-.7,5.56l5.68.23c.16-1.51.26-3.06.36-4.64.03-.72-.27-.94-.89-.97l-4.44-.18Z"/>
      </g>
      <g>
        <path class="cls-2" d="M134.46,59.77c-1.85.49-3.69.9-5.39,1.22-.37.06-.59-.13-.68-.53-.06-.37.1-.64.47-.7,2.53-.46,5.3-1.11,7.93-1.9,1.35-.42,2.49-.84,3.58-1.32.09-.03.18-.07.25-.08.26-.04.46.05.62.31.03.09.07.18.08.27.05.29-.08.53-.36.63-1.08.45-2.23.88-3.62,1.29-.49.14-.97.28-1.46.42l.31,1.78,7.15-1.23c.33-.06.54.15.6.5.06.35-.06.65-.39.71l-7.15,1.23.9,5.24c2.17,1.84,5.39,3.12,8.46,3.52.31.04.5.25.55.55.02.11.02.21.01.3-.05.37-.28.6-.57.65-.09.01-.19.01-.29,0-2.89-.49-5.9-1.8-8.08-3.47.17.46.36,1.09.44,1.57l.61,3.51c.06.33-.18.6-.62.67s-.75-.1-.81-.43l-.6-3.48c-.09-.5-.12-1.13-.12-1.66-1.23,2.11-3.68,4.48-5.99,5.86-.14.08-.28.14-.39.16-.29.05-.54-.06-.7-.35-.07-.1-.11-.23-.13-.34-.05-.28.06-.52.38-.67,2.61-1.42,5-3.72,6.42-6.14l-.9-5.24-7.02,1.21c-.29.05-.54-.17-.6-.54-.06-.33.1-.62.39-.67l7.02-1.21-.28-1.64ZM131.94,64.37c-.07-.39.13-.59.53-.66.4-.07.67.05.74.44l.84,4.87c.06.37-.15.57-.55.64-.4.07-.65-.06-.72-.42l-.11-.66c-1.02.54-2.15,1.03-3.16,1.42-.05.03-.13.04-.18.05-.33.06-.55-.09-.66-.44-.03-.05-.04-.11-.05-.16-.05-.29.07-.5.39-.62,1.06-.33,2.28-.83,3.47-1.39l-.23-1.32-3.38.58c-.29.05-.5-.14-.55-.47-.06-.33.06-.62.36-.67l3.38-.58-.1-.61ZM140.2,66.45c.09.52.23.59,1.5.37,1.2-.21,1.34-.35,1.45-.57.08-.17.13-.48.11-.91-.02-.32.16-.52.47-.57.04,0,.09-.02.15,0,.32-.02.56.15.61.44,0,.04.01.07.02.11.03.7-.13,1.35-.31,1.62-.31.49-.76.74-2.31,1-.07.01-.17.03-.24.04-2.15.35-2.5.01-2.68-1.03l-.65-3.75c-.06-.33.15-.54.54-.61.39-.07.67.05.73.39l.19,1.12c1.23-.46,2.38-1.11,3.08-1.59.09-.05.17-.09.27-.1.22-.04.43.06.58.28.07.1.11.21.13.3.04.26-.07.45-.3.58-.84.52-2.12,1.1-3.56,1.64l.22,1.25Z"/>
        <path class="cls-2" d="M153.1,64.1c-.32.01-.5-.22-.51-.57-.02-.35.14-.58.46-.6l6.56-.31-.08-1.66-4.68.22c-.32.01-.5-.22-.51-.55-.02-.35.14-.6.46-.62l4.68-.22-.05-.97c-.02-.35.24-.53.65-.55.45-.02.7.14.71.49l.05.97,3.41-.16c.32-.01.5.22.51.57.02.33-.14.59-.46.6l-3.41.16.08,1.66,2.11-.1c1.63-1.12,3.15-2.45,4.19-3.73.16-.19.36-.3.55-.31.15,0,.3.04.44.13.19.12.29.3.3.47,0,.17-.06.32-.2.48-.78.91-1.93,1.92-3.23,2.86l3.84-.18c.32-.01.49.18.51.56.02.35-.14.6-.46.62l-5.59.27c-1.03.63-2.13,1.2-3.24,1.72.65-.14,1.24-.25,1.86-.28l4.1-.19c1.12-.05,1.62.28,1.67,1.27l.18,3.86c.05,1.01-.42,1.42-1.54,1.47l-8.18.39c-1.14.06-1.64-.31-1.69-1.32l-.12-2.5c-.01-.28,0-.56,0-.84-.9.38-1.98.77-2.9,1.02-.09.02-.18.05-.26.05-.34.02-.55-.16-.66-.51-.02-.08-.04-.15-.05-.22-.01-.3.16-.51.48-.6,2.67-.72,5.74-1.93,8.16-3.21l-8.13.39ZM158.51,58.4c.02.37-.2.57-.64.59-.41.02-.68-.16-.7-.53l-.04-.86-4.36.21c-.32.02-.51-.22-.53-.59s.16-.61.47-.62l4.36-.21-.04-.9c-.02-.35.24-.55.65-.57.45-.02.68.15.7.51l.04.9,4.36-.21-.04-.9c-.02-.35.24-.55.64-.57.45-.02.68.15.7.51l.04.89,4.57-.22c.32-.01.51.2.53.57.02.37-.16.62-.47.64l-4.57.22.04.91c.02.37-.2.55-.65.57-.41.02-.68-.14-.7-.51l-.04-.91-4.36.21.04.86ZM157.95,70.24c.02.35.19.46.54.44l7.59-.36c.37-.02.54-.14.52-.49l-.06-1.21-8.65.41.06,1.21ZM166.49,67.53l-.05-1.12c-.02-.35-.19-.44-.56-.42l-7.58.36c-.35.02-.52.12-.5.47l.05,1.12,8.65-.41Z"/>
        <path class="cls-2" d="M177.84,57.7c-.34-.01-.51-.32-.49-.69.02-.37.21-.63.55-.61l7.15.31.06-1.4c.01-.34.28-.51.69-.49.41.02.66.22.65.55l-.06,1.4,7.59.33c.34.01.51.29.49.66-.02.37-.22.66-.55.65l-7.59-.33-.06,1.46,4.94.21c1.16.05,1.66.48,1.62,1.57l-.16,3.79c-.05,1.06-.59,1.47-1.74,1.42l-3.96-.17c.86.91,2.05,1.86,3.11,2.49,1.17.69,2.51,1.27,3.56,1.63.39.13.55.32.53.64,0,.09-.03.18-.05.3-.11.35-.38.51-.68.49-.09,0-.2-.03-.3-.05-1.12-.39-2.73-1.17-3.93-1.96-1.18-.78-2.58-2.09-3.43-3.27.11.55.14,1.16.12,1.63l-.15,3.43c-.02.33-.28.51-.69.49-.41-.02-.66-.21-.65-.55l.15-3.43c.02-.47.1-1.08.26-1.61-.96,1.13-2.4,2.27-3.38,2.86-1.27.75-2.75,1.38-3.79,1.69-.17.05-.3.06-.43.06-.3-.01-.52-.17-.61-.47-.05-.11-.07-.23-.06-.34,0-.09.03-.19.07-.26.08-.18.24-.31.48-.37.97-.28,2.29-.72,3.54-1.4,1.11-.63,2.17-1.38,2.97-2.13l-3.51-.15c-1.16-.05-1.64-.5-1.6-1.56l.16-3.79c.05-1.08.57-1.47,1.72-1.42l4.55.2.06-1.46-7.15-.31ZM179.92,63.22l-.04,1.03c-.02.43.2.57.63.59l4.18.18.07-1.59-4.83-.21ZM184.87,60.69l-4.18-.18c-.43-.02-.66.1-.68.55l-.04,1.01,4.83.21.07-1.59ZM186.03,65.08l4.59.2c.43.02.66-.1.68-.53l.04-1.03-5.24-.23-.07,1.59ZM191.38,62.56l.04-1.01c.02-.45-.2-.59-.63-.61l-4.59-.2-.07,1.58,5.24.23Z"/>
        <path class="cls-2" d="M206.41,68.21c-.01.11-.06.22-.14.32-.98,1.41-2.63,2.77-4.07,3.55-.14.08-.29.1-.44.09-.24-.02-.45-.16-.59-.36-.08-.14-.12-.29-.11-.44.02-.22.15-.42.37-.55,1.48-.78,2.81-1.87,3.72-3.13.13-.16.32-.21.53-.19.13.01.27.06.42.15.23.15.34.35.32.56ZM218.55,59.58c.32.03.47.35.44.72-.04.37-.25.65-.57.62l-15.87-1.52c-.32-.03-.47-.33-.44-.72.04-.37.25-.65.57-.62l7.08.68.16-1.69c.03-.35.37-.51.79-.47.43.04.74.26.71.61l-.16,1.69,7.29.7ZM205.26,66.49c-1.04-.1-1.48-.57-1.38-1.65l.22-2.32c.11-1.1.63-1.48,1.67-1.38l9.05.87c1.04.1,1.48.57,1.38,1.67l-.22,2.32c-.1,1.08-.63,1.46-1.67,1.36l-3.68-.35-.47,4.91c-.12,1.23-.82,1.67-2.19,1.53-.63-.06-1.31-.18-1.86-.38-.25-.08-.42-.34-.39-.66,0-.07.01-.13.04-.2.11-.35.35-.49.59-.47.06,0,.11.01.15.03.36.13.97.26,1.32.3.61.06.85-.11.91-.7l.43-4.5-3.9-.37ZM214.03,66.05c.35.03.53-.04.57-.43l.17-1.82c.04-.39-.12-.5-.47-.53l-8.24-.79c-.35-.03-.53.04-.57.43l-.17,1.82c-.04.39.12.5.47.53l8.24.79ZM213.59,68.25c.22.02.4.13.5.31.75,1.39,2.02,2.78,3.18,3.78.21.17.3.4.28.65-.01.15-.09.31-.19.43-.19.19-.42.3-.66.27-.15-.01-.28-.06-.4-.17-1.2-1.02-2.73-2.79-3.49-4.33-.05-.1-.07-.21-.06-.33.02-.22.15-.42.39-.52.16-.08.31-.1.46-.09Z"/>
        <path class="cls-2" d="M228.78,69.81c0,.09-.04.17-.07.26-.72,1.59-1.63,3.46-2.68,4.87-.18.24-.43.35-.68.32-.13-.01-.27-.07-.4-.16-.21-.14-.31-.39-.28-.65.01-.13.07-.27.16-.4.97-1.28,1.93-3,2.56-4.58.13-.3.39-.43.68-.39.07,0,.16.04.26.07.34.15.48.39.45.67ZM228.75,65.7c-.02.15-.09.29-.24.43-.17.15-.36.2-.55.18-.2-.02-.4-.14-.55-.3-.52-.6-.93-1.06-1.52-1.56-.14-.11-.21-.3-.19-.51.02-.17.09-.33.24-.44.17-.15.38-.22.59-.2.13.01.26.07.38.15.62.5,1.13,1.03,1.67,1.69.11.16.19.36.16.56ZM229.85,61.22c-.02.19-.12.36-.26.5-.17.13-.34.19-.53.17-.2-.02-.42-.14-.57-.33-.44-.57-.89-1.09-1.47-1.63-.14-.13-.19-.34-.17-.53.02-.17.09-.35.24-.46.17-.15.38-.22.59-.2.15.02.27.09.41.2.58.52,1.08,1.1,1.59,1.74.13.16.19.36.16.54ZM230.74,65.18s0,.07-.03.11c-.23.74-.61,1.62-.98,2.2-.12.19-.27.25-.44.23-.07,0-.16-.04-.24-.06-.2-.1-.27-.27-.25-.46,0-.07.04-.16.08-.24.32-.49.68-1.24.92-1.98.06-.2.24-.31.46-.29.06,0,.11.01.16.04.22.08.33.24.31.45ZM240.2,69.63c.74.08,1.11.5,1.01,1.35l-.06.52c-.1.85-.54,1.18-1.31,1.09l-8.35-.93c-.28-.03-.38.03-.48.27-.03.07-.12.25-.17.34-.02.05-.05.11-.06.16-.01.13.07.21.27.24l9.11,1.02c.91.1,1.29.57,1.21,1.26,0,.07-.02.15-.05.24-.08.35-.21.71-.4,1.06-.35.64-.87.94-2.19.79-.72-.08-1.59-.23-2.19-.43-.27-.07-.43-.33-.4-.61,0-.06.01-.13.04-.18.11-.29.33-.41.59-.39.06,0,.11.01.16.04.47.16,1.24.34,1.78.4.76.08.92,0,1.08-.27.09-.16.15-.32.19-.49,0-.04,0-.06,0-.07.03-.26-.13-.37-.48-.41l-9.36-1.04c-.59-.07-.9-.34-.85-.79.01-.11.05-.24.12-.38.2-.43.35-.79.48-1.13.23-.52.49-.72,1.27-.63l8.15.91c.37.04.49,0,.52-.28l.04-.31c.03-.26-.09-.35-.45-.39l-9.11-1.02c-.28-.03-.4-.27-.37-.57.03-.28.2-.49.48-.45l9.74,1.09ZM231.31,64.26c-.56-.02-1.1-.07-1.57-.1-.29-.07-.45-.18-.45-.54,0-.02,0-.04,0-.04.03-.3.24-.43.48-.4.17.02.33.04.5.05.33-.28.67-.58.98-.87-.42-.63-.88-1.23-1.32-1.69-.1-.11-.16-.24-.15-.37.01-.11.06-.2.16-.3.12-.1.28-.16.41-.14.11.01.22.06.32.17.07.06.13.15.2.21.52-.47.93-.93,1.24-1.33.09-.12.25-.18.41-.16.09,0,.2.06.3.13.14.11.21.29.19.45,0,.07-.04.17-.1.23-.39.44-.89.93-1.47,1.4.16.21.29.41.44.61.02.02.05.06.06.1.46-.46.87-.9,1.24-1.31.11-.14.27-.2.42-.18.11.01.22.06.32.15.12.11.16.23.15.35-.01.11-.06.2-.15.3-.77.8-1.63,1.62-2.44,2.34.52.04,1.06.08,1.59.08-.09-.22-.2-.42-.29-.6-.03-.06-.04-.14-.03-.19.01-.13.1-.25.26-.31.1-.06.2-.07.27-.06.13.01.23.1.29.22.3.54.56,1.17.71,1.7.01.08.02.13.01.21-.02.17-.15.32-.32.38-.06.01-.13.02-.19.02-.17-.02-.32-.13-.36-.3-.01-.06-.02-.12-.03-.19-.28,0-.55.02-.83,0-.08,0-.17,0-.26,0l-.4,3.62c-.03.26-.24.42-.55.39s-.48-.24-.45-.5l.4-3.55ZM233.13,64.95c.17.02.27.11.33.28.17.51.3,1.16.38,1.68.01.06,0,.09,0,.15-.02.22-.19.37-.4.39-.04.01-.08.01-.11,0-.2-.02-.34-.15-.37-.36-.05-.53-.15-1.16-.3-1.65-.01-.06-.02-.12-.02-.17.02-.15.12-.27.3-.3.08-.01.15-.02.21-.01ZM237.74,67.65c-.09.76-.46.96-1.23.88l-1.37-.15c-.76-.08-1.09-.36-1-1.13l.08-.72c.09-.78.47-1,1.23-.91l1.37.15c.76.08,1.08.38,1,1.16l-.08.72ZM237.66,64.31c.24.03.35.23.32.47-.03.24-.18.43-.42.4l-2.71-.3c-.22-.02-.35-.25-.32-.49.03-.24.2-.41.42-.39l2.71.3ZM238.19,61.21c.26.03.38.27.36.51-.03.26-.2.45-.44.42l-3.42-.38c-.22-.02-.35-.25-.32-.51.03-.24.2-.45.42-.42l3.4.38ZM236.34,67.72c.28.03.45.01.48-.25l.07-.59c.03-.28-.13-.33-.41-.36l-.89-.1c-.28-.03-.41,0-.44.27l-.07.59c-.03.26.1.31.38.34l.89.1ZM237.83,62.81c.24.03.35.23.32.49-.02.22-.18.41-.42.39l-2.71-.3c-.22-.02-.35-.25-.32-.47.03-.26.2-.43.42-.4l2.71.3ZM238.24,59.6c.24.03.35.26.32.49-.03.28-.18.47-.42.44l-2.9-.32c-.24-.03-.37-.25-.34-.53.02-.22.2-.43.44-.4l2.9.32ZM238.33,68.54c-.06,0-.13-.03-.2-.06-.2-.1-.28-.22-.26-.4,0-.09.06-.22.15-.36.25-.4.55-1.08.76-1.74.06-.2.22-.31.45-.29.04,0,.09,0,.15.03.22.08.33.24.31.45,0,.04,0,.07-.03.11-.21.67-.54,1.44-.82,1.92-.16.28-.32.36-.51.34ZM240.26,65.26c-.56-.02-1.1-.07-1.57-.1-.29-.07-.45-.18-.45-.54,0-.02,0-.04,0-.04.03-.3.24-.42.48-.4.17.02.33.04.5.06.33-.28.67-.58.98-.87-.42-.63-.88-1.23-1.32-1.69-.1-.11-.16-.24-.15-.37.01-.11.06-.2.16-.3.12-.1.28-.16.41-.14.11.01.22.06.32.17.07.06.13.15.2.21.52-.47.93-.93,1.24-1.33.09-.12.25-.18.41-.16.09.01.2.06.3.13.14.11.21.29.19.45,0,.07-.04.17-.1.23-.39.45-.89.93-1.47,1.4.18.23.34.47.5.71.46-.46.87-.9,1.24-1.31.11-.14.27-.2.42-.18.11.01.22.06.32.15.12.11.16.22.15.35-.01.11-.06.2-.15.3-.77.8-1.63,1.62-2.44,2.34.56.04,1.1.08,1.66.09-.09-.22-.2-.42-.29-.6-.03-.06-.04-.14-.03-.19.01-.13.1-.25.26-.31.1-.06.2-.07.27-.06.13.01.23.1.3.22.3.54.57,1.17.71,1.69,0,.08.02.13.01.21-.02.17-.15.32-.32.38-.06.01-.13.02-.19.02-.17-.02-.32-.13-.36-.3-.01-.06-.02-.13-.05-.2-.13,0-.28,0-.41,0-.25.01-.49,0-.73.01l-.4,3.62c-.03.26-.24.43-.55.39-.32-.03-.48-.24-.45-.5l.39-3.55ZM242.17,66c.2.02.36.15.41.38.1.65.28,1.35.46,1.78.06.12.08.25.07.38-.02.17-.11.32-.25.39-.1.04-.21.07-.31.06-.17-.02-.3-.13-.38-.32-.22-.55-.46-1.46-.53-2.15-.01-.06,0-.09,0-.15.02-.22.19-.34.4-.37.04-.01.1,0,.13,0Z"/>
        <path class="cls-2" d="M253.5,75.55c.71-.16,1.38-.32,1.97-.47.08-.03.17-.04.25-.03.26.02.41.22.48.51,0,.09.02.19.01.26-.02.24-.17.42-.5.52-1.75.49-4.35,1.02-6.3,1.28-.08.01-.15,0-.21,0-.3-.03-.49-.21-.55-.58-.01-.08,0-.17,0-.24.03-.3.2-.53.48-.54.19-.02.36-.04.55-.06l.58-6.3c.03-.33.34-.45.69-.42.33.03.64.21.61.54l-.55,6c.32-.04.65-.11.95-.16.08-.03.15-.04.23-.05l.71-7.69-1.26-.12c-.97-.09-1.38-.52-1.28-1.52l.31-3.42c.09-.98.59-1.35,1.56-1.26l2.84.26c1,.09,1.43.54,1.34,1.53l-.31,3.4c-.09,1.02-.58,1.37-1.52,1.28l-.41-.04-.24,2.6,1.69.16c.33.03.48.29.45.66-.03.37-.23.62-.56.59l-1.69-.16-.32,3.48ZM252.55,63.08c-.35-.03-.53.05-.56.43l-.26,2.79c-.04.39.12.5.48.53l2.04.19c.33.03.51-.05.55-.44l.26-2.79c.04-.39-.12-.5-.46-.53l-2.04-.19ZM257.34,64.92c-.35-.03-.52-.29-.48-.68.03-.35.24-.6.6-.56l2.92.27c.27-.46.5-.95.7-1.47.11-.33.3-.46.62-.43.07,0,.15.01.24.04.35.11.51.33.49.61,0,.07-.03.15-.06.24-.17.4-.35.77-.54,1.15l5.02.46c.33.03.5.31.46.66-.03.37-.24.61-.58.58l-2.82-.26c.7,1.34,1.91,2.46,3.05,3.13.23.12.33.33.31.55-.01.13-.06.26-.15.38-.13.23-.35.32-.59.3-.09,0-.2-.04-.33-.11-1.33-.82-2.83-2.4-3.63-4.38l-1.45-.13c-1.1,1.62-2.53,2.9-4.17,3.8-.14.1-.29.12-.42.11-.22-.02-.4-.15-.49-.34-.08-.14-.12-.31-.11-.44.02-.2.13-.38.38-.51,1.32-.67,2.43-1.58,3.31-2.75l-2.27-.21ZM256.85,71.32c-.32-.03-.48-.31-.45-.66.03-.35.24-.6.56-.57l9.1.84c.33.03.5.31.47.64-.03.37-.24.62-.58.58l-5.41-.5c-.25.52-.53,1.06-.75,1.41-.04.07-.07.12-.07.16-.01.11.06.16.25.17l3.62.33c1.06.1,1.41.6,1.33,1.38,0,.06,0,.11-.01.17-.16.98-.49,2.09-.95,2.97-.41.83-1.12,1.17-2.36,1.06-.71-.06-1.48-.23-1.98-.43-.27-.1-.44-.36-.41-.67,0-.05.03-.15.06-.22.1-.29.32-.46.62-.43.11.01.22.04.33.09.27.12.89.29,1.6.35.52.05.77-.04,1.02-.52.27-.52.55-1.45.66-2.08,0-.02,0-.04,0-.06.03-.32-.15-.43-.52-.46l-4.2-.39c-.56-.05-.85-.38-.81-.79.01-.17.09-.35.22-.54.29-.46.64-1.03.94-1.64l-2.29-.21ZM263.42,67.88c.28.02.49.33.46.66-.03.35-.26.61-.58.58l-3.6-.33c-.32-.03-.49-.36-.46-.72.03-.33.29-.55.57-.53l3.6.33Z"/>
        <path class="cls-2" d="M276.91,74.31c0,.08-.02.15-.05.22-.59,1.64-1.55,3.67-2.37,5.02-.18.29-.45.41-.71.4-.13,0-.26-.05-.39-.13-.22-.12-.34-.31-.33-.57,0-.15.07-.32.19-.52.82-1.27,1.68-3.14,2.25-4.73.09-.28.33-.42.61-.4.09,0,.19.02.3.05.35.13.51.37.5.65ZM276.67,70.1c.2.19.26.38.26.57s-.09.35-.22.48c-.16.14-.36.23-.59.22-.19,0-.35-.07-.5-.21-.57-.58-1.39-1.33-2.17-1.86-.14-.1-.23-.29-.22-.48,0-.15.07-.3.18-.42.18-.18.39-.28.63-.27.13,0,.26.05.39.13.73.48,1.65,1.24,2.24,1.85ZM277.79,65.49c.16.17.23.38.22.55,0,.19-.09.35-.23.5-.15.14-.34.21-.55.2-.19,0-.37-.09-.51-.25-.59-.62-1.48-1.39-2.18-1.92-.14-.12-.23-.29-.22-.48,0-.15.07-.31.21-.46.16-.18.4-.26.63-.26.13,0,.26.05.39.13.73.5,1.65,1.32,2.26,1.98ZM287.63,68.28c1.04.04,1.55.49,1.49,1.57-.04.93-.11,1.85-.2,2.74l1.12.04c.34.01.51.26.5.64-.02.39-.21.57-.55.56l-1.21-.05c-.14,1.17-.32,2.34-.55,3.51l1.12.04c.34.01.53.25.52.64s-.23.53-.56.52l-1.34-.05c-.09.37-.2.7-.28.98-.36,1.05-.97,1.34-1.96,1.3-.6-.02-1.36-.11-1.77-.24-.3-.09-.47-.32-.46-.62,0-.07.02-.13.05-.2.11-.31.3-.49.6-.48.07,0,.15.02.22.05.29.11.85.2,1.22.22.52.02.77-.1.92-.58.04-.15.09-.31.13-.48l-7.48-.3c-.84-.03-1.39-.37-1.36-1.12,0-.17.03-.35.1-.56.3-.9.6-1.96.85-3.03l-1.12-.04c-.34-.01-.51-.21-.5-.6.02-.37.21-.61.55-.59l1.34.05c.21-.95.37-1.87.5-2.73.16-1.1.62-1.49,1.67-1.45l6.45.26ZM280.65,66.34c-.64,1.02-1.39,2.02-2.09,2.72-.15.14-.35.23-.55.22-.17,0-.35-.07-.5-.23-.13-.12-.19-.29-.19-.46s.11-.37.28-.55c1.11-1.04,2.26-2.84,2.92-4.4.12-.27.33-.42.6-.41.11,0,.22.03.35.07.26.1.4.31.39.56,0,.09-.03.19-.07.3-.12.29-.27.59-.43.9l8.69.35c.34.01.51.28.5.67-.01.37-.21.65-.55.63l-9.36-.38ZM280.1,73.43c-.23,1.08-.5,2.11-.75,2.94-.02.09-.04.18-.05.24,0,.22.14.32.45.34l2.52.1c.29-1.16.54-2.33.74-3.5l-2.91-.12ZM281.39,69.26c-.34-.01-.51.07-.56.46-.12.78-.27,1.65-.46,2.52l2.84.11c.05-.26.08-.52.11-.78.12-.74.23-1.49.31-2.23l-2.24-.09ZM286.9,77.24c.25-1.15.43-2.34.57-3.51l-3.13-.13c-.2,1.17-.43,2.36-.7,3.5l3.26.13ZM284.9,69.4c-.1,1.01-.23,2.01-.38,3.01l3.08.12c.09-.82.14-1.66.2-2.51.02-.39-.15-.51-.48-.52l-2.41-.1Z"/>
        <path class="cls-2" d="M306.51,69.27c.65,2.27,1.79,4.15,3.14,5.63,1.44,1.59,3.19,2.77,4.84,3.45.3.12.44.36.45.62,0,.17-.04.36-.13.51-.14.27-.4.41-.66.42-.15,0-.32-.02-.47-.09-1.83-.81-3.73-2.24-5.12-3.89-1.12-1.32-2.04-2.89-2.65-4.68-.25,1.26-.63,2.4-1.19,3.5-1.23,2.48-3.32,4.5-5.79,5.74-.13.06-.26.1-.37.11-.26.01-.53-.11-.71-.44-.08-.13-.12-.28-.13-.41,0-.26.13-.49.39-.63,2.55-1.28,4.24-2.86,5.35-5.12.71-1.43,1.08-2.84,1.26-4.64l-6.6.26c-.37.01-.59-.31-.61-.72-.02-.39.18-.72.55-.73l6.75-.27c.03-1.05.02-2.24-.03-3.62-.02-.45.29-.65.74-.66.47-.02.76.19.77.6.05,1.31.06,2.5.01,3.62l7.38-.29c.37-.01.59.29.61.69.02.41-.18.76-.55.77l-7.24.28Z"/>
        <path class="cls-2" d="M325.8,65.47c.33-.05.53.17.58.52.05.37-.08.65-.41.7l-1.04.14c.65,1.32,1.49,2.3,2.38,3.14.13.13.21.29.23.44.02.17-.03.34-.16.48-.12.09-.24.17-.39.19-.17.02-.32-.03-.46-.18-.58-.65-1.19-1.51-1.79-2.69.28,1.04.66,2.45.81,3.56l.97,6.97c.05.35-.18.59-.59.65-.41.06-.66-.12-.71-.47l-.85-6.1c-.16-1.17-.19-2.35-.25-3.87-.18,2.08-.62,3.95-1.15,5.27-.08.22-.27.34-.48.37-.13.02-.26,0-.39-.06-.18-.11-.3-.3-.33-.5-.02-.13,0-.28.07-.42.87-1.87,1.46-4.12,1.58-6.55l-1.65.23c-.33.05-.55-.19-.6-.56-.05-.35.1-.62.44-.66l1.79-.25-.44-3.14c-.05-.35.17-.57.57-.63.41-.06.67.1.72.45l.44,3.14,1.09-.15ZM328.96,68.27c-.03-.18-.03-.35-.01-.51-.42.38-.86.74-1.34,1.05-.1.07-.23.12-.34.14-.18.02-.36-.05-.52-.23-.07-.1-.13-.23-.14-.34-.03-.2.06-.38.25-.51,1.04-.63,1.93-1.44,2.61-2.36l-2.33.32c-.31.04-.51-.17-.56-.51-.04-.31.09-.6.4-.64l3.27-.46c.18-.36.33-.72.45-1.12-1.13.25-2.26.45-3.37.6-.37.05-.59-.15-.65-.49-.05-.37.12-.6.48-.65,2.74-.38,5.89-1.12,8.56-2.15.07-.03.11-.03.16-.04.3-.04.51.12.6.41.03.07.06.14.07.2.04.26-.08.5-.39.58-1.29.48-2.7.9-4.12,1.25-.15.42-.32.84-.49,1.24l5.95-.83c.31-.04.52.19.56.51.05.33-.09.6-.4.64l-3.07.43c1.05.8,2.38,1.27,3.77,1.51.31.03.45.24.48.46.01.09,0,.17-.02.27-.08.27-.26.47-.5.5-.07.01-.15,0-.23,0-.78-.17-1.55-.43-2.29-.76.09.21.13.4.16.6l.1.74c.11.81-.23,1.16-1.16,1.29l-4.36.6c-.92.13-1.35-.11-1.47-.93l-.12-.83ZM336.89,70.02c1.07-.15,1.67.2,1.8,1.18l.61,4.4c.16,1.15-.34,1.76-1.62,1.94-.57.08-1.17.11-1.67.08-.28,0-.5-.2-.54-.51,0-.06-.02-.11,0-.19,0-.34.21-.56.43-.59.02,0,.04,0,.06,0,.48.05.99.05,1.36,0,.61-.09.7-.25.63-.78l-.53-3.85c-.05-.37-.29-.49-.66-.43l-7.29,1.01c-.37.05-.57.25-.52.62l.75,5.38c.05.33-.21.56-.63.61-.39.05-.69-.09-.74-.42l-.78-5.6c-.13-.96.33-1.59,1.4-1.74l7.95-1.1ZM330.89,65.33c-.34.56-.7,1.08-1.12,1.57.32-.12.78-.22,1.21-.28l2.68-.37c.41-.06.74-.07,1.03-.05-.56-.36-1.08-.74-1.56-1.18l-2.24.31ZM336.34,74.73c.12.89-.22,1.24-1.11,1.36l-3.09.43c-.89.12-1.32-.12-1.44-1.01l-.18-1.33c-.12-.89.22-1.24,1.11-1.36l3.09-.43c.89-.12,1.32.12,1.44,1.02l.18,1.31ZM334.44,68.47c.3-.04.45-.16.41-.43l-.08-.55c-.04-.3-.22-.35-.51-.31l-3.7.51c-.3.04-.45.14-.41.43l.08.55c.04.28.22.35.51.31l3.7-.51ZM334.73,75.1c.28-.04.43-.13.39-.43l-.12-.87c-.04-.29-.22-.36-.5-.33l-2.4.33c-.28.04-.41.15-.37.45l.12.87c.04.29.2.35.48.31l2.4-.34Z"/>
        <path class="cls-2" d="M358.12,58.89c.85-.21,1.45.19,1.61.83.08.31.06.68-.12,1.07-1.29,3.15-3.79,6.6-6.74,9.48.39.27.83.47,1.31.6.87.26,2.11.35,3.58.06.81-.16,1.53-.33,2.24-.51,1.12-.28,2.16-.6,3.27-1,.04,0,.07-.02.09-.02.42-.11.72.17.84.6,0,.02,0,.04.01.05.1.4-.05.78-.5.92-.96.3-1.88.57-2.86.82-.91.23-1.84.42-2.88.63-1.72.3-3.26.22-4.25-.22-1.21-.46-2.22-1.1-3.03-2.49-.13,1.77-.56,3.43-1.21,4.75-.09.24-.28.4-.5.45-.18.05-.36.01-.56-.07-.22-.1-.38-.27-.43-.49-.04-.14-.02-.32.05-.48.78-1.43,1.3-3.41,1.45-5.26.02-.45.33-.68.69-.77.34-.09.69,0,.87.34.24.42.49.78.74,1.11,2.79-2.76,5-5.86,6.07-8.46.05-.11.06-.21.05-.26-.02-.09-.13-.12-.31-.08l-10.79,2.72c-.34.09-.63-.21-.73-.59-.09-.36.04-.7.38-.79l5.54-1.4-.66-2.61c-.09-.34.17-.64.62-.75.43-.11.82.03.9.37l.66,2.61,4.58-1.15Z"/>
        <path class="cls-2" d="M380.23,50.75c-.17-.45-.46-.59-.89-.43l-8.77,3.23c-.44.16-.59.46-.42.91l.78,2.12c1.09,2.96,1.75,5.22,2.03,6.81.31,1.75.38,3.56.24,4.76-.04.33-.21.57-.45.66-.12.05-.24.05-.38.04-.31-.04-.51-.21-.6-.45-.05-.12-.06-.28-.04-.44.17-1.12.08-2.79-.2-4.44-.28-1.57-.97-3.86-2.09-6.92l-.72-1.94c-.4-1.09,0-1.81,1.09-2.21l9.38-3.46c1.09-.4,1.87-.11,2.27.97l.89,2.42c.94,2.54,1.64,4.33,2.19,5.56.68,1.48,1.51,2.75,2.11,3.4.07.07.13.09.19.07s.09-.09.08-.21c-.04-.48-.17-1.15-.33-1.71-.11-.36.05-.58.33-.68l.1-.04c.33-.08.59.04.71.36v.03c.36,1.15.53,2.43.44,3.2-.05.46-.29.77-.63.89-.31.12-.69.06-1.07-.22-1.01-.74-2.08-2.24-3-4.19-.61-1.29-1.39-3.13-2.29-5.58l-.93-2.52ZM375.21,54.93c-.99.44-1.96.88-2.85,1.21-.3.11-.62,0-.75-.36-.13-.35-.03-.68.28-.8,2.35-.86,5-2.14,6.65-3.33.08-.05.14-.09.21-.12.26-.1.48-.04.69.2.05.08.1.16.13.23.1.26,0,.5-.2.65-.79.57-1.83,1.19-2.97,1.75l.61,1.65,1.98-.73c.95-.35,1.48-.13,1.83.8l.87,2.37c.34.93.07,1.44-.87,1.79l-1.98.73.92,2.49c.63-.29,1.25-.64,1.86-.99.11-.08.24-.15.36-.21-.3-.27-.6-.54-.81-.7-.09-.09-.16-.16-.19-.25-.08-.23-.02-.47.18-.64.07-.08.17-.14.27-.18.21-.08.42-.04.59.08.92.72,2.09,1.85,2.76,2.62.09.09.15.18.19.29.1.26,0,.5-.2.69-.07.07-.16.12-.24.15-.25.09-.52.05-.72-.17-.33-.36-.64-.7-.96-1.04-2.11,1.28-4.99,2.75-7.29,3.76l-.05.02c-.35.13-.65.06-.83-.35l-.02-.05c-.14-.39-.04-.66.29-.82,1.13-.45,2.41-1.03,3.64-1.62l-.97-2.63-1.86.68c-.93.34-1.47.12-1.81-.8l-.87-2.37c-.34-.93-.07-1.44.85-1.79l1.86-.68-.57-1.54ZM374.7,58.06c-.33.12-.46.25-.33.62l.73,1.98c.13.35.32.38.65.26l1.47-.54-1.05-2.85-1.47.54ZM380.06,59.33c.35-.13.46-.27.33-.62l-.73-1.98c-.14-.37-.3-.39-.65-.26l-1.61.59,1.05,2.85,1.61-.59Z"/>
      </g>
    </g>
  </g>
</svg>