<?xml version="1.0" encoding="UTF-8"?>
<svg id="_レイヤー_2" data-name="レイヤー 2" xmlns="http://www.w3.org/2000/svg" width="609.19" height="100.23" viewBox="0 0 609.19 100.23">
  <defs>
    <style>
      .cls-1 {
        fill: blue;
      }
    </style>
  </defs>
  <g id="_コピー" data-name="コピー">
    <g>
      <g>
        <path class="cls-1" d="M65.51,97.78c-1.05.31-2.17.25-3.18.04-.86-.19-1.7-.53-2.53-.77-1-.3-2.03-.43-2.97-.16-1.07.32-2.03,1.16-2.68,2.79-.1.29-.31.45-.52.52-.37.11-.79-.08-.95-.47-.34-.85,1.37-3.51,3.66-4.19,1.07-.31,2.16-.27,3.2-.07.86.19,1.68.48,2.51.73.98.3,2.02.41,2.96.13,1.1-.32,2.06-1.14,2.7-2.74.12-.32.32-.48.54-.54.37-.11.76.08.92.47.34.88-1.34,3.58-3.66,4.26Z"/>
        <path class="cls-1" d="M98.45,96.86c-.69.79-1.61.72-2.17.27-.56-.45-.75-1.29,0-1.96,3.1-2.8,3.07-6.94,1.59-10.25-.42-.96.03-1.54.75-1.71.69-.16,1.48.04,1.79,1.02.09.28.2.59.27.87.06-.04.09-.09.14-.13,1.29-.97,2.63-2.41,3.08-3.87.17-.57.05-.92-.53-.79-2.51.55-7.36,1.74-10.43,2.62-1.93.55-2.58-1.72-.94-2.2,3.18-.9,8.07-2,11.42-2.77,2.32-.54,4.09,1.25,3.15,3.45-.88,2.09-2.01,3.96-4.14,5.42-.45.31-.92.36-1.3.23.65,3.69-.09,6.85-2.66,9.79Z"/>
        <path class="cls-1" d="M141.46,72.06c.96-.23,2.05-.51,2.95-.7,1.73-.37,3.61.66,3.22,2.47-1.27,5.95-3.1,11.25-8.79,14.9-1.73,1.09-3.3-1.08-1.59-2.06,4.56-2.63,7.03-7.96,7.61-12.24.06-.48-.25-.9-.79-.79-.95.18-2.57.61-3.56.89-.97,2.37-2.29,5.18-3.56,6.54-1.24,1.31-3.14-.5-1.86-1.75,1.8-1.74,3.58-6.56,4.11-8.6.39-1.44,2.98-.67,2.34,1.08l-.09.26Z"/>
        <path class="cls-1" d="M179.76,83.09c-.81.68-1.72.49-2.22-.02-.51-.51-.59-1.35.25-1.91,3.49-2.32,4-6.36,2.95-9.79-.3-.99.23-1.5.98-1.56.72-.06,1.49.23,1.67,1.24.06.28.12.59.15.88.07-.03.11-.08.17-.11,1.42-.78,2.96-2.01,3.6-3.37.25-.53.17-.89-.43-.83-2.6.2-7.65.71-10.86,1.16-2.02.27-2.38-2.02-.66-2.27,3.33-.46,8.39-.88,11.88-1.18,2.41-.21,3.95,1.76,2.72,3.79-1.17,1.92-2.55,3.59-4.89,4.74-.5.24-.97.23-1.34.05.17,3.69-.99,6.68-3.97,9.19Z"/>
        <path class="cls-1" d="M223.72,80.51c-1.85.61-3.03-1.75-1.21-2.27,4.47-1.3,7.08-4.22,7.75-7.26.15-.65-.01-1.03-.91-1.04-2.41-.03-6.78.07-9.28.19-1.66.08-2.17-2.19-.36-2.25,3.03-.1,6.98-.15,10.18-.15,2.36,0,3.68,1.34,3.02,3.69-1.13,4.01-3.59,7.23-9.19,9.09ZM229.27,65.53c-2.21.02-5.45.11-8,.06-1.56-.04-1.94-2.24-.12-2.22,2.26,0,5.55-.02,7.93-.06.8,0,1.34.51,1.42,1.09.07.57-.25,1.13-1.22,1.13Z"/>
        <path class="cls-1" d="M262.65,77.02c-2.12,1.16-3.46-1.37-1.89-2.03,4.27-1.8,8.6-5.82,11.1-9.85.97-1.56,3.12.13,2.16,1.43-1.01,1.34-1.97,2.55-2.93,3.66.04,2.43.26,8.67.44,11.06.13,1.82-2.42,1.83-2.49-.12-.06-1.91-.14-5.78-.24-8.57-1.79,1.69-3.76,3.12-6.16,4.43Z"/>
        <path class="cls-1" d="M308.93,76.28c-.85-.94-2.35-1.85-3.46-2.28-1.42-.55-.76-2.85,1.03-2.08,1.25.54,3.01,1.45,4.13,2.43.72.63.65,1.52.25,2.01s-1.23.7-1.95-.08ZM307.2,85.83c-2.04.34-2.72-2.48-.74-2.68,4.8-.49,9.73-4.66,12.24-8.94.8-1.35,3.22,0,2.12,1.72-3.09,4.88-8.12,8.99-13.62,9.89Z"/>
        <path class="cls-1" d="M355.78,80.36c-.35,2.97-2.43,7.22-4.69,9.08-1.81,1.48-3.81.33-4.88-1.83-1.52-3.11.01-7.35,3.17-9.2,2.9-1.69,7.23-1.53,10.24.62,3.7,2.62,4.34,7.06,2.31,10.23-1.1,1.7-3.41,2.91-5.75,3.26-2.08.31-2.84-2.17-.81-2.42,1.8-.2,3.62-1.01,4.38-2.16,1.66-2.47.99-5.65-1.38-7.42-.93-.7-1.93-1.1-2.95-1.28.26.27.41.66.34,1.13ZM350.51,80.22c-2.19,1.46-3.34,4.49-2.33,6.43.37.73.99,1.16,1.58.7,1.76-1.37,3.38-4.96,3.59-7.5.02-.28.09-.54.21-.71-1.09.11-2.15.49-3.05,1.08Z"/>
        <path class="cls-1" d="M403.58,96.31c-1.51-2.31-2.01-6.64-2.22-10.48-.09-1.57-.12-3.05-.16-4.28t0-.05c-.04-.74-.65-1.16-1.34-1.23-1.39-.14-2.86-.27-4.31-.37-1.64-.11-3.19-.2-4.61-.25-.8-.03-1.18.42-1.14,1.21.07.88.17,2.17.25,3.65.21,3.89.19,9.1-1.69,11.82-.31.45-.74.62-1.14.59-.66-.04-1.28-.59-1.32-1.2-.01-.24.07-.49.26-.74,1.81-2.3,1.95-6.56,1.76-10.15-.11-1.84-.29-3.49-.4-4.63,0-.05,0-.07,0-.12-.06-1.29.59-2.55,2.53-2.48,1.63.07,3.36.16,5.09.28,1.94.13,3.83.29,5.49.45,1.72.17,2.75,1.09,2.84,2.73v.07c.09,1.67.08,3.99.21,6.33.32,5.86,1.45,7.57,1.74,7.6.24.02.44-.49.51-1.79.05-.73.42-.99.87-.96.62.04,1.33.66,1.38,1.45.05.93-.57,4.26-2.49,4.13-.71-.05-1.47-.6-2.09-1.54ZM398.48,93.1c-.18-.2-.25-.39-.26-.56-.02-.45.43-.8.97-.76,1.14.08,3.17,2.81,3.22,3.76.04.69-.5,1.13-1.05,1.09-.38-.03-.75-.26-.99-.8-.13-.32-.29-.62-.48-.91-3.13.52-8.16.79-8.49.77-.76-.05-1.14-.6-1.17-1.12-.03-.52.27-1,.96-.98,1.14.03,2.5,0,3.84-.07l-.13-2.41c-.4-.05-.8-.08-1.19-.13-2.19-.34-2.33-1.18-2.46-3.52-.14-2.62.2-2.86,3.3-2.65l-.07-1.36c-1.18.02-2.19,0-2.76-.05h-.02c-.59-.04-.93-.59-.95-1.11-.03-.48.23-.93.8-.89.09,0,.19.01.28.02,1.94.14,4.5.07,6.58-.35.09-.02.19-.03.26-.03.57.04.95.59.98,1.11.06.93-.63,1.03-3.02,1.22l.09,1.6c3.22.22,3.54.57,3.69,3.25.13,2.29-.16,3.1-1.95,3.09-.47,0-.95-.04-1.39-.05l.11,2.12c.52-.04,1.01-.07,1.45-.11l-.15-.15ZM394.75,86.53c-1.64-.11-1.63.03-1.56,1.27.07,1.36.13,1.41,1.71,1.52l-.15-2.79ZM396.87,89.46c1.58.11,1.68.05,1.61-1.15-.08-1.45-.09-1.53-1.77-1.64l.15,2.78Z"/>
        <path class="cls-1" d="M432.39,97.62c-2.4-4.74-1.29-11.77-1.17-14.61.06-1.76,2.41-1.2,2.3.18-.17,1.93-.98,7.52-.18,9.75.11.31.19.24.26.03.04-.12.25-.59.32-.76.6-1.16,2.19,0,1.75.96-.7,1.54-.96,2.63-1.03,3.32-.07.64.29,1.39-.25,1.9-.53.52-1.41.41-2.01-.77ZM438.84,86.51c-1.26.31-2.24-1.82-.57-2.23,2.04-.49,4.49-.48,6.18-.05,1.69.43,1.48,2.67-.15,2.28-1.74-.38-3.54-.48-5.46,0ZM438.52,96.02c-1.08-1.09.15-2.77,1.5-1.62,1.4,1.19,4.19.85,5.98.49,1.87-.38,2.26,2.16.75,2.54-2.46.61-6.33.48-8.23-1.41Z"/>
        <path class="cls-1" d="M480.58,85.09c.14,3.05-1.19,7.66-3.07,9.9-1.51,1.78-3.63.95-5.01-1.05-1.97-2.88-1.17-7.4,1.58-9.78,2.52-2.17,6.74-2.72,9.99-1.05,4,2.04,5.33,6.4,3.88,9.91-.78,1.89-2.82,3.49-5.03,4.22-1.96.65-3.09-1.72-1.17-2.3,1.7-.5,3.33-1.61,3.89-2.89,1.2-2.75.04-5.85-2.53-7.23-1.01-.55-2.04-.79-3.06-.81.3.22.5.59.51,1.08ZM475.48,85.81c-1.88,1.83-2.51,5.06-1.21,6.85.46.67,1.13,1,1.63.44,1.48-1.66,2.46-5.54,2.26-8.12-.03-.29,0-.56.08-.75-1.03.29-2,.85-2.77,1.58Z"/>
        <path class="cls-1" d="M522.07,94.55c-1.75.53-2.47-1.73-.94-2.15,2.02-.56,3.46-1.39,4.37-2.57,1.08-1.42.84-2.74-.04-3.46-1.26-1.04-3.08-.8-4.48-.17-1.53.72-2.81,1.85-4.2,2.77-1.41.95-2.83-1.15-1.48-1.97,1.32-.79,3.11-1.98,4.81-2.67,1.82-.73,4.46-1.07,6.48.47,2.43,1.83,2.27,4.56.59,6.61-1.1,1.35-2.72,2.43-5.13,3.15Z"/>
        <path class="cls-1" d="M558.52,77.23c.09-.49.18-.9.36-1.36.21-.56.11-.51-.28-.29-1.52.88-1.14.81-2.5,1.71-.64.42-1.2.77-1.83,1.09-1.82.94-3.22-1.66-1.53-2.4.44-.21,1.68-.72,2.34-1.04,1.02-.49,2.85-1.34,4.95-2.45,2.13-1.12,3.82-2.04,5.77-2.56,1.37-.36,2.11.72,2.08,1.52-.02.42-.38.99-1.99,1.19-1.18.15-2.49.87-3.17,1.29-1.13.71-1.83,2.34-2.07,3.3-.95,3.83,2.05,8.48,7.06,7.34,2.35-.54,3.32,2.21.92,2.64-6.85,1.27-11.16-4.8-10.12-10Z"/>
        <path class="cls-1" d="M605.32,71.26c-1.07.27-2.19.16-3.2-.09-.86-.22-1.69-.59-2.52-.87-.99-.33-2.02-.51-2.97-.27-1.09.27-2.08,1.08-2.79,2.67-.12.28-.33.44-.55.49-.38.09-.79-.11-.93-.5-.31-.86,1.5-3.44,3.84-4.03,1.08-.27,2.18-.19,3.22.06.85.22,1.67.54,2.49.82.97.34,2.01.48,2.96.24,1.11-.28,2.11-1.06,2.81-2.63.13-.31.34-.47.57-.52.38-.09.76.11.9.51.32.89-1.48,3.51-3.83,4.1Z"/>
      </g>
      <g>
        <path class="cls-1" d="M5,26.4c-1.36-.99-2.91-1.63-3.87-1.99-.52-.19-.87-.55-1.03-.91-.31-.73.08-1.62.91-1.78.78-.15,5.33,1.25,6.05,2.94.41.96,0,1.96-.8,2.11-.37.07-.78-.03-1.26-.37ZM6.83,34.09c-1.47-.69-2.82-1.11-4.12-1.34-.64-.09-1.06-.51-1.24-.94-.33-.76-.06-1.7.81-1.86.53-.1,3.13.19,4.98.99.65.27,1.05.73,1.28,1.26.38.89.11,1.91-.72,2.07-.25.04-.6,0-.98-.17ZM11.27,49.66c-.87.17-1.94-.46-2.31-1.32-.16-.36-.19-.75-.05-1.13.9-2.59,1.04-5.3.88-8.87-.02-.67.35-1.06.88-1.16.74-.14,1.73.28,2.14,1.24.28.66.79,5.99-.44,10.14-.21.68-.61,1.01-1.1,1.1ZM12.09,24.97c-.24,1.54-.59,3.07-1.12,4.56-.19.5-.57.78-.97.86-.81.15-1.82-.34-2.16-1.13-.14-.33-.14-.73.01-1.14,1.08-2.63,1.45-5.45,1.46-8.3,0-.64.39-.97.88-1.06.78-.14,1.81.3,2.17,1.16.18.43.14,1.01.09,1.84l11.62-2.28c.9-.17,1.66.51,1.97,1.23.33.76.22,1.6-.68,1.77l-13.27,2.48ZM31.68,41.53c.51,3.44-.7,5.31-3.34,5.8-.74.14-1.64.17-2.6.1-.66-.06-1.13-.54-1.37-1.1-.33-.76-.19-1.68.65-1.84.13-.02.29-.02.46-.01.67.09,1.23.05,1.66-.03,1.15-.22,1.57-.94,1.55-2.33l-8.62,1.68s-.06.01-.06.01c-2.24.42-3.84-.67-4.54-2.29-.16-.37-.25-.74-.33-1.15-.15-.97-.41-2.06-.73-3.25l-1.08.21c-.99.18-1.71-.39-2.01-1.09-.31-.73-.13-1.55.8-1.72l1.46-.27c-.33-1.08-.64-2.2-.97-3.28-.79-2.63-.17-3.68,2.28-4.21,1.32-.28,2.95-.62,4.53-.92.96-.18,1.89-.35,2.71-.47,2.07-.32,3.89.41,4.77,2.46.46,1.06.96,2.32,1.49,3.65l2.17-.41c.93-.17,1.66.44,1.96,1.14.31.73.17,1.5-.76,1.67l-2.29.43c.57,1.57,1.09,3.08,1.5,4.43l1.74-.33c.84-.16,1.55.42,1.85,1.12.28.66.15,1.44-.69,1.59l-2.2.41ZM19.56,33.24c-.54-1.57-1.06-3.08-1.55-4.39-2.42.45-3.02.61-2.64,1.89.26.84.6,1.95.93,3.11l3.25-.61ZM21.87,40.51c-.39-1.46-.89-3.01-1.41-4.62l-3.38.63c.38,1.35.73,2.64.96,3.57.03.07.04.1.07.17.21.49.77.85,1.36.74l2.4-.49ZM25.63,32.1c-.45-1.13-.91-2.19-1.31-3.11-.52-1.22-1.36-1.07-3.68-.63.49,1.3,1.03,2.8,1.58,4.38l3.41-.64ZM28.18,39.29c-.38-1.36-.89-2.94-1.49-4.57l-3.57.66c.52,1.62,1.01,3.21,1.38,4.63l3.67-.72Z"/>
        <path class="cls-1" d="M71.89,15.46c.45-.25.86-.49,1.14-.73,1.39-1.26,4.07,1.36,2.12,2.81-.67.47-1.91,1-3.16,1.42-.05,1.11-.19,2.36-.39,3.51,2.08-.6,4.48.04,6.38,2.42,1.08-.82,2.19-1.64,3.25-2.32.66-.4,1.39-.88,2.09-1.46,1.93-1.62,4.51,1.59,2.82,2.85-.84.62-1.53.86-3,1.68-1.17.65-2.38,1.45-3.45,2.2.47,1.09.97,2.46,1.32,3.67.39,1.34-.2,2.12-1,2.23-.79.11-1.75-.47-2.09-1.78-.21-.7-.44-1.47-.68-2.17-.23.2-.46.38-.67.57-3.07,3.03-1.9,4.99.21,5.77,2.01.75,4.93-.2,6.27-.84,2.52-1.16,4.65,2.37,1.97,3.44-1.72.67-5.92,1.56-8.93.32-5.2-2.15-5.97-6.73-1.51-11.23.34-.34.73-.75,1.22-1.17-1.82-2.73-4.18-2.18-5.42.52-.02.04-.06.11-.08.15-.16.39-.28.71-.44.93-1.21,1.8-4.2.1-2.89-1.88.56-.88,1.24-2.18,1.53-3.37.23-.98.4-2.03.5-3.1-1.64.42-2.9.43-4.11-.01-2.72-.99-2.22-4.28.57-2.91.76.38,1.99.1,3.04-.2.12-.05.31-.06.46-.11-.1-.99-.27-1.66-.6-2.84-.55-2.01,2.53-2.09,3.15-.45.26.66.35,1.31.4,1.96l-.02.14Z"/>
        <path class="cls-1" d="M137.04,28.33l1.54,5.32c1.46.26,2.99.3,4.49.25,2.22-.08,4.44-.36,6.53-.57.04,0,.06,0,.1,0,.98-.03,1.75.72,1.98,1.49.22.77-.08,1.56-1.16,1.7-1.84.27-3.76.47-5.65.54-5.59.19-11.18-.9-15.39-5.99-.68,4.49-3.42,7.12-4.6,7.16-.91.04-1.76-.75-2-1.55-.15-.5-.05-.98.35-1.3,3.32-2.56,3.61-6.32,3.01-10.33-.17-1.04.42-1.53,1.1-1.56.78-.02,1.78.55,2.06,1.52.12.4.21,1.75.25,2.12,1.52,2.72,3.35,4.38,5.39,5.39l-3.16-10.92-10.44.4c-1.01.04-1.72-.69-1.93-1.42-.2-.7.08-1.46,1.09-1.49l10.42-.36-1.03-3.42-7.45.26c-1.04.04-1.81-.68-2.03-1.42-.21-.73.13-1.49,1.18-1.52l7.45-.26-.82-2.71c-.28-.97.4-1.47,1.18-1.5.85-.03,1.81.44,2.08,1.38l.75,2.72,7.64-.27c.97-.03,1.72.72,1.93,1.46.22.74-.07,1.46-1.08,1.49l-7.64.27.96,3.42,10.58-.37c.98-.03,1.68.69,1.9,1.42.2.7-.07,1.46-1.05,1.49l-10.52.33,1.12,3.88,7.6-.29c1.01-.04,1.71.68,1.94,1.45.21.74-.06,1.49-1.08,1.52l-7.61.27Z"/>
        <path class="cls-1" d="M200.87,18.1c5.19,3.34,5.67,10.16.23,13.34-1.78,1.02-3.07,1.84-5.72,2.42-2.46.56-4.36-2.73-1.72-3.33,2.24-.51,4.03-1.23,5.22-2.14,3.14-2.32,3.11-5.54.93-7.47-3.94-3.47-10.33-.57-12.47,3.92-.69,1.42-.28.77-.76,1.83-.92,2.12-4.74.97-3.67-1.81.36-.92.61-.77,1.35-2.33.93-1.92,1.13-2.21,2.14-4.27,1.01-2.06,2.33-5.32,2.96-7.11.14-.39-.18-.57-.42-.38-1.15,1.01-2.7,1.74-4.22,2.27-2.4.83-4.36-2.82-1.67-3.3,1.31-.23,4.02-1.26,5.02-1.74,1.56-.8,1.7-.88,2.65-.78,1.85.17,3.72,1.85,2.62,3.74-1.41,2.47-3.17,5.96-4.49,8.22,2.45-2.92,8.12-3.59,12.02-1.07Z"/>
        <path class="cls-1" d="M250.18,26.66c4.11-4.9,3.66-11.01.91-14.71-1.86-2.49-4.28-2.32-5.96-.68-.48.48-1.88,1.63-2.5,1.92-2.26.98-4.27-2.19-2.28-3.34.71-.4,1.59-.9,2.33-1.4,2.68-1.9,7.38-2.35,10.49,1.26,4.52,5.25,4.77,13.47.25,19.16-1.48,1.89-4.6-.57-3.25-2.2ZM240.64,2.95c-2.2-.84-1.84-3.6.77-2.82,1.6.46,3.61.77,5.46.85,2.78.14,2.98,3.63.46,3.46-2.41-.15-5.07-.87-6.7-1.5Z"/>
      </g>
    </g>
  </g>
</svg>