<?xml version="1.0" encoding="UTF-8"?>
<svg id="_レイヤー_2" data-name="レイヤー 2" xmlns="http://www.w3.org/2000/svg" width="361.56" height="81.45" viewBox="0 0 361.56 81.45">
  <defs>
    <style>
      .cls-1 {
        fill: blue;
      }
    </style>
  </defs>
  <g id="_コピー_英語" data-name="コピー_英語">
    <g>
      <g>
        <path class="cls-1" d="M.16,15.56c-.44-.99.06-1.82.77-2.13.71-.31,1.68-.12,2.14.92.01.03.03.08.04.1.64,1.67,2.91,7.09,4.46,10.64.64,1.46,1.16,2.59,1.38,3.02.64,1.18,1.2.94,4.67-.58,1.48-.65,3.1-1.38,3.58-1.62.05-.02.08-.03.13-.06.87-.38,1.67.06,1.97.75.3.69.1,1.63-.97,2.16-.32.17-1.82.85-3.32,1.51-1.48.65-3,1.28-3.34,1.4-2.43.85-4.2.62-5.26-1.6-.26-.53-.62-1.34-1.03-2.29-1.53-3.5-3.87-9.14-4.97-11.66-.09-.2-.17-.38-.23-.54v-.03Z"/>
        <path class="cls-1" d="M30.32,25.58c-3.7.95-7.16-1.12-8.2-5.14-1.06-4.13,1.13-7.71,4.61-8.6,3.72-.96,6.53,1.23,7.05,3.28.33,1.27-.25,2.51-1.96,3.01-.83.24-1.4.39-6.63,1.73-.16.04-.16.27-.08.57.6,2.23,2.68,3.14,4.59,2.64,1.7-.44,2.52-1.51,3.08-2.55.19-.37.48-.58.81-.67.73-.19,1.6.28,1.79,1.04.08.32.06.68-.16,1.05-.95,1.68-2.18,2.95-4.9,3.65ZM30.86,15.37c-.1-.38-1.07-1.82-3.5-1.2-2.19.56-2.89,2.76-2.77,3.21.06.24.33.17,2.84-.47,1.11-.28,2.32-.6,3.04-.81.32-.11.47-.41.39-.73Z"/>
        <path class="cls-1" d="M44.08,11.38c-.41.06-.39.2-.37.37.16,1.02.43,3.37.71,5.19.33,2.15.55,3.02,2.09,2.78.19-.03.41-.09.62-.15.08-.01.13-.05.22-.06.74-.11,1.28.42,1.37,1.03.15.99-.69,1.6-2.12,1.82-4.08.62-4.63-2.98-4.8-4.11-.24-1.6-.61-4.36-.8-5.57-.03-.17-.05-.3-.06-.41-.05-.36-.22-.36-.5-.32l-.83.13c-.8.12-1.34-.47-1.44-1.13-.1-.63.22-1.33,1.05-1.46l.8-.12c.44-.07.45-.15.4-.54,0,0-.06-.55-.15-1.19-.05-.33-.1-.66-.17-.96,0-.03,0-.06-.01-.08-.13-.83.47-1.34,1.19-1.45,1.46-.22,1.66,1.1,1.72,1.46.11.74.22,1.8.22,1.8.07.44.18.45.46.41l1.84-.28c.83-.13,1.31.45,1.41,1.11.1.63-.19,1.35-1.01,1.48l-1.82.28Z"/>
        <path class="cls-1" d="M54.88,7.25c-.55.05-1.14-.26-1.32-.97-.23-.93-.57-3.17-.75-4.46-.18-1.33.96-1.77,1.37-1.8.8-.07,1.63.41,1.73,1.47.11,1.25.11,3.63.08,4.58-.04.73-.57,1.14-1.12,1.19Z"/>
        <path class="cls-1" d="M68.38,20.5c-3.39.13-4.89-1.73-4.93-2.65-.03-.75.64-1.36,1.37-1.39.39-.02.81.13,1.14.54.41.48,1.15.93,2.29.89,1.48-.06,2.03-.86,2-1.5-.04-.89-.67-1.4-3.98-2.74-1.75-.68-2.59-2.02-2.64-3.38-.08-1.89,1.41-3.79,4.08-3.9,2.56-.1,4.33,1.08,4.38,2.17.03.75-.59,1.42-1.34,1.45-.36.01-.79-.14-1.16-.51-.29-.27-.81-.64-1.78-.6-.95.04-1.45.59-1.43,1.2.02.42.31.91.97,1.19.74.33,2.01.84,2.86,1.25,1.96.96,2.82,2.34,2.88,3.71.09,2.17-1.93,4.17-4.71,4.28Z"/>
        <path class="cls-1" d="M89.73,18.91v-.06c.18-2.64.28-4.48.34-6.12.06-1.67.09-3.12.1-4.98v-.06c.03-.83.85-1.22,1.55-1.2.7.03,1.4.47,1.37,1.36,0,.11-.04.19-.04.28,0,.06,0,.08,0,.11,0,.06,0,.08.03.08,0,0,.06-.03.11-.11,1.16-1.18,2.68-1.6,3.62-1.57.86.03,1.34.69,1.31,1.39-.03.69-.55,1.4-1.64,1.47-1.65.11-3.53,1.4-3.68,3.15-.05.5-.07,1.08-.1,1.84-.04,1.09-.06,2.48-.08,4.46,0,.59-.36,1.41-1.47,1.37-.75-.03-1.46-.53-1.43-1.42Z"/>
        <path class="cls-1" d="M106.72,8.65c-.11,1.14-.29,3.22-.41,4.94-.08,1.08-.12,2.03-.12,2.48-.02,1.81.96,2.64,2.12,2.72,1.55.11,3.43-1.12,3.64-2.9.07-.61.16-1.47.24-2.61.08-1.14.15-2.56.22-4.23.04-.98.8-1.37,1.52-1.32s1.44.58,1.37,1.49t0,.06c-.3,2.97-.47,4.66-.6,6.46-.09,1.22.08,2.43.51,3.44.17.38.2.71.18.99-.06.89-.83,1.39-1.55,1.34-.94-.07-1.29-.76-1.53-1.7-.02-.09-.05-.14-.07-.15-.03,0-.06.02-.12.08-1.17,1.15-2.8,1.64-4.33,1.54-2.42-.17-4.61-1.89-4.5-5.01.04-.89.15-2.89.28-4.76.08-1.14.16-2.25.24-3,.1-1,.85-1.42,1.58-1.37.69.05,1.38.57,1.32,1.46v.03Z"/>
        <path class="cls-1" d="M130.43,21.77c.14-1.13.39-3.24.56-4.93.11-1.11.18-2.05.2-2.5.06-1.73-.83-2.52-2-2.64-1.69-.17-3.86,1.12-4.14,2.96-.08.5-.14,1.13-.22,1.91-.12,1.14-.24,2.61-.38,4.58-.03.59-.45,1.38-1.56,1.27-.75-.08-1.42-.62-1.33-1.51v-.06c.36-2.62.57-4.45.74-6.08.17-1.66.29-3.1.42-4.97v-.06c.09-.83.94-1.16,1.63-1.09.69.07,1.37.56,1.28,1.45-.01.11-.05.19-.06.27v.08s-.01.06.01.06c.03,0,.09-.05.15-.1,1.14-1,2.66-1.41,4.1-1.26,2.33.24,4.42,1.99,4.21,5.1-.07,1-.27,3.47-.48,5.52-.09.86-.17,1.63-.25,2.21-.13.99-.87,1.4-1.59,1.32-.72-.07-1.39-.64-1.3-1.53v-.03Z"/>
        <path class="cls-1" d="M159.97,26.26c-.22-.23-.43-.56-.62-1.01-.02-.06-.07-.09-.1-.1-.06,0-.11.01-.18.06-1.08.95-2.9,1.3-4.53,1.08-3.04-.41-4.53-2.86-4.25-4.98.19-1.41,1.2-2.7,3.14-3.09,1.99-.41,4.44-.61,4.88-.58.28,0,.54-.29.62-.87.04-.33.15-1.75-1.73-2-1.24-.17-2.26.29-2.86.8-.35.32-.76.4-1.09.36-.72-.1-1.25-.73-1.15-1.45.18-1.32,2.8-2.46,5.59-2.09,3.04.41,4.49,2.12,4.07,5.29-.05.36-.12.69-.2,1.07-.11.41-.33,1.44-.44,2.27-.03.25-.06.47-.06.64-.05,2.24.96,2.46,1.16,2.66.27.26.36.64.31,1.03-.1.77-.83,1.57-1.63,1.47-.3-.04-.64-.23-.94-.55ZM158.23,19.99c-4.74-.04-5.17,1.08-5.26,1.74-.11.86.52,1.81,1.92,2,2.24.3,3.35-.7,3.62-2.66.06-.41.08-1.03-.25-1.07h-.03Z"/>
        <path class="cls-1" d="M168.11,26.39c.33-1.92.89-5.84,1.42-9.53.53-3.7,1.03-7.2,1.13-8.31.11-1,.94-1.44,1.74-1.33.75.11,1.42.71,1.28,1.68t0,.06c-.22,1.35-.88,5.59-1.5,9.89-.42,2.92-.81,5.88-1.06,7.98t0,.05c-.14.97-.95,1.33-1.7,1.22-.77-.11-1.45-.71-1.31-1.68v-.03Z"/>
        <path class="cls-1" d="M178.21,22.44c.6-4.02,4.04-6.52,7.98-5.94,3.94.59,6.48,3.98,5.88,8-.62,4.16-4.02,6.53-7.96,5.94-3.94-.59-6.53-3.85-5.9-8.01ZM189.28,24.09c.41-2.73-1.21-4.72-3.47-5.05-2.26-.34-4.42,1.09-4.82,3.82-.4,2.7,1.22,4.66,3.51,5,2.29.34,4.38-1.06,4.79-3.77Z"/>
        <path class="cls-1" d="M206.27,32.25c.2-1.12.54-3.21.8-4.89.17-1.1.28-2.04.32-2.49.15-1.72-.71-2.56-1.87-2.73-1.68-.25-3.92.93-4.28,2.76-.1.49-.2,1.12-.31,1.9-.17,1.13-.36,2.59-.61,4.56-.06.58-.52,1.36-1.62,1.19-.74-.11-1.39-.69-1.26-1.57t0-.06c.48-2.6.78-4.42,1.03-6.04.25-1.65.44-3.09.66-4.94v-.06c.13-.83.99-1.12,1.68-1.01s1.34.63,1.21,1.51c-.02.11-.06.19-.07.27v.08s-.02.05,0,.06c.03,0,.09-.04.15-.09,1.19-.95,2.73-1.28,4.16-1.06,2.31.35,4.31,2.2,3.96,5.3-.12.99-.44,3.45-.75,5.49-.13.85-.25,1.63-.36,2.2-.18.99-.94,1.35-1.65,1.24s-1.36-.71-1.22-1.59v-.03Z"/>
        <path class="cls-1" d="M218.6,32.41c-.07.5.24.66,4.4,1.27,4.13.61,5.68,2.89,5.35,5.15-.54,3.69-4.38,4.7-8.07,4.16-4.99-.74-6.38-3.53-6.11-5.32.22-1.52,1.48-2.37,2.88-2.73.09-.02.15-.06.15-.09,0-.06-.04-.12-.22-.2-1.03-.49-1.33-1.46-1.23-2.18.15-1.02.77-1.8,1.93-2.22.21-.08.38-.11.4-.2.01-.08-.06-.18-.25-.38-.95-.99-1.32-2.5-1.15-3.66.47-3.2,3.47-4.42,6.17-4.02h.06c1.05.16,2.09.54,2.96,1.12.18.14.34.19.45.21.17.02.31-.01.46-.07.86-.3,1.35-.39,1.93-.31.8.12,1.94.37,1.75,1.72-.09.63-.57,1.21-1.34,1.1-.11-.02-.19-.03-.3-.07-.13-.05-.27-.07-.35-.08-.3-.04-.43.02-.6.08-.06.02-.11.01-.13.12,0,.03-.01.08,0,.17.12.55.13.84,0,1.66-.39,2.64-2.48,4.22-5.89,3.86-1.16-.14-3.07-.2-3.23.9ZM221.36,35.84c-3.64-.54-4.35,1.64-4.4,1.97-.04.25-.24,2.16,3.73,2.75.77.11,4.37.53,4.74-1.98.31-2.1-1.98-2.43-4.07-2.74ZM222.63,24.39c-1.63-.24-3.04.59-3.25,2-.11.72-.02,2.42,2.43,2.78,1.63.24,3.12-.36,3.36-1.95.18-1.24-.47-2.52-2.54-2.82Z"/>
        <path class="cls-1" d="M250.12,28.75c-.41-.05-.43.08-.45.25-.13,1.02-.52,3.36-.76,5.18-.28,2.15-.31,3.05,1.24,3.25.19.03.42.03.64.03.08.01.14,0,.22,0,.75.1,1.11.76,1.03,1.37-.13.99-1.1,1.34-2.54,1.16-4.09-.53-3.62-4.15-3.47-5.28.21-1.6.62-4.36.78-5.57.02-.17.04-.3.05-.41.05-.36-.12-.41-.39-.45l-.83-.11c-.8-.1-1.16-.82-1.07-1.49.08-.64.58-1.22,1.41-1.11l.8.1c.44.06.48-.02.53-.41,0,0,.1-.55.18-1.18.04-.33.09-.66.1-.97v-.08c.12-.83.84-1.16,1.55-1.06,1.46.19,1.29,1.52,1.24,1.87-.1.75-.29,1.79-.29,1.79-.06.44.05.48.33.52l1.85.24c.83.11,1.13.79,1.05,1.46-.08.64-.55,1.25-1.38,1.14l-1.82-.24Z"/>
        <path class="cls-1" d="M266.59,40.47c.15-1.13.41-3.18.6-4.87.12-1.08.19-2,.22-2.44.1-1.89-1.01-2.8-2.28-2.94-1.61-.18-3.51.84-3.79,2.58-.08.5-.16,1.22-.26,2.13-.14,1.27-.29,2.91-.46,4.88-.04.58-.46,1.38-1.57,1.26-.75-.08-1.41-.63-1.32-1.52t0-.06c.38-2.62.81-6.27,1.2-9.76.38-3.46.72-6.76.93-8.61.09-.83.89-1.19,1.61-1.11.72.08,1.37.57,1.27,1.46-.32,2.63-.72,5.95-.85,6.88-.01.11-.02.17.04.17.03,0,.06-.02.15-.07.96-.59,2.43-.91,3.87-.75,2.35.26,4.62,1.77,4.34,5.3-.08,1-.3,3.47-.53,5.52-.1.86-.18,1.63-.27,2.21-.14.99-.88,1.39-1.6,1.31-.72-.08-1.38-.66-1.29-1.54v-.03Z"/>
        <path class="cls-1" d="M281.77,43.48c-3.8-.3-6.41-3.39-6.08-7.52.34-4.25,3.57-6.93,7.15-6.64,3.83.3,5.77,3.28,5.61,5.39-.1,1.3-1.05,2.29-2.83,2.21-.86-.04-1.45-.09-6.83-.52-.17-.01-.24.2-.26.51-.16,2.31,1.51,3.84,3.48,3.99,1.75.14,2.87-.61,3.74-1.41.3-.28.65-.4.98-.37.75.06,1.42.78,1.36,1.56-.03.33-.16.66-.49.94-1.44,1.28-3.01,2.08-5.82,1.86ZM285.6,34c.03-.39-.42-2.07-2.92-2.27-2.25-.18-3.63,1.67-3.66,2.14-.02.25.26.27,2.84.48,1.14.09,2.39.19,3.14.22.34,0,.58-.23.6-.57Z"/>
        <path class="cls-1" d="M309.12,44.63c-3.4,0-4.82-1.92-4.82-2.84,0-.75.69-1.34,1.42-1.34.39,0,.81.17,1.12.58.39.5,1.12.97,2.26.97,1.48,0,2.06-.78,2.06-1.42,0-.89-.61-1.42-3.87-2.89-1.73-.75-2.51-2.12-2.51-3.48,0-1.89,1.56-3.73,4.23-3.73,2.56,0,4.29,1.25,4.29,2.34,0,.75-.64,1.39-1.39,1.39-.36,0-.78-.17-1.14-.56-.28-.28-.78-.67-1.75-.67-.95,0-1.48.53-1.48,1.14,0,.42.28.92.92,1.22.73.36,1.98.92,2.81,1.36,1.92,1.03,2.73,2.45,2.73,3.81,0,2.17-2.09,4.1-4.87,4.1Z"/>
        <path class="cls-1" d="M326.73,43.95c-3.8.32-6.87-2.31-7.22-6.44-.35-4.25,2.4-7.41,5.98-7.71,3.83-.32,6.23,2.3,6.41,4.42.11,1.3-.66,2.43-2.44,2.63-.86.1-1.44.15-6.83.6-.17.01-.2.24-.18.55.22,2.3,2.11,3.54,4.08,3.38,1.75-.15,2.73-1.07,3.47-1.99.25-.33.57-.5.91-.52.75-.06,1.53.54,1.59,1.32.03.33-.06.68-.34,1.01-1.22,1.5-2.64,2.54-5.44,2.77ZM328.98,33.98c-.03-.39-.75-1.98-3.25-1.77-2.25.19-3.31,2.23-3.27,2.71.02.25.3.23,2.88.01,1.14-.09,2.39-.2,3.14-.29.33-.06.53-.33.5-.66Z"/>
        <path class="cls-1" d="M349.72,39.28c-.29-.13-.6-.37-.94-.72-.04-.05-.1-.06-.13-.06-.05.01-.1.05-.14.12-.67,1.28-2.24,2.25-3.84,2.63-2.98.71-5.26-1.04-5.75-3.12-.33-1.38.15-2.96,1.82-4.01,1.71-1.1,3.92-2.17,4.35-2.3.26-.09.4-.47.27-1.04-.08-.33-.49-1.69-2.33-1.25-1.22.29-2,1.08-2.38,1.77-.21.42-.56.65-.89.73-.7.17-1.43-.23-1.6-.94-.31-1.3,1.73-3.3,4.47-3.96,2.98-.71,4.95.36,5.7,3.48.08.35.13.68.2,1.07.04.42.21,1.47.4,2.28.06.24.11.46.18.62.76,2.11,1.78,1.95,2.04,2.06.35.15.57.47.66.85.18.76-.21,1.77-.99,1.95-.3.07-.68.02-1.07-.17ZM345.84,34.05c-4.44,1.66-4.44,2.86-4.29,3.51.2.84,1.13,1.5,2.51,1.18,2.19-.52,2.88-1.86,2.42-3.78-.1-.41-.29-.99-.62-.91h-.03Z"/>
      </g>
      <g>
        <path class="cls-1" d="M165.25,63.43c-.03-3.62,2.61-6.27,6.15-6.3,3.54-.03,6.23,2.58,6.26,6.2.03,3.75-2.63,6.27-6.17,6.3-3.54.03-6.22-2.45-6.25-6.2ZM175.76,63.34c-.02-2.78-1.97-4.57-4.35-4.56-2.38.02-4.3,1.84-4.28,4.62.02,2.77,1.97,4.54,4.35,4.52,2.38-.02,4.3-1.82,4.28-4.59Z"/>
        <path class="cls-1" d="M186.53,69.02c.04-.66.12-1.88.16-2.86.03-.64.04-1.19.03-1.45-.02-1-.56-1.43-1.24-1.46-.98-.04-2.19.77-2.29,1.85-.03.29-.04.66-.07,1.11-.03.66-.05,1.51-.07,2.66,0,.34-.21.81-.86.78-.43-.02-.84-.31-.82-.83t0-.03c.12-1.53.18-2.59.22-3.54.04-.96.06-1.8.08-2.88t0-.03c.02-.48.5-.7.9-.69.4.02.81.28.79.79,0,.06-.02.11-.02.16,0,.02,0,.03,0,.05,0,.02,0,.03.01.03.02,0,.05-.03.08-.06.62-.62,1.49-.9,2.33-.86,1.35.06,2.61,1,2.6,2.81-.01.58-.04,2.01-.1,3.2-.02.5-.04.95-.07,1.29-.04.58-.46.83-.87.81-.42-.02-.82-.33-.8-.84v-.02Z"/>
        <path class="cls-1" d="M201.2,64.45c-.24-.02-.25.06-.26.15-.05.59-.22,1.95-.31,3.01-.11,1.25-.11,1.77.79,1.85.11,0,.24,0,.37,0,.05,0,.08,0,.13,0,.43.04.66.41.63.77-.05.58-.6.8-1.44.73-2.37-.21-2.19-2.31-2.13-2.97.08-.93.25-2.53.31-3.24,0-.1.02-.18.02-.24.02-.21-.08-.23-.24-.25l-.48-.04c-.47-.04-.69-.45-.66-.83.03-.37.31-.72.79-.68l.47.04c.26.02.28-.02.3-.25,0,0,.04-.32.08-.69.02-.19.03-.39.03-.56,0-.02,0-.03,0-.05.04-.48.45-.69.87-.65.85.08.78.84.76,1.05-.04.43-.12,1.04-.12,1.04-.02.26.04.28.2.29l1.08.1c.48.04.67.43.64.82-.03.37-.29.73-.77.69l-1.06-.09Z"/>
        <path class="cls-1" d="M210.99,71.04c.08-.66.22-1.84.33-2.82.06-.62.1-1.15.11-1.41.05-1.1-.59-1.62-1.33-1.69-.93-.1-2.03.5-2.18,1.5-.05.29-.09.7-.15,1.23-.08.74-.16,1.68-.25,2.82-.02.34-.26.8-.9.73-.43-.04-.82-.36-.77-.87t0-.03c.21-1.52.44-3.63.65-5.65.21-2,.39-3.91.5-4.98.05-.48.51-.69.93-.65s.79.33.74.84c-.17,1.52-.39,3.44-.46,3.98,0,.06-.01.1.02.1.02,0,.03-.01.09-.04.55-.35,1.4-.53,2.23-.45,1.36.14,2.68,1.01,2.53,3.05-.04.58-.16,2.01-.28,3.19-.05.5-.1.95-.15,1.28-.08.57-.5.81-.92.76-.42-.04-.8-.38-.75-.89v-.02Z"/>
        <path class="cls-1" d="M219.77,72.97c-2.19-.26-3.63-2.1-3.35-4.49.29-2.45,2.22-3.92,4.28-3.68,2.21.26,3.26,2.03,3.12,3.24-.09.75-.66,1.3-1.68,1.21-.5-.04-.83-.08-3.94-.45-.1-.01-.14.11-.16.29-.14,1.33.79,2.25,1.92,2.39,1.01.12,1.67-.29,2.2-.73.18-.16.38-.22.57-.19.43.05.8.48.75.93-.02.19-.11.38-.31.53-.86.71-1.79,1.13-3.4.94ZM222.19,67.58c.03-.22-.2-1.21-1.64-1.38-1.3-.15-2.13.88-2.17,1.15-.02.14.14.16,1.63.34.66.08,1.38.16,1.81.2.19,0,.34-.12.36-.31Z"/>
        <path class="cls-1" d="M241.09,75.52c-.37-.05-.73-.27-.83-.71-.13-.49-.38-1.82-.69-3.37-.02-.1-.06-.15-.16-.17-.25-.05-.91-.13-1.63-.23-.96-.12-2.03-.26-2.37-.29-.08,0-.17.03-.21.12-.56,1.21-1.08,2.31-1.42,3.05-.2.43-.6.59-.98.54-.45-.06-.87-.42-.81-.92.04-.29.1-.41,4.87-9.8.35-.7.97-.96,1.54-.89.61.08,1.18.54,1.34,1.29.65,3.01,2.01,8.84,2.38,10.15.04.17.05.33.04.48-.07.54-.59.8-1.09.74ZM239.17,69.38c-.3-1.57-.59-3.08-.75-3.9-.06-.3-.12-.47-.21-.48-.08-.01-.19.12-.35.43-.32.61-1.75,3.46-1.77,3.61,0,.06.02.1.12.11.32.04.91.13,1.47.21.57.07,1.14.13,1.36.16.1.01.13,0,.14-.05,0-.02,0-.05,0-.08Z"/>
        <path class="cls-1" d="M252.66,68.98c.41.05.79.41.72,1-.2,1.6-.67,4.87-.98,7.33-.16,1.25-.27,2.27-.31,2.8-.05.79-.77.83-.95.81-.42-.05-.78-.38-.71-.9t0-.03c.1-.65.33-2.18.55-3.96,0-.06.01-.1,0-.1-.02,0-.05,0-.09.04-.66.45-1.47.69-2.36.58-2.21-.28-3.67-2.17-3.38-4.5.31-2.41,2.19-3.8,4.39-3.52.88.11,1.56.5,2.09,1.08.01.02.04.04.06.04.03,0,.07,0,.07-.07.14-.45.54-.63.89-.59ZM251.37,72.83c.2-1.57-.7-2.65-1.98-2.82-1.28-.16-2.42.67-2.62,2.23-.2,1.58.7,2.69,1.98,2.85,1.28.16,2.42-.68,2.63-2.26Z"/>
        <path class="cls-1" d="M259.13,70.61c-.09.65-.25,1.85-.37,2.84-.07.62-.12,1.17-.14,1.43-.06,1.05.48,1.55,1.15,1.63.9.11,2.01-.56,2.18-1.57.06-.35.13-.84.21-1.5.08-.66.16-1.47.24-2.44.05-.56.5-.77.91-.72.42.05.82.37.75.9t0,.03c-.25,1.71-.4,2.68-.52,3.72-.08.7-.02,1.41.2,2,.09.22.1.42.08.58-.06.51-.52.78-.93.73-.54-.06-.72-.47-.84-1.02-.01-.05-.02-.08-.04-.08-.02,0-.03.01-.07.04-.71.63-1.66.87-2.54.77-1.39-.17-2.61-1.22-2.47-3.02.04-.51.17-1.67.29-2.74.08-.66.15-1.3.22-1.73.08-.57.53-.8.95-.75.4.05.78.37.72.88v.02Z"/>
        <path class="cls-1" d="M272.73,79.01c-.13-.13-.26-.32-.38-.57-.01-.03-.04-.05-.06-.05-.03,0-.07,0-.1.04-.61.57-1.65.8-2.6.7-1.76-.18-2.67-1.57-2.54-2.81.09-.82.65-1.58,1.76-1.84,1.15-.27,2.56-.43,2.81-.42.16,0,.31-.18.35-.52.02-.19.06-1.01-1.03-1.13-.72-.08-1.3.2-1.64.51-.2.19-.43.25-.62.23-.42-.04-.74-.4-.69-.82.08-.77,1.58-1.47,3.2-1.3,1.76.18,2.63,1.15,2.44,2.99-.02.21-.06.4-.1.62-.06.24-.17.84-.22,1.32-.02.14-.03.27-.02.37,0,1.3.6,1.41.72,1.52.16.15.22.36.2.59-.05.45-.45.92-.92.88-.18-.02-.38-.12-.55-.3ZM271.61,75.41c-2.74.05-2.97.71-3.01,1.1-.05.5.33,1.04,1.15,1.12,1.3.14,1.93-.46,2.05-1.6.03-.24.03-.6-.16-.62h-.02Z"/>
        <path class="cls-1" d="M277.41,78.88c.13-1.12.34-3.4.53-5.55.19-2.15.38-4.19.4-4.83.04-.58.5-.86.96-.82.43.04.84.37.79.93t0,.03c-.09.78-.34,3.25-.57,5.75-.15,1.7-.29,3.42-.37,4.64v.03c-.05.56-.51.8-.94.76-.45-.04-.86-.37-.81-.93v-.02Z"/>
        <path class="cls-1" d="M284.27,80.43c-.43-.03-.83-.34-.79-.88.1-1.33.26-3.16.37-4.62.06-.72.1-1.37.12-1.8.02-.53.45-.79.93-.75.42.03.83.32.79.84v.03c-.07.66-.18,1.92-.29,3.27-.09,1.11-.16,2.25-.21,3.14v.03c-.04.55-.5.79-.93.75ZM284.01,69.1c.06-.79.76-1.04,1.21-1.01.58.04,1.09.57,1.04,1.18-.04.58-.52,1.11-1.21,1.05-.63-.05-1.09-.49-1.04-1.23Z"/>
        <path class="cls-1" d="M294.58,80.23c.05-.66.14-1.88.19-2.86.04-.64.05-1.19.05-1.45,0-1-.55-1.43-1.23-1.47-.98-.05-2.2.75-2.31,1.82-.03.29-.05.66-.08,1.11-.04.66-.07,1.51-.1,2.66,0,.34-.22.81-.87.78-.43-.03-.84-.32-.81-.83t0-.03c.13-1.52.21-2.59.26-3.53.05-.96.08-1.8.11-2.88t0-.03c.03-.48.51-.7.91-.68.4.02.81.29.78.8,0,.06-.02.11-.03.16,0,.02,0,.03,0,.05,0,.02,0,.03.01.03.02,0,.05-.03.08-.06.63-.61,1.5-.89,2.34-.84,1.35.08,2.61,1.03,2.57,2.84-.02.58-.06,2.01-.13,3.2-.03.5-.05.95-.09,1.29-.05.58-.47.83-.88.81-.42-.02-.82-.34-.79-.85v-.02Z"/>
        <path class="cls-1" d="M303.47,81.45c-2.21-.04-3.81-1.74-3.77-4.14.05-2.46,1.82-4.12,3.9-4.08,2.22.05,3.45,1.7,3.42,2.92-.02.76-.53,1.36-1.56,1.37-.5,0-.84,0-3.96-.06-.1,0-.13.13-.14.3-.01,1.34,1,2.16,2.15,2.19,1.01.02,1.64-.45,2.11-.94.17-.17.36-.25.55-.25.43,0,.85.4.84.85,0,.19-.07.38-.25.56-.79.79-1.67,1.3-3.3,1.27ZM305.35,75.85c0-.23-.31-1.18-1.76-1.21-1.3-.03-2.04,1.09-2.04,1.36,0,.14.16.15,1.66.18.66.01,1.38.03,1.82.02.19-.01.33-.15.33-.35Z"/>
        <path class="cls-1" d="M323.88,80.85c-.53.03-1.07-.29-1.32-1.1-.26-.79-1.01-3.46-1.27-4.86-.02-.11-.08-.2-.11-.2-.03,0-.06.05-.07.2-.09,1.44-.46,3.92-.69,4.99-.16.8-.73,1.24-1.31,1.27-.58.03-1.18-.33-1.42-1.11-.42-1.41-1.39-4.45-1.8-5.82-.02-.06-.02-.11-.03-.16-.03-.45.39-.72.81-.74.35-.02.7.12.82.48.38,1.22,1.17,4.27,1.46,5.59.04.21.1.3.13.3.06,0,.11-.12.13-.3.15-1.3.61-4.18.78-5.36.09-.63.57-.95,1.07-.98.53-.03,1.11.27,1.26.81.27.98,1.11,3.76,1.39,5.18.04.21.08.27.11.27.05,0,.09-.15.11-.26.25-1.42.82-4.47.99-5.67.06-.39.38-.59.74-.61.4-.02.83.19.86.63.03.52-.81,4.34-1.31,6.23-.2.74-.75,1.19-1.33,1.22Z"/>
        <path class="cls-1" d="M329.2,69.14c-.09-.78.55-1.17.99-1.22.58-.07,1.17.35,1.24.96.07.58-.3,1.19-.99,1.26-.62.07-1.17-.27-1.25-1.01ZM331.61,80.21c-.43.05-.88-.17-.94-.72-.15-1.33-.35-3.15-.51-4.61-.08-.72-.16-1.36-.22-1.79-.08-.53.29-.86.77-.91.42-.05.88.16.94.67v.03c.06.66.19,1.92.35,3.27.13,1.1.27,2.24.39,3.12t0,.03c.06.54-.34.87-.77.92Z"/>
        <path class="cls-1" d="M342.05,77.78c-.1-.65-.29-1.86-.46-2.83-.11-.64-.22-1.17-.28-1.42-.23-.97-.86-1.27-1.52-1.16-.97.17-1.98,1.22-1.84,2.3.03.29.1.65.17,1.1.11.65.27,1.49.5,2.61.07.33-.03.84-.67.95-.43.07-.89-.13-.98-.63t0-.03c-.21-1.52-.38-2.57-.54-3.5-.16-.95-.32-1.77-.54-2.83v-.03c-.09-.48.33-.79.73-.86.4-.07.85.1.94.61.01.06,0,.11.01.16v.05s.01.03.03.03.04-.04.07-.08c.48-.74,1.26-1.2,2.09-1.34,1.33-.23,2.77.42,3.14,2.19.11.57.39,1.98.59,3.15.08.49.16.94.2,1.27.08.57-.27.91-.68.98-.41.07-.87-.14-.96-.65v-.02Z"/>
        <path class="cls-1" d="M355.1,75.51c-.36.09-.69.05-1.13-.75-.03-.06-.06-.08-.09-.08-.02,0-.04.04-.06.08-.43.82-1.16,1.47-2.17,1.74-2.15.57-4.19-.55-4.82-2.9-.6-2.27.6-4.34,2.75-4.91.87-.23,1.69-.1,2.4.26.02.01.05,0,.07,0,.03,0,.04-.03.03-.07-.48-1.81-.93-3.39-1.12-4.03-.14-.48.13-.9.58-1.02.4-.11.88.05,1.02.59,0,.03.01.05.02.08.11.54.39,1.65.73,2.95,1.53,5.77,1.56,5.82,2.24,6.57.11.12.18.25.22.39.13.5-.22.98-.68,1.1ZM352.88,72c-.41-1.54-1.66-2.23-2.9-1.9-1.24.33-1.99,1.54-1.58,3.08.4,1.52,1.65,2.19,2.89,1.86,1.25-.33,1.99-1.53,1.59-3.05Z"/>
        <path class="cls-1" d="M360.8,73.67c-.41.14-1.13.19-1.43-.69-.26-.74.28-1.26.7-1.4.5-.18,1.21-.01,1.43.64.14.4.06,1.19-.7,1.46Z"/>
      </g>
    </g>
  </g>
</svg>