<?xml version="1.0" encoding="UTF-8"?>
<svg id="_レイヤー_2" data-name="レイヤー 2" xmlns="http://www.w3.org/2000/svg" width="615.27" height="106.06" viewBox="0 0 615.27 106.06">
  <defs>
    <style>
      .cls-1 {
        fill: blue;
      }
    </style>
  </defs>
  <g id="_コピー_英語" data-name="コピー_英語">
    <g>
      <path class="cls-1" d="M.21,20.14c-.56-1.29.07-2.35,1-2.76.93-.4,2.17-.16,2.77,1.2.01.03.04.1.06.13.82,2.16,3.77,9.18,5.78,13.77.82,1.88,1.5,3.36,1.78,3.91.82,1.53,1.55,1.21,6.05-.75,1.92-.84,4.02-1.79,4.63-2.1.06-.03.1-.04.16-.07,1.12-.49,2.16.08,2.55.97.39.89.13,2.11-1.26,2.79-.41.22-2.35,1.1-4.3,1.96-1.92.84-3.88,1.66-4.32,1.81-3.14,1.1-5.44.8-6.8-2.07-.34-.68-.8-1.74-1.33-2.96-1.98-4.53-5.01-11.83-6.43-15.1-.11-.27-.22-.5-.3-.69v-.03Z"/>
      <path class="cls-1" d="M39.24,33.11c-4.78,1.23-9.27-1.45-10.61-6.65-1.37-5.34,1.46-9.98,5.96-11.14,4.82-1.24,8.45,1.59,9.13,4.24.42,1.64-.32,3.25-2.54,3.89-1.07.31-1.81.5-8.58,2.24-.21.05-.21.35-.11.74.78,2.89,3.46,4.06,5.94,3.42,2.2-.57,3.26-1.95,3.99-3.3.25-.47.62-.76,1.04-.86.94-.24,2.07.36,2.32,1.34.11.42.08.87-.21,1.36-1.23,2.18-2.82,3.82-6.34,4.72ZM39.94,19.89c-.12-.49-1.39-2.36-4.53-1.55-2.83.73-3.74,3.57-3.58,4.16.08.31.43.22,3.68-.61,1.43-.37,3-.77,3.94-1.05.41-.14.61-.53.5-.95Z"/>
      <path class="cls-1" d="M57.05,14.73c-.53.08-.51.26-.47.47.2,1.32.56,4.36.92,6.72.43,2.78.71,3.9,2.7,3.6.25-.04.53-.12.81-.2.11-.02.17-.06.28-.08.96-.15,1.65.55,1.77,1.33.2,1.28-.89,2.07-2.74,2.35-5.28.81-5.99-3.86-6.21-5.32-.32-2.07-.79-5.64-1.03-7.21-.03-.21-.06-.39-.08-.54-.07-.46-.29-.47-.65-.41l-1.07.16c-1.03.16-1.74-.61-1.87-1.47-.13-.82.28-1.72,1.35-1.88l1.03-.16c.57-.09.59-.2.51-.7,0,0-.07-.72-.2-1.54-.06-.43-.13-.86-.23-1.24,0-.04-.01-.07-.02-.11-.16-1.07.61-1.74,1.54-1.88,1.89-.29,2.15,1.42,2.22,1.89.15.96.28,2.33.28,2.33.09.57.23.58.59.53l2.39-.37c1.07-.16,1.69.58,1.82,1.44.13.82-.24,1.75-1.31,1.92l-2.35.36Z"/>
      <path class="cls-1" d="M71.04,9.38c-.72.07-1.48-.34-1.71-1.26-.29-1.2-.74-4.1-.96-5.78-.23-1.72,1.24-2.29,1.78-2.34,1.04-.09,2.11.53,2.24,1.9.15,1.62.14,4.69.11,5.93-.06.95-.73,1.48-1.45,1.54Z"/>
      <path class="cls-1" d="M88.52,26.53c-4.39.17-6.33-2.24-6.38-3.43-.04-.97.83-1.76,1.77-1.8.5-.02,1.05.17,1.47.7.53.63,1.49,1.2,2.97,1.15,1.91-.08,2.63-1.11,2.59-1.94-.05-1.15-.87-1.81-5.15-3.55-2.27-.88-3.35-2.61-3.42-4.37-.1-2.45,1.83-4.91,5.28-5.04,3.31-.13,5.61,1.4,5.67,2.81.04.97-.76,1.83-1.73,1.87-.47.02-1.02-.18-1.5-.66-.37-.35-1.04-.82-2.3-.77-1.22.05-1.88.76-1.85,1.55.02.54.41,1.17,1.25,1.54.95.43,2.6,1.09,3.71,1.62,2.54,1.24,3.65,3.03,3.72,4.8.11,2.81-2.49,5.4-6.09,5.54Z"/>
      <path class="cls-1" d="M116.15,24.48v-.07c.23-3.42.36-5.79.43-7.92.08-2.16.11-4.03.13-6.45v-.07c.04-1.08,1.11-1.58,2.01-1.55.9.03,1.82.61,1.78,1.76,0,.15-.05.25-.05.36,0,.07,0,.11,0,.14,0,.07,0,.11.03.11,0,0,.07-.03.15-.14,1.5-1.53,3.47-2.07,4.69-2.03,1.12.04,1.73.89,1.7,1.79-.03.9-.71,1.81-2.13,1.91-2.13.14-4.57,1.82-4.76,4.08-.06.65-.09,1.4-.12,2.38-.05,1.41-.08,3.21-.1,5.77,0,.76-.46,1.82-1.9,1.77-.97-.04-1.89-.68-1.85-1.83Z"/>
      <path class="cls-1" d="M138.14,11.2c-.14,1.47-.37,4.17-.53,6.4-.1,1.4-.15,2.63-.16,3.21-.02,2.35,1.24,3.41,2.75,3.52,2.01.14,4.44-1.45,4.71-3.75.09-.79.21-1.9.31-3.38.1-1.47.2-3.31.28-5.47.05-1.26,1.03-1.77,1.96-1.7.94.07,1.86.75,1.78,1.93t0,.07c-.38,3.84-.61,6.03-.78,8.37-.11,1.58.1,3.15.66,4.46.22.49.26.92.23,1.28-.08,1.15-1.07,1.8-2,1.74-1.22-.09-1.67-.99-1.98-2.2-.03-.11-.06-.18-.1-.19-.04,0-.08.03-.15.1-1.52,1.48-3.62,2.13-5.6,1.99-3.13-.22-5.97-2.45-5.83-6.49.05-1.15.19-3.75.37-6.16.1-1.47.21-2.91.31-3.88.13-1.29,1.11-1.84,2.04-1.77.9.06,1.79.74,1.71,1.89v.04Z"/>
      <path class="cls-1" d="M168.83,28.18c.19-1.47.5-4.19.72-6.38.15-1.43.23-2.66.26-3.24.08-2.24-1.08-3.26-2.59-3.42-2.19-.22-5,1.45-5.35,3.84-.1.64-.19,1.47-.29,2.47-.15,1.47-.31,3.37-.5,5.93-.04.76-.58,1.79-2.02,1.64-.97-.1-1.84-.8-1.72-1.95v-.07c.46-3.4.74-5.76.96-7.88.22-2.15.37-4.02.55-6.43v-.07c.12-1.08,1.21-1.51,2.11-1.42.9.09,1.77.73,1.66,1.87-.02.14-.06.25-.07.36v.11s-.02.07.02.08c.04,0,.12-.06.19-.12,1.47-1.3,3.45-1.82,5.31-1.63,3.01.31,5.72,2.58,5.45,6.61-.1,1.29-.35,4.49-.62,7.15-.11,1.11-.22,2.12-.33,2.86-.17,1.29-1.13,1.81-2.06,1.71-.93-.09-1.8-.83-1.68-1.98v-.04Z"/>
      <path class="cls-1" d="M207.07,33.99c-.29-.29-.56-.73-.81-1.31-.03-.08-.09-.12-.13-.12-.07-.01-.15.02-.23.08-1.4,1.23-3.75,1.68-5.86,1.4-3.93-.53-5.87-3.7-5.5-6.45.24-1.82,1.56-3.5,4.06-4,2.58-.53,5.74-.79,6.32-.75.36.01.7-.38.81-1.13.06-.43.19-2.26-2.24-2.59-1.61-.22-2.92.37-3.7,1.03-.45.41-.98.52-1.41.47-.93-.12-1.62-.94-1.49-1.87.23-1.71,3.63-3.19,7.24-2.7,3.93.53,5.81,2.74,5.26,6.85-.06.47-.16.89-.26,1.38-.14.53-.43,1.87-.57,2.94-.04.32-.08.61-.08.83-.06,2.9,1.25,3.19,1.5,3.44.35.34.47.83.4,1.33-.13,1-1.07,2.04-2.11,1.9-.39-.05-.83-.29-1.21-.71ZM204.81,25.87c-6.14-.06-6.7,1.39-6.81,2.25-.15,1.11.67,2.34,2.49,2.59,2.89.39,4.34-.91,4.68-3.45.07-.54.11-1.33-.32-1.39h-.04Z"/>
      <path class="cls-1" d="M217.6,34.16c.43-2.49,1.15-7.56,1.84-12.34.68-4.78,1.33-9.32,1.46-10.76.15-1.29,1.21-1.87,2.25-1.72.96.14,1.84.92,1.66,2.17t0,.07c-.29,1.74-1.14,7.23-1.94,12.8-.54,3.78-1.05,7.61-1.37,10.33t-.01.07c-.18,1.25-1.23,1.72-2.19,1.58-1-.14-1.87-.92-1.69-2.17v-.04Z"/>
      <path class="cls-1" d="M230.67,29.05c.78-5.21,5.23-8.44,10.33-7.69,5.1.76,8.38,5.15,7.61,10.36-.8,5.39-5.2,8.45-10.3,7.69-5.1-.76-8.45-4.98-7.64-10.37ZM245.01,31.18c.53-3.53-1.57-6.11-4.49-6.54-2.93-.43-5.72,1.41-6.24,4.94-.52,3.5,1.58,6.03,4.54,6.47,2.96.44,5.67-1.38,6.2-4.87Z"/>
      <path class="cls-1" d="M266.99,41.74c.26-1.46.7-4.16,1.03-6.33.22-1.43.36-2.64.42-3.22.19-2.23-.92-3.31-2.42-3.54-2.18-.33-5.07,1.2-5.54,3.57-.13.64-.26,1.46-.41,2.45-.22,1.46-.47,3.36-.78,5.9-.08.75-.67,1.76-2.09,1.54-.96-.15-1.8-.89-1.62-2.03t.01-.07c.62-3.37,1.01-5.72,1.33-7.82.32-2.14.57-4,.86-6.4v-.07c.17-1.07,1.29-1.45,2.18-1.31s1.74.81,1.56,1.95c-.02.14-.07.24-.09.35l-.02.11s-.01.07.02.08c.04,0,.12-.06.2-.12,1.53-1.23,3.53-1.65,5.39-1.37,2.99.45,5.59,2.85,5.12,6.86-.16,1.29-.57,4.47-.97,7.11-.17,1.1-.32,2.1-.47,2.85-.23,1.28-1.21,1.75-2.14,1.61s-1.76-.92-1.58-2.06v-.04Z"/>
      <path class="cls-1" d="M282.95,41.96c-.09.64.31.85,5.7,1.64,5.35.79,7.36,3.75,6.92,6.67-.7,4.78-5.67,6.09-10.45,5.38-6.46-.95-8.26-4.57-7.91-6.89.29-1.96,1.91-3.07,3.73-3.53.11-.02.19-.08.2-.12.01-.07-.05-.15-.29-.26-1.33-.63-1.73-1.89-1.59-2.82.19-1.32,1-2.33,2.5-2.87.27-.11.5-.15.51-.25.02-.11-.08-.23-.33-.49-1.23-1.28-1.71-3.24-1.49-4.74.61-4.14,4.49-5.72,7.98-5.2h.07c1.36.21,2.71.7,3.83,1.45.23.18.44.25.58.27.21.03.4-.01.6-.09,1.11-.38,1.75-.51,2.5-.4,1.03.15,2.52.48,2.26,2.23-.12.82-.74,1.57-1.74,1.42-.14-.02-.25-.04-.39-.09-.17-.06-.35-.09-.46-.1-.39-.06-.55.03-.78.1-.08.03-.15.02-.17.16,0,.04-.02.11,0,.22.15.71.17,1.08.01,2.15-.5,3.42-3.21,5.47-7.63,5-1.5-.18-3.97-.26-4.18,1.17ZM286.53,46.39c-4.71-.69-5.63,2.12-5.7,2.55-.05.32-.3,2.8,4.83,3.56,1,.15,5.66.69,6.14-2.56.4-2.71-2.56-3.15-5.27-3.55ZM288.17,31.57c-2.11-.31-3.94.77-4.21,2.59-.14.93-.02,3.13,3.15,3.6,2.11.31,4.04-.46,4.35-2.53.24-1.61-.61-3.26-3.29-3.66Z"/>
      <path class="cls-1" d="M323.75,37.21c-.54-.07-.56.11-.59.32-.17,1.32-.67,4.35-.98,6.71-.36,2.79-.4,3.95,1.6,4.21.25.03.54.03.83.03.11.02.18-.01.29,0,.97.13,1.43.99,1.33,1.77-.17,1.29-1.43,1.74-3.29,1.5-5.29-.69-4.68-5.37-4.49-6.84.27-2.07.81-5.64,1.01-7.21.03-.21.05-.39.07-.54.06-.47-.15-.53-.51-.58l-1.07-.14c-1.04-.14-1.5-1.07-1.39-1.93.11-.82.75-1.58,1.82-1.43l1.04.13c.57.08.62-.03.69-.53,0,0,.13-.71.24-1.53.06-.43.11-.86.13-1.26l.02-.11c.14-1.07,1.07-1.5,2-1.38,1.89.25,1.67,1.96,1.61,2.43-.12.97-.37,2.32-.37,2.32-.08.57.06.63.42.67l2.4.31c1.07.14,1.47,1.03,1.35,1.88-.11.82-.72,1.61-1.79,1.48l-2.36-.31Z"/>
      <path class="cls-1" d="M345.08,52.38c.2-1.47.53-4.11.77-6.3.15-1.4.25-2.58.28-3.16.13-2.45-1.3-3.63-2.95-3.81-2.08-.23-4.55,1.09-4.91,3.34-.11.64-.21,1.57-.34,2.75-.18,1.65-.38,3.77-.59,6.32-.05.76-.6,1.78-2.03,1.62-.97-.11-1.83-.82-1.7-1.97t0-.07c.49-3.39,1.05-8.12,1.55-12.63.5-4.48.94-8.75,1.2-11.15.12-1.08,1.15-1.54,2.08-1.44.93.1,1.77.74,1.64,1.89-.42,3.4-.93,7.7-1.1,8.91-.02.14-.02.22.05.22.04,0,.08-.03.19-.09,1.24-.77,3.14-1.17,5-.97,3.05.34,5.98,2.3,5.62,6.86-.11,1.29-.39,4.49-.68,7.14-.12,1.11-.23,2.11-.35,2.86-.18,1.29-1.14,1.8-2.07,1.69-.93-.1-1.79-.85-1.66-2v-.04Z"/>
      <path class="cls-1" d="M364.73,56.28c-4.92-.39-8.29-4.38-7.87-9.74.44-5.5,4.62-8.96,9.26-8.6,4.96.39,7.47,4.25,7.26,6.98-.13,1.69-1.36,2.97-3.66,2.85-1.12-.05-1.87-.11-8.84-.67-.22-.02-.31.27-.34.66-.2,2.99,1.96,4.97,4.51,5.17,2.26.18,3.71-.79,4.85-1.82.39-.37.84-.51,1.27-.48.97.08,1.84,1.01,1.76,2.02-.03.43-.21.85-.64,1.21-1.87,1.66-3.9,2.69-7.53,2.4ZM369.69,44.02c.04-.5-.55-2.68-3.78-2.94-2.91-.23-4.69,2.16-4.74,2.77-.03.32.33.35,3.68.62,1.47.12,3.09.24,4.06.29.43,0,.75-.3.78-.73Z"/>
      <path class="cls-1" d="M400.14,57.77c-4.4,0-6.24-2.48-6.24-3.67,0-.97.9-1.73,1.84-1.73.51,0,1.05.22,1.44.76.5.65,1.44,1.26,2.92,1.26,1.91,0,2.67-1.01,2.67-1.84,0-1.15-.8-1.84-5.01-3.75-2.24-.97-3.25-2.74-3.25-4.5,0-2.45,2.02-4.83,5.48-4.83,3.32,0,5.55,1.62,5.55,3.03,0,.97-.83,1.8-1.8,1.8-.47,0-1.01-.22-1.48-.72-.36-.36-1.01-.86-2.27-.86-1.23,0-1.91.69-1.91,1.48,0,.54.36,1.19,1.19,1.58.94.47,2.56,1.19,3.64,1.76,2.49,1.33,3.53,3.17,3.54,4.94,0,2.81-2.7,5.3-6.31,5.3Z"/>
      <path class="cls-1" d="M422.92,56.89c-4.92.41-8.9-2.99-9.34-8.34-.46-5.5,3.11-9.6,7.75-9.98,4.96-.41,8.06,2.98,8.29,5.72.14,1.69-.86,3.15-3.15,3.41-1.11.13-1.87.19-8.84.77-.22.02-.26.31-.23.71.28,2.98,2.73,4.58,5.29,4.37,2.26-.19,3.54-1.38,4.49-2.58.33-.43.74-.64,1.17-.68.97-.08,1.98.7,2.06,1.71.04.43-.07.87-.43,1.3-1.58,1.94-3.42,3.29-7.05,3.59ZM425.83,43.98c-.04-.5-.97-2.56-4.21-2.29-2.91.24-4.28,2.89-4.23,3.5.03.32.39.29,3.73.01,1.47-.12,3.09-.26,4.06-.37.43-.07.69-.42.65-.85Z"/>
      <path class="cls-1" d="M452.69,50.85c-.37-.17-.78-.48-1.22-.93-.05-.06-.13-.08-.16-.07-.07.02-.13.07-.19.16-.87,1.65-2.9,2.91-4.97,3.41-3.86.92-6.8-1.34-7.45-4.04-.43-1.79.2-3.83,2.35-5.19,2.22-1.42,5.07-2.8,5.63-2.97.34-.12.52-.61.35-1.34-.1-.42-.63-2.18-3.02-1.61-1.58.38-2.59,1.4-3.08,2.29-.28.55-.73.84-1.15.94-.91.22-1.85-.3-2.07-1.21-.4-1.68,2.24-4.28,5.78-5.12,3.86-.92,6.41.47,7.37,4.5.11.46.17.89.26,1.38.05.54.27,1.9.52,2.95.08.32.14.6.23.8.99,2.73,2.31,2.53,2.64,2.67.45.19.74.6.85,1.09.23.98-.27,2.29-1.29,2.53-.39.09-.88.03-1.39-.22ZM447.66,44.08c-5.75,2.15-5.75,3.71-5.55,4.55.26,1.09,1.47,1.95,3.25,1.52,2.84-.68,3.72-2.41,3.13-4.9-.12-.53-.38-1.28-.8-1.18h-.03Z"/>
    </g>
    <g>
      <path class="cls-1" d="M361.16,82.73c-.04-4.69,3.38-8.11,7.96-8.15,4.58-.04,8.07,3.33,8.11,8.02.04,4.86-3.4,8.11-7.98,8.15-4.59.04-8.05-3.17-8.09-8.02ZM374.77,82.63c-.03-3.6-2.55-5.92-5.63-5.9-3.08.02-5.57,2.38-5.54,5.98.03,3.58,2.55,5.88,5.63,5.86,3.08-.02,5.57-2.36,5.54-5.94Z"/>
      <path class="cls-1" d="M388.71,89.98c.06-.85.15-2.43.21-3.7.04-.83.05-1.54.04-1.87-.03-1.29-.73-1.85-1.6-1.89-1.27-.06-2.84,1-2.97,2.39-.04.37-.06.85-.09,1.43-.04.85-.07,1.96-.09,3.44,0,.44-.28,1.05-1.11,1.01-.56-.03-1.09-.4-1.06-1.07t0-.04c.15-1.98.23-3.35.29-4.58.06-1.25.08-2.33.1-3.73t0-.04c.03-.63.65-.91,1.17-.89.52.02,1.05.36,1.02,1.03,0,.08-.03.15-.03.21,0,.02,0,.04,0,.06,0,.02,0,.04.02.04.02,0,.06-.04.11-.08.81-.8,1.93-1.16,3.01-1.12,1.75.08,3.38,1.3,3.36,3.63-.01.75-.05,2.61-.12,4.15-.03.65-.06,1.23-.1,1.67-.05.75-.59,1.08-1.13,1.05-.54-.02-1.07-.42-1.04-1.09v-.02Z"/>
      <path class="cls-1" d="M407.7,84.06c-.31-.03-.32.08-.33.2-.07.77-.28,2.53-.4,3.9-.14,1.62-.14,2.29,1.02,2.39.15.01.31,0,.48,0,.06,0,.11-.01.17,0,.56.05.85.54.81.99-.06.75-.78,1.04-1.86.95-3.07-.27-2.84-2.99-2.76-3.84.1-1.2.33-3.28.41-4.19.01-.12.02-.23.03-.31.02-.27-.1-.3-.31-.32l-.62-.05c-.6-.05-.89-.58-.85-1.08.04-.48.4-.93,1.02-.87l.6.05c.33.03.36-.03.38-.32,0,0,.06-.41.1-.89.02-.25.04-.5.04-.73,0-.02,0-.04,0-.06.05-.62.58-.89,1.12-.84,1.1.1,1.01,1.09.99,1.36-.05.56-.16,1.35-.16,1.35-.03.33.05.36.26.38l1.39.12c.62.05.87.56.83,1.06-.04.48-.38.95-1,.9l-1.37-.12Z"/>
      <path class="cls-1" d="M420.37,92.59c.11-.85.29-2.38.42-3.65.08-.81.14-1.49.15-1.83.06-1.42-.77-2.09-1.72-2.19-1.2-.12-2.63.65-2.82,1.95-.06.37-.12.91-.19,1.6-.1.95-.21,2.18-.32,3.65-.03.44-.34,1.03-1.17.95-.56-.06-1.06-.47-.99-1.13t0-.04c.27-1.96.57-4.7.85-7.31.27-2.59.51-5.06.65-6.45.06-.62.66-.9,1.2-.84s1.03.42.96,1.08c-.23,1.97-.51,4.45-.6,5.16,0,.08-.01.12.03.13.02,0,.04-.02.11-.05.72-.45,1.81-.69,2.89-.58,1.76.18,3.47,1.31,3.28,3.95-.06.75-.21,2.6-.37,4.13-.07.64-.13,1.22-.19,1.66-.1.74-.65,1.04-1.19.99-.54-.06-1.04-.49-.97-1.15v-.02Z"/>
      <path class="cls-1" d="M431.73,95.09c-2.84-.34-4.7-2.72-4.33-5.81.38-3.17,2.87-5.08,5.54-4.76,2.86.34,4.22,2.62,4.04,4.2-.12.97-.85,1.68-2.18,1.57-.64-.05-1.08-.11-5.1-.58-.12-.02-.18.15-.21.37-.18,1.72,1.02,2.91,2.49,3.09,1.3.16,2.17-.37,2.84-.94.23-.2.49-.28.74-.25.56.07,1.04.63.97,1.21-.03.25-.14.49-.4.69-1.12.92-2.32,1.47-4.41,1.22ZM434.87,88.11c.03-.29-.25-1.56-2.12-1.79-1.68-.2-2.76,1.14-2.8,1.49-.02.19.18.21,2.11.44.85.1,1.78.21,2.34.26.25,0,.44-.16.47-.41Z"/>
      <path class="cls-1" d="M459.33,98.39c-.48-.06-.94-.35-1.08-.92-.17-.63-.49-2.36-.89-4.36-.03-.13-.08-.2-.2-.22-.33-.06-1.18-.17-2.11-.29-1.24-.16-2.63-.34-3.06-.38-.1-.01-.22.04-.27.15-.73,1.57-1.4,3-1.83,3.95-.26.55-.77.76-1.27.7-.58-.08-1.13-.55-1.04-1.19.05-.37.13-.53,6.31-12.68.45-.91,1.25-1.25,2-1.15.78.1,1.53.7,1.74,1.68.84,3.89,2.6,11.44,3.07,13.14.06.22.07.43.05.62-.09.7-.76,1.04-1.41.95ZM456.85,90.44c-.39-2.03-.77-3.99-.97-5.04-.08-.39-.15-.61-.28-.62-.1-.01-.25.16-.45.55-.42.79-2.26,4.48-2.28,4.67-.01.08.03.13.15.15.41.05,1.17.17,1.9.27.74.1,1.47.17,1.76.21.12.02.17,0,.18-.06,0-.02,0-.06,0-.11Z"/>
      <path class="cls-1" d="M474.31,89.93c.54.07,1.02.53.93,1.29-.26,2.07-.86,6.3-1.26,9.49-.21,1.61-.35,2.94-.4,3.63-.07,1.02-1,1.07-1.22,1.04-.54-.07-1.01-.49-.92-1.17t0-.04c.13-.85.42-2.83.71-5.12.01-.08.02-.12,0-.13-.02,0-.06.01-.11.05-.85.59-1.9.89-3.06.75-2.85-.36-4.75-2.81-4.37-5.83.4-3.12,2.83-4.92,5.68-4.55,1.14.14,2.02.65,2.7,1.39.02.02.06.05.08.05.04,0,.09-.01.1-.09.18-.59.69-.82,1.15-.76ZM472.64,94.91c.26-2.03-.91-3.44-2.57-3.65-1.65-.21-3.13.86-3.39,2.89-.26,2.05.9,3.48,2.56,3.69,1.66.21,3.14-.88,3.4-2.93Z"/>
      <path class="cls-1" d="M482.69,92.03c-.12.85-.33,2.4-.48,3.68-.1.81-.16,1.51-.18,1.85-.08,1.36.62,2.01,1.49,2.11,1.16.14,2.61-.72,2.83-2.04.08-.45.17-1.09.27-1.94.1-.85.21-1.91.31-3.16.07-.73.64-1,1.18-.93.54.06,1.06.48.97,1.17t0,.04c-.32,2.21-.52,3.47-.68,4.81-.11.91-.03,1.82.26,2.59.11.29.12.54.1.75-.08.66-.67,1.01-1.2.95-.7-.08-.94-.61-1.08-1.33-.01-.06-.03-.11-.05-.11-.02,0-.04.02-.09.05-.91.82-2.15,1.13-3.29,1-1.8-.21-3.38-1.58-3.19-3.91.06-.67.22-2.16.38-3.55.1-.85.2-1.68.29-2.23.11-.74.69-1.03,1.23-.97.52.06,1.01.48.94,1.14v.02Z"/>
      <path class="cls-1" d="M500.28,102.91c-.17-.17-.34-.41-.49-.74-.02-.04-.06-.07-.08-.07-.04,0-.09.01-.13.05-.79.73-2.14,1.03-3.37.91-2.28-.24-3.45-2.04-3.29-3.63.11-1.06.84-2.05,2.28-2.38,1.48-.35,3.31-.56,3.64-.54.21,0,.4-.23.45-.67.03-.25.07-1.31-1.34-1.46-.93-.1-1.68.27-2.12.66-.26.24-.56.32-.81.29-.54-.06-.95-.52-.9-1.06.1-1,2.04-1.91,4.14-1.69,2.28.24,3.41,1.49,3.16,3.87-.03.27-.08.52-.13.81-.07.31-.22,1.09-.28,1.71-.02.19-.04.35-.03.48.01,1.68.77,1.82.93,1.96.21.19.29.47.25.76-.06.58-.58,1.2-1.19,1.13-.23-.02-.49-.16-.71-.39ZM498.84,98.25c-3.55.07-3.85.92-3.9,1.42-.07.64.43,1.34,1.48,1.45,1.68.18,2.49-.6,2.65-2.07.03-.31.04-.77-.21-.8h-.02Z"/>
      <path class="cls-1" d="M506.35,102.74c.17-1.45.44-4.4.69-7.18.25-2.78.49-5.42.52-6.25.05-.75.64-1.11,1.25-1.06.56.05,1.09.47,1.02,1.2t0,.04c-.11,1.01-.44,4.21-.73,7.45-.2,2.2-.38,4.42-.48,6.01v.04c-.07.73-.66,1.03-1.22.98-.58-.05-1.11-.48-1.04-1.2v-.02Z"/>
      <path class="cls-1" d="M515.23,104.75c-.56-.04-1.07-.44-1.02-1.14.13-1.73.34-4.09.48-5.99.07-.94.14-1.77.16-2.33.03-.69.58-1.02,1.2-.97.54.04,1.08.42,1.02,1.08v.04c-.09.85-.24,2.49-.37,4.24-.11,1.43-.2,2.91-.27,4.06v.04c-.06.71-.65,1.02-1.21.97ZM514.89,90.09c.08-1.02.98-1.35,1.56-1.3.75.06,1.41.74,1.35,1.53-.06.75-.68,1.43-1.57,1.36-.81-.06-1.42-.63-1.34-1.59Z"/>
      <path class="cls-1" d="M528.57,104.48c.07-.85.18-2.43.25-3.7.05-.83.06-1.54.06-1.88-.01-1.29-.71-1.86-1.59-1.9-1.27-.07-2.85.97-2.99,2.36-.04.37-.07.85-.1,1.43-.05.85-.09,1.96-.13,3.44,0,.44-.29,1.05-1.12,1-.56-.03-1.08-.42-1.05-1.08t0-.04c.17-1.97.27-3.35.34-4.57.07-1.25.11-2.33.14-3.73t0-.04c.03-.62.66-.9,1.18-.87.52.03,1.04.37,1.01,1.04,0,.08-.03.14-.03.21,0,.02,0,.04,0,.06,0,.02,0,.04.02.04.02,0,.06-.04.11-.08.82-.79,1.94-1.15,3.03-1.09,1.75.1,3.37,1.34,3.33,3.67-.02.75-.08,2.61-.17,4.15-.04.64-.07,1.23-.11,1.66-.06.75-.6,1.07-1.14,1.04-.54-.03-1.06-.43-1.02-1.1v-.02Z"/>
      <path class="cls-1" d="M540.07,106.06c-2.85-.06-4.94-2.25-4.87-5.35.07-3.19,2.36-5.33,5.05-5.28,2.88.06,4.46,2.2,4.43,3.78-.02.98-.68,1.76-2.02,1.77-.65,0-1.08,0-5.13-.08-.12,0-.17.16-.18.39-.01,1.73,1.3,2.8,2.78,2.83,1.31.03,2.12-.58,2.73-1.22.21-.22.47-.32.72-.32.56.01,1.09.52,1.08,1.11,0,.25-.09.5-.33.72-1.02,1.02-2.16,1.69-4.27,1.64ZM542.52,98.81c0-.29-.41-1.53-2.28-1.57-1.69-.04-2.64,1.41-2.64,1.76,0,.19.2.19,2.14.23.85.02,1.79.04,2.35.03.25-.02.42-.2.43-.45Z"/>
      <path class="cls-1" d="M566.5,105.28c-.69.04-1.38-.38-1.71-1.42-.33-1.03-1.31-4.48-1.65-6.29-.03-.15-.1-.27-.14-.26-.04,0-.08.07-.09.26-.12,1.87-.6,5.07-.89,6.46-.21,1.04-.95,1.6-1.7,1.65-.75.04-1.53-.43-1.84-1.44-.55-1.83-1.8-5.76-2.32-7.53-.03-.08-.03-.14-.03-.21-.03-.58.51-.93,1.05-.96.46-.03.91.15,1.06.63.49,1.58,1.52,5.53,1.89,7.24.06.27.13.39.17.39.08,0,.14-.15.16-.38.19-1.68.79-5.41,1.01-6.93.12-.82.74-1.23,1.39-1.27.69-.04,1.44.35,1.63,1.05.35,1.27,1.44,4.87,1.8,6.7.06.27.1.35.15.35.06,0,.11-.19.15-.34.33-1.84,1.06-5.79,1.28-7.34.07-.51.5-.76.96-.79.52-.03,1.08.25,1.11.81.04.67-1.05,5.62-1.7,8.06-.26.96-.97,1.54-1.72,1.59Z"/>
      <path class="cls-1" d="M573.38,90.14c-.12-1.02.71-1.51,1.29-1.58.75-.09,1.52.45,1.61,1.24.09.75-.39,1.53-1.28,1.64-.81.09-1.51-.35-1.62-1.3ZM576.5,104.47c-.56.06-1.14-.23-1.22-.93-.2-1.72-.45-4.08-.66-5.97-.11-.93-.2-1.76-.29-2.32-.1-.68.38-1.11,1-1.18.54-.06,1.14.21,1.21.87v.04c.08.85.25,2.49.45,4.23.16,1.43.35,2.9.5,4.03t0,.04c.08.7-.44,1.12-1,1.19Z"/>
      <path class="cls-1" d="M590.02,101.32c-.12-.85-.37-2.41-.59-3.66-.14-.82-.28-1.52-.36-1.84-.3-1.26-1.11-1.65-1.97-1.5-1.25.22-2.56,1.59-2.38,2.97.04.37.12.85.22,1.42.15.84.35,1.93.65,3.38.1.43-.04,1.09-.87,1.23-.55.1-1.15-.16-1.26-.82t0-.04c-.28-1.96-.49-3.32-.7-4.54-.21-1.23-.42-2.3-.7-3.67v-.04c-.11-.62.43-1.03.94-1.12.51-.09,1.1.13,1.22.78.01.08,0,.15.02.21v.06s.02.04.04.04.05-.05.09-.1c.62-.95,1.64-1.55,2.7-1.74,1.73-.3,3.59.54,4.07,2.83.15.74.51,2.56.77,4.08.11.64.21,1.21.26,1.65.11.74-.35,1.18-.88,1.27-.53.09-1.13-.19-1.25-.84v-.02Z"/>
      <path class="cls-1" d="M606.9,98.38c-.46.12-.89.06-1.47-.97-.04-.08-.07-.11-.11-.1-.02,0-.05.06-.08.11-.56,1.06-1.5,1.91-2.81,2.25-2.78.74-5.43-.71-6.24-3.76-.78-2.94.77-5.62,3.55-6.36,1.13-.3,2.19-.13,3.11.34.03.01.07,0,.09,0,.04-.01.05-.04.04-.1-.62-2.34-1.21-4.38-1.45-5.22-.19-.62.16-1.17.75-1.32.52-.14,1.14.06,1.33.77.01.04.02.06.03.1.14.7.5,2.13.95,3.82,1.98,7.47,2.02,7.53,2.9,8.5.15.15.24.32.29.51.17.64-.29,1.26-.87,1.42ZM604.04,93.83c-.53-1.99-2.14-2.88-3.76-2.45-1.61.43-2.58,2-2.05,3.99.52,1.97,2.13,2.84,3.75,2.41,1.61-.43,2.58-1.98,2.06-3.95Z"/>
      <path class="cls-1" d="M614.29,96c-.53.18-1.46.24-1.86-.9-.34-.96.36-1.63.91-1.82.65-.23,1.56-.02,1.86.83.18.51.08,1.54-.91,1.88Z"/>
    </g>
  </g>
</svg>