<?xml version="1.0" encoding="UTF-8"?>
<svg id="_レイヤー_2" data-name="レイヤー 2" xmlns="http://www.w3.org/2000/svg" width="119.03" height="38.37" viewBox="0 0 119.03 38.37">
  <defs>
    <style>
      .cls-1 {
        fill: #fff;
      }
    </style>
  </defs>
  <g id="_カモメ" data-name="カモメ">
    <path class="cls-1" d="M84.75,0c-9.99,0-18.96,3.73-25.24,9.64C53.24,3.73,44.27,0,34.28,0,15.38,0,0,13.29,0,29.62c0,4.83,4.06,8.76,9.05,8.76s9.05-3.93,9.05-8.76c0-6.56,7.41-12.11,16.19-12.11s16.19,5.54,16.19,12.11c0,4.83,4.06,8.76,9.05,8.76s9.05-3.93,9.05-8.76c0-6.56,7.42-12.11,16.19-12.11s16.19,5.54,16.19,12.11c0,4.83,4.06,8.76,9.05,8.76s9.05-3.93,9.05-8.76c0-16.33-15.38-29.62-34.28-29.62Z"/>
  </g>
</svg>