<?xml version="1.0" encoding="UTF-8"?>
<svg id="_レイヤー_2" data-name="レイヤー 2" xmlns="http://www.w3.org/2000/svg" width="87.25" height="28.13" viewBox="0 0 87.25 28.13">
  <defs>
    <style>
      .cls-1 {
        fill: #fff;
      }
    </style>
  </defs>
  <g id="_カモメ" data-name="カモメ">
    <path class="cls-1" d="M62.12,0c-7.32,0-13.9,2.74-18.5,7.07C39.03,2.74,32.45,0,25.13,0,11.27,0,0,9.74,0,21.71c0,3.54,2.98,6.42,6.63,6.42s6.63-2.88,6.63-6.42c0-4.81,5.43-8.87,11.87-8.87s11.87,4.06,11.87,8.87c0,3.54,2.98,6.42,6.63,6.42s6.63-2.88,6.63-6.42c0-4.81,5.44-8.87,11.87-8.87s11.87,4.06,11.87,8.87c0,3.54,2.98,6.42,6.63,6.42s6.63-2.88,6.63-6.42c0-11.97-11.27-21.71-25.13-21.71Z"/>
  </g>
</svg>