<svg width="50" height="50" viewBox="0 0 50 50" fill="none" xmlns="http://www.w3.org/2000/svg">
<rect width="50" height="50" rx="25" fill="#FFFF00"/>
<path fill-rule="evenodd" clip-rule="evenodd" d="M25.0001 27.1221L30.3031 32.4251C30.5845 32.7065 30.9661 32.8646 31.3641 32.8646C31.762 32.8646 32.1437 32.7065 32.4251 32.4251C32.7065 32.1437 32.8646 31.7621 32.8646 31.3641C32.8646 30.9662 32.7065 30.5845 32.4251 30.3031L27.1201 25.0001L32.4241 19.6971C32.5634 19.5578 32.6738 19.3924 32.7492 19.2104C32.8245 19.0283 32.8633 18.8333 32.8632 18.6363C32.8632 18.4393 32.8243 18.2442 32.7489 18.0622C32.6735 17.8802 32.5629 17.7149 32.4236 17.5756C32.2843 17.4363 32.1189 17.3259 31.9368 17.2505C31.7548 17.1752 31.5597 17.1364 31.3627 17.1365C31.1657 17.1365 30.9707 17.1754 30.7887 17.2508C30.6067 17.3262 30.4414 17.4368 30.3021 17.5761L25.0001 22.8791L19.6971 17.5761C19.5588 17.4328 19.3933 17.3184 19.2104 17.2397C19.0274 17.161 18.8306 17.1196 18.6314 17.1177C18.4322 17.1159 18.2347 17.1538 18.0503 17.2291C17.866 17.3044 17.6984 17.4157 17.5575 17.5565C17.4166 17.6973 17.3052 17.8647 17.2296 18.049C17.1541 18.2333 17.1161 18.4308 17.1177 18.63C17.1194 18.8292 17.1606 19.026 17.2392 19.2091C17.3177 19.3921 17.4319 19.5577 17.5751 19.6961L22.8801 25.0001L17.5761 30.3041C17.4329 30.4425 17.3187 30.6081 17.2402 30.7912C17.1616 30.9742 17.1204 31.1711 17.1187 31.3702C17.1171 31.5694 17.1551 31.7669 17.2306 31.9512C17.3062 32.1355 17.4176 32.3029 17.5585 32.4437C17.6994 32.5845 17.867 32.6958 18.0513 32.7711C18.2357 32.8464 18.4332 32.8843 18.6324 32.8825C18.8316 32.8807 19.0284 32.8392 19.2114 32.7605C19.3943 32.6818 19.5598 32.5674 19.6981 32.4241L25.0001 27.1221Z" fill="#0000FF"/>
</svg>
