<svg width="16" height="22" viewBox="0 0 16 22" fill="none" xmlns="http://www.w3.org/2000/svg">
<path d="M6.89579 5.773C7.27579 5.09 7.46579 4.75 7.74979 4.75C8.03379 4.75 8.22379 5.09 8.60379 5.773L8.70179 5.949C8.80979 6.143 8.86379 6.239 8.94779 6.303C9.03279 6.367 9.13779 6.391 9.34779 6.438L9.53779 6.482C10.2758 6.649 10.6448 6.732 10.7328 7.014C10.8208 7.296 10.5688 7.591 10.0658 8.179L9.93579 8.331C9.79279 8.498 9.72079 8.581 9.68879 8.685C9.65679 8.789 9.66779 8.9 9.68879 9.123L9.70879 9.326C9.78479 10.111 9.82279 10.504 9.59379 10.678C9.36379 10.852 9.01779 10.693 8.32679 10.375L8.14879 10.293C7.95179 10.203 7.85379 10.158 7.74979 10.158C7.64579 10.158 7.54779 10.203 7.35079 10.293L7.17279 10.375C6.48179 10.694 6.13579 10.852 5.90579 10.678C5.67579 10.504 5.71479 10.111 5.79079 9.326L5.81079 9.123C5.83179 8.9 5.84279 8.789 5.81079 8.685C5.77879 8.581 5.70679 8.498 5.56379 8.331L5.43379 8.179C4.93079 7.591 4.67879 7.297 4.76679 7.014C4.85479 6.732 5.22379 6.649 5.96179 6.482L6.15179 6.438C6.36179 6.391 6.46679 6.368 6.55179 6.303C6.63579 6.239 6.68979 6.143 6.79779 5.949L6.89579 5.773Z" stroke="#0000FF" stroke-width="1.5"/>
<path d="M14.75 7.75C14.75 8.66925 14.5689 9.57951 14.2172 10.4288C13.8654 11.2781 13.3498 12.0497 12.6997 12.6997C12.0497 13.3498 11.2781 13.8654 10.4288 14.2172C9.57951 14.5689 8.66925 14.75 7.75 14.75C6.83075 14.75 5.92049 14.5689 5.07122 14.2172C4.22194 13.8654 3.45026 13.3498 2.80025 12.6997C2.15024 12.0497 1.63463 11.2781 1.28284 10.4288C0.93106 9.57951 0.75 8.66925 0.75 7.75C0.75 5.89348 1.4875 4.11301 2.80025 2.80025C4.11301 1.4875 5.89348 0.75 7.75 0.75C9.60652 0.75 11.387 1.4875 12.6997 2.80025C14.0125 4.11301 14.75 5.89348 14.75 7.75Z" stroke="#0000FF" stroke-width="1.5"/>
<path d="M3.10086 13.75L2.46386 16.073C1.83586 18.365 1.52186 19.511 1.94086 20.138C2.08786 20.358 2.28486 20.534 2.51386 20.651C3.16586 20.983 4.17386 20.458 6.18886 19.408C6.85886 19.058 7.19486 18.884 7.55086 18.846C7.68319 18.8328 7.81652 18.8328 7.94886 18.846C8.30486 18.884 8.63986 19.059 9.31086 19.408C11.3259 20.458 12.3339 20.983 12.9859 20.651C13.2149 20.534 13.4119 20.358 13.5589 20.138C13.9789 19.511 13.6639 18.365 13.0359 16.073L12.3989 13.75" stroke="#0000FF" stroke-width="1.5" stroke-linecap="round"/>
</svg>
