<svg width="53" height="68" viewBox="0 0 53 68" fill="none" xmlns="http://www.w3.org/2000/svg">
<path d="M6.17767 67.9823C3.68951 67.9823 0.957283 66.6342 0.213215 65.0437C-0.155843 64.2515 -0.0427273 63.4474 0.528717 62.7793C1.04659 62.1703 1.85016 62.0875 2.62995 62.0047C3.48116 61.916 4.0407 61.8214 4.34428 61.4076C4.08832 61.2361 3.51691 61.0291 3.21928 60.9227C2.48116 60.6567 1.83828 60.4261 1.90971 59.7639C1.96924 59.1549 2.60614 58.9716 3.30854 58.8533C3.61212 57.9842 3.30258 56.5888 2.999 55.2349C2.71923 53.9814 2.42757 52.6807 2.56448 51.575C2.7252 50.3097 3.40974 49.4701 4.61215 49.074C4.60025 48.3822 3.98119 47.1229 3.50499 46.1709C2.73711 44.616 2.07044 43.2738 2.47521 42.2864C2.58831 42.0144 2.8383 41.642 3.39189 41.4528C3.80857 41.3049 5.85027 40.1757 6.386 39.5667C6.45148 39.4957 6.58244 39.3597 6.90983 39.0345C7.98724 37.9466 10.5111 35.3983 12.6124 32.8382C16.2018 28.4629 15.7553 27.4223 15.6898 27.3159C15.2612 26.6537 11.4754 23.9162 10.279 23.4787C9.32063 25.1105 8.54082 25.9382 7.20149 25.9382C6.94553 25.9382 6.66578 25.9087 6.32053 25.8437C5.77885 25.7432 5.35026 25.3588 5.20145 24.8326C5.05263 24.3123 5.21336 23.7625 5.61218 23.4018C6.40386 22.6923 6.75507 21.4979 6.4753 20.4396C6.38601 20.0908 6.15386 19.7124 5.91576 19.3162C5.64194 18.8669 5.36216 18.4057 5.2312 17.8972C5.15382 17.6016 5.14789 17.0044 5.14194 15.3785C5.14194 13.6993 5.13597 11.1688 4.90382 10.4474C4.18952 8.20067 3.34426 5.948 2.52876 3.76628C2.28471 3.10999 2.03471 2.4537 1.79065 1.7915C1.63589 1.37762 1.68946 0.934168 1.93947 0.579416C2.18947 0.218752 2.61806 0 3.05855 0C3.45737 0 3.82046 0.171455 4.08237 0.490732L4.49905 0.993301C6.99317 4.02052 9.35633 6.88218 12.6124 9.02843C14.9041 10.542 17.4399 11.2752 20.3566 11.2752C23.8508 11.2752 27.4937 10.2168 30.9284 9.13485C31.732 8.88061 34.1308 7.18963 35.4463 6.17858C35.5713 6.08398 35.7201 6.03669 35.863 6.03669C36.0237 6.03669 36.1844 6.0899 36.3154 6.20224C36.4106 6.28501 36.4821 6.38553 36.5178 6.49787C37.6845 7.86957 50.9825 17.6903 51.8872 18.2993C52.7027 18.7486 53.0718 19.2807 52.9885 19.8838C52.804 21.2082 50.4765 21.8409 47.2145 22.5918C46.649 22.7218 46.1609 22.8342 45.9228 22.911C41.1667 24.4542 32.1248 32.2824 31.7439 44.2021C31.4819 52.4264 28.4997 54.0109 21.2495 55.9089C21.19 55.9266 21.1305 55.9325 21.0769 55.9325C21.0293 55.9325 20.9876 55.9325 20.94 55.9207C20.1483 55.7611 19.5411 55.6842 19.0709 55.6842C18.1423 55.6842 17.9816 55.9325 17.5113 56.6657C17.172 57.1919 16.7553 57.8482 15.922 58.534C15.8803 58.5695 15.8327 58.5991 15.7791 58.6227C13.2493 59.8407 11.4992 63.1281 10.4516 65.097C10.023 65.9011 9.74323 66.4332 9.47537 66.7288C8.72535 67.5625 7.58246 68 6.16576 68L6.17767 67.9823Z" fill="#F5E149"/>
</svg>
