<svg width="59" height="54" viewBox="0 0 59 54" fill="none" xmlns="http://www.w3.org/2000/svg">
<path d="M45.0303 25.1649C45.4202 23.9757 46.2493 24.0375 47.554 23.9911C48.2271 23.968 48.7937 23.968 49.2537 23.9937C49.4097 24.004 49.5422 23.883 49.5448 23.7286C49.5526 23.4738 49.5006 23.0877 49.3915 22.5651C48.5962 18.7325 46.8471 15.3605 44.1441 12.4442C39.128 7.03619 32.8878 4.56515 25.4235 5.03105C24.085 5.11599 22.6451 5.3528 21.1039 5.74662C19.6407 6.11985 18.284 6.63722 17.0339 7.29617C12.3063 9.79038 8.91199 13.43 6.85098 18.2099C6.0167 20.1456 5.46051 22.5394 5.18241 25.394C5.15123 25.7106 5.14603 26.542 5.16682 27.883C5.18241 28.8457 5.24739 29.672 5.36175 30.3592C6.31038 36.0684 8.98476 40.717 13.3849 44.3078C18.3724 48.3798 25.2311 49.9654 31.5649 48.6166C35.622 47.7543 39.2034 45.8032 42.3092 42.7685C42.9667 42.1276 43.5541 41.2498 44.1207 40.7093C44.1831 40.6475 44.261 40.5986 44.3442 40.5626C45.888 39.9216 47.055 40.3026 47.8477 41.708C48.474 42.82 47.8399 43.9989 46.9536 45.0002C44.6327 47.6205 41.9401 49.7054 38.8785 51.2576C36.4796 52.4751 33.8806 53.2936 31.0763 53.7157C28.4123 54.1173 25.6808 54.0915 22.8868 53.6385C15.1704 52.3875 8.19726 47.6102 4.07524 41.1726C1.40086 36.995 0.0415836 32.1713 -4.26604e-07 26.7041C-0.00779744 25.7569 0.0311876 25.098 0.114356 24.7273C0.298885 23.9062 0.257301 23.1005 0.452226 22.1173C1.72054 15.7003 4.88093 10.3798 9.93599 6.15588C13.8891 2.85344 18.4113 0.876606 23.5028 0.227957C25.5638 -0.0320171 27.669 -0.0706272 29.8184 0.117275C34.4134 0.516245 38.6472 2.00402 42.5223 4.58574C49.0224 8.91522 53.6616 15.8727 54.3608 23.6642C54.3764 23.8496 54.5271 23.9937 54.7116 24.0066C55.1613 24.0375 55.837 24.0401 56.7415 24.0169C58.0592 23.9834 59.3275 24.3283 58.922 25.9242C58.9012 26.0014 58.8727 26.0761 58.8389 26.1482C58.6621 26.5137 58.4932 26.8148 58.3295 27.0542C56.5335 29.6977 54.8182 32.2434 53.1808 34.6964C52.9339 35.0645 52.5415 35.2061 51.9983 35.1211C51.9151 35.1083 51.8371 35.0722 51.7748 35.0156C51.4135 34.699 51.19 34.4802 51.1094 34.3618C48.0946 30.0272 46.2285 27.4763 45.0589 25.4506C45.0096 25.3631 44.9992 25.2601 45.0303 25.1649Z" fill="#F5E149"/>
</svg>
