<svg width="59" height="54" viewBox="0 0 59 54" fill="none" xmlns="http://www.w3.org/2000/svg">
<g clip-path="url(#clip0_716_914)">
<path d="M45.0303 25.1659C45.4202 23.9767 46.2493 24.0385 47.554 23.9921C48.2271 23.969 48.7937 23.969 49.2537 23.9947C49.4097 24.005 49.5422 23.884 49.5448 23.7296C49.5526 23.4748 49.5006 23.0886 49.3915 22.5661C48.5962 18.7334 46.8471 15.3615 44.1441 12.4451C39.128 7.03717 32.8878 4.56613 25.4235 5.03202C24.085 5.11696 22.6451 5.35377 21.1039 5.74759C19.6407 6.12083 18.284 6.6382 17.0339 7.29714C12.3063 9.79135 8.91199 13.431 6.85098 18.2109C6.0167 20.1466 5.46051 22.5404 5.18241 25.395C5.15123 25.7116 5.14603 26.543 5.16682 27.884C5.18241 28.8467 5.24739 29.6729 5.36175 30.3602C6.31038 36.0693 8.98476 40.718 13.3849 44.3087C18.3724 48.3808 25.2311 49.9664 31.5649 48.6176C35.622 47.7553 39.2034 45.8042 42.3092 42.7695C42.9667 42.1285 43.5541 41.2508 44.1207 40.7103C44.1831 40.6485 44.261 40.5996 44.3442 40.5636C45.888 39.9226 47.055 40.3036 47.8477 41.709C48.474 42.821 47.8399 43.9998 46.9536 45.0011C44.6327 47.6215 41.9401 49.7064 38.8785 51.2585C36.4796 52.476 33.8806 53.2946 31.0763 53.7167C28.4123 54.1183 25.6808 54.0925 22.8868 53.6395C15.1704 52.3885 8.19726 47.6112 4.07524 41.1736C1.40086 36.996 0.0415836 32.1723 -4.26604e-07 26.7051C-0.00779744 25.7579 0.0311876 25.0989 0.114356 24.7283C0.298885 23.9072 0.257301 23.1015 0.452226 22.1182C1.72054 15.7013 4.88093 10.3808 9.93599 6.15686C13.8891 2.85442 18.4113 0.877582 23.5028 0.228934C25.5638 -0.0310406 27.669 -0.0696506 29.8184 0.118252C34.4134 0.517222 38.6472 2.005 42.5223 4.58672C49.0224 8.91619 53.6616 15.8737 54.3608 23.6652C54.3764 23.8506 54.5271 23.9947 54.7116 24.0076C55.1613 24.0385 55.837 24.041 56.7415 24.0179C58.0592 23.9844 59.3275 24.3293 58.922 25.9252C58.9012 26.0024 58.8727 26.0771 58.8389 26.1491C58.6621 26.5146 58.4932 26.8158 58.3295 27.0552C56.5335 29.6987 54.8182 32.2444 53.1808 34.6974C52.9339 35.0655 52.5415 35.2071 51.9983 35.1221C51.9151 35.1092 51.8371 35.0732 51.7748 35.0166C51.4135 34.7 51.19 34.4812 51.1094 34.3628C48.0946 30.0282 46.2285 27.4773 45.0589 25.4516C45.0096 25.3641 44.9992 25.2611 45.0303 25.1659Z" fill="#F5E149"/>
<path d="M29.6078 25.1225C29.6104 25.3619 29.7066 25.5936 29.8729 25.7686C32.264 28.2448 34.8474 30.8857 37.6257 33.6888C37.9142 33.9797 38.1325 34.2551 38.2859 34.515C39.3645 36.3632 37.7271 38.1521 35.8038 37.869C35.2606 37.7892 34.7382 37.5035 34.2314 37.0093C31.8273 34.6592 29.1062 31.9307 26.0628 28.8239C25.0491 27.7892 25.1817 27.1354 25.1765 25.6399C25.1713 24.6386 25.1739 20.654 25.1817 13.6836C25.1843 13.0504 25.465 12.4996 26.0264 12.0337C26.0939 11.9771 26.1745 11.9333 26.2577 11.8999C27.5026 11.4288 28.5006 11.6991 29.2569 12.7081C29.3089 12.775 29.3453 12.8522 29.3635 12.9346C29.5168 13.5549 29.5922 14.0852 29.5896 14.5228C29.5766 18.4198 29.5818 21.9539 29.6078 25.1225Z" fill="#F5E149"/>
<path d="M11.7084 27.6319C11.7214 28.3346 11.0352 28.9214 10.1775 28.9369C9.31727 28.9523 8.60775 28.3938 8.59735 27.6911C8.58435 26.9884 9.27049 26.3989 10.1282 26.3861C10.9884 26.3706 11.698 26.9292 11.7084 27.6319Z" fill="#F5E149"/>
<path d="M14.1048 36.3657C14.8767 36.43 15.4433 37.1224 15.3757 37.9101C15.3082 38.6977 14.6298 39.282 13.8579 39.2177C13.086 39.1533 12.5194 38.4609 12.587 37.6733C12.6546 36.8856 13.3329 36.3013 14.1048 36.3657Z" fill="#F5E149"/>
<path d="M27.308 42.5844C28.0071 42.5638 28.5997 43.3591 28.6309 44.3604C28.662 45.3617 28.1215 46.1931 27.4223 46.2163C26.7232 46.2369 26.1306 45.4415 26.0994 44.4402C26.0682 43.4389 26.6088 42.6075 27.308 42.5844Z" fill="#F5E149"/>
</g>
<defs>
<clipPath id="clip0_716_914">
<rect width="59" height="54" fill="white"/>
</clipPath>
</defs>
</svg>
