<svg width="50" height="49" viewBox="0 0 50 49" fill="none" xmlns="http://www.w3.org/2000/svg">
<g clip-path="url(#clip0_684_1643)">
<path d="M11.7525 20.3322C11.1955 15.261 13.3287 1.84228 23.2283 0.396207C32.5038 -0.958741 36.7228 7.54336 36.8374 7.79296L32.9621 8.08217C32.9068 7.97124 30.0585 3.36759 23.7932 4.28673C15.13 5.55056 15.0273 17.1033 15.0747 17.547L11.7525 20.3282V20.3322Z" fill="#F5E149"/>
<path d="M11.5549 20.8195L11.5035 20.36C10.99 15.6929 12.8743 1.65613 23.1888 0.150627C32.8119 -1.25186 37.0151 7.59888 37.0585 7.69L37.2087 8.01487L32.8119 8.34371L32.7368 8.19712C32.7131 8.15354 29.9795 3.62912 23.8248 4.53242C15.2919 5.77644 15.3038 17.4044 15.3156 17.5193L15.3275 17.6501L11.5509 20.8156L11.5549 20.8195ZM25.1679 0.503231C24.5595 0.503231 23.9235 0.546811 23.2599 0.645857C13.6249 2.05231 11.622 14.8926 11.9539 19.837L14.8218 17.4361C14.8337 16.0574 15.288 5.28121 23.7497 4.04511C29.5765 3.19332 32.5354 7.02838 33.0805 7.82867L36.4304 7.57907C35.6285 6.15281 32.01 0.503231 25.1639 0.503231H25.1679Z" fill="#F5E149"/>
<path d="M32.3655 22.6181C28.6126 19.8012 22.9201 14.4131 17.0024 13.5851L17.7846 9.9917C25.1007 11.0178 32.8948 18.1095 33.1398 18.3789L32.3655 22.6181Z" fill="#F5E149"/>
<path d="M32.5353 23.0578L32.2153 22.8162C31.5437 22.313 30.809 21.7266 30.0307 21.1046C26.349 18.165 21.7665 14.5042 16.9668 13.8307L16.7021 13.795L17.587 9.71436L17.8162 9.74605C25.4167 10.8118 33.2503 18.1372 33.3175 18.2085L33.4004 18.2997L32.5313 23.0578H32.5353ZM17.2987 13.3751C22.1379 14.1635 26.8665 17.9431 30.3389 20.7124C30.9907 21.2354 31.6148 21.7306 32.1916 22.1743L32.8671 18.4621C32.0059 17.6697 24.8755 11.3506 17.9742 10.269L17.2987 13.3751Z" fill="#F5E149"/>
<path d="M25.9697 11.4615C30.6075 9.36171 43.9914 7.25401 48.4198 16.2434C52.5716 24.6702 45.8125 31.3222 45.611 31.5084L44.1415 27.9031C44.2284 27.8159 47.7126 23.6758 44.9079 17.9827C41.0325 10.1105 30.0426 13.5811 29.6396 13.7673L25.9737 11.4615H25.9697Z" fill="#F5E149"/>
<path d="M45.5162 31.9364L43.8492 27.8438L43.9637 27.7289C43.9953 27.6933 47.4401 23.6918 44.6827 18.0937C40.8666 10.3404 29.8411 13.9457 29.7384 13.9932L29.6159 14.0487L29.5014 13.9774L25.4443 11.422L25.867 11.2318C30.1374 9.30241 44.0269 6.75891 48.641 16.1326C52.8797 24.7377 45.8481 31.6234 45.777 31.6908L45.5162 31.9364ZM44.4259 27.9429L45.698 31.0608C46.9028 29.7455 51.821 23.6997 48.2025 16.3545C43.8926 7.59882 31.0973 9.65897 26.507 11.5012L29.6712 13.494C30.9828 13.078 41.3407 10.1819 45.1291 17.8719C47.7403 23.1688 45.0185 27.1743 44.4259 27.9429Z" fill="#F5E149"/>
<path d="M30.1729 31.8295C31.6819 27.3803 35.0358 20.2847 33.9929 14.3855L37.643 14.021C38.9309 21.3187 34.6131 30.942 34.4353 31.2589L30.1729 31.8334V31.8295Z" fill="#F5E149"/>
<path d="M29.8096 32.1266L29.9399 31.7462C30.2086 30.9499 30.5404 30.0664 30.888 29.1314C32.5393 24.71 34.5935 19.207 33.7481 14.4251L33.7007 14.1596L37.8447 13.7437L37.8842 13.9695C39.1996 21.4177 34.6962 31.2867 34.6488 31.3699L34.5895 31.4768L29.8096 32.1187V32.1266ZM34.2814 14.6034C35.028 19.4645 32.9067 25.1419 31.3542 29.3097C31.0618 30.0942 30.7814 30.8429 30.5404 31.5283L34.2696 31.0252C34.7515 29.9594 38.5439 21.2117 37.4378 14.2864L34.2814 14.6034Z" fill="#F5E149"/>
<path d="M38.7769 22.2817C42.2019 26.0574 48.3368 38.1727 41.1787 45.1732C34.471 51.738 26.0725 47.3443 25.8354 47.2096L28.8022 44.6899C28.9128 44.7454 33.914 46.7897 38.4451 42.3564C44.7143 36.2274 38.0263 26.818 37.7261 26.4892L38.7809 22.2817H38.7769Z" fill="#F5E149"/>
<path d="M32.48 49.0002C28.6915 49.0002 25.7604 47.455 25.713 47.4273L25.4009 47.253L28.7627 44.3965L28.9088 44.4718C28.9523 44.4916 33.8152 46.5399 38.2673 42.1818C44.4417 36.144 37.6155 26.7465 37.5365 26.6594L37.4495 26.5603L38.6505 21.7744L38.9625 22.1191C42.111 25.5936 48.8148 38.0576 41.3525 45.3553C38.4608 48.1801 35.2452 49.0041 32.4839 49.0041L32.48 49.0002ZM26.2818 47.1539C27.9015 47.8948 35.1504 50.7236 41.0049 44.9947C47.9773 38.1764 42.0715 26.6118 38.9033 22.8045L37.9907 26.4375C38.7887 27.5587 44.738 36.5481 38.6149 42.5344C34.4038 46.6547 29.7621 45.2998 28.8496 44.9749L26.2858 47.1539H26.2818Z" fill="#F5E149"/>
<path d="M20.7593 32.5865C25.4444 32.6499 33.2069 33.6562 38.4846 30.8394L39.9581 34.2069C33.4361 37.6894 22.9754 36.5444 22.6199 36.4731L20.7593 32.5865Z" fill="#F5E149"/>
<path d="M27.1352 36.9445C24.4845 36.9445 22.612 36.7266 22.5725 36.7187L22.4501 36.6949L20.3643 32.3329H20.7632C21.6007 32.3488 22.5409 32.3923 23.5364 32.4359C28.2374 32.6419 34.0918 32.9034 38.3662 30.6214L38.6032 30.4946L40.2781 34.3178L40.0767 34.4248C36.1776 36.5087 30.8802 36.9445 27.1352 36.9445ZM22.7858 36.2433C23.9473 36.378 33.4124 37.2892 39.6382 34.092L38.3622 31.18C33.9852 33.3947 27.945 33.1293 23.5127 32.9312C22.6792 32.8955 21.8812 32.8598 21.1543 32.84L22.7819 36.2393L22.7858 36.2433Z" fill="#F5E149"/>
<path d="M32.4721 37.8434C29.9478 42.2767 20.3602 51.8723 11.5074 47.2092C3.21162 42.8393 4.77993 33.4735 4.83523 33.2041L8.13775 35.2563C8.118 35.3792 7.72296 40.7791 13.3325 43.7307C21.0832 47.8154 27.9371 38.5288 28.1583 38.1406L32.4761 37.8474L32.4721 37.8434Z" fill="#F5E149"/>
<path d="M16.5164 48.7066C14.8217 48.7066 13.0993 48.3223 11.3927 47.423C2.78484 42.8867 4.57042 33.2436 4.59017 33.1485L4.66127 32.7959L8.41019 35.1215L8.38649 35.2839C8.38254 35.3315 7.94009 40.6007 13.4509 43.5047C21.083 47.526 27.8895 38.1127 27.9448 38.0097L28.012 37.8948L28.1463 37.8829L32.9263 37.558L32.6971 37.9621C30.8049 41.2861 23.9786 48.7066 16.5243 48.7066H16.5164ZM5.02471 33.612C4.82324 35.3869 4.3887 43.1759 11.6218 46.9872C20.2416 51.5275 29.3867 42.3202 32.0177 38.1246L28.2885 38.3781C27.4708 39.4874 20.7867 47.938 13.2178 43.9485C8.00725 41.2069 7.85713 36.3576 7.88479 35.3869L5.02866 33.612H5.02471Z" fill="#F5E149"/>
<path d="M17.1329 23.8423C18.5195 28.331 19.9653 36.0487 24.2673 40.2086L21.5297 42.6531C16.2125 37.5106 14.0635 27.1782 14.02 26.8176L17.1329 23.8423Z" fill="#F5E149"/>
<path d="M21.5257 42.9938L21.3598 42.8353C15.9319 37.5859 13.7908 26.9484 13.779 26.8493L13.7632 26.7265L17.2553 23.3906L17.3738 23.7749C17.6227 24.5792 17.8716 25.4864 18.1402 26.4492C19.3964 30.9974 20.9568 36.6628 24.445 40.0343L24.6386 40.2205L21.5296 42.9978L21.5257 42.9938ZM14.2925 26.9048C14.5256 28.0537 16.5877 37.364 21.5415 42.3163L23.9078 40.2007C20.4551 36.7103 18.8434 30.8666 17.6583 26.5799C17.437 25.7717 17.2237 25.0031 17.0143 24.3018L14.2925 26.9048Z" fill="#F5E149"/>
<path d="M15.7701 36.6351C10.7887 35.5971 -1.27973 29.4166 0.411032 19.5319C1.99119 10.2691 11.3575 8.87056 11.6301 8.83887L10.7057 12.6224C10.5833 12.6422 5.34111 13.9338 4.27451 20.1935C2.79706 28.8501 13.7199 32.5148 14.1584 32.6059L15.7701 36.6312V36.6351Z" fill="#F5E149"/>
<path d="M16.1731 36.9721L15.7188 36.877C11.1324 35.9262 -1.59571 29.7932 0.166159 19.4885C1.80557 9.88104 11.5038 8.60136 11.6025 8.58948L11.9581 8.5459L10.9112 12.8405L10.7492 12.8683C10.7018 12.8762 5.56633 14.0845 4.51948 20.2373C3.06179 28.7632 14.0952 32.3407 14.2098 32.3645L14.3401 32.3922L16.1731 36.9721ZM11.2983 9.1481C9.55227 9.50466 2.03074 11.4975 0.652056 19.5717C-0.991303 29.199 10.5636 35.0744 15.3593 36.2867L13.9688 32.8082C12.6652 32.3684 2.58379 28.6126 4.02963 20.1541C5.02118 14.3302 9.57202 12.6939 10.5004 12.4206L11.2983 9.1481Z" fill="#F5E149"/>
<path d="M24.3071 17.6821C20.4792 20.392 13.6095 24.1557 10.9943 29.5438L7.83008 27.6897C11.0654 21.0258 20.1987 15.7883 20.5266 15.6338L24.3111 17.6821H24.3071Z" fill="#F5E149"/>
<path d="M11.0968 29.8924L7.50195 27.7847L7.60071 27.5787C10.9585 20.6613 20.3288 15.4476 20.4158 15.4079L20.5303 15.3564L24.773 17.6543L24.4451 17.8841C23.7617 18.3674 22.9756 18.8904 22.146 19.4411C18.2193 22.044 13.3327 25.2848 11.2114 29.6547L11.0929 29.8964L11.0968 29.8924ZM8.14982 27.5906L10.8874 29.1951C13.1312 24.8213 18.1759 21.4775 21.8734 19.0251C22.5687 18.5616 23.2363 18.1218 23.8328 17.7098L20.5224 15.919C19.5072 16.4975 11.3101 21.3428 8.14982 27.5946V27.5906Z" fill="#F5E149"/>
</g>
<defs>
<clipPath id="clip0_684_1643">
<rect width="50" height="49" fill="white"/>
</clipPath>
</defs>
</svg>
