<svg width="60" height="59" viewBox="0 0 60 59" fill="none" xmlns="http://www.w3.org/2000/svg">
<g clip-path="url(#clip0_701_1915)">
<mask id="mask0_701_1915" style="mask-type:luminance" maskUnits="userSpaceOnUse" x="16" y="56" width="4" height="3">
<path d="M19.6463 56.8286H16.2749V59.0002H19.6463V56.8286Z" fill="white"/>
</mask>
<g mask="url(#mask0_701_1915)">
<path d="M18.5432 57.0735C18.1141 57.1041 17.6543 57.1346 17.2253 57.1652C17.1027 57.1652 16.9801 57.1958 16.8881 57.257C16.7655 57.3182 16.6736 57.3793 16.5816 57.4711C16.4897 57.5629 16.4284 57.6546 16.3977 57.777C16.3671 57.8993 16.3364 58.0216 16.3364 58.144C16.3364 58.2663 16.3671 58.3887 16.3977 58.4804C16.459 58.6028 16.5203 58.6945 16.6123 58.7863C16.7042 58.878 16.7962 58.9392 16.9188 58.9698C17.0414 59.0004 17.1333 59.031 17.2559 59.031H17.2866C17.7769 59.031 18.2673 59.0004 18.7271 58.9392C18.8497 58.9392 18.9723 58.878 19.0642 58.8475C19.1562 58.7863 19.2481 58.7251 19.3401 58.6028C19.4014 58.511 19.4627 58.3887 19.4933 58.2969C19.524 58.2052 19.5546 58.0522 19.524 57.9299C19.524 57.8075 19.4627 57.6852 19.432 57.5934C19.3707 57.4711 19.3094 57.3793 19.1868 57.3182C19.0949 57.2264 18.9723 57.1958 18.8803 57.1652C18.7884 57.0735 18.6658 57.0429 18.5432 57.0735Z" fill="#F5E149"/>
</g>
<path d="M12.9342 56.6756C12.8116 56.645 12.689 56.645 12.5664 56.645C12.4438 56.6756 12.3212 56.7062 12.2293 56.7674C12.1373 56.8285 12.0454 56.9203 11.9534 57.012C11.8921 57.1038 11.8308 57.2262 11.8002 57.3485C11.7695 57.4708 11.7695 57.5932 11.7695 57.7155C11.8002 57.8379 11.8308 57.9602 11.8921 58.052C11.9534 58.1437 12.0454 58.2355 12.1373 58.3272C12.2293 58.3884 12.3519 58.4496 12.4745 58.4802C12.9342 58.6025 13.4246 58.6943 13.915 58.786C13.9763 58.786 14.0069 58.786 14.0682 58.786C14.1908 58.786 14.2828 58.7554 14.4054 58.7249C14.528 58.6943 14.6199 58.6331 14.6812 58.5413C14.7732 58.4496 14.8345 58.3578 14.8958 58.2661C14.9571 58.1743 14.9877 58.052 14.9877 57.9296C14.9877 57.8073 14.9877 57.7155 14.9571 57.5932C14.9264 57.4708 14.8651 57.3791 14.8038 57.2873C14.7425 57.1956 14.6506 57.1344 14.5586 57.0732C14.4667 57.0121 14.3441 56.9815 14.2521 56.9509C13.7924 56.8897 13.3633 56.798 12.9342 56.6756Z" fill="#F5E149"/>
<path d="M22.8336 56.0944C22.4045 56.2473 22.0061 56.3697 21.577 56.492C21.4544 56.5226 21.3625 56.5838 21.2399 56.6449C21.1479 56.7061 21.056 56.7979 20.9947 56.9202C20.9334 57.012 20.9027 57.1343 20.8721 57.2567C20.8414 57.379 20.8721 57.5013 20.9027 57.6237C20.9334 57.746 20.9947 57.8378 21.056 57.9601C21.1173 58.0519 21.2092 58.1437 21.3318 58.2048C21.4544 58.266 21.5464 58.2966 21.669 58.3272C21.7916 58.3272 21.9141 58.3272 22.0367 58.2966C22.4965 58.1742 22.9562 58.0213 23.416 57.8684C23.5386 57.8378 23.6305 57.7766 23.7225 57.6849C23.8144 57.5931 23.8757 57.5013 23.937 57.4096C23.9983 57.2872 24.029 57.1955 24.029 57.0731C24.029 56.9508 24.029 56.8285 23.9677 56.7061C23.937 56.5838 23.8757 56.492 23.7838 56.4003C23.6918 56.3085 23.5999 56.2473 23.5079 56.1862C23.3853 56.125 23.2934 56.0944 23.1708 56.0944C23.0788 56.0332 22.9562 56.0638 22.8336 56.0944Z" fill="#F5E149"/>
<path d="M7.72371 55.2684C7.66241 55.3601 7.60111 55.4825 7.60111 55.6048C7.57046 55.7272 7.57046 55.8495 7.60111 55.9719C7.63176 56.0942 7.66241 56.186 7.75436 56.3083C7.81566 56.4001 7.90761 56.4918 8.0302 56.553C8.42865 56.8283 8.85774 57.0424 9.31748 57.2871C9.44007 57.3482 9.53202 57.3788 9.65462 57.3788C9.77722 57.3788 9.89981 57.3788 10.0224 57.3482C10.145 57.3176 10.237 57.2565 10.3289 57.1647C10.4209 57.0729 10.4822 56.9812 10.5435 56.8894C10.6047 56.7671 10.6354 56.6753 10.6354 56.553C10.6354 56.4306 10.6354 56.3083 10.6047 56.186C10.5741 56.0636 10.5128 55.9719 10.4209 55.8801C10.3289 55.7883 10.237 55.7272 10.145 55.666C9.74657 55.4825 9.37877 55.2684 9.01098 55.0237C8.91903 54.9625 8.79644 54.9014 8.67384 54.9014C8.55124 54.8708 8.42864 54.8708 8.30605 54.9014C8.18345 54.9319 8.0915 54.9625 7.9689 55.0543C7.87696 55.0849 7.78501 55.1766 7.72371 55.2684Z" fill="#F5E149"/>
<path d="M26.8489 54.2592C26.4811 54.4733 26.0827 54.6874 25.6842 54.9015C25.5616 54.9627 25.4697 55.0238 25.4084 55.1156C25.3164 55.2074 25.2551 55.2991 25.2245 55.4215C25.1938 55.5438 25.1632 55.6661 25.1938 55.7885C25.1938 55.9108 25.2245 56.0332 25.2858 56.1249C25.3471 56.2473 25.4084 56.339 25.5003 56.4002C25.5923 56.492 25.6842 56.5531 25.8068 56.5837C25.9294 56.6143 26.052 56.6449 26.1746 56.6143C26.2972 56.6143 26.4198 56.5837 26.5118 56.5225C26.9409 56.3084 27.37 56.0638 27.7684 55.8191C27.8603 55.7579 27.9523 55.6661 28.0442 55.5744C28.1055 55.4826 28.1668 55.3603 28.1975 55.2379C28.2281 55.1156 28.2281 54.9933 28.2281 54.8709C28.1975 54.7486 28.1668 54.6262 28.1055 54.5345C28.0442 54.4427 27.9523 54.351 27.8603 54.2592C27.7684 54.198 27.6458 54.1369 27.5232 54.1063C27.4006 54.0757 27.278 54.0757 27.1554 54.0757C27.0635 54.1369 26.9409 54.198 26.8489 54.2592Z" fill="#F5E149"/>
<path d="M5.33302 54.4123C5.42497 54.5041 5.51692 54.5652 5.63951 54.6264C5.76211 54.6876 5.88471 54.6876 6.00731 54.6876C6.1299 54.6876 6.2525 54.657 6.34445 54.6264C6.46705 54.5652 6.55899 54.5041 6.65094 54.4123C6.74289 54.3205 6.80419 54.2288 6.83484 54.1064C6.89614 53.9841 6.89614 53.8617 6.89614 53.7394C6.89614 53.6171 6.86549 53.4947 6.83484 53.3724C6.77354 53.25 6.71224 53.1583 6.62029 53.0665C6.3138 52.7607 6.00731 52.4548 5.73146 52.1184C5.63951 52.0266 5.54757 51.9348 5.45562 51.9043C5.33302 51.8431 5.24107 51.8125 5.11847 51.8125C4.99588 51.8125 4.87328 51.8125 4.75068 51.8431C4.62808 51.8737 4.53614 51.9348 4.44419 52.0266C4.35224 52.1184 4.26029 52.2101 4.22964 52.3019C4.16834 52.4242 4.1377 52.516 4.1377 52.6383C4.1377 52.7607 4.1377 52.883 4.16834 53.0053C4.19899 53.1277 4.26029 53.2194 4.35224 53.3112C4.65873 53.7088 4.99588 54.0453 5.33302 54.4123Z" fill="#F5E149"/>
<path d="M30.4655 51.6593C30.1284 51.9345 29.7912 52.2404 29.4235 52.4851C29.3315 52.5463 29.2396 52.638 29.1783 52.7604C29.117 52.8521 29.0863 52.9745 29.0557 53.0968C29.025 53.2192 29.0557 53.3415 29.0863 53.4638C29.117 53.5862 29.1783 53.6779 29.2396 53.8003C29.3009 53.892 29.3928 53.9838 29.5154 54.045C29.6074 54.1061 29.7299 54.1367 29.8525 54.1673C29.9751 54.1979 30.0977 54.1673 30.2203 54.1367C30.3429 54.1061 30.4349 54.045 30.5575 53.9838C30.9253 53.7085 31.2931 53.4027 31.6609 53.0968C31.7528 53.0051 31.8141 52.9133 31.8754 52.8215C31.9367 52.6992 31.9674 52.6074 31.9674 52.4851C31.9674 52.3628 31.9674 52.2404 31.9367 52.1181C31.9061 51.9957 31.8448 51.904 31.7528 51.8122C31.6609 51.7204 31.5689 51.6593 31.477 51.5981C31.3544 51.5369 31.2624 51.5063 31.1398 51.5063C31.0172 51.5063 30.8946 51.5063 30.772 51.5369C30.6494 51.5369 30.5575 51.5981 30.4655 51.6593Z" fill="#F5E149"/>
<path d="M2.42151 50.4971C2.48281 50.6194 2.5441 50.7112 2.6667 50.7723C2.75865 50.8641 2.88125 50.8947 2.9732 50.9253C3.09579 50.9559 3.21839 50.9865 3.34099 50.9559C3.46358 50.9559 3.58618 50.8947 3.67813 50.8335C3.80073 50.7723 3.89268 50.7112 3.95397 50.5888C4.01527 50.4971 4.07657 50.3747 4.10722 50.283C4.13787 50.1606 4.16852 50.0383 4.13787 49.9159C4.13787 49.7936 4.07657 49.6713 4.01527 49.5795C3.80073 49.2125 3.61683 48.8149 3.43294 48.4172C3.37164 48.2949 3.31034 48.2031 3.21839 48.1114C3.12644 48.0196 3.03449 47.9585 2.9119 47.9279C2.7893 47.8973 2.6667 47.8667 2.5441 47.8667C2.42151 47.8667 2.29891 47.8973 2.20696 47.9585C2.08436 48.0196 1.99242 48.0808 1.90047 48.1726C1.80852 48.2643 1.74722 48.3561 1.71657 48.4784C1.68592 48.6008 1.65527 48.7231 1.65527 48.8454C1.65527 48.9678 1.68592 49.0901 1.74722 49.2125C1.99242 49.6407 2.20696 50.0995 2.42151 50.4971Z" fill="#F5E149"/>
<path d="M2.48263 45.5421C2.39068 45.1139 2.26809 44.6857 2.20679 44.2575C2.17614 44.1351 2.14549 44.0128 2.08419 43.921C2.02289 43.8293 1.93094 43.7375 1.83899 43.6764C1.74705 43.6152 1.62445 43.554 1.50185 43.5234C1.37925 43.4928 1.25666 43.4928 1.13406 43.5234C1.01146 43.554 0.888865 43.5846 0.796917 43.6458C0.704969 43.7069 0.613021 43.7987 0.551722 43.8905C0.490423 43.9822 0.429125 44.1046 0.398475 44.2269C0.367826 44.3492 0.367826 44.4716 0.398475 44.5939C0.490423 45.0833 0.582371 45.5421 0.704969 46.0009C0.735618 46.1232 0.796917 46.215 0.858216 46.3373C0.919514 46.4291 1.01146 46.5208 1.13406 46.582C1.25666 46.6432 1.34861 46.6738 1.4712 46.7043C1.5938 46.7349 1.7164 46.7044 1.83899 46.6738C1.96159 46.6432 2.05354 46.582 2.17614 46.5208C2.26809 46.4597 2.36003 46.3679 2.42133 46.2456C2.48263 46.1538 2.51328 46.0315 2.54393 45.9091C2.51328 45.7868 2.48263 45.6644 2.48263 45.5421Z" fill="#F5E149"/>
<mask id="mask1_701_1915" style="mask-type:luminance" maskUnits="userSpaceOnUse" x="0" y="38" width="3" height="5">
<path d="M2.14545 38.6606H0V42.3615H2.14545V38.6606Z" fill="white"/>
</mask>
<g mask="url(#mask1_701_1915)">
<path d="M0.950018 42.1472H0.980667C1.10326 42.1472 1.22586 42.1166 1.31781 42.0554C1.44041 41.9943 1.53236 41.9331 1.6243 41.8413C1.71625 41.7496 1.77755 41.6578 1.8082 41.5355C1.83885 41.4131 1.8695 41.2908 1.8695 41.1684C1.8695 40.7402 1.83885 40.2815 1.8695 39.8533C1.8695 39.7309 1.83885 39.6086 1.8082 39.4862C1.77755 39.3639 1.6856 39.2721 1.6243 39.1804C1.53236 39.0886 1.44041 39.0274 1.31781 38.9663C1.19521 38.9051 1.10326 38.9051 0.950018 38.8745C0.82742 38.8745 0.704823 38.9051 0.582225 38.9357C0.459628 38.9663 0.36768 39.058 0.275732 39.1192C0.183784 39.211 0.122485 39.3027 0.0611863 39.4251C-0.000112364 39.5474 -0.000112366 39.6697 -0.0307617 39.7921C-0.0307617 40.2815 -0.0307617 40.7402 -0.0307617 41.2296C-0.0307617 41.352 -0.000112364 41.4743 0.0611863 41.5661C0.122485 41.6884 0.183784 41.7802 0.275732 41.8413C0.36768 41.9331 0.459628 41.9943 0.582225 42.0248C0.704823 42.1166 0.82742 42.1472 0.950018 42.1472Z" fill="#F5E149"/>
</g>
<path d="M1.07287 37.5286C1.13417 37.5286 1.16482 37.5286 1.22612 37.5286C1.34872 37.5286 1.44067 37.498 1.53261 37.4674C1.62456 37.4368 1.71651 37.3756 1.80846 37.3145C1.90041 37.2533 1.96171 37.1615 2.023 37.0698C2.0843 36.978 2.11495 36.8863 2.11495 36.7639C2.17625 36.3357 2.2682 35.8769 2.36015 35.4487C2.3908 35.3264 2.3908 35.204 2.36015 35.0817C2.3295 34.9594 2.29885 34.837 2.23755 34.7453C2.17625 34.6535 2.0843 34.5617 1.99236 34.5006C1.90041 34.4394 1.77781 34.3782 1.65521 34.3476C1.53261 34.3171 1.41002 34.3171 1.28742 34.3476C1.16482 34.3782 1.04223 34.4088 0.950277 34.47C0.858329 34.5312 0.766381 34.6229 0.705082 34.7147C0.643784 34.8064 0.582485 34.9288 0.551835 35.0511C0.459887 35.5099 0.367939 35.9993 0.306641 36.4581C0.275991 36.5804 0.306641 36.7028 0.33729 36.8251C0.367939 36.9474 0.429238 37.0392 0.490537 37.1615C0.551836 37.2533 0.643784 37.3451 0.766381 37.4062C0.858329 37.4674 0.950277 37.5286 1.07287 37.5286Z" fill="#F5E149"/>
<path d="M1.99238 33.0325C2.11498 33.0631 2.23758 33.0937 2.36017 33.0631C2.48277 33.0631 2.60537 33.0325 2.69732 32.9714C2.81991 32.9102 2.91186 32.849 2.97316 32.7573C3.06511 32.6655 3.12641 32.5737 3.15706 32.4514C3.27965 32.0232 3.4329 31.595 3.6168 31.1974C3.64745 31.075 3.6781 30.9527 3.6781 30.8303C3.6781 30.708 3.64745 30.5857 3.58615 30.4939C3.52485 30.3716 3.46355 30.2798 3.3716 30.188C3.27965 30.0963 3.18771 30.0351 3.06511 30.0045C2.94251 29.9739 2.81991 29.9434 2.69732 29.9434C2.57472 29.9434 2.45212 29.9739 2.36017 30.0351C2.23758 30.0963 2.14563 30.1575 2.05368 30.2492C1.96173 30.341 1.90043 30.4327 1.86978 30.5551C1.71654 31.0139 1.53264 31.4421 1.41004 31.9009C1.37939 32.0232 1.34875 32.1455 1.37939 32.2679C1.37939 32.3902 1.41004 32.5126 1.47134 32.6043C1.53264 32.7267 1.59394 32.8184 1.68589 32.8796C1.77784 32.9408 1.90043 33.0019 1.99238 33.0325Z" fill="#F5E149"/>
<path d="M3.64713 28.7201C3.76973 28.7812 3.86167 28.8118 3.98427 28.8118C4.10687 28.8118 4.22947 28.8118 4.35206 28.7812C4.47466 28.7506 4.56661 28.6895 4.65856 28.5977C4.7505 28.506 4.8118 28.4142 4.8731 28.3224C5.08765 27.9248 5.30219 27.5272 5.51674 27.1296C5.57804 27.0378 5.60869 26.9155 5.63934 26.7932C5.66998 26.6708 5.63934 26.5485 5.60869 26.4261C5.57804 26.3038 5.51674 26.212 5.45544 26.0897C5.39414 25.9979 5.30219 25.9062 5.1796 25.845C5.08765 25.7838 4.96505 25.7532 4.84245 25.7227C4.71986 25.7227 4.59726 25.7227 4.47466 25.7532C4.35206 25.7838 4.26011 25.845 4.16817 25.9062C4.07622 25.9673 3.98427 26.0591 3.92297 26.1814C3.67778 26.5791 3.46323 27.0073 3.24869 27.4355C3.18739 27.5578 3.15674 27.6496 3.15674 27.7719C3.15674 27.8942 3.15674 28.0166 3.18739 28.1389C3.21804 28.2613 3.27934 28.353 3.37128 28.4448C3.43258 28.5977 3.52453 28.6589 3.64713 28.7201Z" fill="#F5E149"/>
<path d="M5.91508 24.7132C6.00703 24.7743 6.12963 24.8355 6.25222 24.8661C6.37482 24.8967 6.49742 24.8967 6.62002 24.8661C6.74261 24.8355 6.86521 24.8049 6.95716 24.7438C7.04911 24.6826 7.14105 24.5908 7.233 24.4991C7.4782 24.132 7.75404 23.765 8.02989 23.4286C8.09118 23.3368 8.15248 23.2145 8.18313 23.1227C8.21378 23.0004 8.21378 22.878 8.21378 22.7557C8.21378 22.6333 8.15248 22.511 8.09118 22.4192C8.02989 22.2969 7.93794 22.2357 7.84599 22.144C7.75404 22.0828 7.63144 22.0216 7.50885 21.991C7.38625 21.9604 7.26365 21.9604 7.14105 21.9604C7.01846 21.991 6.89586 22.0216 6.80391 22.0828C6.71196 22.144 6.62002 22.2357 6.52807 22.3275C6.22157 22.6945 5.94573 23.0921 5.66989 23.4592C5.60859 23.5509 5.54729 23.6733 5.51664 23.7956C5.48599 23.9179 5.48599 24.0403 5.51664 24.1626C5.54729 24.285 5.57794 24.4073 5.63924 24.4991C5.70054 24.5908 5.79248 24.652 5.91508 24.7132Z" fill="#F5E149"/>
<path d="M42.7557 23.6733C42.5412 23.7956 42.388 24.0097 42.3267 24.2544L44.1043 24.2238C44.0737 24.1627 44.043 24.1015 44.0124 24.0403C43.9511 23.9486 43.8591 23.8568 43.7672 23.7651C43.6752 23.7039 43.5526 23.6427 43.43 23.6121C43.3074 23.5815 43.1848 23.5815 43.0622 23.5815C42.9703 23.5815 42.8477 23.6121 42.7557 23.6733Z" fill="#F5E149"/>
<path d="M29.9446 38.7216C31.4158 38.7216 32.8563 38.5687 34.2968 38.2322C35.7373 37.8958 37.1166 37.4064 38.4345 36.7641L39.0781 35.9383L37.1166 35.3266C35.6147 35.9995 34.0516 36.4583 32.4272 36.6724C32.4272 36.5194 32.3659 36.3665 32.274 36.2442C32.0594 35.8771 31.7836 35.5407 31.4771 35.2043C31.1706 34.8984 30.8641 34.6231 30.4963 34.3479C30.1285 34.1032 29.7607 33.8891 29.3623 33.7361C28.9638 33.5832 28.5347 33.4303 28.1363 33.3691C25.3472 32.8797 22.6807 34.4396 21.9758 34.8984C20.5353 34.1643 19.248 33.2468 18.0527 32.1457C18.1446 32.0845 18.2366 31.9927 18.3285 31.901C19.1254 31.0446 19.0334 29.7906 18.9108 29.0871C18.8802 28.7201 18.9108 28.3224 19.0334 27.986V27.9248C19.0947 27.6801 19.1867 27.4355 19.2786 27.1908C19.5545 26.5791 19.6771 25.9368 19.6464 25.2639C19.5545 23.8569 18.543 23.0005 17.7462 22.297C17.1025 21.7465 16.5202 21.2571 16.4589 20.6148C16.3669 19.8502 16.3669 19.055 16.4282 18.2903C16.4282 18.2597 16.4282 18.2291 16.4282 18.1985C16.3669 16.6693 15.0797 15.6599 12.9342 15.4458C13.0568 14.8953 13.2101 14.3753 13.394 13.8554C13.5472 13.886 13.7005 13.9165 13.8537 13.9165C14.9571 13.9165 15.9379 12.9378 16.6734 12.0508C17.1945 11.5003 17.8075 11.1026 18.5124 10.8274C18.635 10.7662 18.7576 10.705 18.9108 10.6439C19.4012 10.4603 19.7997 10.1851 20.1675 9.81804C20.5353 9.45101 20.8111 9.02281 20.995 8.56402C21.2708 7.76879 21.0256 6.08657 20.995 5.96423C20.9337 5.47486 20.8418 4.98549 20.7192 4.5267C22.8033 3.21151 25.0714 2.38569 27.5233 2.04925C27.5233 2.35511 27.6459 3.05858 27.3701 3.27268C27.1555 3.42561 26.941 3.51737 26.6958 3.60912C26.5425 3.6703 26.3586 3.73147 26.2054 3.82322C25.4085 4.15967 24.6729 4.61846 24.0293 5.19959C23.3243 5.93364 23.3856 6.57595 23.5695 6.97356C23.6002 7.06532 23.6615 7.15708 23.7534 7.24883C23.8147 7.34059 23.9067 7.40176 24.0293 7.43235C24.1212 7.49352 24.2438 7.49352 24.3358 7.52411C24.4584 7.52411 24.5503 7.52411 24.6423 7.49352C24.7342 7.46293 24.8568 7.43235 24.9488 7.37118C25.0407 7.31001 25.102 7.21825 25.1633 7.15708C25.2246 7.06532 25.2859 6.97356 25.2859 6.85122C25.3166 6.75946 25.3166 6.63712 25.3166 6.51477L25.3472 6.48419C25.8376 6.05599 26.3893 5.71954 26.9716 5.47486C27.0942 5.41369 27.2168 5.3831 27.3394 5.32193C27.7685 5.169 28.1669 4.98549 28.5347 4.71021C29.3623 4.00674 29.3623 3.02799 29.3623 2.35511V2.20218C29.3623 2.11042 29.3623 1.98808 29.3623 1.83515C29.5768 1.83515 29.7607 1.80456 29.9753 1.80456C31.2932 1.80456 32.6111 1.95749 33.8984 2.26335C33.6532 2.63038 33.4693 3.02799 33.3773 3.4562C33.2854 3.8844 33.316 4.34318 33.408 4.77138C33.408 4.80197 33.408 4.83256 33.4386 4.86314C33.5306 5.10783 33.5612 5.35251 33.5306 5.5972C32.703 5.53603 29.4542 5.44427 29.1784 7.61586C29.1784 7.64645 29.1784 7.70762 29.1784 7.73821C29.1784 8.10524 29.1171 8.44168 28.9638 8.74754C28.8719 8.80871 28.7799 8.8393 28.688 8.90047C28.3202 9.0534 28.0137 9.29808 27.7685 9.63453C27.5846 9.94038 27.0023 10.858 27.4927 11.7144C28.0443 12.6625 29.3623 12.6319 30.9867 12.5708C32.3046 12.5096 34.1436 12.4484 34.7872 13.1213C34.9098 13.2742 35.0018 13.4272 35.063 13.6107C35.1243 13.7942 35.1243 13.9777 35.0937 14.1612C35.063 14.253 34.7872 14.4059 34.1742 14.3753H34.0823C33.2547 14.3753 32.4579 14.2836 31.6303 14.1612C30.0979 13.7024 28.1669 13.0907 26.1747 13.6107C25.8989 13.6719 25.623 13.7942 25.3779 13.886C25.102 14.0083 24.8568 14.1306 24.6116 14.2836C24.3664 14.4365 24.1519 14.62 23.9373 14.8035C23.7228 14.987 23.5082 15.2011 23.3243 15.4152C23.1405 15.6293 22.9566 15.874 22.8033 16.0881C22.6501 16.3328 22.5275 16.5775 22.4049 16.8528C22.2516 17.1892 22.1597 17.4339 22.0677 17.7398C22.0064 18.015 21.9451 18.2903 21.9145 18.5656C21.6999 20.8595 22.4662 22.4194 24.2132 23.2452L24.3971 23.337C25.2553 23.8263 26.1747 24.071 27.1862 24.0404C27.2168 24.0404 27.2475 24.0404 27.3088 24.0404C27.5846 23.9793 28.6573 23.8875 29.1171 24.3157C29.209 24.4075 29.2703 24.4992 29.301 24.6216C29.4542 24.591 29.6075 24.591 29.7607 24.591L39.8137 24.3463C39.9669 24.1322 40.1508 23.9181 40.3041 23.704C40.4573 23.4593 40.6106 23.2146 40.7638 22.9699C40.8251 22.8476 40.8864 22.7252 40.9784 22.6335C41.1316 22.4194 41.2542 22.2053 41.3155 21.93C41.3768 21.6853 41.3768 21.4101 41.3155 21.1654C41.2542 20.9819 41.1316 20.7983 40.9784 20.6454C40.8251 20.4925 40.6719 20.4007 40.4573 20.3396C40.3041 20.2784 40.1508 20.2172 40.0282 20.1866C39.5685 20.0643 39.1701 19.8502 38.8023 19.5443C38.5571 19.2385 38.4038 18.902 38.3425 18.5044C38.6184 18.6879 38.9555 18.8103 39.2927 18.8714C39.6298 18.9326 39.9669 18.9326 40.3041 18.902C40.6106 18.8714 40.8864 18.7797 41.1623 18.5962C41.4381 18.4432 41.622 18.1985 41.7753 17.9233C42.1124 17.281 41.7753 16.5775 41.5301 16.0881C41.4688 15.9964 41.4075 15.8434 41.3768 15.7823C41.3462 15.6905 41.3768 15.5988 41.4381 15.507C41.4994 15.4152 41.5914 15.3847 41.6833 15.4152C41.9285 15.4152 42.143 15.4764 42.3576 15.5682C42.5721 15.6599 42.756 15.7823 42.9399 15.9658C43.461 16.6998 44.3191 16.394 45.0241 16.1799C45.6064 15.9964 46.434 15.7211 46.863 15.9352C47.1389 16.1187 47.2921 16.394 47.3534 16.7304C47.7519 19.2385 47.5986 21.7465 46.8937 24.1934L47.7825 24.1628L48.4568 23.2452L48.6407 23.0005C48.702 22.9088 48.7633 22.817 48.8553 22.7253C48.9779 22.5723 49.1005 22.4194 49.1924 22.2665C49.2537 21.93 49.2843 21.6242 49.315 21.2877C49.3456 20.9513 49.3763 20.6454 49.3763 20.309C49.4069 19.9725 49.4069 19.6667 49.4069 19.3302C49.4069 18.9938 49.4069 18.6879 49.3763 18.3515C49.3456 18.015 49.3456 17.7092 49.315 17.3727C49.2843 17.0363 49.2537 16.7304 49.1924 16.394C49.1311 16.0575 49.0698 15.7517 49.0085 15.4152C48.9472 15.1094 48.8553 14.7729 48.794 14.4671C48.702 14.1612 48.6101 13.8248 48.5181 13.5189C48.4262 13.2131 48.3036 12.9072 48.2116 12.6013C48.089 12.2955 47.9664 11.9896 47.8438 11.6838C47.7212 11.3779 47.568 11.1026 47.4454 10.7968C47.2921 10.4909 47.1389 10.2157 46.9856 9.94038C46.8324 9.66511 46.6485 9.35925 46.4953 9.08398C46.3114 8.80871 46.1275 8.53344 45.9436 8.25817C45.7597 7.98289 45.5758 7.73821 45.3612 7.46293C45.1467 7.21825 44.9628 6.94298 44.7482 6.69829C44.5337 6.4536 44.3191 6.20892 44.1046 5.96423C43.8901 5.71954 43.6449 5.50544 43.3997 5.26076C43.1545 5.04666 42.9093 4.80197 42.6641 4.61846C42.4189 4.40436 42.1737 4.19025 41.8979 4.00674C41.6527 3.79264 41.3768 3.60912 41.101 3.42561C40.8251 3.24209 40.5493 3.05858 40.2734 2.87506C39.9976 2.69155 39.7218 2.53862 39.4153 2.38569C39.1394 2.23276 38.8329 2.07983 38.5571 1.92691C38.2506 1.77398 37.9747 1.65163 37.6682 1.52929C37.3617 1.40695 37.0553 1.2846 36.7488 1.16226C36.4423 1.03992 36.1358 0.94816 35.8293 0.856402C35.5228 0.764645 35.2163 0.672888 34.8792 0.58113C34.5727 0.489373 34.2355 0.428201 33.929 0.36703C33.6225 0.305858 33.2854 0.244686 32.9482 0.183515C32.6111 0.122343 32.3046 0.0917574 31.9675 0.0611716C31.6303 0.0305858 31.3238 0 30.9867 0C30.5882 0 30.2817 0 29.9446 0C29.6075 0 29.301 0 28.9638 0.0305858C28.6267 0.0611716 28.3202 0.0611716 27.983 0.0917574C27.6459 0.122343 27.3394 0.152929 27.0023 0.214101C26.6958 0.275272 26.3586 0.336444 26.0521 0.397615C25.7456 0.458787 25.4085 0.550544 25.102 0.611716C24.7955 0.703473 24.4584 0.795231 24.1519 0.886988C23.8454 0.978746 23.5389 1.10109 23.2324 1.19285C22.9259 1.31519 22.6194 1.43753 22.3129 1.55988C22.0064 1.68222 21.7306 1.83515 21.4241 1.95749C21.1482 2.14101 20.8418 2.29393 20.5659 2.44686C20.2901 2.59979 19.9836 2.78331 19.7077 2.93624C19.4319 3.11975 19.156 3.30327 18.8802 3.48678C18.6043 3.6703 18.3592 3.85381 18.0833 4.06791C17.8381 4.28201 17.5623 4.46553 17.3171 4.67963C17.0719 4.89373 16.8267 5.10783 16.5815 5.35251C16.3363 5.56662 16.1218 5.8113 15.8766 6.05599C15.662 6.30067 15.4475 6.54536 15.2329 6.79005C15.0184 7.03473 14.8038 7.27942 14.6199 7.55469C14.436 7.79938 14.2215 8.07465 14.0376 8.34992C13.8537 8.62519 13.6698 8.90047 13.4859 9.17574C13.302 9.45101 13.1488 9.72628 12.9955 10.0321C12.8423 10.3074 12.689 10.6133 12.5358 10.8885C12.3825 11.1944 12.2599 11.4697 12.1373 11.7755C12.0147 12.0814 11.8921 12.3872 11.7695 12.6931C11.6469 12.999 11.555 13.3048 11.4631 13.6107C11.3711 13.9165 11.2792 14.2224 11.1872 14.5588C11.0953 14.8647 11.034 15.2011 10.9727 15.507C10.9114 15.8129 10.8501 16.1493 10.7888 16.4857C10.7275 16.8222 10.6968 17.128 10.6662 17.4645C10.6355 17.8009 10.6049 18.1068 10.6049 18.4432C10.5742 18.7797 10.5742 19.0855 10.5742 19.422C10.5742 19.7584 10.5742 20.0643 10.6049 20.4007C10.6355 20.7372 10.6355 21.043 10.6662 21.3795C10.6968 21.7159 10.7275 22.0218 10.7888 22.3582C10.8501 22.6947 10.9114 23.0005 10.9727 23.337C11.034 23.6428 11.1259 23.9793 11.1872 24.2851C11.2792 24.591 11.3711 24.9274 11.4631 25.2333C11.555 25.5391 11.6776 25.845 11.7695 26.1509C11.8921 26.4567 12.0147 26.7626 12.1373 27.0684C12.2599 27.3743 12.4132 27.6801 12.5358 27.9554C12.689 28.2613 12.8423 28.5365 12.9955 28.8118C13.1488 29.0871 13.3327 29.393 13.4859 29.6682C13.6698 29.9435 13.8537 30.2188 14.0376 30.494C14.2215 30.7693 14.4054 31.014 14.6199 31.2893C14.8345 31.534 15.0184 31.8092 15.2329 32.0539C15.4475 32.2986 15.662 32.5433 15.8766 32.788C16.0911 33.0327 16.3363 33.2468 16.5815 33.4915C16.8267 33.7056 17.0719 33.9502 17.3171 34.1338C17.5623 34.3479 17.8075 34.562 18.0833 34.7455C18.3285 34.9596 18.6043 35.1431 18.8802 35.3266C19.156 35.5101 19.4319 35.6936 19.7077 35.8771C19.9836 36.0607 20.2594 36.2136 20.5659 36.3665C20.8418 36.5194 21.1482 36.6724 21.4241 36.8253C21.7306 36.9782 22.0064 37.1006 22.3129 37.2229C22.6194 37.3453 22.9259 37.4676 23.2324 37.5899C23.5389 37.7123 23.8454 37.804 24.1519 37.8958C24.4584 37.9876 24.7649 38.0793 25.102 38.1711C25.4085 38.2628 25.7456 38.324 26.0521 38.3852C26.3586 38.4464 26.6958 38.5075 27.0023 38.5687C27.3394 38.6299 27.6459 38.6604 27.983 38.691C28.3202 38.7216 28.6267 38.7522 28.9638 38.7522C29.301 38.7216 29.6381 38.7216 29.9446 38.7216Z" fill="#F5E149"/>
<path d="M29.791 26.3955C29.5458 26.3955 29.3006 26.4873 29.086 26.6096C28.8715 26.732 28.7182 26.9461 28.5956 27.1602L27.7681 28.9647C27.7375 29.0565 27.7068 29.1482 27.6762 29.24C27.6455 29.3317 27.6455 29.4235 27.6455 29.5153C27.6455 29.607 27.6455 29.6988 27.6762 29.7905C27.7068 29.8823 27.7375 29.974 27.7681 30.0658C27.7988 30.1576 27.8601 30.2187 27.9214 30.3105C27.9827 30.3717 28.0439 30.4634 28.1052 30.5246C28.1665 30.5858 28.2585 30.6469 28.3198 30.6775C28.4117 30.7387 28.473 30.7693 28.565 30.7999L42.1427 34.9289L37.3307 41.0767L32.5494 40.6485C32.3655 40.6179 32.1816 40.6485 31.9977 40.7097C31.8138 40.7708 31.6606 40.8626 31.5073 40.9849L29.4538 42.8507C29.3619 42.9424 29.3006 43.0036 29.2393 43.1259C29.178 43.2483 29.1167 43.3095 29.086 43.4318C29.0554 43.5541 29.0247 43.6459 29.0247 43.7682C29.0247 43.8906 29.0247 43.9823 29.0554 44.1047C29.086 44.227 29.1167 44.3188 29.1473 44.4411C29.2086 44.5329 29.2699 44.6246 29.3312 44.7164C29.3925 44.8082 29.4845 44.8693 29.5764 44.9611C29.6684 45.0223 29.7603 45.0834 29.8829 45.114L34.5723 46.8268C34.2964 47.4691 33.9286 48.3255 33.6528 49.0596C33.5915 49.1819 33.5608 49.3349 33.5608 49.4572C33.5608 49.6101 33.5608 49.7325 33.6221 49.8854C33.6528 50.0077 33.7141 50.1607 33.806 50.2524C33.898 50.3748 33.9899 50.4665 34.0819 50.5583C34.2045 50.65 34.3271 50.7112 34.4497 50.7724C34.5723 50.8336 34.7255 50.8336 34.8481 50.8641C35.0014 50.8641 35.1239 50.8641 35.2772 50.803C35.3998 50.7724 35.553 50.7112 35.645 50.6195L37.8211 49.1513L40.6715 52.9134C40.7328 53.0051 40.8247 53.0969 40.9167 53.1581C41.0086 53.2193 41.1006 53.2804 41.2232 53.3416C41.3151 53.3722 41.4377 53.4028 41.5603 53.4333C41.6829 53.4639 41.7749 53.4639 41.8975 53.4333C42.0201 53.4333 42.112 53.4028 42.2346 53.3722C42.3265 53.3416 42.4491 53.2804 42.5411 53.2192C42.633 53.1581 42.725 53.0663 42.7863 53.0051C42.8476 52.9134 42.9395 52.8216 42.9702 52.7299L44.1962 50.2524C44.2881 50.0689 44.3188 49.8854 44.3188 49.7019C44.3188 49.5184 44.2881 49.3349 44.2268 49.1513L42.4185 44.8082L47.0159 38.4769C47.0159 38.4769 55.0154 50.0383 55.0154 50.0689C55.0767 50.1607 55.138 50.2218 55.1993 50.283C55.2606 50.3442 55.3525 50.4054 55.4138 50.4359C55.5058 50.4971 55.5671 50.5277 55.659 50.5583C55.751 50.5889 55.8429 50.6195 55.9349 50.6195C56.0268 50.6195 56.1188 50.6195 56.2107 50.6195C56.3026 50.6195 56.3946 50.5889 56.4865 50.5583C56.5785 50.5277 56.6704 50.4971 56.7317 50.4665C56.8237 50.4359 56.885 50.3748 56.9769 50.3136L58.5094 48.9984C58.6933 48.8455 58.8465 48.6314 58.9078 48.3867C58.9691 48.142 58.9998 47.8973 58.9078 47.6526L53.8201 29.8211C53.8201 29.8211 55.1993 27.9554 55.2299 27.9554C55.9655 26.9766 56.6398 25.9673 57.2528 25.0497C57.3447 24.8968 57.4367 24.7133 57.5286 24.5604C57.5899 24.3768 57.6512 24.1933 57.6819 24.0098C57.7125 23.8263 57.7432 23.6428 57.7432 23.4593C57.7432 23.2758 57.7432 23.0922 57.6819 22.9087C57.6512 22.7252 57.5899 22.5417 57.5286 22.3582C57.4673 22.1747 57.3754 22.0217 57.2834 21.8382C57.1915 21.6853 57.0689 21.5324 56.9463 21.3794C56.8237 21.2265 56.6704 21.1042 56.5172 21.0124L56.4559 20.9818C56.3026 20.8595 56.1494 20.7677 55.9655 20.676C55.7816 20.5842 55.5977 20.523 55.4138 20.4619C55.2299 20.4007 55.046 20.3701 54.8315 20.3701C54.6476 20.3395 54.433 20.3395 54.2491 20.3701C54.0652 20.4007 53.8507 20.4313 53.6668 20.4925C53.4829 20.5536 53.299 20.6148 53.1151 20.7066C52.9312 20.7983 52.778 20.8901 52.6247 21.0124C52.4715 21.1348 52.3182 21.2571 52.1956 21.41C51.4601 22.2358 50.6938 23.184 49.9582 24.1627L48.5484 26.0285L29.791 26.3955Z" fill="#F5E149"/>
</g>
<defs>
<clipPath id="clip0_701_1915">
<rect width="59" height="59" fill="white"/>
</clipPath>
</defs>
</svg>
