<svg width="60" height="57" viewBox="0 0 60 57" fill="none" xmlns="http://www.w3.org/2000/svg">
<g clip-path="url(#clip0_701_1833)">
<path d="M8.42897 54.9535L8.43847 56.1757C8.43847 56.6022 8.03482 56.9473 7.52671 56.9521L1.04947 57C0.541353 57 0.128215 56.6598 0.128215 56.238L0 38.6535C0 38.2269 0.403641 37.8818 0.911753 37.877L7.389 37.8291C7.89711 37.8291 8.31025 38.1694 8.31025 38.5911L8.31975 39.866L8.42897 54.9535Z" fill="#F5E149"/>
<path d="M10.0248 39.176V54.8675C10.0248 55.2125 10.2765 55.5049 10.6184 55.548C11.3782 55.6439 12.6366 55.7973 12.9452 55.8068C20.1918 56.1136 26.8495 56.0177 30.4252 55.9698H30.7624C35.834 55.8787 38.631 55.8356 42.0121 54.9633C42.6864 54.7908 43.337 54.5559 44.0113 54.2492C45.1985 53.722 46.4379 52.9456 47.815 51.872C51.4478 49.0539 58.6326 42.6795 59.8293 38.7207C60.2757 37.259 59.8198 35.1837 58.8985 34.4504C58.6184 34.2252 58.1435 33.9855 57.2887 34.4888C55.8451 35.3514 54.544 36.3244 53.2808 37.259C50.8352 39.0802 48.5083 40.7912 45.4692 41.5916C45.5167 42.3249 45.3979 43.0677 45.1178 43.7867C44.1443 46.2597 41.3615 46.6144 40.445 46.7294C36.8123 47.1895 33.1035 47.1799 29.5087 47.1799C27.9749 47.1799 26.3888 47.1799 24.836 47.2135H24.817C24.3326 47.2135 23.948 46.7821 24.0192 46.2741C24.0762 45.8763 24.4371 45.5935 24.836 45.5839C26.3936 45.5504 27.9749 45.5504 29.504 45.5504C33.0465 45.5504 36.7078 45.5552 40.2361 45.1095C42.1166 44.8698 43.1898 44.2563 43.6124 43.178C43.8641 42.5358 43.9211 41.8696 43.7929 41.2417C43.7739 41.189 43.7644 41.1411 43.7549 41.0836C43.4367 39.8902 42.4775 39.1281 41.2238 39.0946C40.54 39.0802 39.8419 39.1569 39.1106 39.2336C38.2796 39.3246 37.4201 39.4157 36.5416 39.3726C33.2792 39.2144 30.6437 38.783 28.2551 38.0114C25.9567 37.259 23.4494 36.6215 21.189 36.2093C18.4347 35.7061 15.69 36.7653 12.8882 37.9922L10.02 39.1617L10.0248 39.176Z" fill="#F5E149"/>
<path d="M49.7711 3.85333C48.1138 1.34193 46.0718 0.0478939 43.7022 -3.34256e-05C38.868 -0.0815099 34.1906 5.13778 32.5285 7.20345C30.8712 5.13778 26.17 -0.0815099 21.3548 -3.34256e-05C18.9852 0.0478939 16.9432 1.34193 15.2859 3.85333C11.6722 9.32184 13.4909 16.3528 20.5428 24.1793C25.7331 29.945 31.8399 34.0763 32.0964 34.2489C32.2246 34.3351 32.3766 34.3783 32.5238 34.3783C32.671 34.3783 32.8229 34.3351 32.9511 34.2489C33.2076 34.0763 39.3144 29.9402 44.5048 24.1793C51.5566 16.348 53.3754 9.32184 49.7616 3.85333H49.7711ZM47.316 11.977C47.221 12.3221 46.9124 12.5473 46.5705 12.5473C46.504 12.5473 46.4327 12.5378 46.3663 12.5186C45.9531 12.4036 45.7157 11.977 45.8249 11.56C46.1668 10.3139 46.1336 9.06303 45.7442 8.05176C45.369 7.08842 44.4763 5.99568 43.3888 5.87107C42.9662 5.82314 42.6623 5.43493 42.7098 5.00837C42.7572 4.58182 43.1371 4.27509 43.5645 4.32301C45.2931 4.52431 46.6274 6.05319 47.1783 7.48143C47.6912 8.80901 47.7386 10.4002 47.3113 11.9722L47.316 11.977Z" fill="#F5E149"/>
</g>
<defs>
<clipPath id="clip0_701_1833">
<rect width="60" height="57" fill="white"/>
</clipPath>
</defs>
</svg>
