<svg width="60" height="60" viewBox="0 0 60 60" fill="none" xmlns="http://www.w3.org/2000/svg">
<g clip-path="url(#clip0_701_1588)">
<path d="M59.8212 14.3828C58.7872 13.0727 56.8854 12.8543 55.5812 13.8889C55.5812 13.8889 51.5074 17.1174 49.2366 18.9162C49.1691 18.9682 47.2361 17.2422 47.0439 17.0758C46.3164 16.4623 45.5889 15.8541 44.8615 15.2406C43.4741 14.0709 38.5378 10.2705 37.6856 9.72463C35.9813 8.63287 34.6406 8.15977 32.7492 7.48392C30.6552 6.73529 28.5819 5.92946 26.4983 5.13924C25.8799 4.90529 25.2616 4.67134 24.6432 4.43739C24.2899 4.30222 23.9366 4.17225 23.5832 4.03708C22.6427 3.68356 21.5879 3.81873 20.7669 4.401L12.2712 10.4421C10.9098 11.4091 10.5928 13.2962 11.5593 14.6531C12.5258 16.0152 14.412 16.3324 15.7682 15.3654C15.7682 15.3654 21.0735 11.591 22.9493 10.2601C24.2483 10.7488 27.4492 12.3656 30.1304 13.5718L20.5695 28.217C19.7952 29.8598 19.6913 31.3831 20.2577 32.7556C21.4216 35.5785 25.0745 37.0602 25.9163 37.3669C25.9163 37.3669 31.4138 39.4725 35.4149 41.0789C34.0639 44.8221 31.7828 51.0191 31.7828 51.0191C31.7724 51.0451 31.7672 51.0711 31.7568 51.0971C31.1021 53.0363 32.1153 55.1574 34.0483 55.8541C36.0072 56.5611 38.174 55.5473 38.8807 53.5874L43.5728 40.7202C43.5728 40.7202 43.5884 40.6682 43.5988 40.6422C44.1652 38.963 43.4845 37.107 41.962 36.192C41.962 36.192 37.6492 33.6758 33.4196 31.1439C33.5962 30.806 37.2179 24.7233 40.081 19.9248L47.2309 25.1288C48.3273 26.0542 49.9225 26.075 51.0501 25.186L59.3276 18.6303C60.637 17.5957 60.8552 15.6929 59.8212 14.3828Z" fill="#F5E149"/>
<path d="M42.2291 11.479C45.3104 12.5188 48.6515 10.8655 49.6959 7.77742C50.7352 4.6945 49.0828 1.34644 45.9963 0.306668C42.915 -0.733104 39.5738 0.920133 38.5294 4.00825C37.4902 7.09117 39.1426 10.434 42.2291 11.479Z" fill="#F5E149"/>
<path d="M18.1761 30.2781L0.73265 53.9849C-0.504035 55.6641 -0.140304 58.0296 1.53805 59.2669C3.21641 60.5042 5.58066 60.1403 6.81735 58.4611L24.5622 37.8424C23.258 37.3433 21.1691 36.1424 19.8545 34.6399C18.7061 33.3246 18.145 31.8481 18.1709 30.2781H18.1761Z" fill="#F5E149"/>
</g>
<defs>
<clipPath id="clip0_701_1588">
<rect width="60" height="60" fill="white"/>
</clipPath>
</defs>
</svg>
