<svg width="60" height="57" viewBox="0 0 60 57" fill="none" xmlns="http://www.w3.org/2000/svg">
<path d="M12.6296 2.53466C13.0066 2.93496 12.988 3.56643 12.5877 3.945L12.355 4.16376C11.9531 4.54078 11.3217 4.52217 10.9446 4.12187L8.85009 1.90009C8.47307 1.4998 8.49169 0.868327 8.89198 0.489755L9.12471 0.270989C9.52655 -0.106031 10.158 -0.0874145 10.535 0.312879L12.6296 2.53466Z" fill="#F5E149"/>
<path d="M45.7394 10.9689C45.7564 10.899 45.6742 10.8478 45.6184 10.8944C45.4198 11.0588 45.2537 11.003 45.0427 11.0775C44.675 11.2062 44.208 11.3412 43.6402 11.4793C43.5021 11.5119 43.4136 11.5398 43.3733 11.5631C43.1607 11.681 42.9342 11.6003 42.7341 11.7276C42.6596 11.7757 42.5758 11.7943 42.4812 11.7865C42.2903 11.7694 42.0297 11.8967 41.8357 11.9355C41.7008 11.9634 41.5953 12.0704 41.5704 12.2054C41.5053 12.5514 41.1732 14.0704 40.5728 16.7638C40.4037 17.5225 39.9631 17.9585 39.254 18.0733C38.2176 18.2424 37.3456 18.2998 36.6366 18.2486C35.8282 18.1897 35.2371 18.1493 34.8616 18.1276C34.812 18.1245 34.7639 18.1152 34.7158 18.0997C34.3326 17.9724 33.8392 17.9973 33.4218 17.9166C30.3964 17.3379 27.4329 16.424 24.5331 15.175C23.9327 14.9175 23.4843 14.5218 23.2655 13.9711C23.1725 13.7337 23.2469 13.2139 23.3369 12.8865C23.6457 11.7632 23.9436 10.5313 24.2275 9.18926C24.2725 8.97825 24.3283 8.79207 24.3951 8.63226C24.4292 8.55158 24.4013 8.45849 24.3283 8.41039C23.1011 7.58033 21.7497 6.64321 20.2742 5.60058C19.1431 4.8 19.7932 3.72634 20.87 3.46258C25.3244 2.37186 28.3344 1.64575 29.8999 1.28424C31.4716 0.921186 32.8291 0.584503 33.9711 0.274198C34.2845 0.188865 34.5684 0.139219 34.8229 0.126806C35.445 0.095776 36.0067 0.469694 36.4985 0.849817C38.8677 2.67751 42.5308 5.45629 47.4848 9.18771C47.7253 9.36924 47.8867 9.72298 47.9705 10.249C47.9829 10.3234 47.9798 10.401 47.9596 10.4755L46.2809 17.0865C46.2576 17.1781 46.2669 17.2743 46.3057 17.3596C46.6625 18.1369 46.9294 18.6939 46.8177 19.7039C46.7386 20.4176 46.5756 21.1515 46.3259 21.9071C45.8821 23.2507 44.0839 22.8892 43.1747 22.3648C42.7279 22.1073 42.5494 21.6883 42.6379 21.1065C42.7915 20.112 42.9823 19.2726 43.2104 18.5915C43.3873 18.0655 43.6355 17.6404 43.9536 17.3146C44.1227 17.1424 44.2515 16.9857 44.3399 16.8429C44.3477 16.829 44.3539 16.815 44.357 16.801L45.7394 10.9689Z" fill="#F5E149"/>
<path d="M53.185 1.73398C53.5822 2.13738 53.5775 2.78592 53.1741 3.18156L50.8918 5.43282C50.49 5.83001 49.8414 5.82536 49.4442 5.42196L49.2782 5.25439C48.881 4.851 48.8857 4.20246 49.2891 3.80682L51.5714 1.55556C51.9732 1.15837 52.6218 1.16302 53.0189 1.56642L53.185 1.73398Z" fill="#F5E149"/>
<path d="M9.99251 11.0738C9.98941 11.6386 9.5286 12.0947 8.96385 12.0932L5.72736 12.0761C5.16261 12.073 4.70646 11.6122 4.70801 11.0475V10.824C4.71111 10.2593 5.17192 9.80314 5.73823 9.80469L8.9747 9.82176C9.53946 9.82486 9.99561 10.2857 9.99406 10.8504V11.0738H9.99251Z" fill="#F5E149"/>
<path d="M56.5382 13.915C56.5382 14.4999 56.0634 14.9746 55.4785 14.9746H52.3351C51.7502 14.9746 51.2754 14.4999 51.2754 13.915V13.735C51.2754 13.1501 51.7502 12.6753 52.3351 12.6753H55.4785C56.0634 12.6753 56.5382 13.1501 56.5382 13.735V13.915Z" fill="#F5E149"/>
<path d="M10.3801 20.1349C9.95191 20.5631 9.25683 20.5646 8.82705 20.138L8.74948 20.062C8.31971 19.6337 8.3197 18.9386 8.74637 18.5089L10.5182 16.7308C10.9464 16.3026 11.6415 16.3011 12.0713 16.7277L12.1489 16.8037C12.5786 17.232 12.5786 17.9271 12.152 18.3568L10.3801 20.1349Z" fill="#F5E149"/>
<path d="M1.88711 20.8377C2.04692 20.7477 2.26103 20.6732 2.53255 20.6143C2.93129 20.5258 3.15936 20.4793 3.21987 20.4731C3.48828 20.4452 3.68998 20.4483 3.82497 20.4809C4.13217 20.5553 4.38507 20.5429 4.61779 20.6407C5.21668 20.8905 5.62629 21.1635 5.8466 21.4599C6.65805 22.5537 9.31892 26.3689 13.8323 32.9055C13.913 33.0218 14.0697 33.2018 14.3024 33.4454C14.4545 33.6052 14.9711 34.0427 15.8524 34.7595C17.8771 36.4073 19.7886 37.9557 21.5853 39.4063C21.6396 39.4513 21.7016 39.487 21.7668 39.515C22.1997 39.6934 22.8808 39.9199 23.8102 40.1914C25.8721 40.795 27.8379 41.6592 29.7106 42.7871C29.8347 42.8616 29.9914 42.8585 30.114 42.7809C32.3808 41.3395 34.8167 40.404 37.3937 39.6654C37.6544 39.591 37.9073 39.4203 38.078 39.3257C38.275 39.2155 38.7746 38.8354 39.5767 38.1853C41.9645 36.2474 43.7674 34.7518 44.9822 33.7014C46.0016 32.8217 46.8534 31.3229 47.5236 30.5006C48.0574 29.8459 48.5321 29.1182 48.965 28.5441C50.9106 25.9577 52.3722 23.9671 53.3481 22.5692C53.8461 21.8555 54.2511 21.3963 54.5645 21.193C55.0842 20.8548 55.6692 20.6732 56.3161 20.65C57.4798 20.6081 58.4262 21.0239 59.1554 21.9005C60.2756 23.2457 60.1996 24.8127 59.4068 26.2913C57.5512 29.7497 55.1882 33.8379 52.3194 38.5577C51.9858 39.1069 51.7345 39.5025 51.5654 39.743C50.9556 40.6103 49.9052 41.8453 49.311 42.6102C46.163 46.6675 44.2313 49.1561 43.5145 50.0746C43.4199 50.1956 43.3687 50.343 43.3671 50.4951C43.3594 51.3252 43.3625 52.8534 43.3749 55.0798C43.3749 55.1683 43.2632 55.3839 43.0382 55.7268C43.0118 55.7672 42.9761 55.8013 42.9327 55.823L42.4145 56.0899C42.3695 56.1132 42.3198 56.1271 42.2702 56.1318C42.1212 56.1457 41.8249 56.1519 41.3796 56.1519C32.9719 56.1473 25.2019 56.1488 18.068 56.1566C16.8143 56.1582 16.5537 55.3901 16.5692 54.2622C16.5769 53.6695 16.5754 52.4686 16.5645 50.658C16.563 50.4299 16.487 50.2189 16.3349 50.0234C12.6733 45.3176 10.1691 42.1076 8.82397 40.39C7.96288 39.2915 7.2709 38.3032 6.74804 37.4266C4.35714 33.4237 2.3324 29.8288 0.652098 26.3037C0.33869 25.6443 0.147854 25.1292 0.0811382 24.7553C-0.233821 23.0036 0.368168 21.6988 1.88711 20.8377Z" fill="#F5E149"/>
<path d="M27.0047 37.7108C23.0607 36.378 21.0111 32.3301 21.7186 28.3148C22.1329 25.9642 23.4408 23.9193 25.4966 22.6657C28.3964 20.8969 31.9106 21.1312 34.7126 23.0504C36.8925 24.5445 38.1182 27.2287 38.2051 29.8275C38.2315 30.5924 38.1089 31.4643 37.8374 32.4449C37.2013 34.7458 35.2557 36.7659 33.0928 37.5929C31.2838 38.2848 28.9037 38.3531 27.0047 37.7108Z" fill="#F5E149"/>
</svg>
