<svg width="50" height="61" viewBox="0 0 50 61" fill="none" xmlns="http://www.w3.org/2000/svg">
<path d="M20.3816 18.1334C18.7651 17.6229 17.3984 18.4925 16.1887 20.0286C15.1879 21.2993 13.979 22.4057 12.8504 23.5735C12.3498 24.0913 11.7712 24.4993 11.0325 24.5898C9.9398 24.7237 9.1443 24.3596 8.6985 23.5412C8.16933 22.5695 8.23147 21.2958 8.95788 20.5128C11.0429 18.2665 13.1685 16.0588 15.2678 13.8265C16.3053 12.7232 17.667 12.6281 19.0415 12.5326C21.9942 12.3276 24.9461 12.116 27.8981 11.8971C28.5712 11.847 29.2239 11.9382 29.8453 12.175C30.889 12.5726 31.9176 13.0093 32.952 13.4301C34.4315 14.0323 35.5709 15.0001 36.4671 16.3573C37.7146 18.2463 39.1095 20.0368 40.4137 21.8894C40.682 22.2702 40.8024 22.1848 41.061 21.901C42.5705 20.2449 44.0878 18.595 45.624 16.9641C46.5102 16.023 47.5905 15.7594 48.5277 16.1907C49.4853 16.6314 50.077 17.633 49.9917 18.6947C49.9442 19.2864 49.701 19.8093 49.3042 20.236C47.061 22.6472 44.8227 25.0634 42.5485 27.4447C41.384 28.6637 39.8737 28.6502 38.6857 27.4626C37.4081 26.1854 36.1313 24.9054 34.9035 23.5804C34.4292 23.0684 34.2076 23.1693 33.8556 23.6841C32.1118 26.2343 30.3359 28.7623 28.5782 31.3032C28.1134 31.9748 28.1378 32.2769 28.7434 32.8499C30.4536 34.4687 32.172 36.0783 33.8988 37.6793C35.1224 38.8137 36.3768 39.9146 37.5957 41.054C39.1462 42.504 39.2342 44.423 37.8033 45.9879C35.9051 48.0641 33.9725 50.1088 32.0616 52.1737C30.5856 53.7681 29.1123 55.3649 27.6537 56.9756C26.9439 57.7598 26.1152 58.299 25.0357 58.2361C23.2475 58.1317 22.2026 56.1805 23.0344 54.5096C23.6238 53.3259 24.6026 52.4327 25.4336 51.4334C27.2763 49.2178 29.1455 47.024 31.0245 44.8395C31.3533 44.4571 31.1051 44.3399 30.8458 44.1749C28.8796 42.9264 26.9154 41.6748 24.9461 40.4313C22.8418 39.1025 20.7108 37.8152 18.632 36.4479C15.7966 34.5833 15.3917 31.4849 17.5906 28.9006C17.635 28.8481 17.6751 28.7895 17.7284 28.748C19.6706 27.2223 20.6946 25.0949 21.5974 22.8704C22.1741 21.4495 22.8333 20.062 23.4821 18.6722C23.6751 18.2584 23.6512 18.1085 23.1525 18.1264C22.3551 18.1551 21.5561 18.1342 20.3808 18.1342L20.3816 18.1334Z" fill="#F5E149"/>
<path d="M2.49372 61C0.779599 61.0082 -0.445872 59.0597 0.154705 57.3135C0.435309 56.4975 1.06136 55.9443 1.59516 55.3305C4.40005 52.1068 7.1864 48.8648 10.0693 45.7121C11.4784 44.1709 12.2276 42.2791 13.2169 40.5123C14.0548 39.0158 14.838 37.4881 15.6254 35.9636C15.8562 35.5164 16.0175 35.4057 16.3576 35.8848C16.8381 36.5618 17.4738 37.0914 18.1697 37.5398C19.3396 38.2933 20.511 39.0449 21.6886 39.7856C22.0217 39.9952 22.217 40.1637 21.8936 40.5748C19.3516 43.8036 17.0898 47.2487 14.137 50.1576C10.8663 53.3794 7.73178 56.7413 4.54247 60.047C3.9774 60.6324 3.32318 60.9989 2.49372 61.0008V61Z" fill="#F5E149"/>
<path d="M35.8011 0C39.371 0 42.3554 2.94384 42.3291 6.48127C42.3021 10.1053 39.5705 12.914 35.9705 12.9594C32.4238 13.0041 29.4499 9.96628 29.4182 6.45254C29.3862 2.93569 32.2903 0 35.8011 0Z" fill="#F5E149"/>
<path d="M16.0239 4.58063C16.6712 4.91682 17.2571 5.18741 17.921 5.28524C19.2059 5.47469 20.3137 5.14509 21.252 4.25996C21.834 3.71102 22.367 3.11007 22.9526 2.56501C24.6543 0.98109 27.3967 0.63713 29.3103 2.31966C29.6554 2.62285 29.8056 2.89344 29.5551 3.30844C29.5199 3.36668 29.4875 3.4319 29.4759 3.49789C29.308 4.44553 28.8495 5.07289 27.856 5.3524C27.0694 5.57368 26.5595 6.28296 26.0562 6.89634C24.417 8.8941 20.3634 9.59056 17.8145 7.58426C16.8611 6.83422 16.0988 5.96539 16.0243 4.58063H16.0239Z" fill="#F5E149"/>
</svg>
