<svg width="40" height="60" viewBox="0 0 40 60" fill="none" xmlns="http://www.w3.org/2000/svg">
<g clip-path="url(#clip0_701_1758)">
<path d="M11.4765 20.098C12.2262 21.1002 12.4902 22.5215 12.5107 23.9396C12.5719 28.1331 12.5625 31.2039 12.4792 33.1537C12.4446 33.9417 12.1979 34.8111 11.739 35.7586C8.13362 43.259 4.89602 49.8619 2.02148 55.572C1.52169 56.568 1.48398 57.5046 1.90832 58.3848C2.65171 59.9187 4.92746 60.5598 6.30736 59.3933C6.6987 59.0587 7.11204 58.5271 7.54425 57.8016C12.4336 49.5664 15.9227 43.7468 18.0083 40.3476C18.5191 39.5127 19.1807 39.0968 19.9886 39.0968C20.7964 39.0968 21.4549 39.5127 21.9688 40.3476C24.056 43.7499 27.5403 49.5695 32.4234 57.8079C32.8556 58.5334 33.2658 59.0666 33.6603 59.3996C35.0418 60.566 37.316 59.9281 38.0594 58.3942C38.4837 57.5139 38.446 56.5774 37.9462 55.5814C35.0779 49.8713 31.8403 43.2652 28.2381 35.7617C27.7824 34.8142 27.5356 33.9449 27.501 33.1568C27.4193 31.2071 27.4083 28.1362 27.4743 23.9428C27.4947 22.5246 27.7619 21.1034 28.5132 20.1011C30.319 17.6838 33.9401 12.3631 39.3858 4.1403C40.0852 3.08646 40.1842 2.09517 39.6844 1.1711C39.6231 1.05853 39.5477 0.952207 39.4581 0.86152C38.677 0.0437792 37.7859 -0.1845 36.7847 0.176682C36.3023 0.353364 35.6374 1.04289 34.7966 2.23902C32.6749 5.27701 29.9308 8.87632 26.5628 13.0354C25.7156 14.0814 24.8937 14.6959 24.0984 14.8726C23.9853 14.896 23.8689 14.921 23.7526 14.9445C23.4446 15.0023 22.1936 15.0336 19.9933 15.0336C17.793 15.0336 16.5388 15.0023 16.2339 14.9445C16.1176 14.921 16.0013 14.896 15.8881 14.8694C15.0929 14.6928 14.2709 14.0783 13.4238 13.0323C10.0589 8.87319 7.31479 5.27076 5.19306 2.23276C4.36009 1.03195 3.69843 0.34711 3.21436 0.165737C2.21479 -0.195445 1.32367 0.0328342 0.542559 0.850575C0.452975 0.942825 0.377536 1.04758 0.316241 1.16016C-0.186686 2.08422 -0.0876719 3.07552 0.611711 4.12936C6.05275 12.3552 9.67226 17.676 11.4781 20.0964L11.4765 20.098Z" fill="#F5E149"/>
<path d="M21.7073 12.9951C24.7369 12.0557 26.4275 8.85084 25.4833 5.83676C24.5391 2.82268 21.3176 1.14079 18.2879 2.08015C15.2583 3.01951 13.5677 6.2244 14.5119 9.23848C15.4561 12.2526 18.6776 13.9344 21.7073 12.9951Z" fill="#F5E149"/>
</g>
<defs>
<clipPath id="clip0_701_1758">
<rect width="40" height="60" fill="white"/>
</clipPath>
</defs>
</svg>
