<svg width="60" height="68" viewBox="0 0 60 68" fill="none" xmlns="http://www.w3.org/2000/svg">
<g clip-path="url(#clip0_701_2016)">
<path d="M4.5949 64.1435C4.5949 63.197 4.5949 62.5128 4.5949 61.8287C4.5949 42.0589 4.5949 22.2876 4.5949 2.51788C4.59595 0.841377 5.42153 0.00208262 7.07164 0C20.9686 0 34.8672 0 48.7642 0H50.7913C50.8665 0.973102 50.9793 1.76658 50.9809 2.56006C50.9903 22.5047 50.9887 42.4479 50.9887 62.3926C50.9887 62.958 50.9887 63.525 50.9887 64.1388C52.0509 64.1388 53.0817 64.1154 54.1125 64.1451C55.6242 64.1873 56.0049 64.5778 56.0017 65.9991C55.9986 67.4346 55.4879 67.9453 54.0012 67.9938C53.7114 68.0031 53.42 67.9969 53.1287 67.9969C36.3241 67.9969 19.5196 67.9969 2.71503 67.9969C2.42364 67.9969 2.13226 68.0094 1.84245 67.9938C0.471704 67.9235 0.0142674 67.433 0.00173493 66.0288C-0.0107976 64.7464 0.410608 64.2529 1.72966 64.156C2.59127 64.0935 3.46071 64.1435 4.59647 64.1435H4.5949ZM32.7962 53.7127C29.7383 53.7127 26.8464 53.7174 23.9529 53.7096C23.1274 53.7081 22.8376 54.1345 22.8423 54.9092C22.8595 57.1678 22.8485 59.4264 22.8501 61.6834C22.8501 62.4191 22.8501 63.1548 22.8501 63.9264H32.7962V53.7127ZM43.1919 9.59982C41.2557 9.59982 39.4196 9.57951 37.5852 9.61231C37.0322 9.62169 36.7878 10.0434 36.8176 10.5729C36.9319 12.6738 37.0588 14.7746 37.192 17.0426C39.3382 17.0707 41.2619 17.1488 43.1935 17.0051V9.60138L43.1919 9.59982ZM18.1629 13.3907H18.1661C18.1661 12.5269 18.1504 11.6632 18.1708 10.7994C18.1896 10.0169 17.8261 9.59669 17.0507 9.58732C15.6643 9.57014 14.2778 9.5842 12.8914 9.58732C12.3447 9.58732 11.9813 9.86379 11.9734 10.4058C11.9452 12.3051 11.939 14.206 11.9672 16.1054C11.9766 16.6989 12.3447 17.0551 12.9745 17.0582C14.3609 17.0629 15.7473 17.0582 17.1337 17.0597C17.8606 17.0597 18.1723 16.6849 18.1645 15.982C18.1551 15.1182 18.1629 14.2545 18.1629 13.3907ZM12.434 44.191C13.5776 44.191 14.6068 44.2004 15.6361 44.1879C16.6559 44.1754 17.6757 44.1426 18.7488 44.116V37.484C16.5917 37.3824 14.5504 37.3699 12.4356 37.4933V44.191H12.434ZM31.1075 30.577C31.1075 28.4386 31.1059 26.4877 31.1075 24.5353C31.1075 23.823 30.7518 23.4732 30.0469 23.4716C28.7169 23.4669 27.3869 23.4341 26.0584 23.4747C25.1075 23.5044 24.896 23.7418 24.8741 24.7727C24.8412 26.3284 24.8537 27.8857 24.8741 29.4414C24.8788 29.8194 24.9994 30.1943 25.0683 30.577H31.1059H31.1075ZM37.264 23.8246V30.6426C38.3512 30.6426 39.3303 30.6519 40.3095 30.6394C41.2729 30.6285 42.2348 30.5957 43.2985 30.5707C43.2985 29.1025 43.3141 27.8326 43.2953 26.5643C43.2546 23.7106 43.9784 23.3638 40.1779 23.4747C39.2191 23.5028 38.2024 23.1951 37.264 23.8246ZM18.7285 30.5551V23.4919C16.8815 23.4919 15.1567 23.4685 13.435 23.506C12.8977 23.5185 12.6251 23.9339 12.622 24.4588C12.611 26.4628 12.6173 28.4668 12.6173 30.5535H18.7285V30.5551ZM31.037 37.4168C29.8808 37.4168 28.9002 37.3715 27.9273 37.4293C26.9749 37.4871 25.9691 37.1419 25.0401 37.7245V44.0848H31.037V37.4152V37.4168ZM43.1857 37.4871C41.1366 37.4012 39.205 37.3371 37.2421 37.5183V44.0832H43.1857V37.4871ZM30.1252 16.7083C30.1252 14.5622 30.1393 12.5535 30.1174 10.5448C30.1111 9.89034 29.5989 9.64043 29.0537 9.62168C27.7785 9.57639 26.5017 9.57795 25.2266 9.61544C24.6485 9.63262 24.2334 9.95907 24.2334 10.5995C24.2334 12.605 24.2459 14.609 24.2537 16.7083H30.1252Z" fill="#F5E149"/>
</g>
<defs>
<clipPath id="clip0_701_2016">
<rect width="56" height="68" fill="white"/>
</clipPath>
</defs>
</svg>
