<svg width="60" height="47" viewBox="0 0 60 47" fill="none" xmlns="http://www.w3.org/2000/svg">
<g clip-path="url(#clip0_701_12)">
<path d="M33.2404 29.629C33.2136 29.5349 33.17 29.4845 33.1667 29.4307C33.1231 28.8595 33.1231 28.8662 32.5431 28.8561C31.591 28.8393 30.6389 28.799 29.6868 28.7856C29.3717 28.7822 29.2979 28.5739 29.2342 28.3421C28.7548 26.5881 27.9804 24.9888 26.8909 23.5238C25.6773 21.8942 24.2089 20.5569 22.4757 19.522C21.4129 18.8836 20.2731 18.3998 19.0897 18.0301C18.503 17.8453 18.4997 17.8319 18.9522 17.3615C20.4541 15.7957 21.9627 14.2367 23.4714 12.6743C23.5954 12.5466 23.7194 12.4223 23.8435 12.298C23.6658 12.261 23.4915 12.214 23.3138 12.1837C22.3516 12.0258 21.3861 11.8746 20.424 11.72C20.2932 11.6999 20.1524 11.6931 20.0351 11.6394C19.5423 11.421 19.2238 11.6831 18.8986 12.0056C17.2257 13.6655 15.5528 15.3253 13.8632 16.9717C13.3972 17.4253 12.8508 17.7748 12.1769 17.8185C11.0438 17.889 9.75308 16.9482 9.73632 15.6815C9.72626 14.8852 10.0246 14.277 10.5543 13.736C11.5735 12.6911 12.5859 11.6461 13.6051 10.6045C14.6678 9.51249 15.7339 8.42721 16.7899 7.33184C17.3062 6.79423 17.8962 6.49519 18.6639 6.54559C19.5356 6.60271 20.4139 6.59599 21.2889 6.63295C22.3449 6.67663 23.4043 6.71359 24.4603 6.79087C25.446 6.86479 26.4282 6.9992 27.4139 7.08992C27.7323 7.12016 28.0575 7.06976 28.376 7.1C29.2812 7.184 30.2031 7.24112 30.944 7.86944C31.1116 8.01056 31.2457 8.192 31.3899 8.35664C31.7553 8.76993 32.0838 9.22353 32.4861 9.59313C33.1734 10.2282 33.8808 10.8431 34.6217 11.4075C36.023 12.4693 36.1705 14.2535 35.0374 15.5202C34.2261 16.4274 33.3779 17.3077 32.5364 18.1881C31.172 19.6194 29.7941 21.0374 28.4297 22.4687C28.3559 22.546 28.3257 22.6636 28.2754 22.7611C28.3827 22.7611 28.49 22.7611 28.5939 22.7678C28.8923 22.7913 29.1907 22.8383 29.4857 22.8417C30.716 22.8484 31.9497 22.835 33.1834 22.8484C34.8664 22.8619 35.909 23.6716 36.5191 25.1803C36.7069 25.644 36.7102 26.1816 36.794 26.6889C36.9751 27.7843 37.1494 28.883 37.3371 29.9784C37.4243 30.4925 37.545 30.9998 37.6389 31.5106C37.6824 31.7458 37.8199 31.8096 38.0378 31.8062C38.601 31.7995 39.1676 31.7894 39.7308 31.8096C39.9688 31.8163 40.0962 31.739 40.1834 31.524C40.5354 30.6638 41.0651 29.9011 41.6685 29.2123C42.3357 28.4529 43.0766 27.7675 43.9616 27.2333C44.9774 26.6217 46.0536 26.1513 47.2034 25.9564C48.2259 25.7851 49.2987 25.7078 50.3279 25.8019C52.1316 25.9699 53.7977 26.6016 55.2661 27.7205C56.6373 28.7688 57.7537 30.0221 58.4845 31.5845C58.9538 32.5891 59.3192 33.6375 59.3662 34.7698C59.3829 35.1629 59.5204 35.5527 59.507 35.9424C59.4265 38.3012 58.803 40.4684 57.3346 42.3735C55.9836 44.1274 54.2604 45.3203 52.1718 45.9788C51.3605 46.2342 50.5157 46.3215 49.6507 46.3249C48.4405 46.3249 47.2571 46.2611 46.1038 45.8545C44.9908 45.4614 43.9985 44.8801 43.0665 44.1577C41.7758 43.1598 40.8405 41.893 40.1432 40.4381C39.7442 39.6049 39.4358 38.7346 39.3285 37.8039C39.295 37.5284 39.2413 37.2528 39.1743 36.9807C39.1173 36.7556 38.9363 36.732 38.7284 36.732C36.8812 36.7388 35.0307 36.7455 33.1834 36.732C32.2448 36.7253 31.3061 36.685 30.364 36.6581C30.2735 36.6581 30.1729 36.6312 30.0958 36.6615C29.717 36.8194 29.6533 36.554 29.7103 36.3188C29.9282 35.3679 29.9517 34.4002 30.0087 33.4325C30.0321 33.0192 30.0757 32.6059 30.0824 32.1893C30.0858 31.897 30.2098 31.7861 30.4948 31.7894C31.3798 31.7962 32.2649 31.7894 33.1533 31.7962C33.455 31.7962 33.6025 31.7894 33.4952 31.3829C33.3477 30.8285 33.3242 30.2438 33.2471 29.6323M54.9242 40.4381C54.961 40.3743 54.9912 40.3105 55.0348 40.2533C55.8293 39.2117 56.2685 38.0189 56.4127 36.7388C56.5266 35.7207 56.4026 34.7026 56.0741 33.7215C55.6282 32.3875 54.8839 31.272 53.7676 30.3984C52.6546 29.5282 51.3873 29.0275 50.0095 28.8797C48.7489 28.7419 47.532 29.0376 46.3922 29.6122C45.43 30.096 44.6153 30.7546 43.9482 31.6013C43.9113 31.6483 43.8879 31.7726 43.9013 31.7794C43.9851 31.823 44.079 31.8701 44.1695 31.8701C44.7897 31.8533 45.4099 31.7726 46.0234 31.8163C46.3754 31.8398 46.7643 31.9843 47.0492 32.196C47.4716 32.5152 47.817 32.9386 48.1958 33.3183C48.7959 33.9197 49.3893 34.5245 49.9961 35.1192C50.4084 35.5224 50.6263 35.9828 50.5794 36.5808C50.5257 37.2226 49.7681 37.861 49.1479 37.7468C48.5947 37.6426 48.2058 37.2864 47.8438 36.8967C47.3342 36.3524 46.8648 35.7744 46.3352 35.2503C46.0837 35.0016 45.7518 34.716 45.4266 34.6791C44.5349 34.5783 43.6297 34.5917 42.7279 34.5917C42.6206 34.5917 42.4631 34.7799 42.4128 34.9109C42.0842 35.8013 42.2351 36.7186 42.4228 37.5956C42.8117 39.4268 43.7605 40.9287 45.316 42.0174C46.2178 42.649 47.2135 43.0892 48.2863 43.1967C49.0842 43.2774 49.9055 43.3076 50.7269 43.0926C51.5147 42.891 52.2422 42.602 52.9429 42.2022C53.7106 41.7654 54.2704 41.0933 54.9208 40.4449L54.9242 40.4381ZM25.1711 42.387C24.3497 43.2438 23.5351 44.0703 22.5528 44.6919C21.4733 45.374 20.3536 45.9889 19.0997 46.3047C18.5768 46.4358 18.0605 46.5971 17.5341 46.7113C17.105 46.8054 16.6692 46.8726 16.2334 46.9163C15.7573 46.9633 15.2779 47.0137 14.8019 46.9902C13.7325 46.9398 12.6664 46.8625 11.607 46.6374C10.5174 46.4089 9.46812 46.0763 8.49591 45.5857C7.54381 45.1052 6.67217 44.45 5.79047 43.8385C4.45619 42.9178 3.48733 41.6511 2.64921 40.2937C1.86809 39.0303 1.28811 37.6796 0.949511 36.2112C0.641085 34.8672 0.449994 33.5232 0.513691 32.1523C0.547216 31.4702 0.728249 30.7982 0.805355 30.1195C0.915987 29.1149 1.22106 28.1673 1.66359 27.2702C2.10946 26.3731 2.54528 25.4592 3.09509 24.6259C3.57114 23.9035 4.16788 23.2449 4.77467 22.6199C5.73683 21.6321 6.85655 20.819 8.09361 20.2242C9.10605 19.737 10.1621 19.3002 11.2449 19.0079C12.1769 18.7559 13.1558 18.5846 14.1482 18.6551C14.6074 18.6887 15.0701 18.6551 15.5327 18.6618C17.095 18.6854 18.5768 19.0785 20.0083 19.6698C21.0274 20.0932 21.9896 20.6274 22.888 21.2793C23.8938 22.0118 24.7587 22.882 25.5666 23.8228C26.3142 24.6931 26.921 25.654 27.4139 26.6856C27.9435 27.791 28.3458 28.9368 28.5503 30.1531C28.7213 31.1746 28.9057 32.1926 28.8387 33.2309C28.7917 33.9768 28.614 34.7127 28.5503 35.4586C28.4632 36.4599 28.138 37.3872 27.7659 38.3012C27.3066 39.4301 26.7199 40.4919 25.9522 41.4462C25.7041 41.7553 25.446 42.0577 25.1711 42.3836M4.42937 36.3087C4.59364 36.7052 4.73444 37.1117 4.92218 37.4914C5.57591 38.8052 6.38721 40.0148 7.53375 40.9489C8.16401 41.463 8.82445 41.9569 9.53182 42.3534C10.6918 43.0052 11.9523 43.3345 13.2765 43.5562C14.3627 43.7377 15.4154 43.6772 16.4614 43.5025C17.2861 43.3647 18.0772 43.022 18.8785 42.7532C20.0217 42.3702 20.9939 41.6881 21.8789 40.8917C23.1261 39.7695 24.0782 38.4322 24.695 36.8564C25.1308 35.7375 25.4594 34.5984 25.4527 33.3922C25.4493 32.6026 25.3655 31.813 25.3052 31.0267C25.2314 30.0658 24.9096 29.1686 24.5274 28.3017C23.8401 26.7427 22.7841 25.4424 21.4733 24.3739C19.8608 23.0567 17.9767 22.2907 15.9216 22.0924C14.6812 21.9715 13.414 21.9849 12.1669 22.2907C10.5275 22.6939 9.03565 23.3961 7.76842 24.4948C6.51795 25.5768 5.47869 26.8435 4.8082 28.3891C4.33885 29.471 4.04048 30.5966 3.91309 31.7525C3.82592 32.5387 3.89297 33.3552 3.98349 34.1482C4.06395 34.8504 4.27516 35.5392 4.42937 36.312V36.3087ZM33.569 1.62316C34.4876 0.732753 35.5536 0.225389 36.8008 0.0540279C38.4334 -0.174454 39.818 0.33291 41.0517 1.36444C42.0641 2.21116 42.5972 3.33005 42.7916 4.60686C43.0732 6.46159 42.4262 8.01392 41.0986 9.27393C40.3644 9.97282 39.4593 10.3928 38.4401 10.5675C36.965 10.8229 35.614 10.5071 34.4104 9.66705C33.3142 8.90097 32.5834 7.81232 32.2716 6.51871C31.8257 4.6875 32.3118 3.05453 33.5723 1.62316H33.569ZM11.959 29.6088C12.4887 29.3366 12.9815 29.0275 13.5145 28.8393C14.2823 28.5739 15.0835 28.6142 15.8546 28.8595C16.743 29.1417 17.4839 29.6626 17.98 30.4589C18.7042 31.6214 18.9355 32.8747 18.4058 34.1784C17.7923 35.6871 16.686 36.5976 15.0433 36.8093C13.1994 37.0479 11.6707 35.9189 10.9801 34.5883C10.1084 32.9083 10.4638 31.0872 11.7746 29.7936C11.8283 29.7398 11.8819 29.6861 11.959 29.6088Z" fill="#F5E149"/>
</g>
<defs>
<clipPath id="clip0_701_12">
<rect width="59" height="47" fill="white" transform="translate(0.5)"/>
</clipPath>
</defs>
</svg>
